<?xml version="1.0" encoding="utf-8"?>
<!-- Generator: Adobe Illustrator 28.1.0, SVG Export Plug-In . SVG Version: 6.00 Build 0)  -->
<svg version="1.1" id="Layer_1" xmlns="http://www.w3.org/2000/svg" xmlns:xlink="http://www.w3.org/1999/xlink" x="0px" y="0px"
	 width="159px" height="75.6px" viewBox="0 0 159 75.6" style="enable-background:new 0 0 159 75.6;" xml:space="preserve">
<style type="text/css">
	.st0{fill:#231F20;}
	.st1{fill:none;stroke:#231F20;stroke-width:1.0447;stroke-linecap:round;stroke-linejoin:round;stroke-miterlimit:10;}
</style>
<g>
	<g>
		<path class="st0" d="M33.3,32.9l0,1.7c-1.3,1.7-2.2,3.3-2.7,4.8c-0.5,1.5-0.8,3.2-0.8,5.1l0,1.4l-2.6,0l0-1.4c0-1.9,0.2-3.5,0.6-5
			c0.4-1.4,1.1-2.8,2-4.1l-5,0l0-2.4L33.3,32.9z"/>
		<path class="st0" d="M41.2,37.6c0.7,0.4,1.2,0.9,1.6,1.6c0.4,0.7,0.6,1.5,0.6,2.3c0,0.8-0.2,1.6-0.6,2.3c-0.4,0.7-0.9,1.2-1.6,1.6
			c-0.7,0.4-1.5,0.6-2.3,0.6c-0.8,0-1.6-0.2-2.3-0.6c-0.7-0.4-1.2-1-1.6-1.6s-0.6-1.4-0.6-2.2c0-0.5,0.1-1,0.3-1.6
			c0.2-0.5,0.5-1.2,0.9-2l2.9-5.1l2.7,0L38.7,37h0.1C39.7,37,40.5,37.2,41.2,37.6z M40.4,43.1c0.4-0.4,0.6-1,0.6-1.6
			c0-0.6-0.2-1.2-0.6-1.6c-0.4-0.4-0.9-0.6-1.6-0.6c-0.6,0-1.1,0.2-1.5,0.6c-0.4,0.4-0.6,0.9-0.6,1.6c0,0.6,0.2,1.1,0.6,1.6
			c0.4,0.4,0.9,0.7,1.5,0.7C39.5,43.7,40,43.5,40.4,43.1z"/>
		<path class="st0" d="M53.3,39.1c0.6,0.7,0.8,1.6,0.8,2.6c0,0.8-0.2,1.5-0.5,2.2c-0.4,0.7-0.9,1.2-1.5,1.6
			c-0.7,0.4-1.5,0.6-2.4,0.6c-0.9,0-1.7-0.2-2.5-0.6c-0.7-0.4-1.3-0.9-1.8-1.7l1.8-1.4c0.2,0.4,0.6,0.7,1,0.9s0.9,0.3,1.4,0.3
			c0.6,0,1.1-0.2,1.5-0.5c0.4-0.4,0.6-0.8,0.6-1.4c0-0.6-0.2-1.1-0.7-1.5c-0.5-0.4-1.1-0.6-1.9-0.6l-1,0l0-1.5l2.2-3.1L46,35l0-2.2
			l7.6,0l0,1.6L51,37.7C52,37.9,52.8,38.3,53.3,39.1z"/>
		<path class="st0" d="M57.1,45.6c-0.3-0.3-0.4-0.6-0.4-1c0-0.4,0.1-0.8,0.4-1c0.3-0.3,0.6-0.4,1.1-0.4c0.4,0,0.8,0.1,1,0.4
			c0.3,0.3,0.4,0.6,0.4,1c0,0.4-0.1,0.8-0.4,1c-0.3,0.3-0.6,0.4-1,0.4C57.7,46,57.4,45.8,57.1,45.6z"/>
		<path class="st0" d="M63.4,41c-0.7-0.4-1.2-0.9-1.6-1.6c-0.4-0.7-0.6-1.5-0.6-2.3c0-0.8,0.2-1.6,0.6-2.3c0.4-0.7,0.9-1.2,1.6-1.6
			c0.7-0.4,1.5-0.6,2.3-0.6c0.8,0,1.6,0.2,2.3,0.6c0.7,0.4,1.2,1,1.6,1.6c0.4,0.7,0.6,1.4,0.6,2.2c0,0.5-0.1,1-0.3,1.6
			c-0.2,0.5-0.5,1.2-0.9,2l-2.9,5.1l-2.7,0l2.4-4.2l-0.1,0C64.9,41.6,64.1,41.4,63.4,41z M64.2,35.5c-0.4,0.4-0.6,1-0.6,1.6
			c0,0.6,0.2,1.2,0.6,1.6c0.4,0.4,0.9,0.6,1.6,0.6c0.6,0,1.1-0.2,1.5-0.6c0.4-0.4,0.6-0.9,0.6-1.6c0-0.6-0.2-1.1-0.6-1.6
			c-0.4-0.4-0.9-0.7-1.5-0.7C65.1,34.9,64.6,35.1,64.2,35.5z"/>
		<path class="st0" d="M80.7,32.8l0,1.7c-1.3,1.7-2.2,3.3-2.7,4.8c-0.5,1.5-0.8,3.2-0.8,5.1l0,1.4l-2.6,0l0-1.4c0-1.9,0.2-3.5,0.6-5
			s1.1-2.8,2-4.1l-5,0l0-2.4L80.7,32.8z"/>
		<path class="st0" d="M83.3,44.2c0-0.9,0.1-1.7,0.4-2.3c0.3-0.6,0.7-1.2,1.2-1.7s1.3-1,2.2-1.6c1.2-0.7,1.8-1.4,1.8-2.2
			c0-0.4-0.2-0.8-0.5-1.1c-0.3-0.3-0.7-0.4-1.2-0.4c-0.5,0-0.9,0.1-1.3,0.4c-0.3,0.3-0.6,0.7-0.8,1.2l-2.1-0.9
			c0.2-0.9,0.7-1.6,1.5-2.2c0.8-0.5,1.7-0.8,2.7-0.8c0.8,0,1.6,0.2,2.2,0.5c0.6,0.3,1.1,0.8,1.5,1.4c0.4,0.6,0.5,1.2,0.5,2
			c0,0.9-0.3,1.7-0.8,2.4c-0.5,0.7-1.4,1.3-2.6,2c-0.7,0.4-1.2,0.8-1.5,1.2c-0.3,0.4-0.5,0.9-0.6,1.4l5.6,0l0,2.4l-8.2,0L83.3,44.2z
			"/>
		<path class="st0" d="M94.4,45.5c-0.3-0.3-0.4-0.6-0.4-1c0-0.4,0.1-0.8,0.4-1c0.3-0.3,0.6-0.4,1.1-0.4c0.4,0,0.8,0.1,1,0.4
			c0.3,0.3,0.4,0.6,0.4,1c0,0.4-0.1,0.8-0.4,1s-0.6,0.4-1,0.4C95,45.9,94.7,45.8,94.4,45.5z"/>
		<path class="st0" d="M106.3,37.6c0.6,0.3,1.1,0.8,1.5,1.5c0.4,0.7,0.6,1.4,0.6,2.4c0,0.9-0.2,1.6-0.6,2.3
			c-0.4,0.7-0.9,1.2-1.6,1.6c-0.7,0.4-1.4,0.6-2.2,0.6c-0.8,0-1.6-0.2-2.4-0.6c-0.8-0.4-1.4-1-1.9-1.7l1.7-1.6
			c0.4,0.5,0.9,0.9,1.3,1.1c0.4,0.2,0.9,0.3,1.3,0.3c0.6,0,1.1-0.2,1.5-0.6c0.4-0.4,0.6-0.9,0.6-1.5c0-0.6-0.2-1.1-0.6-1.4
			c-0.4-0.4-0.9-0.6-1.5-0.6c-0.8,0-1.5,0.3-2.1,0.9l-1.6-1.1l1.2-6.5l6.3,0l0,2.4l-4.3,0l-0.4,2.1c0.5-0.1,1-0.2,1.5-0.2
			C105,37.1,105.6,37.2,106.3,37.6z"/>
		<path class="st0" d="M115,32.8l0,12.9l-2.5,0l0-9.9l-1.6,0.7l-0.9-2.2l3.6-1.6L115,32.8z"/>
		<path class="st0" d="M120.6,45.4c-0.7-0.4-1.2-0.9-1.5-1.6c-0.4-0.7-0.5-1.4-0.5-2.3l0-4.5c0-0.9,0.2-1.6,0.5-2.3
			c0.4-0.7,0.9-1.2,1.5-1.6c0.7-0.4,1.4-0.6,2.3-0.6c0.9,0,1.6,0.2,2.3,0.6c0.7,0.4,1.2,0.9,1.5,1.6c0.4,0.7,0.5,1.4,0.5,2.3l0,4.5
			c0,0.9-0.2,1.6-0.5,2.3c-0.4,0.7-0.9,1.2-1.5,1.6c-0.7,0.4-1.4,0.6-2.3,0.6C122,45.9,121.2,45.7,120.6,45.4z M124.2,42.9
			c0.3-0.3,0.5-0.8,0.5-1.4l0-4.7c0-0.6-0.2-1-0.5-1.4c-0.3-0.3-0.8-0.5-1.3-0.5c-0.6,0-1,0.2-1.4,0.5c-0.3,0.3-0.5,0.8-0.5,1.4
			l0,4.7c0,0.6,0.2,1,0.5,1.4c0.3,0.3,0.8,0.5,1.4,0.5C123.4,43.5,123.9,43.3,124.2,42.9z"/>
		<path class="st0" d="M134.8,32.8l0,12.9l-2.5,0l0-9.9l-1.6,0.7l-0.9-2.2l3.6-1.6L134.8,32.8z"/>
	</g>
</g>
<g>
	<path class="st1" d="M73.6,26.5c-6.2,5.4-12-0.6-7.4-7.9c4.8-7.6,14.1-5.7,9.4,0.5"/>
	<path class="st1" d="M80.2,21.3c-0.8-2.8-7.2,3.6-4.7,4.5c2.7,0.9,5.5-5.6,5.5-5.6s-2.5,4.9-0.2,4.7c2.3-0.1,10.3-11.1,7.9-11.8
		c-2.4-0.7-7.3,11.6-3.2,12.4c1.5,0.3,3.4-1.1,5-3c2.8-3.1,5-7.7,4.2-8.2c-0.6-0.4-3.2,2.9-4.4,6.1c-1.5,4-1,7.7,7.9,4.2"/>
</g>
</svg>
