<?xml version="1.0" encoding="utf-8"?>
<!-- Generator: Adobe Illustrator 28.1.0, SVG Export Plug-In . SVG Version: 6.00 Build 0)  -->
<svg version="1.1" id="Layer_1" xmlns="http://www.w3.org/2000/svg" xmlns:xlink="http://www.w3.org/1999/xlink" x="0px" y="0px"
	 width="171.7px" height="228.5px" viewBox="0 0 171.7 228.5" style="enable-background:new 0 0 171.7 228.5;" xml:space="preserve"
	>
<style type="text/css">
	.st0{fill:#FFFFFF;}
</style>
<path d="M135.3,148.1H36.6c-11.4,0-20.6-9.2-20.6-20.6v-100C16.1,16.1,25.2,7,36.6,7h98.6c11.4,0,20.6,9.2,20.6,20.6v100
	C155.9,138.9,146.7,148.1,135.3,148.1z"/>
<g>
	<path class="st0" d="M57,124.9c-1.3,0.7-2.3-1.5-1.4-2.5c17-17.4,77.2-22.6,65.3-2.3c-0.1,3.9-1.7,3.9-1.7,3.9
		C121.6,118.3,86,107.4,57,124.9z"/>
	<g>
		<path class="st0" d="M57.5,93.5c0,0.9,1.4,1.2,1.7,0.2c4.2-12.9,8.8-41,4.2-49.8c-0.4-0.8-0.5-2-1.3-2.8c-0.5-0.4-0.1-1.2,0.5-0.9
			c10.1-0.2,8.2,12.7,7.7,19.1c-0.7,7.6-6.5,40.1-10.4,42.7c-2.5,1.8-10.1,1.5-10.1-1.6c0.1-4.1-0.3-34.7-4.2-46.8
			c-0.9-3.1-2.1-6.1-6.1-6.1c-10,0.1-14.2,18.9-6.4,25.5c0.4,0.4,0.9,0.9,0.6,1.7c-0.2,0.5-0.7,0.5-1.4,0.4
			c-4.9-1.2-8.2-5.9-8.7-10.8C22,52.9,30,42.7,41.2,44.3c2.5,0.3,6.6,1.9,8.5,3.5C55.7,52.9,57.1,81.7,57.5,93.5z"/>
		<g>
			<path class="st0" d="M79.9,50.7c7.7-0.4,2.4,8.1-1.3,10.2c-4.2,2.3-3.5-6-2.6-8.1C76.2,51.5,77.7,50.9,79.9,50.7z"/>
			<path class="st0" d="M119,91.7c-0.2-0.7-1.4-0.8-1.7-0.1c-0.5,1.8-1.4,3.6-2.4,4.6c-2.2,2-4.5,1.6-5.8-0.3
				c-0.3-0.5-1.2-0.4-1.5,0.1c-3.1,5.9-8.8,5.9-11.1-0.5c-0.2-0.6-1.2-0.7-1.6-0.2c-1.6,2.5-3.7,4.6-6.4,3.6c-2.1-0.6-3.3-4-3.9-6.6
				c-0.2-0.7-1.3-0.8-1.6-0.1c-0.5,1.2-1.2,2.2-1.4,2.5c-3.7,8.7-11.2,6.3-11.8-2.4c-0.6-6,0.2-11.9,1.6-17.8c0.3-2.7,3.4-3,5.4-2.4
				c2.3,0.7,0.9,3.7,0.8,5.5c-0.3,2.6-2.8,15.6-0.1,16.5c0.9,0.1,1.3-0.7,1.6-1.5c2.3-4.6,4.3-10,4.6-15.1
				c0.1-1.6,1.9-10.6,2.1-11.7c0.4-2.4,3-18.8,7.7-20.2c3.5-0.9,4.5,1.2,3.7,3.6c-0.7,2.2-4.4,14.5-5,16.9c-0.1,0.6-0.9,6.1-1.2,6.6
				c-0.4,6-1.5,12.3-0.1,18.3c0.2,0.6,0.5,2.6,1.6,2.6c2.3,0.1,3.7-8.9,3.9-10.8c0.8-6,2.5-13.2,8-16.9l0.1-0.1
				c2.8-1.6,5.9-0.5,6.8,2.3c0.2,0.5,0.4,0.7,1.2,0.8c1.8,0,2.2,0.4,2.1,2.2c0,6.3-1.9,12.7-1.6,18.9c0.1,0.4,0.2,2,0.7,2.1
				c1.7-0.1,2.5-5.2,3-6.6l0,0c2.2-11.2,1.4-23.9,5.1-35.1c1.2-4.7,6.9-17.2,13-10.7c0.1,0.1,0.1,0.2,0.2,0.3
				c4.1,10.8-5.6,27.6-9.4,38.1c-1.9,4.1-1.6,12.7,0.8,16.2c4,3.3,7.2-10.2,7.8-12.6c0.1-0.9,0.2-1.9,1.4-1.8
				c1.6,0.3,0.3,2.3,0.1,3.4c-1.2,5.2-1.8,11-5.2,15.3l-0.1,0.1C124.6,104.4,120.7,97.5,119,91.7z M101.9,88.7c0.1,1.3-0.2,5,0.9,6
				c0.3,0.2,0.6,0.2,0.9,0c2.8-2.3,5.1-18.1,5.5-21.3c0.1-1.3,0.5-3.4-0.7-3.9c-0.1-0.1-0.3-0.1-0.5,0
				C104.1,70.4,101.9,85.6,101.9,88.7z M126.9,67.2c2.3-7.5,5.2-18.1,4.5-22.4c-0.1-0.7-1.3-0.9-1.6-0.3c-2.1,3.6-3.8,14.6-4.6,22.3
				C125.1,67.8,126.5,68.2,126.9,67.2z"/>
			<path class="st0" d="M78.9,66.4c-0.2-0.5,0.1-1.2,0.6-1.3c4.3-0.5,21.1-2.8,21.4-1.9c0.4,1.3-4,4.1-4.6,4.5
				c-0.1,0-0.1,0.1-0.2,0.1L87,70.9c-0.1,0-0.2,0-0.3,0C85.8,70.9,80.6,70.4,78.9,66.4z"/>
		</g>
	</g>
</g>
<g>
	<path d="M21.7,192.8h-1.5V187c-0.6,0.5-1.2,0.9-2,1.2v-1.4c0.4-0.1,0.8-0.4,1.3-0.7c0.5-0.4,0.8-0.8,1-1.3h1.2V192.8z"/>
	<path d="M28.1,192.8h-1.5V187c-0.6,0.5-1.2,0.9-2,1.2v-1.4c0.4-0.1,0.8-0.4,1.3-0.7c0.5-0.4,0.8-0.8,1-1.3h1.2V192.8z"/>
	<path d="M34.4,192.8h-1.5V187c-0.6,0.5-1.2,0.9-2,1.2v-1.4c0.4-0.1,0.8-0.4,1.3-0.7c0.5-0.4,0.8-0.8,1-1.3h1.2V192.8z"/>
	<path d="M41.7,184.8h3.2c0.6,0,1.1,0,1.4,0.1c0.3,0.1,0.6,0.2,0.8,0.3c0.2,0.2,0.4,0.4,0.6,0.7s0.2,0.6,0.2,0.9
		c0,0.4-0.1,0.7-0.3,1s-0.5,0.5-0.8,0.7c0.5,0.1,0.9,0.4,1.1,0.7s0.4,0.7,0.4,1.2c0,0.4-0.1,0.7-0.3,1.1c-0.2,0.3-0.4,0.6-0.7,0.8
		c-0.3,0.2-0.6,0.3-1.1,0.4c-0.3,0-0.9,0-1.9,0.1h-2.7V184.8z M43.3,186.2v1.8h1.1c0.6,0,1,0,1.2,0c0.3,0,0.5-0.1,0.6-0.3
		c0.2-0.2,0.2-0.4,0.2-0.6c0-0.2-0.1-0.4-0.2-0.6c-0.1-0.2-0.3-0.2-0.6-0.3c-0.2,0-0.6,0-1.4,0H43.3z M43.3,189.3v2.1h1.5
		c0.6,0,0.9,0,1.1,0c0.2,0,0.4-0.1,0.6-0.3s0.2-0.4,0.2-0.7c0-0.2-0.1-0.4-0.2-0.6c-0.1-0.2-0.3-0.3-0.5-0.4
		c-0.2-0.1-0.7-0.1-1.4-0.1H43.3z"/>
	<path d="M57.7,192.8H56l-0.7-1.8h-3.2l-0.7,1.8h-1.7l3.1-7.9h1.7L57.7,192.8z M54.7,189.6l-1.1-2.9l-1.1,2.9H54.7z"/>
	<path d="M59.4,184.8h3.2c0.6,0,1.1,0,1.4,0.1c0.3,0.1,0.6,0.2,0.8,0.3c0.2,0.2,0.4,0.4,0.6,0.7s0.2,0.6,0.2,0.9
		c0,0.4-0.1,0.7-0.3,1s-0.5,0.5-0.8,0.7c0.5,0.1,0.9,0.4,1.1,0.7s0.4,0.7,0.4,1.2c0,0.4-0.1,0.7-0.3,1.1c-0.2,0.3-0.4,0.6-0.7,0.8
		c-0.3,0.2-0.6,0.3-1.1,0.4c-0.3,0-0.9,0-1.9,0.1h-2.7V184.8z M61,186.2v1.8H62c0.6,0,1,0,1.2,0c0.3,0,0.5-0.1,0.6-0.3
		c0.2-0.2,0.2-0.4,0.2-0.6c0-0.2-0.1-0.4-0.2-0.6c-0.1-0.2-0.3-0.2-0.6-0.3c-0.2,0-0.6,0-1.4,0H61z M61,189.3v2.1h1.5
		c0.6,0,0.9,0,1.1,0c0.2,0,0.4-0.1,0.6-0.3s0.2-0.4,0.2-0.7c0-0.2-0.1-0.4-0.2-0.6c-0.1-0.2-0.3-0.3-0.5-0.4
		c-0.2-0.1-0.7-0.1-1.4-0.1H61z"/>
	<path d="M73.2,189.9l1.6,0.5c-0.2,0.9-0.6,1.5-1.2,1.9s-1.3,0.6-2.1,0.6c-1.1,0-1.9-0.4-2.6-1.1c-0.7-0.7-1-1.7-1-3
		c0-1.3,0.3-2.3,1-3.1c0.7-0.7,1.6-1.1,2.7-1.1c1,0,1.8,0.3,2.4,0.9c0.4,0.3,0.6,0.8,0.8,1.5l-1.6,0.4c-0.1-0.4-0.3-0.7-0.6-1
		c-0.3-0.2-0.7-0.4-1.1-0.4c-0.6,0-1.1,0.2-1.4,0.6s-0.6,1.1-0.6,2.1c0,1,0.2,1.7,0.5,2.1c0.4,0.4,0.8,0.6,1.4,0.6
		c0.4,0,0.8-0.1,1.1-0.4C72.9,190.9,73.1,190.4,73.2,189.9z"/>
	<path d="M76.7,188.9c0-0.8,0.1-1.5,0.4-2c0.2-0.4,0.4-0.8,0.7-1.1c0.3-0.3,0.7-0.6,1-0.7c0.5-0.2,1.1-0.3,1.7-0.3
		c1.2,0,2.1,0.4,2.8,1.1c0.7,0.7,1.1,1.7,1.1,3c0,1.3-0.3,2.3-1,3s-1.6,1.1-2.8,1.1c-1.2,0-2.1-0.4-2.8-1.1
		C77,191.1,76.7,190.1,76.7,188.9z M78.3,188.8c0,0.9,0.2,1.6,0.6,2c0.4,0.5,0.9,0.7,1.6,0.7c0.6,0,1.2-0.2,1.6-0.7s0.6-1.2,0.6-2.1
		c0-0.9-0.2-1.6-0.6-2c-0.4-0.4-0.9-0.7-1.6-0.7s-1.2,0.2-1.6,0.7C78.5,187.2,78.3,187.9,78.3,188.8z"/>
	<path d="M91.5,189.9l1.6,0.5c-0.2,0.9-0.6,1.5-1.2,1.9s-1.3,0.6-2.1,0.6c-1.1,0-1.9-0.4-2.6-1.1c-0.7-0.7-1-1.7-1-3
		c0-1.3,0.3-2.3,1-3.1c0.7-0.7,1.6-1.1,2.7-1.1c1,0,1.8,0.3,2.4,0.9c0.4,0.3,0.6,0.8,0.8,1.5l-1.6,0.4c-0.1-0.4-0.3-0.7-0.6-1
		c-0.3-0.2-0.7-0.4-1.1-0.4c-0.6,0-1.1,0.2-1.4,0.6c-0.4,0.4-0.5,1.1-0.5,2.1c0,1,0.2,1.7,0.5,2.1c0.4,0.4,0.8,0.6,1.4,0.6
		c0.4,0,0.8-0.1,1.1-0.4C91.1,190.9,91.4,190.4,91.5,189.9z"/>
	<path d="M95.2,192.8v-7.9h1.6v3.5l3.2-3.5h2.2l-3,3.1l3.2,4.9h-2.1l-2.2-3.7l-1.3,1.3v2.4H95.2z"/>
	<path d="M107.9,184.8h3.2c0.6,0,1.1,0,1.4,0.1c0.3,0.1,0.6,0.2,0.8,0.3s0.4,0.4,0.6,0.7c0.2,0.3,0.2,0.6,0.2,0.9
		c0,0.4-0.1,0.7-0.3,1s-0.5,0.5-0.8,0.7c0.5,0.1,0.9,0.4,1.1,0.7s0.4,0.7,0.4,1.2c0,0.4-0.1,0.7-0.3,1.1c-0.2,0.3-0.4,0.6-0.7,0.8
		c-0.3,0.2-0.6,0.3-1.1,0.4c-0.3,0-0.9,0-1.9,0.1h-2.7V184.8z M109.5,186.2v1.8h1.1c0.6,0,1,0,1.2,0c0.3,0,0.5-0.1,0.6-0.3
		s0.2-0.4,0.2-0.6c0-0.2-0.1-0.4-0.2-0.6c-0.1-0.2-0.3-0.2-0.6-0.3c-0.2,0-0.6,0-1.4,0H109.5z M109.5,189.3v2.1h1.5
		c0.6,0,0.9,0,1.1,0c0.2,0,0.4-0.1,0.6-0.3s0.2-0.4,0.2-0.7c0-0.2-0.1-0.4-0.2-0.6c-0.1-0.2-0.3-0.3-0.5-0.4
		c-0.2-0.1-0.7-0.1-1.4-0.1H109.5z"/>
	<path d="M116.8,192.8v-7.9h1.6v6.5h4v1.3H116.8z"/>
	<path d="M125.5,192.8l-2.8-7.9h1.7l2,5.9l1.9-5.9h1.7l-2.8,7.9H125.5z"/>
	<path d="M131.7,184.8h2.9c0.7,0,1.2,0.1,1.5,0.2c0.5,0.1,0.9,0.4,1.2,0.7c0.3,0.4,0.6,0.8,0.8,1.3c0.2,0.5,0.3,1.1,0.3,1.9
		c0,0.7-0.1,1.2-0.2,1.7c-0.2,0.6-0.5,1-0.9,1.4c-0.3,0.3-0.7,0.5-1.1,0.6c-0.4,0.1-0.8,0.2-1.4,0.2h-3V184.8z M133.3,186.2v5.3h1.2
		c0.4,0,0.8,0,1-0.1c0.3-0.1,0.5-0.2,0.6-0.3s0.3-0.4,0.4-0.8c0.1-0.4,0.2-0.8,0.2-1.5s-0.1-1.1-0.2-1.4s-0.3-0.6-0.5-0.8
		s-0.4-0.3-0.7-0.4c-0.2-0.1-0.7-0.1-1.3-0.1H133.3z"/>
	<path d="M145.5,192.8l-1.9-7.9h1.6l1.2,5.5l1.5-5.5h1.9l1.4,5.5l1.2-5.5h1.6l-1.9,7.9h-1.7l-1.6-5.9l-1.6,5.9H145.5z"/>
	<path d="M28.4,203.8h2.9c0.7,0,1.2,0.1,1.5,0.2c0.5,0.1,0.9,0.4,1.2,0.7s0.6,0.8,0.8,1.3c0.2,0.5,0.3,1.1,0.3,1.9
		c0,0.7-0.1,1.2-0.2,1.7c-0.2,0.6-0.5,1-0.9,1.4c-0.3,0.3-0.7,0.5-1.1,0.6c-0.4,0.1-0.8,0.2-1.4,0.2h-3V203.8z M30,205.2v5.3h1.2
		c0.4,0,0.8,0,1-0.1c0.3-0.1,0.5-0.2,0.6-0.3c0.2-0.2,0.3-0.4,0.4-0.8c0.1-0.4,0.2-0.8,0.2-1.5s-0.1-1.1-0.2-1.4s-0.3-0.6-0.5-0.8
		c-0.2-0.2-0.4-0.3-0.7-0.4c-0.2-0.1-0.7-0.1-1.3-0.1H30z"/>
	<path d="M37.2,211.8v-7.9h5.9v1.3h-4.3v1.8h4v1.3h-4v2.2h4.4v1.3H37.2z"/>
	<path d="M45.5,211.8v-7.9h1.6v6.5h4v1.3H45.5z"/>
	<path d="M60.2,211.8h-1.7l-0.7-1.8h-3.2l-0.7,1.8h-1.7l3.1-7.9H57L60.2,211.8z M57.2,208.6l-1.1-2.9l-1.1,2.9H57.2z"/>
	<path d="M61.8,211.8v-7.9h1.6l3.3,5.3v-5.3h1.5v7.9h-1.6l-3.2-5.2v5.2H61.8z"/>
	<path d="M70.3,207.9c0-0.8,0.1-1.5,0.4-2c0.2-0.4,0.4-0.8,0.7-1.1c0.3-0.3,0.7-0.6,1-0.7c0.5-0.2,1.1-0.3,1.7-0.3
		c1.2,0,2.1,0.4,2.8,1.1c0.7,0.7,1.1,1.7,1.1,3c0,1.3-0.3,2.3-1,3s-1.6,1.1-2.8,1.1c-1.2,0-2.1-0.4-2.8-1.1
		C70.6,210.1,70.3,209.1,70.3,207.9z M71.9,207.8c0,0.9,0.2,1.6,0.6,2c0.4,0.5,0.9,0.7,1.6,0.7c0.6,0,1.2-0.2,1.6-0.7
		s0.6-1.2,0.6-2.1c0-0.9-0.2-1.6-0.6-2c-0.4-0.4-0.9-0.7-1.6-0.7s-1.2,0.2-1.6,0.7C72.1,206.2,71.9,206.9,71.9,207.8z"/>
	<path d="M80,210.3h1.5v1.1c0,0.4,0,0.8-0.1,1c-0.1,0.3-0.2,0.5-0.4,0.7c-0.2,0.2-0.5,0.4-0.8,0.5l-0.3-0.6c0.3-0.1,0.5-0.2,0.7-0.4
		c0.1-0.2,0.2-0.4,0.2-0.7H80V210.3z"/>
	<path d="M87.8,211.8v-7.9h2.4l1.4,5.4l1.4-5.4h2.4v7.9H94v-6.3l-1.6,6.3h-1.5l-1.6-6.3v6.3H87.8z"/>
	<path d="M97.9,211.8v-7.9h1.6l3.3,5.3v-5.3h1.5v7.9h-1.6l-3.2-5.2v5.2H97.9z"/>
	<path d="M110.2,209.7l1.5-0.2c0,0.3,0.2,0.6,0.4,0.8s0.5,0.3,0.7,0.3c0.3,0,0.6-0.1,0.8-0.4c0.2-0.3,0.3-0.6,0.3-1.2
		c0-0.5-0.1-0.9-0.3-1.1c-0.2-0.2-0.5-0.4-0.9-0.4c-0.4,0-0.8,0.2-1.2,0.6l-1.2-0.2l0.8-4.1h4v1.4h-2.9l-0.2,1.3
		c0.3-0.2,0.7-0.3,1-0.3c0.7,0,1.2,0.2,1.7,0.7c0.5,0.5,0.7,1.1,0.7,1.9c0,0.7-0.2,1.2-0.6,1.8c-0.5,0.7-1.2,1.1-2.2,1.1
		c-0.7,0-1.3-0.2-1.8-0.6C110.6,210.9,110.3,210.4,110.2,209.7z"/>
	<path d="M117.2,209.7l1.5-0.2c0,0.3,0.2,0.6,0.4,0.8s0.5,0.3,0.7,0.3c0.3,0,0.6-0.1,0.8-0.4c0.2-0.3,0.3-0.6,0.3-1.2
		c0-0.5-0.1-0.9-0.3-1.1c-0.2-0.2-0.5-0.4-0.9-0.4c-0.4,0-0.8,0.2-1.2,0.6l-1.2-0.2l0.8-4.1h4v1.4h-2.9l-0.2,1.3
		c0.3-0.2,0.7-0.3,1-0.3c0.7,0,1.2,0.2,1.7,0.7c0.5,0.5,0.7,1.1,0.7,1.9c0,0.7-0.2,1.2-0.6,1.8c-0.5,0.7-1.2,1.1-2.2,1.1
		c-0.7,0-1.3-0.2-1.8-0.6C117.6,210.9,117.3,210.4,117.2,209.7z"/>
	<path d="M124.1,209.7l1.5-0.2c0,0.4,0.2,0.7,0.4,0.9c0.2,0.2,0.5,0.3,0.7,0.3c0.3,0,0.6-0.1,0.8-0.4c0.2-0.2,0.3-0.6,0.3-1
		c0-0.4-0.1-0.7-0.3-0.9c-0.2-0.2-0.5-0.3-0.8-0.3c-0.2,0-0.4,0-0.7,0.1l0.2-1.2c0.4,0,0.7-0.1,0.9-0.3s0.3-0.4,0.3-0.8
		c0-0.3-0.1-0.5-0.2-0.6s-0.4-0.2-0.6-0.2c-0.3,0-0.5,0.1-0.7,0.3c-0.2,0.2-0.3,0.4-0.3,0.8l-1.4-0.2c0.1-0.5,0.2-0.9,0.4-1.2
		s0.5-0.5,0.8-0.7c0.4-0.2,0.7-0.2,1.2-0.2c0.7,0,1.3,0.2,1.8,0.7c0.4,0.4,0.6,0.8,0.6,1.3c0,0.7-0.4,1.3-1.1,1.7
		c0.5,0.1,0.8,0.3,1.1,0.7c0.3,0.3,0.4,0.8,0.4,1.2c0,0.7-0.3,1.3-0.8,1.8c-0.5,0.5-1.1,0.7-1.9,0.7c-0.7,0-1.3-0.2-1.8-0.6
		C124.5,210.9,124.2,210.3,124.1,209.7z"/>
	<path d="M136.3,210.4v1.4h-5.3c0.1-0.5,0.2-1,0.5-1.5c0.3-0.5,0.9-1.1,1.7-1.9c0.7-0.6,1.1-1.1,1.3-1.3c0.2-0.3,0.3-0.6,0.3-0.9
		c0-0.3-0.1-0.6-0.3-0.8s-0.4-0.3-0.8-0.3c-0.3,0-0.6,0.1-0.8,0.3s-0.3,0.5-0.3,1l-1.5-0.2c0.1-0.8,0.4-1.4,0.9-1.8
		c0.5-0.4,1.1-0.5,1.8-0.5c0.8,0,1.4,0.2,1.8,0.6c0.4,0.4,0.7,0.9,0.7,1.6c0,0.4-0.1,0.7-0.2,1c-0.1,0.3-0.3,0.7-0.6,1
		c-0.2,0.2-0.5,0.6-1,1c-0.5,0.4-0.8,0.7-0.9,0.9s-0.2,0.3-0.3,0.4H136.3z"/>
	<path d="M139.4,207.5c-0.4-0.2-0.7-0.4-0.9-0.7s-0.3-0.6-0.3-1c0-0.6,0.2-1.1,0.6-1.5c0.4-0.4,1-0.6,1.8-0.6c0.8,0,1.3,0.2,1.8,0.6
		c0.4,0.4,0.6,0.9,0.6,1.5c0,0.4-0.1,0.7-0.3,1c-0.2,0.3-0.5,0.5-0.8,0.7c0.4,0.2,0.8,0.4,1,0.8s0.3,0.7,0.3,1.2
		c0,0.7-0.2,1.3-0.7,1.8c-0.5,0.5-1.1,0.7-1.9,0.7c-0.7,0-1.3-0.2-1.8-0.6c-0.6-0.4-0.9-1.1-0.9-1.8c0-0.4,0.1-0.8,0.3-1.2
		S139,207.7,139.4,207.5z M139.6,209.4c0,0.4,0.1,0.7,0.3,1c0.2,0.2,0.5,0.4,0.8,0.4c0.3,0,0.6-0.1,0.8-0.3c0.2-0.2,0.3-0.6,0.3-1
		c0-0.4-0.1-0.7-0.3-0.9c-0.2-0.2-0.5-0.3-0.8-0.3c-0.4,0-0.6,0.1-0.8,0.4S139.6,209.1,139.6,209.4z M139.7,206
		c0,0.3,0.1,0.5,0.3,0.7s0.4,0.3,0.7,0.3c0.3,0,0.5-0.1,0.7-0.3c0.2-0.2,0.3-0.4,0.3-0.7c0-0.3-0.1-0.5-0.3-0.7s-0.4-0.3-0.7-0.3
		c-0.3,0-0.5,0.1-0.7,0.3C139.8,205.4,139.7,205.7,139.7,206z"/>
</g>
<g>
	<path d="M36.2,172l-3.9-10.9h2.4l2.8,8.1l2.7-8.1h2.3L38.6,172H36.2z"/>
	<path d="M44.3,172v-10.9h2.2V172H44.3z"/>
	<path d="M51.8,172v-9.1h-3.2v-1.8h8.7v1.8H54v9.1H51.8z"/>
	<path d="M68.1,172h-2.4l-1-2.5h-4.4l-0.9,2.5h-2.3l4.2-10.9h2.3L68.1,172z M64.1,167.7l-1.5-4l-1.5,4H64.1z"/>
	<path d="M70.1,172v-10.8h2.2v9h5.5v1.8H70.1z"/>
	<path d="M87.6,172l-3.9-10.9h2.4l2.8,8.1l2.7-8.1h2.3L89.9,172H87.6z"/>
	<path d="M95.7,172v-10.9h2.2V172H95.7z"/>
	<path d="M100.2,168.5l2.1-0.2c0.1,0.7,0.4,1.2,0.8,1.6s0.9,0.5,1.6,0.5c0.7,0,1.2-0.1,1.6-0.4s0.5-0.7,0.5-1.1
		c0-0.3-0.1-0.5-0.2-0.7c-0.2-0.2-0.4-0.3-0.8-0.5c-0.3-0.1-0.8-0.2-1.8-0.5c-1.2-0.3-2-0.7-2.5-1.1c-0.7-0.6-1-1.3-1-2.2
		c0-0.6,0.2-1.1,0.5-1.6s0.8-0.9,1.4-1.1c0.6-0.3,1.3-0.4,2.1-0.4c1.4,0,2.4,0.3,3.1,0.9s1.1,1.4,1.1,2.4l-2.2,0.1
		c-0.1-0.6-0.3-1-0.6-1.2s-0.8-0.4-1.4-0.4c-0.6,0-1.1,0.1-1.5,0.4c-0.2,0.2-0.3,0.4-0.3,0.7c0,0.3,0.1,0.5,0.3,0.7
		c0.3,0.2,1,0.5,2,0.7c1.1,0.3,1.9,0.5,2.4,0.8c0.5,0.3,0.9,0.6,1.2,1.1c0.3,0.5,0.4,1,0.4,1.7c0,0.6-0.2,1.2-0.5,1.8
		c-0.3,0.5-0.8,1-1.5,1.2c-0.6,0.3-1.4,0.4-2.4,0.4c-1.4,0-2.4-0.3-3.2-1S100.3,169.7,100.2,168.5z"/>
	<path d="M111.6,161.1h2.2v5.9c0,0.9,0,1.5,0.1,1.8c0.1,0.4,0.3,0.8,0.7,1.1c0.4,0.3,0.8,0.4,1.5,0.4c0.6,0,1.1-0.1,1.4-0.4
		c0.3-0.3,0.5-0.6,0.6-0.9c0.1-0.4,0.1-1,0.1-1.9v-6h2.2v5.7c0,1.3-0.1,2.2-0.2,2.8c-0.1,0.5-0.3,1-0.7,1.4
		c-0.3,0.4-0.7,0.7-1.3,0.9c-0.5,0.2-1.2,0.3-2.1,0.3c-1,0-1.8-0.1-2.4-0.4c-0.5-0.2-1-0.6-1.3-0.9s-0.5-0.8-0.6-1.2
		c-0.1-0.6-0.2-1.5-0.2-2.8V161.1z"/>
	<path d="M133.2,172h-2.4l-1-2.5h-4.4l-0.9,2.5h-2.3l4.2-10.9h2.3L133.2,172z M129.2,167.7l-1.5-4l-1.5,4H129.2z"/>
	<path d="M135.2,172v-10.8h2.2v9h5.5v1.8H135.2z"/>
</g>
</svg>
