<?xml version="1.0" encoding="UTF-8"?>
<svg id="a" data-name="background" xmlns="http://www.w3.org/2000/svg" viewBox="0 0 1926.16 1083.11">
  <defs>
    <style>
      .ad {
        fill: #fff;
      }

      .ae {
        fill: #58595b;
      }

      .af {
        fill: #231f20;
        stroke: #231f20;
        stroke-miterlimit: 10;
      }

      .ag {
        fill: #43c3ee;
        opacity: .85;
      }
    </style>
  </defs>
  <rect id="b" data-name="background" class="ag" width="1926.16" height="1083.11"/>
  <g>
    <g id="c" data-name="signgroup">
      <g id="d" data-name="what">
        <path id="e" data-name="what" class="ad" d="m704.74,526.77h-20.89l-29.34-83.28h13.93l26.03,72.41,25.31-72.41h13.57l-28.61,83.28Z"/>
        <path id="f" data-name="what" class="ad" d="m744.34,422.37h-14.3v-12.97h14.3v12.97Zm0,104.39h-14.3v-83.28h14.3v83.28Z"/>
        <path id="g" data-name="what" class="ad" d="m770.72,443.48h22.94v9.96h-22.94v52.35c0,8.13-.18,13.43,11.56,13.43,4.03,0,7.86-.3,11.37-1.05v8.59c-4.59,1.35-9.37,2.42-14.31,2.42-24.2,0-22.94-13.43-22.94-28.67v-47.07h-15.39v-9.96h15.39v-27h14.31v27Z"/>
        <path id="h" data-name="what" class="ad" d="m846.43,526.77l-1.45-10.56c-8.26,6.65-17.42,12.98-29.34,12.98-15.59,0-28.03-10.71-28.03-23.84,0-23.83,30.43-28.96,52.79-33.94l4.58-1.05v-4.66c0-9.53-7.88-14.66-19.25-14.66s-18.89,6.05-24.76,13.13l-10.08-6.18c8.43-9.96,19.42-16.89,34.83-16.89,13.73,0,33.55,6.92,33.55,25.95v41.34c.18,6.17-.2,12.52,2.74,18.39h-15.59Zm-7.14-45.41c-13.55,3.32-38.31,7.86-38.31,22.8,0,6.92,6.58,13.86,15.22,13.86,11.36,0,21.82-6.49,28.78-13.57v-24.44l-5.7,1.34Z"/>
        <path id="i" data-name="what" class="ad" d="m880.17,526.77h-14.3v-117.36h14.3v117.36Z"/>
      </g>
      <path id="j" data-name="s" class="ae" d="m951.85,443.94c-2.76-8.16-8.25-16.45-19.8-16.45-9.34,0-17.41,5.58-17.41,13.59,0,23.07,67.11,7.98,67.11,51.75,0,14.33-13.21,35.73-48.42,35.73-27.12,0-46.74-10.85-51.14-33.78l28.6-3.47c2.58,9.96,8.81,17.36,22.36,17.36,11.19,0,20.55-4.83,20.55-14.93,0-23.55-67.11-9.96-67.11-49.95,0-21.11,21.64-36.2,46.38-36.2s42.36,12.83,44.74,32.59l-25.85,3.77Z"/>
      <path id="k" data-name="i" class="ae" d="m1009.59,429.9h-27.14v-20.49h27.14v20.49Zm0,96.87h-27.14v-84.49h27.14v84.49Z"/>
      <path id="l" data-name="g" class="ae" d="m1045.52,499.01c-3.11,0-7.7,1.35-7.7,5.28,0,11,71.12-8.13,71.12,24.89,0,12.51-10.26,25.79-50.97,25.79-35.39,0-47.47-10.26-47.47-21.27,0-6.48,4.94-9.8,11.19-12.81-4.4-2.72-8.1-5.89-8.1-10.71,0-8.31,5.52-12.67,13.39-16.9-7.52-6.05-12.84-13.59-12.84-23.23,0-18.73,19.26-29.58,41.44-29.58,8.99,0,17.6,2.12,25.3,5.87,5.5-4.21,10.46-6.93,18.51-6.93,2.6,0,5.32.16,7.9.6v15.69c-2.76-.89-5.67-1.8-8.61-1.8s-4.78.75-7.34,1.8c2.94,4.53,5.31,9.5,5.49,14.35,0,18.68-19.06,29.56-41.25,29.56l-10.07-.6Zm-8.63,27.9c-2.58,1.37-4.23,2.58-4.23,5.29,0,7.83,19.26,8.29,25.69,8.29,4.59,0,28.41-.46,28.41-7.21,0-4.41-3.67-3.93-19.8-4.7l-30.07-1.66Zm18.7-42.08c11.37,0,14.66-7.7,14.66-15.69s-4.4-14.19-14.66-14.19c-11.37,0-14.83,7.86-14.83,15.86s4.4,14.02,14.83,14.02Z"/>
      <path id="m" data-name="n" class="ae" d="m1133.7,451.03c8.61-5.9,19.22-10.55,30.59-10.55s26.98,5.57,26.98,26.4v59.89h-27.14v-50.84c0-6.78.53-17.5-11.21-17.5-7.87,0-14.1,4.68-19.22,9.21v59.14h-27.16v-84.49h27.16v8.75Z"/>
      <path id="n" data-name="s" class="ae" d="m1241.28,467.03c-1.27-5.89-3.65-10.12-11.73-10.12-6.43,0-10.99,3.93-10.99,9.36,0,14.49,49.68,3.91,49.68,35.59,0,17.95-18.15,26.7-39.04,26.7s-34.48-8.45-37.21-25.94l25.49-2.27c.53,6.05,4.38,11.78,12.64,11.78,6.79,0,13.21-2.58,13.21-9.06,0-14.78-49.7-2.72-49.7-35.61,0-17.04,17.78-27,37.77-27,17.95,0,32.46,9.36,35.57,23.98l-25.69,2.58Z"/>
    </g>
    <g id="o" data-name="phonenumber">
      <path id="p" data-name="letter12" class="ad" d="m753.28,671.02l17.7-41.82h-24.89v-9.64h37.11v7.64l-18.37,43.82h-11.56Z"/>
      <path id="q" data-name="letter11" class="ad" d="m786.93,645.41c0-15.58,8.44-26.62,23.04-26.62,6,0,11.04,2.08,14.59,5.32l-4.74,8.41c-2.67-2.62-5.48-4.01-9.85-4.01-7.26,0-12.37,6.4-12.37,14.58,0,.39,0,.69.07,1.08,2.3-3.47,7.26-6.64,12.67-6.64,8.89,0,16.89,5.79,16.89,16.74,0,10.03-7.7,17.67-18.96,17.67-15.04,0-21.33-12.04-21.33-26.54Zm29.56,9.26c0-5.4-4.44-7.72-9.11-7.72-3.7,0-7.33,1.77-9.7,4.86.44,4.94,3.11,10.42,10,10.42,5.7,0,8.81-4.01,8.81-7.56Z"/>
      <path id="r" data-name="letter10" class="ad" d="m830.99,663.69l5.56-7.33c3.33,3.7,8.74,5.86,13.56,5.86,6,0,9.33-2.7,9.33-6.56,0-4.09-3.04-5.94-9.93-5.94-2.07,0-5.41.08-6.15.15v-9.88c.89.08,4.3.08,6.15.08,5.48,0,9.19-1.7,9.19-5.48,0-4.09-4.07-6.1-9.19-6.1-4.81,0-9.11,1.85-12.59,5.32l-5.26-6.87c4-4.71,10.22-8.18,18.89-8.18,11.56,0,18.67,5.4,18.67,13.96,0,6.48-5.33,10.72-10.81,11.73,5.04.54,11.56,4.63,11.56,12.34,0,8.87-7.63,15.12-19.48,15.12-9.04,0-15.85-3.63-19.48-8.26Z"/>
      <path id="s" data-name="letter9" class="ad" d="m875.46,665.62c0-3.39,2.74-6.25,6-6.25s6,2.85,6,6.25-2.74,6.25-6,6.25-6-2.85-6-6.25Z"/>
      <path id="t" data-name="letter8" class="ad" d="m893.65,666.55l4.67-8.41c2.67,2.62,5.48,4.01,9.85,4.01,8.15,0,12.37-7.18,12.37-14.5v-1.16c-2.37,3.47-7.33,6.64-12.74,6.64-8.89,0-16.81-5.79-16.81-16.74,0-10.03,7.63-17.67,18.89-17.67,15.04,0,21.33,12.04,21.33,26.54,0,15.59-8.44,26.62-23.04,26.62-6,0-11.04-2.08-14.52-5.32Zm26.81-27.7c-.44-4.94-3.11-10.42-10-10.42-5.7,0-8.81,4.01-8.81,7.56,0,5.4,4.52,7.72,9.11,7.72,3.78,0,7.33-1.77,9.7-4.86Z"/>
      <path id="u" data-name="letter7" class="ad" d="m940.95,671.02l17.7-41.82h-24.89v-9.64h37.11v7.64l-18.37,43.82h-11.56Z"/>
      <path id="v" data-name="letter6" class="ad" d="m976.29,671.02v-8.64c20.22-15.59,26.15-20.83,26.15-27.16,0-4.55-3.93-6.71-8-6.71-5.63,0-9.93,2.31-13.26,5.94l-6-7.25c4.81-5.79,12.15-8.41,19.04-8.41,10.59,0,18.89,6.17,18.89,16.43,0,8.8-6.96,16.43-19.78,26.16h20.15v9.64h-37.19Z"/>
      <path id="w" data-name="letter5" class="ad" d="m1021.92,665.62c0-3.39,2.74-6.25,6-6.25s6,2.85,6,6.25-2.74,6.25-6,6.25-6-2.85-6-6.25Z"/>
      <path id="x" data-name="letter4" class="ad" d="m1038.64,664.23l5.85-7.64c3.33,3.63,7.93,5.63,13.11,5.63,5.85,0,9.19-3.47,9.19-7.64,0-4.55-3.26-7.64-8.89-7.64-4.07,0-7.41,1.23-10.37,4.17l-7.33-2.08v-29.47h33.93v9.64h-23.41v12.58c2.37-2.47,6.37-4.32,10.89-4.32,8.37,0,15.85,6.25,15.85,16.67s-7.85,17.82-19.78,17.82c-8.59,0-14.81-2.93-19.04-7.72Z"/>
      <path id="y" data-name="letter3" class="ad" d="m1091.89,671.02v-37.34l-8.22,8.72-6-6.56,15.56-16.28h9.19v51.46h-10.52Z"/>
      <path id="z" data-name="letter2" class="ad" d="m1109.53,645.33c0-13.27,6.3-26.54,20.44-26.54s20.44,13.27,20.44,26.54-6.3,26.62-20.44,26.62-20.44-13.35-20.44-26.62Zm30.15,0c0-9.49-2.59-16.82-9.7-16.82s-9.7,7.33-9.7,16.82,2.67,16.9,9.7,16.9,9.7-7.41,9.7-16.9Z"/>
      <path id="aa" data-name="letter1" class="ad" d="m1168.43,671.02v-37.34l-8.22,8.72-6-6.56,15.56-16.28h9.19v51.46h-10.52Z"/>
    </g>
    <g>
      <rect id="ab" data-name="path2" class="af" x="836.83" y="559.49" width="1.23" height="38.56"/>
      <rect id="ac" data-name="path1" class="af" x="1016.64" y="559.49" width="1.23" height="38.56"/>
      <g>
        <path class="ae" d="m641.79,588.77v-19.51h7.69c6.11,0,10.35,3.89,10.35,9.77s-4.24,9.74-10.35,9.74h-7.69Zm13.81-9.74c0-3.45-2.11-6.11-6.11-6.11h-3.54v12.2h3.54c3.86,0,6.11-2.78,6.11-6.08Z"/>
        <path class="ae" d="m677.42,588.77v-19.51h13.81v3.66h-9.65v4.12h9.45v3.66h-9.45v4.42h9.65v3.66h-13.81Z"/>
        <path class="ae" d="m707.79,586.02l2.25-3.16c1.37,1.43,3.51,2.63,6.2,2.63,2.28,0,3.39-1.05,3.39-2.16,0-3.45-11.23-1.08-11.23-8.42,0-3.25,2.81-5.94,7.4-5.94,3.1,0,5.67.94,7.6,2.72l-2.31,3.04c-1.58-1.46-3.68-2.13-5.67-2.13-1.78,0-2.78.79-2.78,1.96,0,3.1,11.2,1.02,11.2,8.31,0,3.57-2.54,6.26-7.81,6.26-3.74,0-6.43-1.26-8.25-3.1Z"/>
        <path class="ae" d="m741.29,588.77v-19.51h4.15v19.51h-4.15Z"/>
        <path class="ae" d="m763,579.03c0-6.17,4.68-10.09,10.38-10.09,4.07,0,6.61,2.05,8.07,4.36l-3.45,1.87c-.88-1.37-2.55-2.55-4.62-2.55-3.54,0-6.11,2.72-6.11,6.41s2.57,6.41,6.11,6.41c1.73,0,3.36-.76,4.15-1.49v-2.34h-5.15v-3.63h9.3v7.49c-1.99,2.22-4.77,3.69-8.31,3.69-5.7,0-10.38-3.98-10.38-10.12Z"/>
        <path class="ae" d="m813.08,588.77l-9.3-12.72v12.72h-4.15v-19.51h4.27l9.04,12.26v-12.26h4.15v19.51h-4.01Z"/>
        <path class="ae" d="m856.38,586.02l2.25-3.16c1.37,1.43,3.51,2.63,6.2,2.63,2.28,0,3.39-1.05,3.39-2.16,0-3.45-11.23-1.08-11.23-8.42,0-3.25,2.81-5.94,7.4-5.94,3.1,0,5.67.94,7.6,2.72l-2.31,3.04c-1.58-1.46-3.68-2.13-5.67-2.13-1.78,0-2.78.79-2.78,1.96,0,3.1,11.2,1.02,11.2,8.31,0,3.57-2.54,6.26-7.81,6.26-3.74,0-6.43-1.26-8.25-3.1Z"/>
        <path class="ae" d="m889.88,588.77v-19.51h4.15v19.51h-4.15Z"/>
        <path class="ae" d="m911.59,579.03c0-6.17,4.68-10.09,10.38-10.09,4.07,0,6.61,2.05,8.07,4.36l-3.45,1.87c-.88-1.37-2.55-2.55-4.62-2.55-3.54,0-6.11,2.72-6.11,6.41s2.57,6.41,6.11,6.41c1.73,0,3.36-.76,4.15-1.49v-2.34h-5.15v-3.63h9.3v7.49c-1.99,2.22-4.77,3.69-8.31,3.69-5.7,0-10.38-3.98-10.38-10.12Z"/>
        <path class="ae" d="m961.67,588.77l-9.3-12.72v12.72h-4.15v-19.51h4.27l9.04,12.26v-12.26h4.15v19.51h-4.01Z"/>
        <path class="ae" d="m982.86,586.02l2.25-3.16c1.37,1.43,3.51,2.63,6.2,2.63,2.28,0,3.39-1.05,3.39-2.16,0-3.45-11.23-1.08-11.23-8.42,0-3.25,2.81-5.94,7.4-5.94,3.1,0,5.67.94,7.61,2.72l-2.31,3.04c-1.58-1.46-3.69-2.13-5.68-2.13-1.78,0-2.78.79-2.78,1.96,0,3.1,11.2,1.02,11.2,8.31,0,3.57-2.54,6.26-7.81,6.26-3.74,0-6.44-1.26-8.25-3.1Z"/>
        <path class="ae" d="m1037.54,579.03c0-6.17,4.68-10.09,10.38-10.09,4.07,0,6.61,2.05,8.07,4.36l-3.45,1.87c-.88-1.37-2.55-2.55-4.62-2.55-3.54,0-6.11,2.72-6.11,6.41s2.57,6.41,6.11,6.41c1.73,0,3.36-.76,4.15-1.49v-2.34h-5.15v-3.63h9.3v7.49c-1.99,2.22-4.77,3.69-8.31,3.69-5.7,0-10.38-3.98-10.38-10.12Z"/>
        <path class="ae" d="m1085.19,588.77l-3.83-6.93h-3.04v6.93h-4.15v-19.51h9.13c4.07,0,6.55,2.66,6.55,6.29s-2.16,5.29-4.27,5.79l4.39,7.43h-4.77Zm.41-13.22c0-1.64-1.26-2.63-2.92-2.63h-4.36v5.26h4.36c1.67,0,2.92-.99,2.92-2.63Z"/>
        <path class="ae" d="m1121.06,588.77l-1.2-3.3h-8.37l-1.23,3.3h-4.74l7.55-19.51h5.21l7.52,19.51h-4.74Zm-5.38-15.36l-3.04,8.4h6.08l-3.04-8.4Z"/>
        <path class="ae" d="m1142.25,588.77v-19.51h9.13c4.24,0,6.55,2.87,6.55,6.29s-2.34,6.29-6.55,6.29h-4.97v6.93h-4.15Zm11.44-13.22c0-1.64-1.23-2.63-2.87-2.63h-4.42v5.26h4.42c1.64,0,2.87-1.02,2.87-2.63Z"/>
        <path class="ae" d="m1188.5,588.77v-8.19h-9.21v8.19h-4.15v-19.51h4.15v7.66h9.21v-7.66h4.18v19.51h-4.18Z"/>
        <path class="ae" d="m1211.14,588.77v-19.51h4.15v19.51h-4.15Z"/>
        <path class="ae" d="m1232.85,579.03c0-5.99,4.53-10.09,10.38-10.09,4.3,0,6.79,2.34,8.16,4.77l-3.57,1.76c-.82-1.58-2.57-2.84-4.59-2.84-3.54,0-6.11,2.72-6.11,6.41s2.57,6.41,6.11,6.41c2.02,0,3.77-1.23,4.59-2.84l3.57,1.73c-1.4,2.43-3.86,4.8-8.16,4.8-5.85,0-10.38-4.09-10.38-10.09Z"/>
        <path class="ae" d="m1267.2,586.02l2.25-3.16c1.37,1.43,3.51,2.63,6.2,2.63,2.28,0,3.39-1.05,3.39-2.16,0-3.45-11.23-1.08-11.23-8.42,0-3.25,2.81-5.94,7.4-5.94,3.1,0,5.67.94,7.61,2.72l-2.31,3.04c-1.58-1.46-3.69-2.13-5.68-2.13-1.78,0-2.78.79-2.78,1.96,0,3.1,11.2,1.02,11.2,8.31,0,3.57-2.54,6.26-7.81,6.26-3.74,0-6.44-1.26-8.25-3.1Z"/>
      </g>
    </g>
  </g>
</svg>