<?xml version="1.0" encoding="UTF-8"?>
<svg id="a" data-name="background" xmlns="http://www.w3.org/2000/svg" viewBox="0 0 641.47 264.37">
  <defs>
    <style>
      .d {
        fill: #58595b;
      }

      .e {
        fill: #231f20;
        stroke: #231f20;
        stroke-miterlimit: 10;
      }
    </style>
  </defs>
  <rect id="b" data-name="path2" class="e" x="195.04" y="151.9" width="1.23" height="38.56"/>
  <rect id="c" data-name="path1" class="e" x="374.86" y="151.9" width="1.23" height="38.56"/>
  <g>
    <path class="d" d="m0,181.19v-19.51h7.69c6.11,0,10.35,3.89,10.35,9.77s-4.24,9.74-10.35,9.74H0Zm13.81-9.74c0-3.45-2.11-6.11-6.11-6.11h-3.54v12.2h3.54c3.86,0,6.11-2.78,6.11-6.08Z"/>
    <path class="d" d="m35.63,181.19v-19.51h13.81v3.66h-9.65v4.12h9.45v3.66h-9.45v4.42h9.65v3.66h-13.81Z"/>
    <path class="d" d="m66,178.44l2.25-3.16c1.37,1.43,3.51,2.63,6.2,2.63,2.28,0,3.39-1.05,3.39-2.16,0-3.45-11.23-1.08-11.23-8.42,0-3.25,2.81-5.94,7.4-5.94,3.1,0,5.67.94,7.6,2.72l-2.31,3.04c-1.58-1.46-3.68-2.13-5.67-2.13-1.78,0-2.78.79-2.78,1.96,0,3.1,11.2,1.02,11.2,8.31,0,3.57-2.54,6.26-7.81,6.26-3.74,0-6.43-1.26-8.25-3.1Z"/>
    <path class="d" d="m99.5,181.19v-19.51h4.15v19.51h-4.15Z"/>
    <path class="d" d="m121.21,171.45c0-6.17,4.68-10.09,10.38-10.09,4.07,0,6.61,2.05,8.07,4.36l-3.45,1.87c-.88-1.37-2.55-2.55-4.62-2.55-3.54,0-6.11,2.72-6.11,6.41s2.57,6.41,6.11,6.41c1.73,0,3.36-.76,4.15-1.49v-2.34h-5.15v-3.63h9.3v7.49c-1.99,2.22-4.77,3.69-8.31,3.69-5.7,0-10.38-3.98-10.38-10.12Z"/>
    <path class="d" d="m171.29,181.19l-9.3-12.72v12.72h-4.15v-19.51h4.27l9.04,12.26v-12.26h4.15v19.51h-4.01Z"/>
    <path class="d" d="m214.6,178.44l2.25-3.16c1.37,1.43,3.51,2.63,6.2,2.63,2.28,0,3.39-1.05,3.39-2.16,0-3.45-11.23-1.08-11.23-8.42,0-3.25,2.81-5.94,7.4-5.94,3.1,0,5.67.94,7.6,2.72l-2.31,3.04c-1.58-1.46-3.68-2.13-5.67-2.13-1.78,0-2.78.79-2.78,1.96,0,3.1,11.2,1.02,11.2,8.31,0,3.57-2.54,6.26-7.81,6.26-3.74,0-6.43-1.26-8.25-3.1Z"/>
    <path class="d" d="m248.09,181.19v-19.51h4.15v19.51h-4.15Z"/>
    <path class="d" d="m269.8,171.45c0-6.17,4.68-10.09,10.38-10.09,4.07,0,6.61,2.05,8.07,4.36l-3.45,1.87c-.88-1.37-2.55-2.55-4.62-2.55-3.54,0-6.11,2.72-6.11,6.41s2.57,6.41,6.11,6.41c1.73,0,3.36-.76,4.15-1.49v-2.34h-5.15v-3.63h9.3v7.49c-1.99,2.22-4.77,3.69-8.31,3.69-5.7,0-10.38-3.98-10.38-10.12Z"/>
    <path class="d" d="m319.88,181.19l-9.3-12.72v12.72h-4.15v-19.51h4.27l9.04,12.26v-12.26h4.15v19.51h-4.01Z"/>
    <path class="d" d="m341.07,178.44l2.25-3.16c1.37,1.43,3.51,2.63,6.2,2.63,2.28,0,3.39-1.05,3.39-2.16,0-3.45-11.23-1.08-11.23-8.42,0-3.25,2.81-5.94,7.4-5.94,3.1,0,5.67.94,7.61,2.72l-2.31,3.04c-1.58-1.46-3.69-2.13-5.68-2.13-1.78,0-2.78.79-2.78,1.96,0,3.1,11.2,1.02,11.2,8.31,0,3.57-2.54,6.26-7.81,6.26-3.74,0-6.44-1.26-8.25-3.1Z"/>
    <path class="d" d="m395.75,171.45c0-6.17,4.68-10.09,10.38-10.09,4.07,0,6.61,2.05,8.07,4.36l-3.45,1.87c-.88-1.37-2.55-2.55-4.62-2.55-3.54,0-6.11,2.72-6.11,6.41s2.57,6.41,6.11,6.41c1.73,0,3.36-.76,4.15-1.49v-2.34h-5.15v-3.63h9.3v7.49c-1.99,2.22-4.77,3.69-8.31,3.69-5.7,0-10.38-3.98-10.38-10.12Z"/>
    <path class="d" d="m443.4,181.19l-3.83-6.93h-3.04v6.93h-4.15v-19.51h9.13c4.07,0,6.55,2.66,6.55,6.29s-2.16,5.29-4.27,5.79l4.39,7.43h-4.77Zm.41-13.22c0-1.64-1.26-2.63-2.92-2.63h-4.36v5.26h4.36c1.67,0,2.92-.99,2.92-2.63Z"/>
    <path class="d" d="m479.27,181.19l-1.2-3.3h-8.37l-1.23,3.3h-4.74l7.55-19.51h5.21l7.52,19.51h-4.74Zm-5.38-15.36l-3.04,8.4h6.08l-3.04-8.4Z"/>
    <path class="d" d="m500.46,181.19v-19.51h9.13c4.24,0,6.55,2.87,6.55,6.29s-2.34,6.29-6.55,6.29h-4.97v6.93h-4.15Zm11.44-13.22c0-1.64-1.23-2.63-2.87-2.63h-4.42v5.26h4.42c1.64,0,2.87-1.02,2.87-2.63Z"/>
    <path class="d" d="m546.71,181.19v-8.19h-9.21v8.19h-4.15v-19.51h4.15v7.66h9.21v-7.66h4.18v19.51h-4.18Z"/>
    <path class="d" d="m569.36,181.19v-19.51h4.15v19.51h-4.15Z"/>
    <path class="d" d="m591.06,171.45c0-5.99,4.53-10.09,10.38-10.09,4.3,0,6.79,2.34,8.16,4.77l-3.57,1.76c-.82-1.58-2.57-2.84-4.59-2.84-3.54,0-6.11,2.72-6.11,6.41s2.57,6.41,6.11,6.41c2.02,0,3.77-1.23,4.59-2.84l3.57,1.73c-1.4,2.43-3.86,4.8-8.16,4.8-5.85,0-10.38-4.09-10.38-10.09Z"/>
    <path class="d" d="m625.41,178.44l2.25-3.16c1.37,1.43,3.51,2.63,6.2,2.63,2.28,0,3.39-1.05,3.39-2.16,0-3.45-11.23-1.08-11.23-8.42,0-3.25,2.81-5.94,7.4-5.94,3.1,0,5.67.94,7.61,2.72l-2.31,3.04c-1.58-1.46-3.69-2.13-5.68-2.13-1.78,0-2.78.79-2.78,1.96,0,3.1,11.2,1.02,11.2,8.31,0,3.57-2.54,6.26-7.81,6.26-3.74,0-6.44-1.26-8.25-3.1Z"/>
  </g>
</svg>