<?xml version="1.0" encoding="UTF-8"?>
<svg id="a" data-name="background" xmlns="http://www.w3.org/2000/svg" viewBox="0 0 641.47 264.37">
  <defs>
    <style>
      .o {
        fill: #fff;
      }
    </style>
  </defs>
  <g id="b" data-name="phonenumber">
    <path id="c" data-name="letter12" class="o" d="m111.49,263.44l17.7-41.82h-24.89v-9.64h37.11v7.64l-18.37,43.82h-11.56Z"/>
    <path id="d" data-name="letter11" class="o" d="m145.14,237.83c0-15.58,8.44-26.62,23.04-26.62,6,0,11.04,2.08,14.59,5.32l-4.74,8.41c-2.67-2.62-5.48-4.01-9.85-4.01-7.26,0-12.37,6.4-12.37,14.58,0,.39,0,.69.07,1.08,2.3-3.47,7.26-6.64,12.67-6.64,8.89,0,16.89,5.79,16.89,16.74,0,10.03-7.7,17.67-18.96,17.67-15.04,0-21.33-12.04-21.33-26.54Zm29.56,9.26c0-5.4-4.44-7.72-9.11-7.72-3.7,0-7.33,1.77-9.7,4.86.44,4.94,3.11,10.42,10,10.42,5.7,0,8.81-4.01,8.81-7.56Z"/>
    <path id="e" data-name="letter10" class="o" d="m189.2,256.11l5.56-7.33c3.33,3.7,8.74,5.86,13.56,5.86,6,0,9.33-2.7,9.33-6.56,0-4.09-3.04-5.94-9.93-5.94-2.07,0-5.41.08-6.15.15v-9.88c.89.08,4.3.08,6.15.08,5.48,0,9.19-1.7,9.19-5.48,0-4.09-4.07-6.1-9.19-6.1-4.81,0-9.11,1.85-12.59,5.32l-5.26-6.87c4-4.71,10.22-8.18,18.89-8.18,11.56,0,18.67,5.4,18.67,13.96,0,6.48-5.33,10.72-10.81,11.73,5.04.54,11.56,4.63,11.56,12.34,0,8.87-7.63,15.12-19.48,15.12-9.04,0-15.85-3.63-19.48-8.26Z"/>
    <path id="f" data-name="letter9" class="o" d="m233.67,258.04c0-3.39,2.74-6.25,6-6.25s6,2.85,6,6.25-2.74,6.25-6,6.25-6-2.85-6-6.25Z"/>
    <path id="g" data-name="letter8" class="o" d="m251.87,258.97l4.67-8.41c2.67,2.62,5.48,4.01,9.85,4.01,8.15,0,12.37-7.18,12.37-14.5v-1.16c-2.37,3.47-7.33,6.64-12.74,6.64-8.89,0-16.81-5.79-16.81-16.74,0-10.03,7.63-17.67,18.89-17.67,15.04,0,21.33,12.04,21.33,26.54,0,15.59-8.44,26.62-23.04,26.62-6,0-11.04-2.08-14.52-5.32Zm26.81-27.7c-.44-4.94-3.11-10.42-10-10.42-5.7,0-8.81,4.01-8.81,7.56,0,5.4,4.52,7.72,9.11,7.72,3.78,0,7.33-1.77,9.7-4.86Z"/>
    <path id="h" data-name="letter7" class="o" d="m299.17,263.44l17.7-41.82h-24.89v-9.64h37.11v7.64l-18.37,43.82h-11.56Z"/>
    <path id="i" data-name="letter6" class="o" d="m334.51,263.44v-8.64c20.22-15.59,26.15-20.83,26.15-27.16,0-4.55-3.93-6.71-8-6.71-5.63,0-9.93,2.31-13.26,5.94l-6-7.25c4.81-5.79,12.15-8.41,19.04-8.41,10.59,0,18.89,6.17,18.89,16.43,0,8.8-6.96,16.43-19.78,26.16h20.15v9.64h-37.19Z"/>
    <path id="j" data-name="letter5" class="o" d="m380.13,258.04c0-3.39,2.74-6.25,6-6.25s6,2.85,6,6.25-2.74,6.25-6,6.25-6-2.85-6-6.25Z"/>
    <path id="k" data-name="letter4" class="o" d="m396.85,256.65l5.85-7.64c3.33,3.63,7.93,5.63,13.11,5.63,5.85,0,9.19-3.47,9.19-7.64,0-4.55-3.26-7.64-8.89-7.64-4.07,0-7.41,1.23-10.37,4.17l-7.33-2.08v-29.47h33.93v9.64h-23.41v12.58c2.37-2.47,6.37-4.32,10.89-4.32,8.37,0,15.85,6.25,15.85,16.67s-7.85,17.82-19.78,17.82c-8.59,0-14.81-2.93-19.04-7.72Z"/>
    <path id="l" data-name="letter3" class="o" d="m450.1,263.44v-37.34l-8.22,8.72-6-6.56,15.56-16.28h9.19v51.46h-10.52Z"/>
    <path id="m" data-name="letter2" class="o" d="m467.75,237.75c0-13.27,6.3-26.54,20.44-26.54s20.44,13.27,20.44,26.54-6.3,26.62-20.44,26.62-20.44-13.35-20.44-26.62Zm30.15,0c0-9.49-2.59-16.82-9.7-16.82s-9.7,7.33-9.7,16.82,2.67,16.9,9.7,16.9,9.7-7.41,9.7-16.9Z"/>
    <path id="n" data-name="letter1" class="o" d="m526.64,263.44v-37.34l-8.22,8.72-6-6.56,15.56-16.28h9.19v51.46h-10.52Z"/>
  </g>
</svg>