<?xml version="1.0" encoding="utf-8"?>
<!-- Generator: Adobe Illustrator 28.0.0, SVG Export Plug-In . SVG Version: 6.00 Build 0)  -->
<svg version="1.1" id="Layer_1" xmlns="http://www.w3.org/2000/svg" xmlns:xlink="http://www.w3.org/1999/xlink" x="0px" y="0px"
	 viewBox="0 0 1920 1080" style="enable-background:new 0 0 1920 1080;" xml:space="preserve">
<style type="text/css">
	.st0{fill:#43C3EE;}
	.st1{opacity:8.000000e-02;}
	.st2{fill:#FFFFFF;}
	.st3{fill:#FFFFFF;stroke:#FFFFFF;stroke-width:2.6269;stroke-miterlimit:10;}
	.st4{fill:#FFFFFF;stroke:#FFFFFF;stroke-width:0.6;stroke-miterlimit:10;}
</style>
<rect x="0" y="923.4" width="1963.3" height="288.6"/>
<rect x="-2.5" y="0.2" class="st0" width="1926.2" height="933.5"/>
<g class="st1">
	<path d="M233.7,269.2l-94.3,210.1h-33.4L11.6,269.2h50.2L123,411.2l60.9-141.9H233.7z"/>
	<path d="M268,224.6c-5.7-5.7-8.6-12.7-8.6-21c0-8.3,2.9-15.3,8.6-21c5.7-5.7,12.7-8.6,21-8.6c8,0,14.9,2.9,20.6,8.6
		c5.7,5.7,8.6,12.7,8.6,21c0,8.3-2.9,15.3-8.6,21c-5.7,5.7-12.6,8.6-20.6,8.6C280.7,233.2,273.7,230.3,268,224.6z M265.8,269.2h45.9
		v210.1h-45.9V269.2z"/>
	<path d="M468,439.2c3.9-0.7,7.9-1.9,12.2-3.6v43.3c-10.3,3.7-21.9,5.6-34.7,5.6c-20.9,0-37.2-6.4-49.1-19.3
		c-11.9-12.9-17.8-31.7-17.8-56.6v-96h-28.3v-43.3h28.3v-41.6l46.3-18.4v60h54v43.3h-54v94.8c0,9.7,2.5,17.7,7.5,23.8
		c5,6.2,11.8,9.2,20.4,9.2C459.1,440.3,464.1,440,468,439.2z"/>
	<path d="M550.5,471c-15.4-9-27.8-21.9-37.1-38.6c-9.3-16.7-13.9-36.1-13.9-58.1c0-22.3,4.6-41.8,13.9-58.5
		c9.3-16.7,21.7-29.5,37.1-38.4c15.4-8.9,32.2-13.3,50.2-13.3c14.3,0,27.2,2.9,38.6,8.6c11.4,5.8,20.2,13.1,26.2,22v-25.5h45.9
		v210.1h-45.9v-25.9c-6,8.9-14.7,16.3-25.9,22.2c-11.3,5.9-24.2,8.8-38.8,8.8C582.7,484.5,566,480,550.5,471z M650.9,421.4
		c11.7-12.3,17.6-28,17.6-47.2c0-19.1-5.8-34.9-17.4-47.2c-11.6-12.3-26.4-18.4-44.4-18.4c-11.1,0-21.4,2.6-30.7,7.9
		c-9.3,5.3-16.7,12.9-22.1,22.9c-5.4,10-8.1,21.6-8.1,34.7c0,13.1,2.7,24.7,8.1,34.5c5.4,9.9,12.8,17.5,22.1,22.9
		c9.3,5.4,19.5,8.1,30.7,8.1C624.4,439.9,639.1,433.7,650.9,421.4z"/>
	<path d="M763.6,163.7h45.9v315.6h-45.9V163.7z"/>
	<path d="M1062.1,269.2l-94.3,210.1h-33.4L840,269.2h50.2l61.3,141.9l60.9-141.9H1062.1z"/>
	<path d="M1096.4,224.6c-5.7-5.7-8.6-12.7-8.6-21c0-8.3,2.9-15.3,8.6-21c5.7-5.7,12.7-8.6,21-8.6c8,0,14.9,2.9,20.6,8.6
		c5.7,5.7,8.6,12.7,8.6,21c0,8.3-2.9,15.3-8.6,21c-5.7,5.7-12.6,8.6-20.6,8.6C1109.1,233.2,1102.1,230.3,1096.4,224.6z
		 M1094.2,269.2h45.9v210.1h-45.9V269.2z"/>
	<path d="M1210.9,468.4c-14-10.7-23.6-24.4-28.7-41l40.7-16.7c3.1,9.7,8.1,17.4,15,23.2c6.9,5.7,15.2,8.6,24.9,8.6
		c8.9,0,15.9-2.1,21.2-6.4c5.3-4.3,7.9-9.7,7.9-16.3c0-7.1-2.9-12.9-8.8-17.1c-5.9-4.3-16.2-7.7-31.1-10.3
		c-20.9-3.7-36.8-11.1-47.8-22.3c-11-11.2-16.5-25.2-16.5-42c0-11.7,3.1-22.4,9.4-32.2c6.3-9.7,15-17.4,26.2-23.2
		c11.1-5.7,23.7-8.6,37.7-8.6c18,0,33.2,4.4,45.5,13.1c12.3,8.7,21.4,20.4,27.4,34.9l-41.2,16.7c-2.3-6.6-6.2-12-11.8-16.3
		c-5.6-4.3-12.4-6.4-20.4-6.4c-7.7,0-14.2,2-19.3,6c-5.1,4-7.7,9-7.7,15c0,6.3,2.8,11.2,8.4,14.8c5.6,3.6,14.9,6.6,28.1,9.2
		c45.2,9.2,67.8,31.6,67.8,67.3c0,12.3-3.2,23.4-9.6,33.4c-6.4,10-15.4,17.9-26.8,23.8c-11.4,5.9-24.3,8.8-38.6,8.8
		C1242.2,484.5,1224.9,479.1,1210.9,468.4z"/>
	<path d="M1397.2,459.6c-14.2-16.6-21.2-40-21.2-70V269.2h45.9V384c0,18.3,3.6,32.2,10.7,41.7c7.1,9.5,17.4,14.2,30.9,14.2
		c15.7,0,28.6-6.1,38.6-18.3c10-12.2,15-28.2,15-47.9V269.2h45.9v210.1H1517v-28.5c-5.4,9.8-13.5,17.8-24.2,24.1
		c-10.7,6.3-22.9,9.5-36.7,9.5C1431,484.5,1411.3,476.2,1397.2,459.6z"/>
	<path d="M1654.7,471c-15.4-9-27.8-21.9-37.1-38.6c-9.3-16.7-13.9-36.1-13.9-58.1c0-22.3,4.6-41.8,13.9-58.5
		c9.3-16.7,21.7-29.5,37.1-38.4c15.4-8.9,32.2-13.3,50.2-13.3c14.3,0,27.2,2.9,38.6,8.6c11.4,5.8,20.2,13.1,26.2,22v-25.5h45.9
		v210.1h-45.9v-25.9c-6,8.9-14.7,16.3-25.9,22.2c-11.3,5.9-24.2,8.8-38.8,8.8C1686.8,484.5,1670.1,480,1654.7,471z M1755,421.4
		c11.7-12.3,17.6-28,17.6-47.2c0-19.1-5.8-34.9-17.4-47.2c-11.6-12.3-26.4-18.4-44.4-18.4c-11.2,0-21.4,2.6-30.7,7.9
		c-9.3,5.3-16.7,12.9-22.1,22.9c-5.4,10-8.1,21.6-8.1,34.7c0,13.1,2.7,24.7,8.1,34.5c5.4,9.9,12.8,17.5,22.1,22.9
		c9.3,5.4,19.5,8.1,30.7,8.1C1728.6,439.9,1743.3,433.7,1755,421.4z"/>
	<path d="M1867.8,163.7h45.9v315.6h-45.9V163.7z"/>
</g>
<rect x="-10.1" y="-115.2" width="1963.3" height="288.6"/>
<g>
	<path class="st2" d="M621.4,517.5H594l-38.5-109.4h18.3l34.2,95.1l33.2-95.1H659L621.4,517.5z"/>
	<path class="st2" d="M673.4,380.4h-18.8v-17h18.8V380.4z M673.4,517.5h-18.8V408.1h18.8V517.5z"/>
	<path class="st2" d="M708.1,408.1h30.1v13.1h-30.1V490c0,10.7-0.2,17.6,15.2,17.6c5.3,0,10.3-0.4,14.9-1.4v11.3
		c-6,1.8-12.3,3.2-18.8,3.2c-31.8,0-30.1-17.6-30.1-37.7v-61.8h-20.2v-13.1h20.2v-35.5h18.8V408.1z"/>
	<path class="st2" d="M807.5,517.5l-1.9-13.9c-10.8,8.7-22.9,17-38.5,17c-20.5,0-36.8-14.1-36.8-31.3c0-31.3,40-38,69.3-44.6l6-1.4
		v-6.1c0-12.5-10.3-19.3-25.3-19.3c-14.7,0-24.8,7.9-32.5,17.2l-13.2-8.1c11.1-13.1,25.5-22.2,45.8-22.2c18,0,44.1,9.1,44.1,34.1
		v54.3c0.2,8.1-0.3,16.4,3.6,24.2H807.5z M798.1,457.9c-17.8,4.4-50.3,10.3-50.3,29.9c0,9.1,8.6,18.2,20,18.2
		c14.9,0,28.7-8.5,37.8-17.8v-32.1L798.1,457.9z"/>
	<path class="st2" d="M851.8,517.5h-18.8V363.4h18.8V517.5z"/>
</g>
<path d="M946,408.7c-3.6-10.7-10.8-21.6-26-21.6c-12.3,0-22.9,7.3-22.9,17.8c0,30.3,88.1,10.5,88.1,68c0,18.8-17.4,46.9-63.6,46.9
	c-35.6,0-61.4-14.3-67.2-44.4L892,471c3.4,13.1,11.6,22.8,29.4,22.8c14.7,0,27-6.3,27-19.6c0-30.9-88.1-13.1-88.1-65.6
	c0-27.7,28.4-47.5,60.9-47.5c31.8,0,55.6,16.9,58.8,42.8L946,408.7z"/>
<path d="M1021.8,390.3h-35.6v-26.9h35.6V390.3z M1021.8,517.5h-35.6v-111h35.6V517.5z"/>
<path d="M1069,481.1c-4.1,0-10.1,1.8-10.1,6.9c0,14.5,93.4-10.7,93.4,32.7c0,16.4-13.5,33.9-66.9,33.9c-46.5,0-62.4-13.5-62.4-27.9
	c0-8.5,6.5-12.9,14.7-16.8c-5.8-3.6-10.6-7.7-10.6-14.1c0-10.9,7.2-16.6,17.6-22.2c-9.9-8-16.9-17.9-16.9-30.5
	c0-24.6,25.3-38.8,54.4-38.8c11.8,0,23.1,2.8,33.2,7.7c7.2-5.5,13.7-9.1,24.3-9.1c3.4,0,7,0.2,10.4,0.8v20.6
	c-3.6-1.2-7.5-2.4-11.3-2.4c-3.9,0-6.3,1-9.6,2.4c3.9,5.9,7,12.5,7.2,18.8c0,24.5-25,38.8-54.2,38.8L1069,481.1z M1057.7,517.7
	c-3.4,1.8-5.5,3.4-5.5,7c0,10.3,25.3,10.9,33.7,10.9c6,0,37.3-0.6,37.3-9.5c0-5.8-4.8-5.2-26-6.2L1057.7,517.7z M1082.2,462.4
	c14.9,0,19.3-10.1,19.3-20.6c0-10.1-5.8-18.6-19.3-18.6c-14.9,0-19.5,10.3-19.5,20.8C1062.8,454.1,1068.5,462.4,1082.2,462.4z"/>
<path d="M1184.8,418c11.3-7.7,25.2-13.9,40.2-13.9c14.7,0,35.4,7.3,35.4,34.7v78.7h-35.6v-66.8c0-8.9,0.7-23-14.7-23
	c-10.3,0-18.5,6.1-25.2,12.1v77.7h-35.7v-111h35.7V418z"/>
<path d="M1326.1,439.1c-1.7-7.7-4.8-13.3-15.4-13.3c-8.4,0-14.4,5.2-14.4,12.3c0,19,65.2,5.1,65.2,46.7c0,23.6-23.8,35.1-51.3,35.1
	c-27.7,0-45.3-11.1-48.9-34.1l33.5-3c0.7,8,5.8,15.5,16.6,15.5c8.9,0,17.4-3.4,17.4-11.9c0-19.4-65.3-3.6-65.3-46.8
	c0-22.4,23.3-35.5,49.6-35.5c23.6,0,42.6,12.3,46.7,31.5L1326.1,439.1z"/>
<g>
	<path d="M538.7,583.7v-25.6h10.1c8,0,13.6,5.1,13.6,12.8c0,7.7-5.6,12.8-13.6,12.8H538.7z M556.9,570.9c0-4.5-2.8-8-8-8h-4.6v16
		h4.6C553.9,578.9,556.9,575.3,556.9,570.9z"/>
	<path d="M585.5,583.7v-25.6h18.1v4.8H591v5.4h12.4v4.8H591v5.8h12.7v4.8H585.5z"/>
	<path d="M625.4,580.1l3-4.1c1.8,1.9,4.6,3.5,8.1,3.5c3,0,4.5-1.4,4.5-2.8c0-4.5-14.8-1.4-14.8-11.1c0-4.3,3.7-7.8,9.7-7.8
		c4.1,0,7.5,1.2,10,3.6l-3,4c-2.1-1.9-4.8-2.8-7.5-2.8c-2.3,0-3.6,1-3.6,2.6c0,4.1,14.7,1.3,14.7,10.9c0,4.7-3.3,8.2-10.3,8.2
		C631.3,584.2,627.8,582.5,625.4,580.1z"/>
	<path d="M669.4,583.7v-25.6h5.5v25.6H669.4z"/>
	<path d="M697.9,570.9c0-8.1,6.1-13.3,13.6-13.3c5.3,0,8.7,2.7,10.6,5.7l-4.5,2.5c-1.2-1.8-3.3-3.3-6.1-3.3c-4.6,0-8,3.6-8,8.4
		c0,4.8,3.4,8.4,8,8.4c2.3,0,4.4-1,5.5-2v-3.1h-6.8v-4.8h12.2v9.8c-2.6,2.9-6.3,4.8-10.9,4.8C704.1,584.2,697.9,579,697.9,570.9z"/>
	<path d="M763.7,583.7L751.5,567v16.7H746v-25.6h5.6l11.9,16.1v-16.1h5.5v25.6H763.7z"/>
	<path d="M820.6,580.1l3-4.1c1.8,1.9,4.6,3.5,8.1,3.5c3,0,4.5-1.4,4.5-2.8c0-4.5-14.8-1.4-14.8-11.1c0-4.3,3.7-7.8,9.7-7.8
		c4.1,0,7.5,1.2,10,3.6l-3,4c-2.1-1.9-4.8-2.8-7.5-2.8c-2.3,0-3.6,1-3.6,2.6c0,4.1,14.7,1.3,14.7,10.9c0,4.7-3.3,8.2-10.3,8.2
		C826.5,584.2,823,582.5,820.6,580.1z"/>
	<path d="M864.6,583.7v-25.6h5.5v25.6H864.6z"/>
	<path d="M893.1,570.9c0-8.1,6.1-13.3,13.6-13.3c5.3,0,8.7,2.7,10.6,5.7l-4.5,2.5c-1.2-1.8-3.3-3.3-6.1-3.3c-4.6,0-8,3.6-8,8.4
		c0,4.8,3.4,8.4,8,8.4c2.3,0,4.4-1,5.5-2v-3.1h-6.8v-4.8h12.2v9.8c-2.6,2.9-6.3,4.8-10.9,4.8C899.2,584.2,893.1,579,893.1,570.9z"/>
	<path d="M958.9,583.7L946.7,567v16.7h-5.5v-25.6h5.6l11.9,16.1v-16.1h5.5v25.6H958.9z"/>
	<path d="M986.7,580.1l3-4.1c1.8,1.9,4.6,3.5,8.1,3.5c3,0,4.5-1.4,4.5-2.8c0-4.5-14.8-1.4-14.8-11.1c0-4.3,3.7-7.8,9.7-7.8
		c4.1,0,7.5,1.2,10,3.6l-3,4c-2.1-1.9-4.8-2.8-7.5-2.8c-2.3,0-3.6,1-3.6,2.6c0,4.1,14.7,1.3,14.7,10.9c0,4.7-3.3,8.2-10.3,8.2
		C992.6,584.2,989.1,582.5,986.7,580.1z"/>
	<path d="M1058.5,570.9c0-8.1,6.1-13.3,13.6-13.3c5.3,0,8.7,2.7,10.6,5.7l-4.5,2.5c-1.2-1.8-3.3-3.3-6.1-3.3c-4.6,0-8,3.6-8,8.4
		c0,4.8,3.4,8.4,8,8.4c2.3,0,4.4-1,5.5-2v-3.1h-6.8v-4.8h12.2v9.8c-2.6,2.9-6.3,4.8-10.9,4.8C1064.7,584.2,1058.5,579,1058.5,570.9z
		"/>
	<path d="M1121.1,583.7l-5-9.1h-4v9.1h-5.5v-25.6h12c5.3,0,8.6,3.5,8.6,8.3c0,4.5-2.8,7-5.6,7.6l5.8,9.8H1121.1z M1121.7,566.4
		c0-2.2-1.7-3.5-3.8-3.5h-5.7v6.9h5.7C1120,569.8,1121.7,568.5,1121.7,566.4z"/>
	<path d="M1168.2,583.7l-1.6-4.3h-11l-1.6,4.3h-6.2l9.9-25.6h6.8l9.9,25.6H1168.2z M1161.2,563.6l-4,11h8L1161.2,563.6z"/>
	<path d="M1196.1,583.7v-25.6h12c5.6,0,8.6,3.8,8.6,8.3c0,4.5-3.1,8.3-8.6,8.3h-6.5v9.1H1196.1z M1211.1,566.4
		c0-2.2-1.6-3.5-3.8-3.5h-5.8v6.9h5.8C1209.5,569.8,1211.1,568.5,1211.1,566.4z"/>
	<path d="M1256.8,583.7V573h-12.1v10.8h-5.5v-25.6h5.5v10.1h12.1v-10.1h5.5v25.6H1256.8z"/>
	<path d="M1286.5,583.7v-25.6h5.5v25.6H1286.5z"/>
	<path d="M1315.1,570.9c0-7.9,6-13.3,13.6-13.3c5.6,0,8.9,3.1,10.7,6.3l-4.7,2.3c-1.1-2.1-3.4-3.7-6-3.7c-4.6,0-8,3.6-8,8.4
		c0,4.8,3.4,8.4,8,8.4c2.7,0,5-1.6,6-3.7l4.7,2.3c-1.8,3.2-5.1,6.3-10.7,6.3C1321,584.2,1315.1,578.8,1315.1,570.9z"/>
	<path d="M1360.2,580.1l3-4.1c1.8,1.9,4.6,3.5,8.1,3.5c3,0,4.5-1.4,4.5-2.8c0-4.5-14.8-1.4-14.8-11.1c0-4.3,3.7-7.8,9.7-7.8
		c4.1,0,7.5,1.2,10,3.6l-3,4c-2.1-1.9-4.8-2.8-7.5-2.8c-2.3,0-3.6,1-3.6,2.6c0,4.1,14.7,1.3,14.7,10.9c0,4.7-3.3,8.2-10.3,8.2
		C1366.1,584.2,1362.6,582.5,1360.2,580.1z"/>
</g>
<rect x="794.9" y="545.3" class="st3" width="1.6" height="50.6"/>
<rect x="1031.1" y="545.3" class="st3" width="1.6" height="50.6"/>
<path class="st0" d="M199.5,149.1c0-0.8,0.2-2,0.5-3.5c0.4-1.5,0.8-2.6,1.5-3.5c1.5-2.2,3-4.2,4.3-6c1.3-1.8,2.4-3.4,3.4-4.7
	c1-1.3,2-2.5,3-3.6c6.1-6.6,10.5-11.6,13.2-14.9c2.7-3.3,4-5.6,4-6.9c0-0.9-0.4-1.5-1.2-2c-0.8-0.5-1.8-0.7-3.1-0.7
	c-2.7,0-6,0.9-10,2.8c-4,1.9-8.7,4.3-14.1,7.4c-5.4,3-8.4,4.5-9,4.5c-1,0-1.5-0.7-1.5-2.1c0-1.2,0.4-2.9,1.1-5.1
	c0.6-2.4,1-4.2,1.4-5.5c0.4-1.3,1-2.5,1.8-3.5c0.8-1,2.2-2.2,4.2-3.4c2-1.2,5-2.9,9-5l0.5,2c3.4-1.4,6.6-2.4,9.6-3.1
	c3-0.7,5.6-1.1,7.7-1.1c4.2,0,7.1,0.7,8.9,2.1c1.7,1.4,2.6,4.5,2.6,9.2c0,2.6-0.4,4.7-1.1,6.5c-0.8,1.7-2.2,4.1-4.4,7.2
	c-5,7.3-8.7,12.3-11.3,15.1c-7.3,8.3-10.9,13.2-10.9,14.6c0,0.8,0.5,1.2,1.6,1.2c0.9,0,2.1-0.6,3.7-1.8c1.6-1.2,3.5-3,5.7-5.3
	c2.2-2.3,5.3-5.6,9.3-9.9c4.2-4.5,7.7-8.5,10.6-12c2.9-3.5,5.3-6.4,7.1-8.9s2.9-3.8,3-4c1.9-2.4,3.9-4.3,6-5.8
	c2.1-1.5,3.4-2.3,4-2.3c0.4,0,0.9,0.4,1.5,1.2c0.6,0.8,1.1,1.7,1.5,2.8c0.4,1.1,0.6,1.9,0.6,2.5c0,0.2-0.4,1-1.3,2.6
	c-0.9,1.6-1.8,3.2-2.8,4.8c-1,1.7-2.6,4.2-4.8,7.7c-4.9,7.6-8.6,13.9-11.2,19.1c-2.6,5.2-3.9,8.5-3.9,10.2c0,0.6,0.2,1.1,0.6,1.6
	c0.4,0.5,0.8,0.7,1.3,0.7c0.6,0,1.6-0.5,3.1-1.4c1.5-0.9,3.2-2.2,5-4c2.4-2.3,4.6-4.7,6.6-7.2c2-2.5,3.9-5.2,5.9-8.3
	c1.9-3.1,3.7-5.9,5.2-8.7c1.5-2.7,3-5.6,4.6-8.6l-0.9-2.7c-0.1-0.4-0.2-1-0.2-1.7c0-0.5,1.1-2.3,3.2-5.3c2.1-3,3.5-4.4,4.2-4.4
	c0.8,0,1.4,0.5,1.9,1.6c0.5,1.1,0.8,2.2,0.8,3.3c0,1.2-0.5,3.7-1.6,7.3c-1.1,3.6-2.8,8.1-5.1,13.2c-2.3,5.2-5.2,10.4-8.6,15.8
	c-2.9,4.7-6.1,8.7-9.5,12c-3.4,3.3-6.4,5.8-9.1,7.4c-2.7,1.6-4.7,2.4-6,2.4c-1.5,0-3-0.6-4.6-1.9c-1.3-1.1-2.3-2.2-2.8-3.1
	c-0.6-0.9-0.9-1.9-1.1-3c-0.2-1.1-0.3-2.3-0.3-3.8c0-3.1,0.8-6.6,2.5-10.7c1.7-4.1,4.2-9.2,7.5-15.3c-10.4,12.7-18.5,22-24.3,27.7
	c-5.7,5.8-9.9,8.7-12.6,8.7c-1.8,0-3.3-1-4.5-3.2C200.1,154.5,199.5,152,199.5,149.1z"/>
<path class="st0" d="M282.6,142.8v1.3c0,2.1,0.5,3.8,1.6,5c1,1.2,2.4,1.8,4.1,1.8c1.8,0,3.6-0.4,5.5-1.2c1.9-0.8,3.8-1.9,5.6-3.3
	c1.9-1.4,4.1-3.2,6.8-5.5v3.3c-4.1,4.9-7.9,8.6-11.4,11.2c-3.6,2.6-7.2,3.9-10.8,3.9c-3.2,0-5.7-1.2-7.6-3.7
	c-1.9-2.5-2.8-5.9-2.8-10.2c0-3.8,0.9-7.2,2.6-10.3s4.6-6.3,8.6-9.7c2.7-2.3,5.4-4.1,8.1-5.3c2.7-1.2,5.1-1.8,7.2-1.8
	c1.7,0,3,0.4,4,1.2c1,0.8,1.5,1.9,1.5,3.5c0,2.3-0.8,4.5-2.5,6.8c-1.7,2.2-4.3,4.5-7.7,6.7C292,138.6,287.7,140.7,282.6,142.8z
	 M283.2,139.3c3.2-1.3,6-2.8,8.3-4.7c2.3-1.9,4-3.7,5.1-5.4c1.1-1.7,1.6-3,1.6-3.7c0-0.8-0.4-1.2-1.1-1.2c-0.6,0-1.7,0.4-3.2,1.2
	c-1.5,0.8-2.9,1.9-4.4,3.2c-1.5,1.3-2.8,2.9-4,4.7C284.3,135.2,283.5,137.1,283.2,139.3z"/>
<path class="st0" d="M343.5,131.2c5.5-5,10.8-8.6,15.9-11c5.1-2.4,9.1-3.6,11.9-3.6c0.8,0,1.5,0.3,2.1,0.9c0.6,0.6,1.2,1.4,1.5,2.2
	c0.4,0.8,0.6,1.4,0.6,1.8c0,0.6-0.3,1.1-0.8,1.4c-0.5,0.3-1.4,0.7-2.6,1.1c0.3,0.6,0.6,1.3,1,2.2s0.7,1.6,0.9,2.2
	c0.2,0.6,0.3,1,0.3,1.5c0,0.9-0.9,2.5-2.6,4.8c-1.7,2.4-3,4.1-3.7,5.2c-0.7,1.1-1,2.5-1,4.1c0,2.7,1.2,4,3.7,4
	c2.5,0,6.4-2.4,11.8-7.1v3.3c-9.1,10.1-15.6,15.1-19.5,15.1c-1.4,0-2.4-0.5-3-1.4c-0.6-0.9-0.9-2.3-0.9-4.1c0-2.8,1-6.9,3.1-12.3
	c-5.2,5.8-9.1,10-11.7,12.4c-2.6,2.5-4.7,3.7-6.3,3.7c-0.8,0-1.8-0.7-3-2c-1.2-1.4-2.2-3.1-3.2-5.3c-0.9-2.2-1.4-4.4-1.4-6.8
	c0-1.7,0.2-3.1,0.5-4.2c0.3-1.1,1-2.3,1.9-3.5C340,134.7,341.5,133.1,343.5,131.2z M369.3,125.2c-9.3,4.3-16,7.9-20,10.9
	c-4,3-6,6.1-6,9.2c0,1.1,0.2,2.1,0.6,2.8c0.4,0.7,0.9,1.1,1.6,1.1c0.4,0,1.1-0.3,2.1-0.8c3.8-2.2,7.2-5.1,10.3-8.7
	C361.2,136.2,364.9,131.4,369.3,125.2z"/>
<path class="st0" d="M381.4,145v-3.5c1.9-2.3,3.4-4.3,4.4-5.9c-1.1-0.4-2-0.9-2.5-1.5c-0.5-0.6-0.8-1.4-0.8-2.6
	c0-1.3,0.5-2.9,1.6-4.9c1.1-2,2.4-3.8,4-5.5c1.6-1.7,3-2.8,4.3-3.3c0.5-0.3,1-0.4,1.5-0.4c0.7,0,1.1,0.3,1.1,1
	c0,0.6-0.6,1.8-1.7,3.7c7.4-1.1,12.1-1.7,14-1.7c0.8,0,1.3,0.1,1.6,0.2c0.6,0.3,1.1,1.1,1.5,2.3c0.4,1.2,0.6,2.4,0.6,3.6
	c0,0.8-0.3,1.6-1,2.5c-0.7,0.9-1.8,2.2-3.4,3.9c-1.9,2-3.5,4.3-4.8,6.7c-1.3,2.4-1.9,4.2-1.9,5.4c0,1.7,1,2.5,3.1,2.5
	c2.2,0,6-2.2,11.4-6.7v3.6c-3,3.1-5.4,5.6-7.4,7.4c-1.9,1.8-3.7,3.2-5.4,4.3c-1.7,1.1-3.1,1.6-4.4,1.6c-1.5,0-2.8-0.7-3.8-2.1
	c-1-1.4-1.5-3.4-1.5-6c0-1.5,0.4-3.3,1.2-5.3c0.8-2,1.9-4.1,3.5-6.4c1.5-2.3,3.2-4.6,5.1-6.9c-1,0.2-2.1,0.4-3.4,0.7
	c-1.3,0.2-2.6,0.5-4,0.7c-1.4,0.3-2.5,0.4-3.2,0.6C388.9,137.3,385.7,141.3,381.4,145z"/>
<path class="st0" d="M422.8,142.8v1.3c0,2.1,0.5,3.8,1.6,5c1,1.2,2.4,1.8,4.1,1.8c1.8,0,3.6-0.4,5.5-1.2c1.9-0.8,3.8-1.9,5.6-3.3
	c1.9-1.4,4.1-3.2,6.8-5.5v3.3c-4.1,4.9-7.9,8.6-11.4,11.2c-3.6,2.6-7.2,3.9-10.8,3.9c-3.2,0-5.7-1.2-7.6-3.7
	c-1.9-2.5-2.8-5.9-2.8-10.2c0-3.8,0.9-7.2,2.6-10.3c1.8-3.1,4.6-6.3,8.6-9.7c2.7-2.3,5.4-4.1,8.1-5.3c2.7-1.2,5.1-1.8,7.2-1.8
	c1.7,0,3,0.4,4,1.2c1,0.8,1.5,1.9,1.5,3.5c0,2.3-0.8,4.5-2.5,6.8c-1.7,2.2-4.3,4.5-7.7,6.7C432.1,138.6,427.9,140.7,422.8,142.8z
	 M423.3,139.3c3.2-1.3,6-2.8,8.3-4.7c2.3-1.9,4-3.7,5.1-5.4c1.1-1.7,1.6-3,1.6-3.7c0-0.8-0.4-1.2-1.1-1.2c-0.6,0-1.7,0.4-3.2,1.2
	c-1.5,0.8-2.9,1.9-4.4,3.2c-1.5,1.3-2.8,2.9-4,4.7C424.5,135.2,423.7,137.1,423.3,139.3z"/>
<path class="st0" d="M509.8,140.9v3.6c-3.8,3.8-7,6.7-9.4,8.8c-2.4,2.1-4.7,3.7-6.8,4.8c-2.1,1.1-4.2,1.7-6.2,1.7
	c-2,0-3.8-0.8-5.4-2.3c-1.7-1.6-2.9-3.6-3.9-6.1c-0.9-2.5-1.4-5.2-1.4-8.1c0-2.4,0.5-4.6,1.6-6.5c1.1-1.9,3.2-4.4,6.2-7.4
	c3.7-3.6,7.1-6.4,10.2-8.3c3.1-2,5.6-2.9,7.4-2.9c1.3,0,2.4,0.4,3.3,1.3c0.9,0.9,1.3,2,1.3,3.4c0,1.2-0.6,2.8-1.8,4.9
	c-1.2,2.1-2.5,4-4,5.5c-1.5,1.6-2.6,2.3-3.5,2.3c-0.9,0-1.4-0.5-1.4-1.5c0-0.3,0.1-0.6,0.1-0.8c0-0.3,0-0.5,0-0.8
	c0-0.4-0.2-0.7-0.5-0.7c-0.3-0.1-0.7,0.1-1.1,0.4c-3.6,2.5-6.1,4.3-7.4,5.3s-2.4,2.1-3.2,3.1c-0.8,1-1.2,2.1-1.2,3.3
	c0,2.1,0.7,3.8,2,5.2c1.4,1.3,3.1,2,5.3,2c2.3,0,5-0.9,8.2-2.6C501.8,146.8,505.5,144.3,509.8,140.9z"/>
<path class="st0" d="M535,137.2c-5.2,6.9-9.2,11.8-11.9,14.7c-2.7,2.9-4.9,4.4-6.7,4.4c-1.4,0-2.6-0.6-3.8-1.7
	c-1.1-1.1-2-2.7-2.7-4.6c-0.6-1.9-0.9-4-0.9-6.2c0-1.4,0.1-2.7,0.4-3.9s0.8-2.4,1.5-3.8c0.8-1.4,1.8-2.9,3-4.5
	c1.2-1.6,2.8-3.4,4.6-5.5c1.1-1.3,2-2.3,2.7-3.2c0.7-0.9,1.5-1.4,2.2-1.7c0.7-0.3,1.8-0.5,3.4-0.5c1.1,0,2.2,0.2,3.3,0.5
	c1,0.3,1.6,0.6,1.6,0.9c0,0.6-0.5,1.8-1.6,3.5c-1.1,1.7-2.8,3.7-5.1,6.2c-2.4,2.4-5.1,4.8-8.2,7.1c-0.7,2.1-1,3.7-1,4.8
	c0,1.5,0.6,2.3,1.8,2.3c0.4,0,1.1-0.4,2.2-1.1c1-0.7,2.7-2.2,5.1-4.3c2.4-2.1,4.5-4,6.4-5.6c1.4-1.2,3-3,4.9-5.5
	c1.8-2.4,3.3-4.2,4.5-5.5c2.7-2.8,4.5-4.6,5.4-5.5c1-0.8,1.9-1.3,2.8-1.3c0.9,0,1.4,0.3,1.8,0.8c0.3,0.5,0.5,1.6,0.5,3.3
	c0,0.8-0.1,1.4-0.2,1.8c-0.1,0.5-0.4,1.1-0.9,1.8c-0.4,0.7-1.4,2.1-2.7,4.1c-1.4,2-3,4.3-4.8,7c-1,1.4-1.9,3-2.6,4.7s-1.1,3-1.1,3.9
	c0,1.9,0.7,2.8,2.2,2.8c1.2,0,2.6-0.5,4.3-1.5c1.6-1,4.1-2.8,7.4-5.4v3.6c-4.2,3.9-7.3,6.7-9.3,8.5c-2,1.8-3.8,3.1-5.2,4
	c-1.5,0.9-2.9,1.3-4.2,1.3c-3,0-4.5-1.8-4.5-5.4c0-1.4,0.4-3.2,1.3-5.5C531.5,144.9,533,141.5,535,137.2z"/>
<path class="st0" d="M551.5,145v-3.5c1.9-2.3,3.4-4.3,4.4-5.9c-1.1-0.4-2-0.9-2.5-1.5c-0.5-0.6-0.8-1.4-0.8-2.6
	c0-1.3,0.5-2.9,1.6-4.9c1.1-2,2.4-3.8,4-5.5c1.6-1.7,3-2.8,4.3-3.3c0.5-0.3,1-0.4,1.5-0.4c0.7,0,1.1,0.3,1.1,1
	c0,0.6-0.6,1.8-1.7,3.7c7.4-1.1,12.1-1.7,14-1.7c0.8,0,1.3,0.1,1.6,0.2c0.6,0.3,1.1,1.1,1.5,2.3c0.4,1.2,0.6,2.4,0.6,3.6
	c0,0.8-0.3,1.6-1,2.5c-0.7,0.9-1.8,2.2-3.4,3.9c-1.9,2-3.5,4.3-4.8,6.7c-1.3,2.4-1.9,4.2-1.9,5.4c0,1.7,1,2.5,3.1,2.5
	c2.2,0,6-2.2,11.4-6.7v3.6c-3,3.1-5.4,5.6-7.4,7.4c-1.9,1.8-3.7,3.2-5.4,4.3c-1.7,1.1-3.1,1.6-4.4,1.6c-1.5,0-2.8-0.7-3.8-2.1
	c-1-1.4-1.5-3.4-1.5-6c0-1.5,0.4-3.3,1.2-5.3c0.8-2,1.9-4.1,3.5-6.4c1.5-2.3,3.2-4.6,5.1-6.9c-1,0.2-2.1,0.4-3.4,0.7
	c-1.3,0.2-2.6,0.5-4,0.7c-1.4,0.3-2.5,0.4-3.2,0.6C559,137.3,555.7,141.3,551.5,145z"/>
<path class="st0" d="M583.7,145v-3.5c1.9-2.3,3.4-4.3,4.4-5.9c-1.1-0.4-2-0.9-2.5-1.5c-0.5-0.6-0.8-1.4-0.8-2.6
	c0-1.3,0.5-2.9,1.6-4.9c1.1-2,2.4-3.8,4-5.5c1.6-1.7,3-2.8,4.3-3.3c0.5-0.3,1-0.4,1.5-0.4c0.7,0,1.1,0.3,1.1,1
	c0,0.6-0.6,1.8-1.7,3.7c7.4-1.1,12.1-1.7,14-1.7c0.8,0,1.3,0.1,1.6,0.2c0.6,0.3,1.1,1.1,1.5,2.3c0.4,1.2,0.6,2.4,0.6,3.6
	c0,0.8-0.3,1.6-1,2.5c-0.7,0.9-1.8,2.2-3.4,3.9c-1.9,2-3.5,4.3-4.8,6.7c-1.3,2.4-1.9,4.2-1.9,5.4c0,1.7,1,2.5,3.1,2.5
	c2.2,0,6-2.2,11.4-6.7v3.6c-3,3.1-5.4,5.6-7.4,7.4c-1.9,1.8-3.7,3.2-5.4,4.3c-1.7,1.1-3.1,1.6-4.4,1.6c-1.5,0-2.8-0.7-3.8-2.1
	c-1-1.4-1.5-3.4-1.5-6c0-1.5,0.4-3.3,1.2-5.3c0.8-2,1.9-4.1,3.5-6.4c1.5-2.3,3.2-4.6,5.1-6.9c-1,0.2-2.1,0.4-3.4,0.7
	c-1.3,0.2-2.6,0.5-4,0.7c-1.4,0.3-2.5,0.4-3.2,0.6C591.2,137.3,588,141.3,583.7,145z"/>
<path class="st0" d="M625.1,142.8v1.3c0,2.1,0.5,3.8,1.6,5c1,1.2,2.4,1.8,4.1,1.8c1.8,0,3.6-0.4,5.5-1.2c1.9-0.8,3.8-1.9,5.6-3.3
	c1.9-1.4,4.1-3.2,6.8-5.5v3.3c-4.1,4.9-7.9,8.6-11.4,11.2c-3.6,2.6-7.2,3.9-10.8,3.9c-3.2,0-5.7-1.2-7.6-3.7
	c-1.9-2.5-2.8-5.9-2.8-10.2c0-3.8,0.9-7.2,2.6-10.3c1.8-3.1,4.6-6.3,8.6-9.7c2.7-2.3,5.4-4.1,8.1-5.3c2.7-1.2,5.1-1.8,7.2-1.8
	c1.7,0,3,0.4,4,1.2c1,0.8,1.5,1.9,1.5,3.5c0,2.3-0.8,4.5-2.5,6.8c-1.7,2.2-4.3,4.5-7.7,6.7C634.4,138.6,630.2,140.7,625.1,142.8z
	 M625.6,139.3c3.2-1.3,6-2.8,8.3-4.7c2.3-1.9,4-3.7,5.1-5.4c1.1-1.7,1.6-3,1.6-3.7c0-0.8-0.4-1.2-1.1-1.2c-0.6,0-1.7,0.4-3.2,1.2
	c-1.5,0.8-2.9,1.9-4.4,3.2c-1.5,1.3-2.8,2.9-4,4.7C626.8,135.2,626,137.1,625.6,139.3z"/>
<path class="st0" d="M685,131.1c-6.3,7-9.5,11.9-9.5,14.7c0,1.5,0.6,2.3,1.9,2.3c1,0,2.4-0.5,4.1-1.6c1.7-1.1,4.3-3,7.8-5.8v3.7
	c-5.1,5-9,8.7-11.7,10.9c-2.7,2.2-5,3.3-6.7,3.3c-2.9,0-4.4-1.9-4.4-5.8c0-1.1,0.2-2.3,0.5-3.4c0.4-1.1,0.9-2.3,1.5-3.5
	c0.6-1.2,1.6-2.9,2.9-5.2c1.3-2.2,2.8-4.8,4.5-7.6c-2,1-4.6,3.1-7.7,6.2c-2,1.9-3.7,3.8-5.1,5.5c-1.4,1.7-2.9,3.7-4.5,5.8
	c-1.6,2.1-2.8,3.6-3.5,4.3c-0.7,0.7-1.5,1.1-2.2,1.1c-1.1,0-2.2-1.2-3.2-3.6c-1-2.4-1.5-5.2-1.5-8.4c0-2,0.2-3.5,0.7-4.6
	c0.4-1.1,1.3-2.7,2.7-4.7c2.5-3.8,4.6-6.6,6.4-8.4c1.8-1.8,3.5-2.7,5.2-2.7c1.1,0,2.1,0.2,2.8,0.6c0.7,0.4,1,1,1,1.8
	c0,0.4-0.1,0.7-0.3,1.1c-0.2,0.4-0.5,0.8-0.7,1.1c-0.3,0.3-0.8,1-1.7,1.9c-5.7,6.3-8.5,10.4-8.5,12.2c0,1,0.3,1.6,1,1.6
	c0.4,0,1.3-0.7,2.5-2.1c1.2-1.4,2.8-3.2,4.8-5.4c2-2.2,4.3-4.6,7-7c2.7-2.4,5.7-4.8,9.1-7.1c1.9-1.3,3.5-2,4.7-2
	c0.6,0,1.1,0.8,1.7,2.4c0.6,1.6,0.8,3.2,0.8,4.8C687.3,128.2,686.5,129.4,685,131.1z"/>
<path class="st0" d="M707.9,112.9h2.3c1.9-3.4,3.6-5.8,5.2-7.2c1.5-1.4,3.3-2.1,5.3-2.1c2,0,3,0.4,3,1.3c0,0.4-0.8,1.6-2.3,3.5
	c-1.5,1.9-2.7,3.5-3.5,4.8c1.2,0.1,2.3,0.3,3.3,0.4c0.9,0.1,1.7,0.2,2.2,0.3c-2,3.8-4.6,7.7-7.7,11.7c-1-0.1-1.8-0.1-2.5-0.2
	c-0.7-0.1-1.4-0.1-2.1-0.2c-0.7-0.1-1.6-0.1-2.6-0.2c-1.9,3.1-3.6,5.9-4.9,8.4c-1.3,2.5-2.3,4.7-3,6.8c-0.7,2-1.1,4-1.1,5.8
	c0,2.5,1,3.7,3,3.7c1.4,0,3.2-0.7,5.4-2.2c2.2-1.5,5.2-3.7,8.9-6.7v3.6c-9.7,10.5-16.9,15.8-21.5,15.8c-1.6,0-2.9-0.6-3.9-1.9
	c-1-1.3-1.5-2.9-1.5-4.8c0-1.3,0.3-2.9,0.8-4.7c0.6-1.8,1.6-4.6,3-8.3c-0.5,0.4-1,0.9-1.4,1.3c-0.4,0.4-0.9,0.8-1.2,1.1
	c-0.4,0.3-0.8,0.7-1.2,1.1c-0.4,0.4-0.9,0.8-1.3,1.2v-3.7c3.8-3.2,8.3-8.7,13.7-16.6c-0.5,0-1-0.1-1.5-0.1c-0.5,0-1,0-1.7,0
	c-2.1,0-3.7,0.1-4.7,0.4c-0.4,0.1-0.8,0.2-1.2,0.3c-0.4,0.1-0.6,0.2-0.8,0.2c-0.1,0-0.2-0.1-0.2-0.3c0-1.2,0.7-3,2.2-5.3
	c1.2-2,2.3-3.5,3.4-4.5c1.1-1,2.4-1.6,3.9-2C703,113,705.1,112.9,707.9,112.9z"/>
<path class="st0" d="M742.3,140.2v4c-7.5,9.9-13.6,14.9-18.3,14.9c-2.6,0-4.6-1.4-6-4.2c-1.5-2.8-2.2-6.4-2.2-11
	c0-3.7,0.9-8,2.6-13.1c1.7-5,4-10.2,6.9-15.4c2.9-5.2,5.9-9.7,9-13.6c3.1-3.9,6-6.6,8.6-8.1c1.1-0.6,1.9-1,2.5-1
	c0.8,0,1.3,0.3,1.5,1c0.3,0.7,0.4,1.8,0.4,3.4c0,5-2,11.1-6.1,18.4c-4.1,7.3-9.7,14.7-17,22.3c-0.4,1.9-0.5,3.3-0.5,4.3
	c0,2.3,0.5,4.2,1.5,5.6c1,1.4,2.4,2.2,4.1,2.2c0.9,0,1.9-0.3,2.9-1.1c1-0.7,2.1-1.6,3.3-2.6C736.7,145.4,739,143.3,742.3,140.2z
	 M726.2,130.5c1.9-1.8,3.7-3.9,5.4-6.2c1.7-2.3,3.4-4.8,4.9-7.5c1.5-2.7,2.8-5,3.6-7.2c0.9-2.1,1.3-3.7,1.3-4.8
	c0-0.8-0.3-1.2-0.9-1.2c-0.2,0-0.6,0.2-1.2,0.6c-2.2,1.8-4.7,5.3-7.4,10.5C729.3,119.9,727.4,125.2,726.2,130.5z"/>
<path class="st0" d="M765.2,142.9l-9.6,8.1c-4.6,4-7.6,6-9.2,6c-1.4,0-2.9-1.6-4.4-4.8s-2.3-6-2.3-8.4c0-2,0.3-3.8,0.9-5.2
	c0.6-1.4,1.7-3.3,3.3-5.5c2.2-3.1,4.3-5.6,6.3-7.8c2-2.1,3.8-3.8,5.3-4.9c1.5-1.2,2.6-1.8,3.2-1.8c1,0,1.9,0.5,2.8,1.5
	c0.9,1,1.4,2,1.4,3.1c0,0.7-0.5,1.8-1.5,3.3c-1,1.5-2.6,3.4-4.7,5.7c-2.1,2.3-5.1,5.1-8.9,8.3l-1,3c-0.3,0.6-0.4,1.1-0.4,1.5
	c0,1,0.5,1.5,1.5,1.5c1,0,3.4-1.3,7.1-3.8c3.7-2.5,7.7-6,12.1-10.3c1.7-1.7,3.1-3.2,4.2-4.5c1.1-1.3,2.1-2.5,3-3.6
	c0.9-1.1,1.6-2,2.2-2.6c0.6-0.6,1.1-0.9,1.6-0.9c0.9-0.1,1.6,0.3,2.1,1.1c0.5,0.9,0.8,2.1,0.8,3.8c0,1-0.4,2.2-1.3,3.6
	c-0.9,1.5-2.5,3.9-4.8,7.4c-2.4,3.5-4.7,7.1-7.1,10.9c-2.4,3.8-4.7,8-7.2,12.7c0.1-0.1,1.2-1.2,3.3-3.2c2.1-2,4.3-4.2,6.7-6.4
	c2.3-2.2,4.3-4,5.8-5.4s3.4-2.9,5.7-4.7v3.6c-4.8,5.2-9.2,10.1-13.2,14.8c-3.9,4.7-7,8.4-9.1,11.2c-2.1,2.8-3.4,4.4-3.7,4.9
	c-1,1.3-1.8,2.4-2.6,3.5c-0.8,1.1-1.4,1.9-1.9,2.5c-0.5,0.6-0.9,0.9-1.3,0.9c-0.8,0-1.4-0.7-2-2.2c-0.6-1.5-0.9-2.8-0.9-4
	c0-1,0.2-2,0.6-2.7C750.4,167.4,756.2,157.3,765.2,142.9z"/>
<path class="st0" d="M840.9,147.2c0,1.6,0.6,2.4,1.8,2.4c1.6,0,4.3-2.7,8.3-8c-0.1-1-0.2-1.7-0.2-2c0-1.9,0.8-4.3,2.3-7.1
	c1.5-2.8,3.3-5.2,5.3-7.3c2-2.1,3.5-3.1,4.6-3.1c1.3,0,1.9,1.5,1.9,4.5c0,2.5-0.5,4.9-1.6,7.3c-1.1,2.4-2.6,4.9-4.6,7.4
	c0.3,0.3,0.7,0.7,1.1,1c0.4,0.3,0.8,0.6,1.3,0.9c0.4,0.2,0.9,0.3,1.4,0.3c1.2,0,2.7-0.9,4.5-2.9v3.8c-2.8,2.9-5.3,4.4-7.4,4.4
	c-1.2,0-2.2-0.2-2.9-0.5c-0.7-0.3-1.6-0.9-2.7-1.6c-6.6,7.9-11.6,11.9-15.1,11.9c-1.3,0-2.4-0.5-3.2-1.5c-0.8-1-1.2-2.4-1.2-4.1
	c0-0.9,0.4-4.1,1.1-9.7c-1.4,1.6-3,3.5-4.9,5.7c-1.9,2.2-3.4,3.9-4.5,5c-1.1,1.2-2.2,2.1-3.2,2.7c-1,0.6-2,1-3,1
	c-1,0-2.1-0.6-3.5-1.8c-1.3-1.2-2.5-2.8-3.4-4.9c-0.9-2-1.4-4.2-1.4-6.5c0-2.3,0.3-4.2,1-5.8c0.6-1.6,2.1-4,4.4-7.3
	c2.1-2.9,3.9-5.2,5.5-7.1c1.6-1.8,3.1-3.3,4.4-4.3c1.3-1,2.4-1.5,3.2-1.5c0.5,0,1.2,0.1,2,0.3c0.8,0.2,1.5,0.5,2.2,0.9
	c0.6,0.4,0.9,0.8,0.9,1.2c0,1.4-0.6,3.1-1.8,5.2c-1.2,2.1-3,4.4-5.4,7c-2.4,2.6-5.1,5.2-8.1,7.9c-0.8,2.5-1.2,4.5-1.2,6
	c0,0.5,0.2,1,0.5,1.4c0.3,0.4,0.7,0.7,1.1,0.7c1.5,0,4.3-2.3,8.5-6.9c4.2-4.6,9.7-11.6,16.6-20.9c0.3-0.4,0.8-0.5,1.6-0.5
	c0.9,0,1.7,0.2,2.5,0.6c0.7,0.4,1.1,0.9,1.1,1.6c0,0.4-0.9,2.5-2.8,6.3c-1.9,3.8-3.5,7.3-4.9,10.5
	C841.6,143.2,840.9,145.6,840.9,147.2z"/>
<path class="st0" d="M901.4,140.7v3.6c-2.4,2.2-4.3,3.6-5.7,4.3c-1.4,0.7-3.5,1-6.2,0.9c-4.7,5.5-8.8,8.3-12.3,8.3
	c-2,0-3.8-0.7-5.5-2c-1.7-1.3-3-3.1-4-5.4c-1-2.3-1.5-4.9-1.5-7.7c0-2.3,0.8-4.8,2.3-7.6c1.5-2.8,3.5-5.4,5.9-7.8
	c2.4-2.4,5-4.4,7.8-5.9c2.8-1.5,5.3-2.2,7.7-2.2c1.7,0,3,0.3,4,0.8c1,0.5,1.5,1.2,1.5,2.2c0,0.7-0.4,1.5-1.2,2.5
	c1.4,0.3,2.3,0.8,2.8,1.4c0.5,0.7,0.8,1.9,0.8,3.6c0,1.7-0.4,3.9-1.2,6.5c-0.8,2.6-1.9,5.1-3.3,7.4l1,1h0.8c0.6,0,1.2-0.2,1.8-0.5
	c0.6-0.3,1.1-0.6,1.6-1C898.8,142.7,899.9,141.9,901.4,140.7z M890.3,126.5c-3,1.8-5.5,3.4-7.7,4.9c-2.1,1.5-3.9,2.9-5.4,4.4
	c-1.5,1.5-2.5,3-3,4.5c-0.9,4-1.3,6.2-1.3,6.5c0,2.4,1.7,3.6,5,3.6c1.5,0,4.1-1.3,7.8-4c-0.6-1.7-0.9-3.3-0.9-4.8
	c0-2.3,0.5-4.6,1.4-6.9C887.1,132.3,888.5,129.6,890.3,126.5z"/>
<path class="st0" d="M900.8,145v-3.5c1.9-2.3,3.4-4.3,4.4-5.9c-1.1-0.4-2-0.9-2.5-1.5c-0.5-0.6-0.8-1.4-0.8-2.6
	c0-1.3,0.5-2.9,1.6-4.9c1.1-2,2.4-3.8,4-5.5c1.6-1.7,3-2.8,4.3-3.3c0.5-0.3,1-0.4,1.5-0.4c0.7,0,1.1,0.3,1.1,1
	c0,0.6-0.6,1.8-1.7,3.7c7.4-1.1,12.1-1.7,14-1.7c0.8,0,1.3,0.1,1.6,0.2c0.6,0.3,1.1,1.1,1.5,2.3c0.4,1.2,0.6,2.4,0.6,3.6
	c0,0.8-0.3,1.6-1,2.5c-0.7,0.9-1.8,2.2-3.4,3.9c-1.9,2-3.5,4.3-4.8,6.7c-1.3,2.4-1.9,4.2-1.9,5.4c0,1.7,1,2.5,3.1,2.5
	c2.2,0,6-2.2,11.4-6.7v3.6c-3,3.1-5.4,5.6-7.4,7.4c-1.9,1.8-3.7,3.2-5.4,4.3c-1.7,1.1-3.1,1.6-4.4,1.6c-1.5,0-2.8-0.7-3.8-2.1
	c-1-1.4-1.5-3.4-1.5-6c0-1.5,0.4-3.3,1.2-5.3c0.8-2,1.9-4.1,3.5-6.4c1.5-2.3,3.2-4.6,5.1-6.9c-1,0.2-2.1,0.4-3.4,0.7
	c-1.3,0.2-2.6,0.5-4,0.7c-1.4,0.3-2.5,0.4-3.2,0.6C908.3,137.3,905,141.3,900.8,145z"/>
<path class="st0" d="M974.2,140.8v3.6c-4,4.7-7.4,8.3-10.1,10.7c-2.7,2.4-5,3.6-6.8,3.6c-1.8,0-3.3-0.5-4.8-1.6
	c-1.4-1-2.7-2.5-3.8-4.3c-1.1-1.8-2.5-4.4-4-7.7c-1.8,2.3-3.5,4.4-5,6.3c-1.5,2-2.5,3.3-3.1,3.9c-0.6,0.6-1.1,1-1.6,1
	c-1,0-1.7-0.6-2.1-1.9c-0.4-1.2-0.6-3-0.6-5.4c0-3.2,0.4-6.3,1.2-9.3c0.8-3,1.9-5.9,3.3-8.8c1.5-2.8,3.3-5.9,5.6-9.2
	c2.3-3.3,4.8-6.7,7.7-10.3c3.9-5,7.3-9,10.1-12.1c2.8-3.1,5.3-5.5,7.4-7.1c2.1-1.6,3.9-2.4,5.3-2.4c1.7,0,2.6,0.8,2.6,2.3
	c0,1.3-3.2,6.1-9.5,14.4s-15.6,19.5-27.8,33.7v4.6c8.1-8.7,14.7-15.2,19.7-19.4c5-4.2,8.8-6.4,11.6-6.4c1.1,0,2,0.7,2.6,2
	c0.6,1.3,0.9,2.8,0.9,4.6c0,3.5-1.5,6.8-4.5,9.8c-3,3-7.6,6.4-13.9,10.3c1.1,1.6,2,2.8,2.9,3.5c0.8,0.7,1.9,1.1,3.1,1.1
	c1.1,0,2.3-0.4,3.6-1.1c1.3-0.8,2.6-1.7,4-2.9C969.3,145.3,971.4,143.4,974.2,140.8z M952.9,143.6c1.4-0.9,3.1-2.3,5.1-4.2
	c2-1.9,3.8-3.8,5.2-5.9c1.4-2,2.2-3.7,2.2-5.1c0-0.6-0.3-0.9-0.8-0.9c-1.4,0-3.7,1.3-7,3.9c-3.3,2.6-6.6,6-9.7,10.1
	C949.2,141.6,950.9,142.2,952.9,143.6z"/>
<path class="st0" d="M999.6,140.8v3.9c-3.5,4.5-6.7,7.9-9.8,10.2c-3,2.3-5.6,3.4-7.7,3.4c-2.9,0-5.1-1.5-6.6-4.6
	c-1.4-3.1-2.2-6.5-2.2-10.1c0-1.4,0.1-2.7,0.4-4c0.3-1.3,0.6-2.3,1-3.2c0.4-0.8,1.1-2.1,2.2-3.9c5.1-7.9,9.8-11.9,14-11.9
	c2.2,0,3.3,0.8,3.3,2.5c0,1.1-0.7,2.9-2.1,5.4c-1.4,2.4-2.7,4.2-3.8,5.2c-3.1,3-5.2,5.1-6.1,6.3c-1,1.2-1.4,2.5-1.4,4
	c0,1.3,0.5,2.4,1.5,3.2c1,0.9,2.2,1.3,3.8,1.3c1.7,0,3.5-0.6,5.6-1.9C993.7,145.5,996.4,143.5,999.6,140.8z M995.9,116.7
	c-0.9,0-1.8-0.3-2.6-1c-0.8-0.7-1.2-1.5-1.2-2.6c0-1.6,0.8-3.3,2.3-5.3c1.5-1.9,3.1-2.9,4.7-2.9c1.1,0,2,0.3,2.7,1
	c0.7,0.7,1.1,1.6,1.1,2.9c0,1.5-0.7,3.3-2.2,5.1C999.2,115.8,997.6,116.7,995.9,116.7z"/>
<path class="st0" d="M1035.4,131.1c-6.3,7-9.5,11.9-9.5,14.7c0,1.5,0.6,2.3,1.9,2.3c1,0,2.4-0.5,4.1-1.6c1.7-1.1,4.3-3,7.8-5.8v3.7
	c-5.1,5-9,8.7-11.7,10.9c-2.7,2.2-5,3.3-6.7,3.3c-2.9,0-4.4-1.9-4.4-5.8c0-1.1,0.2-2.3,0.5-3.4c0.4-1.1,0.9-2.3,1.5-3.5
	c0.6-1.2,1.6-2.9,2.9-5.2c1.3-2.2,2.8-4.8,4.5-7.6c-2,1-4.6,3.1-7.7,6.2c-2,1.9-3.7,3.8-5.1,5.5c-1.4,1.7-2.9,3.7-4.5,5.8
	c-1.6,2.1-2.8,3.6-3.5,4.3c-0.7,0.7-1.5,1.1-2.2,1.1c-1.1,0-2.2-1.2-3.2-3.6c-1-2.4-1.5-5.2-1.5-8.4c0-2,0.2-3.5,0.7-4.6
	c0.4-1.1,1.3-2.7,2.7-4.7c2.5-3.8,4.6-6.6,6.4-8.4c1.8-1.8,3.5-2.7,5.2-2.7c1.1,0,2.1,0.2,2.8,0.6c0.7,0.4,1,1,1,1.8
	c0,0.4-0.1,0.7-0.3,1.1c-0.2,0.4-0.5,0.8-0.7,1.1c-0.3,0.3-0.8,1-1.7,1.9c-5.7,6.3-8.5,10.4-8.5,12.2c0,1,0.3,1.6,1,1.6
	c0.4,0,1.3-0.7,2.5-2.1c1.2-1.4,2.8-3.2,4.8-5.4c2-2.2,4.3-4.6,6.9-7c2.7-2.4,5.7-4.8,9.1-7.1c1.9-1.3,3.5-2,4.7-2
	c0.6,0,1.1,0.8,1.7,2.4c0.6,1.6,0.8,3.2,0.8,4.8C1037.7,128.2,1037,129.4,1035.4,131.1z"/>
<path class="st0" d="M1082.2,144.4l-17.9,14.7c-5,8.7-9.6,15.2-13.7,19.5c-4.1,4.3-7.2,6.4-9.2,6.4c-1.1,0-1.6-0.7-1.6-2
	c0-2.6,1.3-5.9,3.9-9.9c1-1.6,2.2-3.1,3.6-4.6c1.3-1.5,2.6-2.8,3.8-3.9c1.2-1.1,2.8-2.5,4.8-4.1c2-1.6,3.3-2.8,4-3.4
	c3.6-7.3,6.2-12.9,7.8-16.8c-3.4,3.6-6.3,6.5-8.8,8.8c-2.5,2.3-4.8,4.1-6.9,5.3c-2.1,1.2-4,1.9-5.7,1.9c-1.8,0-3.5-1.5-5.1-4.4
	c-1.5-2.9-2.3-5.9-2.3-9c0-1.4,0.3-2.9,1-4.5s1.7-3.3,3.1-5.1c1.4-1.8,3.2-3.6,5.4-5.5c2.2-1.9,4.8-3.7,7.7-5.5
	c5.6-3.5,9.9-5.2,13-5.2c2.3,0,3.4,0.8,3.4,2.5c0,2.3-2.5,4.6-7.5,6.8c-3.1,1.3-6.1,3.1-9.1,5.3s-5.4,4.5-7.3,7
	c-1.9,2.5-2.8,4.7-2.8,6.7c0,1,0.2,1.7,0.7,2.3c0.5,0.6,1.1,0.9,1.8,0.9c1.3,0,2.7-0.6,4.3-1.7c1.6-1.1,4-3.2,7.2-6.1
	c1.4-1.3,3.3-3.5,5.7-6.4c2.4-3,4.4-5.2,5.9-6.8c1.6-1.6,3-2.3,4.2-2.3c0.7,0,1.3,0.2,1.8,0.7c0.4,0.4,0.7,1.1,0.7,2
	c0,1.7-0.7,4-2,7.2c-1.3,3.1-3.7,8.3-7.1,15.4l13-9.5V144.4z"/>
<path class="st0" d="M1147.5,140.7v3.6c-2.4,2.2-4.3,3.6-5.7,4.3c-1.4,0.7-3.5,1-6.2,0.9c-4.7,5.5-8.8,8.3-12.3,8.3
	c-2,0-3.8-0.7-5.5-2c-1.7-1.3-3-3.1-4-5.4c-1-2.3-1.5-4.9-1.5-7.7c0-2.3,0.8-4.8,2.3-7.6c1.5-2.8,3.5-5.4,5.9-7.8
	c2.4-2.4,5-4.4,7.8-5.9c2.8-1.5,5.3-2.2,7.7-2.2c1.7,0,3,0.3,4,0.8c1,0.5,1.5,1.2,1.5,2.2c0,0.7-0.4,1.5-1.2,2.5
	c1.4,0.3,2.3,0.8,2.8,1.4c0.5,0.7,0.8,1.9,0.8,3.6c0,1.7-0.4,3.9-1.2,6.5c-0.8,2.6-1.9,5.1-3.3,7.4l1,1h0.8c0.6,0,1.2-0.2,1.8-0.5
	c0.6-0.3,1.1-0.6,1.6-1C1144.9,142.7,1145.9,141.9,1147.5,140.7z M1136.4,126.5c-3,1.8-5.5,3.4-7.6,4.9c-2.1,1.5-3.9,2.9-5.4,4.4
	c-1.5,1.5-2.5,3-3,4.5c-0.9,4-1.3,6.2-1.3,6.5c0,2.4,1.7,3.6,5,3.6c1.5,0,4.1-1.3,7.8-4c-0.6-1.7-0.9-3.3-0.9-4.8
	c0-2.3,0.5-4.6,1.4-6.9C1133.2,132.3,1134.5,129.6,1136.4,126.5z"/>
<path class="st0" d="M1183.7,131.1c-6.3,7-9.5,11.9-9.5,14.7c0,1.5,0.6,2.3,1.9,2.3c1,0,2.4-0.5,4.1-1.6c1.7-1.1,4.3-3,7.8-5.8v3.7
	c-5.1,5-9,8.7-11.7,10.9c-2.7,2.2-5,3.3-6.7,3.3c-2.9,0-4.4-1.9-4.4-5.8c0-1.1,0.2-2.3,0.5-3.4c0.4-1.1,0.9-2.3,1.5-3.5
	c0.6-1.2,1.6-2.9,2.9-5.2c1.3-2.2,2.8-4.8,4.5-7.6c-2,1-4.6,3.1-7.7,6.2c-2,1.9-3.7,3.8-5.1,5.5c-1.4,1.7-2.9,3.7-4.5,5.8
	c-1.6,2.1-2.8,3.6-3.5,4.3c-0.7,0.7-1.5,1.1-2.2,1.1c-1.1,0-2.2-1.2-3.2-3.6c-1-2.4-1.5-5.2-1.5-8.4c0-2,0.2-3.5,0.7-4.6
	c0.4-1.1,1.3-2.7,2.7-4.7c2.5-3.8,4.6-6.6,6.4-8.4c1.8-1.8,3.5-2.7,5.2-2.7c1.1,0,2.1,0.2,2.8,0.6c0.7,0.4,1,1,1,1.8
	c0,0.4-0.1,0.7-0.3,1.1c-0.2,0.4-0.5,0.8-0.7,1.1c-0.3,0.3-0.8,1-1.7,1.9c-5.7,6.3-8.5,10.4-8.5,12.2c0,1,0.3,1.6,1,1.6
	c0.4,0,1.3-0.7,2.5-2.1c1.2-1.4,2.8-3.2,4.8-5.4s4.3-4.6,6.9-7c2.7-2.4,5.7-4.8,9.1-7.1c1.9-1.3,3.5-2,4.7-2c0.6,0,1.1,0.8,1.7,2.4
	c0.6,1.6,0.8,3.2,0.8,4.8C1186,128.2,1185.2,129.4,1183.7,131.1z"/>
<path class="st0" d="M1253.3,140.7v3.6c-2.4,2.2-4.3,3.6-5.7,4.3c-1.4,0.7-3.5,1-6.2,0.9c-4.7,5.5-8.8,8.3-12.3,8.3
	c-2,0-3.8-0.7-5.5-2c-1.7-1.3-3-3.1-4-5.4c-1-2.3-1.5-4.9-1.5-7.7c0-2.3,0.8-4.8,2.3-7.6c1.5-2.8,3.5-5.4,5.9-7.8
	c2.4-2.4,5-4.4,7.8-5.9c2.8-1.5,5.3-2.2,7.7-2.2c1.7,0,3,0.3,4,0.8c1,0.5,1.5,1.2,1.5,2.2c0,0.7-0.4,1.5-1.2,2.5
	c1.4,0.3,2.3,0.8,2.8,1.4c0.5,0.7,0.8,1.9,0.8,3.6c0,1.7-0.4,3.9-1.2,6.5c-0.8,2.6-1.9,5.1-3.3,7.4l1,1h0.8c0.6,0,1.2-0.2,1.8-0.5
	c0.6-0.3,1.1-0.6,1.6-1C1250.7,142.7,1251.7,141.9,1253.3,140.7z M1242.2,126.5c-3,1.8-5.5,3.4-7.6,4.9c-2.1,1.5-3.9,2.9-5.4,4.4
	c-1.5,1.5-2.5,3-3,4.5c-0.9,4-1.3,6.2-1.3,6.5c0,2.4,1.7,3.6,5,3.6c1.5,0,4.1-1.3,7.8-4c-0.6-1.7-0.9-3.3-0.9-4.8
	c0-2.3,0.5-4.6,1.4-6.9C1239,132.3,1240.3,129.6,1242.2,126.5z"/>
<path class="st0" d="M1278.5,137.2c-5.2,6.9-9.2,11.8-11.9,14.7c-2.7,2.9-4.9,4.4-6.7,4.4c-1.4,0-2.6-0.6-3.8-1.7
	c-1.2-1.1-2-2.7-2.7-4.6c-0.6-1.9-0.9-4-0.9-6.2c0-1.4,0.1-2.7,0.4-3.9s0.8-2.4,1.5-3.8c0.8-1.4,1.7-2.9,3-4.5
	c1.2-1.6,2.8-3.4,4.6-5.5c1.1-1.3,2-2.3,2.7-3.2c0.7-0.9,1.5-1.4,2.2-1.7c0.7-0.3,1.8-0.5,3.4-0.5c1.1,0,2.2,0.2,3.3,0.5
	c1,0.3,1.6,0.6,1.6,0.9c0,0.6-0.5,1.8-1.6,3.5c-1.1,1.7-2.8,3.7-5.1,6.2c-2.4,2.4-5.1,4.8-8.2,7.1c-0.7,2.1-1,3.7-1,4.8
	c0,1.5,0.6,2.3,1.8,2.3c0.4,0,1.1-0.4,2.2-1.1c1-0.7,2.7-2.2,5.1-4.3c2.4-2.1,4.5-4,6.4-5.6c1.4-1.2,3-3,4.9-5.5
	c1.8-2.4,3.3-4.2,4.5-5.5c2.7-2.8,4.5-4.6,5.4-5.5c1-0.8,1.9-1.3,2.8-1.3c0.9,0,1.4,0.3,1.8,0.8c0.3,0.5,0.5,1.6,0.5,3.3
	c0,0.8-0.1,1.4-0.2,1.8c-0.1,0.5-0.4,1.1-0.9,1.8c-0.5,0.7-1.4,2.1-2.7,4.1c-1.4,2-3,4.3-4.8,7c-1,1.4-1.9,3-2.6,4.7
	c-0.8,1.7-1.1,3-1.1,3.9c0,1.9,0.7,2.8,2.2,2.8c1.2,0,2.6-0.5,4.3-1.5c1.6-1,4.1-2.8,7.4-5.4v3.6c-4.2,3.9-7.3,6.7-9.3,8.5
	c-2,1.8-3.8,3.1-5.2,4s-2.9,1.3-4.2,1.3c-3,0-4.5-1.8-4.5-5.4c0-1.4,0.4-3.2,1.3-5.5C1275.1,144.9,1276.5,141.5,1278.5,137.2z"/>
<path class="st0" d="M1295.1,145v-3.5c1.9-2.3,3.4-4.3,4.4-5.9c-1.2-0.4-2-0.9-2.5-1.5c-0.5-0.6-0.8-1.4-0.8-2.6
	c0-1.3,0.5-2.9,1.6-4.9c1.1-2,2.4-3.8,4-5.5c1.6-1.7,3-2.8,4.3-3.3c0.5-0.3,1-0.4,1.5-0.4c0.7,0,1.1,0.3,1.1,1
	c0,0.6-0.6,1.8-1.7,3.7c7.4-1.1,12.1-1.7,14-1.7c0.8,0,1.3,0.1,1.6,0.2c0.6,0.3,1.1,1.1,1.5,2.3c0.4,1.2,0.6,2.4,0.6,3.6
	c0,0.8-0.3,1.6-1,2.5c-0.7,0.9-1.8,2.2-3.4,3.9c-1.9,2-3.5,4.3-4.8,6.7c-1.3,2.4-1.9,4.2-1.9,5.4c0,1.7,1,2.5,3.1,2.5
	c2.2,0,6-2.2,11.4-6.7v3.6c-3,3.1-5.4,5.6-7.4,7.4c-1.9,1.8-3.7,3.2-5.4,4.3c-1.7,1.1-3.1,1.6-4.4,1.6c-1.5,0-2.8-0.7-3.8-2.1
	c-1-1.4-1.5-3.4-1.5-6c0-1.5,0.4-3.3,1.2-5.3c0.8-2,1.9-4.1,3.5-6.4c1.5-2.3,3.2-4.6,5.1-6.9c-1,0.2-2.1,0.4-3.4,0.7
	c-1.3,0.2-2.6,0.5-4,0.7c-1.4,0.3-2.5,0.4-3.2,0.6C1302.5,137.3,1299.3,141.3,1295.1,145z"/>
<path class="st2" d="M1395.1,131.1c-6.3,7-9.5,11.9-9.5,14.7c0,1.5,0.6,2.3,1.9,2.3c1,0,2.4-0.5,4.1-1.6c1.7-1.1,4.3-3,7.8-5.8v3.7
	c-5.1,5-9,8.7-11.7,10.9c-2.7,2.2-5,3.3-6.7,3.3c-2.9,0-4.4-1.9-4.4-5.8c0-1.1,0.2-2.3,0.5-3.4c0.4-1.1,0.9-2.3,1.5-3.5
	c0.6-1.2,1.6-2.9,2.9-5.2c1.3-2.2,2.8-4.8,4.5-7.6c-2,1-4.6,3.1-7.7,6.2c-2,1.9-3.7,3.8-5.1,5.5c-1.4,1.7-2.9,3.7-4.5,5.8
	c-1.6,2.1-2.8,3.6-3.5,4.3c-0.7,0.7-1.5,1.1-2.2,1.1c-1.1,0-2.2-1.2-3.2-3.6c-1-2.4-1.5-5.2-1.5-8.4c0-2,0.2-3.5,0.7-4.6
	c0.4-1.1,1.3-2.7,2.7-4.7c2.5-3.8,4.6-6.6,6.4-8.4c1.8-1.8,3.5-2.7,5.2-2.7c1.1,0,2.1,0.2,2.8,0.6c0.7,0.4,1,1,1,1.8
	c0,0.4-0.1,0.7-0.3,1.1c-0.2,0.4-0.5,0.8-0.7,1.1c-0.3,0.3-0.8,1-1.7,1.9c-5.7,6.3-8.5,10.4-8.5,12.2c0,1,0.3,1.6,1,1.6
	c0.4,0,1.3-0.7,2.5-2.1c1.2-1.4,2.8-3.2,4.8-5.4s4.3-4.6,6.9-7c2.7-2.4,5.7-4.8,9.1-7.1c1.9-1.3,3.5-2,4.7-2c0.6,0,1.1,0.8,1.7,2.4
	c0.6,1.6,0.8,3.2,0.8,4.8C1397.4,128.2,1396.7,129.4,1395.1,131.1z"/>
<path class="st2" d="M1407.7,142.8v1.3c0,2.1,0.5,3.8,1.6,5c1,1.2,2.4,1.8,4.1,1.8c1.8,0,3.6-0.4,5.5-1.2c1.9-0.8,3.8-1.9,5.6-3.3
	c1.9-1.4,4.1-3.2,6.8-5.5v3.3c-4.1,4.9-7.9,8.6-11.4,11.2s-7.2,3.9-10.8,3.9c-3.2,0-5.7-1.2-7.6-3.7c-1.9-2.5-2.8-5.9-2.8-10.2
	c0-3.8,0.9-7.2,2.6-10.3c1.8-3.1,4.6-6.3,8.6-9.7c2.7-2.3,5.4-4.1,8.1-5.3c2.7-1.2,5.1-1.8,7.2-1.8c1.7,0,3,0.4,4,1.2
	c1,0.8,1.5,1.9,1.5,3.5c0,2.3-0.8,4.5-2.5,6.8c-1.7,2.2-4.3,4.5-7.7,6.7C1417,138.6,1412.8,140.7,1407.7,142.8z M1408.3,139.3
	c3.2-1.3,6-2.8,8.3-4.7c2.3-1.9,4-3.7,5.1-5.4c1.1-1.7,1.6-3,1.6-3.7c0-0.8-0.4-1.2-1.1-1.2c-0.6,0-1.7,0.4-3.2,1.2
	c-1.5,0.8-2.9,1.9-4.4,3.2c-1.5,1.3-2.8,2.9-4,4.7C1409.4,135.2,1408.6,137.1,1408.3,139.3z"/>
<path class="st2" d="M1459.5,147.2c0,1.6,0.6,2.4,1.8,2.4c1.6,0,4.3-2.7,8.3-8c-0.1-1-0.2-1.7-0.2-2c0-1.9,0.8-4.3,2.3-7.1
	c1.5-2.8,3.3-5.2,5.3-7.3c2-2.1,3.5-3.1,4.6-3.1c1.3,0,1.9,1.5,1.9,4.5c0,2.5-0.5,4.9-1.6,7.3c-1.1,2.4-2.6,4.9-4.6,7.4
	c0.3,0.3,0.7,0.7,1.1,1c0.4,0.3,0.8,0.6,1.3,0.9c0.5,0.2,0.9,0.3,1.4,0.3c1.2,0,2.7-0.9,4.5-2.9v3.8c-2.8,2.9-5.3,4.4-7.4,4.4
	c-1.2,0-2.2-0.2-2.9-0.5c-0.7-0.3-1.6-0.9-2.7-1.6c-6.6,7.9-11.6,11.9-15.1,11.9c-1.3,0-2.4-0.5-3.2-1.5c-0.8-1-1.2-2.4-1.2-4.1
	c0-0.9,0.4-4.1,1.1-9.7c-1.4,1.6-3,3.5-4.9,5.7c-1.9,2.2-3.4,3.9-4.5,5c-1.2,1.2-2.2,2.1-3.2,2.7c-1,0.6-2,1-3,1
	c-1,0-2.1-0.6-3.5-1.8c-1.3-1.2-2.5-2.8-3.4-4.9c-0.9-2-1.4-4.2-1.4-6.5c0-2.3,0.3-4.2,1-5.8c0.6-1.6,2.1-4,4.4-7.3
	c2.1-2.9,3.9-5.2,5.5-7.1c1.6-1.8,3.1-3.3,4.4-4.3c1.3-1,2.4-1.5,3.2-1.5c0.5,0,1.2,0.1,2,0.3c0.8,0.2,1.5,0.5,2.2,0.9
	c0.6,0.4,0.9,0.8,0.9,1.2c0,1.4-0.6,3.1-1.8,5.2c-1.2,2.1-3,4.4-5.4,7c-2.4,2.6-5.1,5.2-8.1,7.9c-0.8,2.5-1.2,4.5-1.2,6
	c0,0.5,0.2,1,0.5,1.4c0.3,0.4,0.7,0.7,1.1,0.7c1.5,0,4.3-2.3,8.5-6.9c4.2-4.6,9.7-11.6,16.6-20.9c0.2-0.4,0.8-0.5,1.6-0.5
	c0.9,0,1.7,0.2,2.5,0.6c0.7,0.4,1.1,0.9,1.1,1.6c0,0.4-0.9,2.5-2.8,6.3c-1.9,3.8-3.5,7.3-4.9,10.5S1459.5,145.6,1459.5,147.2z"/>
<path class="st0" d="M1544.5,147.2c0,1.6,0.6,2.4,1.8,2.4c1.6,0,4.3-2.7,8.3-8c-0.1-1-0.2-1.7-0.2-2c0-1.9,0.8-4.3,2.3-7.1
	c1.5-2.8,3.3-5.2,5.3-7.3c2-2.1,3.5-3.1,4.6-3.1c1.3,0,1.9,1.5,1.9,4.5c0,2.5-0.5,4.9-1.6,7.3c-1.1,2.4-2.6,4.9-4.6,7.4
	c0.3,0.3,0.7,0.7,1.1,1c0.4,0.3,0.8,0.6,1.3,0.9c0.5,0.2,0.9,0.3,1.4,0.3c1.2,0,2.7-0.9,4.5-2.9v3.8c-2.8,2.9-5.3,4.4-7.4,4.4
	c-1.2,0-2.2-0.2-2.9-0.5c-0.7-0.3-1.6-0.9-2.7-1.6c-6.6,7.9-11.6,11.9-15.1,11.9c-1.3,0-2.4-0.5-3.2-1.5c-0.8-1-1.2-2.4-1.2-4.1
	c0-0.9,0.4-4.1,1.1-9.7c-1.4,1.6-3,3.5-4.9,5.7c-1.9,2.2-3.4,3.9-4.5,5c-1.2,1.2-2.2,2.1-3.2,2.7c-1,0.6-2,1-3,1
	c-1,0-2.1-0.6-3.5-1.8c-1.3-1.2-2.5-2.8-3.4-4.9c-0.9-2-1.4-4.2-1.4-6.5c0-2.3,0.3-4.2,1-5.8c0.6-1.6,2.1-4,4.4-7.3
	c2.1-2.9,3.9-5.2,5.5-7.1c1.6-1.8,3.1-3.3,4.4-4.3c1.3-1,2.4-1.5,3.2-1.5c0.5,0,1.2,0.1,2,0.3c0.8,0.2,1.5,0.5,2.2,0.9
	c0.6,0.4,0.9,0.8,0.9,1.2c0,1.4-0.6,3.1-1.8,5.2c-1.2,2.1-3,4.4-5.4,7c-2.4,2.6-5.1,5.2-8.1,7.9c-0.8,2.5-1.2,4.5-1.2,6
	c0,0.5,0.2,1,0.5,1.4c0.3,0.4,0.7,0.7,1.1,0.7c1.5,0,4.3-2.3,8.5-6.9c4.2-4.6,9.7-11.6,16.6-20.9c0.2-0.4,0.8-0.5,1.6-0.5
	c0.9,0,1.7,0.2,2.5,0.6c0.7,0.4,1.1,0.9,1.1,1.6c0,0.4-0.9,2.5-2.8,6.3c-1.9,3.8-3.5,7.3-4.9,10.5S1544.5,145.6,1544.5,147.2z"/>
<path class="st0" d="M1579.1,142.8v1.3c0,2.1,0.5,3.8,1.6,5c1,1.2,2.4,1.8,4.1,1.8c1.8,0,3.6-0.4,5.5-1.2c1.9-0.8,3.8-1.9,5.6-3.3
	c1.9-1.4,4.1-3.2,6.8-5.5v3.3c-4.1,4.9-7.9,8.6-11.4,11.2c-3.6,2.6-7.2,3.9-10.8,3.9c-3.2,0-5.7-1.2-7.6-3.7
	c-1.9-2.5-2.8-5.9-2.8-10.2c0-3.8,0.9-7.2,2.6-10.3c1.8-3.1,4.6-6.3,8.6-9.7c2.7-2.3,5.4-4.1,8.1-5.3c2.7-1.2,5.1-1.8,7.2-1.8
	c1.7,0,3,0.4,4,1.2c1,0.8,1.5,1.9,1.5,3.5c0,2.3-0.8,4.5-2.5,6.8c-1.7,2.2-4.3,4.5-7.7,6.7C1588.4,138.6,1584.1,140.7,1579.1,142.8z
	 M1579.6,139.3c3.2-1.3,6-2.8,8.3-4.7c2.3-1.9,4-3.7,5.1-5.4c1.1-1.7,1.6-3,1.6-3.7c0-0.8-0.4-1.2-1.1-1.2c-0.6,0-1.7,0.4-3.2,1.2
	c-1.5,0.8-2.9,1.9-4.4,3.2c-1.5,1.3-2.8,2.9-4,4.7C1580.7,135.2,1580,137.1,1579.6,139.3z"/>
<path class="st0" d="M1638.3,140.9v3.5c-3.7,2.4-6.7,3.6-8.8,3.6c-1.2,0-2.4-0.2-3.8-0.6c-3.2,4.1-6,7.1-8.3,9
	c-2.3,1.9-4.6,2.9-7,2.9c-2.7,0-4.8-1.4-6.2-4.3c-1.5-2.8-2.2-6.4-2.2-10.6c0-5.7,1.7-11.9,5.2-18.7c3.4-6.7,7.6-13,12.5-18.9
	c4.9-5.9,9.6-10.7,14.1-14.6c4.6-3.8,7.7-5.8,9.3-5.8c1.5,0,2.3,1.1,2.3,3.2c0,9.4-12.1,25.8-36.2,49.2c-0.1,0.6-0.1,1.9-0.1,3.8
	c0,5,1.3,7.4,4,7.4c1,0,2.1-0.4,3.1-1.3c1.1-0.8,2.7-2.5,4.9-4.8c-0.9-1.9-1.3-3.4-1.3-4.3c0-2,0.8-4.1,2.4-6.4
	c1.6-2.3,3.5-4.3,5.5-6c2.1-1.7,3.6-2.5,4.5-2.5c1.5,0,2.2,1.1,2.2,3.2c0,1.6-0.4,3.6-1.3,5.8c-0.8,2.3-2.1,4.8-3.7,7.8
	c0.6,0.5,1.1,0.9,1.5,1.1c0.4,0.2,0.9,0.3,1.6,0.3C1634.2,143.1,1636.1,142.4,1638.3,140.9z M1611,132.8c1.9-1.6,3.7-3.5,5.6-5.7
	c1.9-2.2,4.6-5.6,8.3-10.2c3.5-4.4,6.2-8,8.2-11c2-2.9,3.5-5.4,4.5-7.3c1-1.9,1.5-3.3,1.5-4c0-0.5-0.1-0.8-0.4-0.8
	c-0.8,0-2.4,1.3-4.9,3.9c-2.5,2.6-5.3,6.2-8.5,10.7c-4.4,6.2-7.6,11-9.6,14.1C1613.6,125.8,1612.1,129.2,1611,132.8z"/>
<path class="st0" d="M1638.1,142.3V141c9.3-9.8,15.6-16.6,19.1-20.5c0.8-4.4,2.7-6.6,5.7-6.6c0.8,0,1.6,0.2,2.4,0.6l0.3,1
	c-0.1,0.4-0.2,1-0.2,1.8c0,0.7,0.3,1.9,0.8,3.8s0.9,3.4,1.2,4.7c0.3,1.3,0.4,2.7,0.4,4.3c0,2.4-0.5,4.6-1.6,6.8
	c-1.1,2.2-2.6,4.3-4.7,6.2c-2,2-4.7,4-7.9,6.1c1.3,0.2,2.3,0.3,3.1,0.3c1.5,0,3.1-0.4,4.8-1.1c1.7-0.7,3.4-1.7,5.2-3
	c1.8-1.2,3.9-2.8,6.2-4.8v3.6c-4.6,4.5-8.7,7.9-12.3,10.2c-3.6,2.3-6.7,3.5-9.4,3.5c-3.4,0-6.5-1.4-9.4-4.3c-1.7-1.7-2.7-3.4-3.1-5
	C1638.3,147.2,1638.1,145,1638.1,142.3z M1658.2,134.1l-1-7.9c-2.2,2.5-7,7.3-14.3,14.5c2.2,0.5,3.6,1.1,4.4,1.9
	c0.8,0.8,1.9,2.3,3.3,4.6c2.4-1,4.3-2.4,5.6-4.1c1.3-1.7,2-4.1,2-7.1c0-0.4,0-0.7,0-1C1658.3,134.7,1658.2,134.4,1658.2,134.1z"/>
<path class="st0" d="M1698.5,140.8v3.9c-3.5,4.5-6.7,7.9-9.8,10.2c-3,2.3-5.6,3.4-7.7,3.4c-2.9,0-5.1-1.5-6.6-4.6
	c-1.4-3.1-2.2-6.5-2.2-10.1c0-1.4,0.1-2.7,0.4-4c0.3-1.3,0.6-2.3,1-3.2c0.4-0.8,1.1-2.1,2.2-3.9c5.1-7.9,9.8-11.9,14-11.9
	c2.2,0,3.3,0.8,3.3,2.5c0,1.1-0.7,2.9-2.1,5.4c-1.4,2.4-2.7,4.2-3.8,5.2c-3.1,3-5.2,5.1-6.1,6.3c-1,1.2-1.4,2.5-1.4,4
	c0,1.3,0.5,2.4,1.5,3.2c1,0.9,2.2,1.3,3.8,1.3c1.7,0,3.5-0.6,5.6-1.9C1692.6,145.5,1695.3,143.5,1698.5,140.8z M1694.8,116.7
	c-0.9,0-1.8-0.3-2.6-1c-0.8-0.7-1.2-1.5-1.2-2.6c0-1.6,0.8-3.3,2.3-5.3c1.5-1.9,3.1-2.9,4.7-2.9c1.1,0,2,0.3,2.7,1
	c0.7,0.7,1.1,1.6,1.1,2.9c0,1.5-0.7,3.3-2.2,5.1C1698.1,115.8,1696.5,116.7,1694.8,116.7z"/>
<path class="st0" d="M1716.9,112.9h2.3c1.9-3.4,3.6-5.8,5.2-7.2c1.5-1.4,3.3-2.1,5.3-2.1c2,0,3,0.4,3,1.3c0,0.4-0.8,1.6-2.3,3.5
	c-1.5,1.9-2.7,3.5-3.5,4.8c1.2,0.1,2.3,0.3,3.3,0.4c1,0.1,1.7,0.2,2.2,0.3c-2,3.8-4.6,7.7-7.7,11.7c-1-0.1-1.9-0.1-2.5-0.2
	c-0.7-0.1-1.4-0.1-2.1-0.2c-0.7-0.1-1.6-0.1-2.6-0.2c-1.9,3.1-3.6,5.9-4.9,8.4c-1.3,2.5-2.3,4.7-3,6.8c-0.7,2-1,4-1,5.8
	c0,2.5,1,3.7,3,3.7c1.4,0,3.2-0.7,5.4-2.2c2.2-1.5,5.2-3.7,8.9-6.7v3.6c-9.7,10.5-16.9,15.8-21.5,15.8c-1.6,0-2.9-0.6-3.9-1.9
	c-1-1.3-1.5-2.9-1.5-4.8c0-1.3,0.3-2.9,0.8-4.7c0.6-1.8,1.6-4.6,3-8.3c-0.5,0.4-1,0.9-1.4,1.3c-0.4,0.4-0.9,0.8-1.2,1.1
	c-0.4,0.3-0.8,0.7-1.2,1.1c-0.4,0.4-0.9,0.8-1.3,1.2v-3.7c3.8-3.2,8.3-8.7,13.7-16.6c-0.5,0-1-0.1-1.5-0.1c-0.5,0-1,0-1.7,0
	c-2.1,0-3.7,0.1-4.7,0.4c-0.4,0.1-0.8,0.2-1.2,0.3c-0.4,0.1-0.6,0.2-0.8,0.2s-0.2-0.1-0.2-0.3c0-1.2,0.7-3,2.2-5.3
	c1.2-2,2.3-3.5,3.4-4.5c1.1-1,2.4-1.6,3.9-2C1712,113,1714.2,112.9,1716.9,112.9z"/>
<path class="st0" d="M1734.2,142.8v1.3c0,2.1,0.5,3.8,1.6,5c1,1.2,2.4,1.8,4.1,1.8c1.8,0,3.6-0.4,5.5-1.2c1.9-0.8,3.8-1.9,5.6-3.3
	c1.9-1.4,4.1-3.2,6.8-5.5v3.3c-4.1,4.9-7.9,8.6-11.4,11.2c-3.6,2.6-7.2,3.9-10.8,3.9c-3.2,0-5.7-1.2-7.6-3.7
	c-1.9-2.5-2.8-5.9-2.8-10.2c0-3.8,0.9-7.2,2.6-10.3c1.8-3.1,4.6-6.3,8.6-9.7c2.7-2.3,5.4-4.1,8.1-5.3c2.7-1.2,5.1-1.8,7.2-1.8
	c1.7,0,3,0.4,4,1.2c1,0.8,1.5,1.9,1.5,3.5c0,2.3-0.8,4.5-2.5,6.8c-1.7,2.2-4.3,4.5-7.7,6.7C1743.6,138.6,1739.3,140.7,1734.2,142.8z
	 M1734.8,139.3c3.2-1.3,6-2.8,8.3-4.7c2.3-1.9,4-3.7,5.1-5.4c1.1-1.7,1.6-3,1.6-3.7c0-0.8-0.4-1.2-1.1-1.2c-0.6,0-1.7,0.4-3.2,1.2
	c-1.5,0.8-2.9,1.9-4.4,3.2c-1.5,1.3-2.8,2.9-4,4.7C1735.9,135.2,1735.1,137.1,1734.8,139.3z"/>
<g>
	<path d="M724.1,748.8c-2.3,1.1-4.9,1.6-7.7,1.6c-3.4,0-6.6-0.8-9.5-2.5c-2.9-1.7-5.2-4-6.9-6.9c-1.7-2.9-2.6-6.1-2.6-9.6
		c0-3.6,0.8-6.8,2.5-9.7s4-5.2,6.9-6.9s6.1-2.5,9.6-2.5c2.8,0,5.4,0.5,7.7,1.6c2.3,1.1,4.3,2.5,6,4.5l-4.3,4.3
		c-2.6-2.9-5.8-4.4-9.4-4.4c-2.3,0-4.4,0.6-6.4,1.7c-2,1.1-3.5,2.7-4.7,4.8s-1.7,4.2-1.7,6.7c0,2.4,0.6,4.6,1.7,6.6
		c1.2,2,2.7,3.6,4.7,4.7c2,1.2,4.1,1.7,6.4,1.7c3.7,0,6.8-1.5,9.4-4.4l4.3,4.3C728.4,746.3,726.4,747.8,724.1,748.8z"/>
	<path d="M739.6,748.8c-1.9-1.1-3.4-2.7-4.6-4.7c-1.1-2.1-1.7-4.4-1.7-7.1c0-2.7,0.6-5.1,1.7-7.2c1.1-2.1,2.7-3.6,4.6-4.7
		s4-1.6,6.2-1.6c1.8,0,3.3,0.4,4.7,1.1c1.4,0.7,2.5,1.6,3.2,2.7V724h5.6v25.8h-5.6v-3.2c-0.7,1.1-1.8,2-3.2,2.7
		c-1.4,0.7-3,1.1-4.8,1.1C743.5,750.4,741.4,749.9,739.6,748.8z M751.9,742.7c1.4-1.5,2.2-3.4,2.2-5.8c0-2.4-0.7-4.3-2.1-5.8
		c-1.4-1.5-3.2-2.3-5.5-2.3c-1.4,0-2.6,0.3-3.8,1c-1.1,0.7-2,1.6-2.7,2.8c-0.7,1.2-1,2.7-1,4.3c0,1.6,0.3,3,1,4.2
		c0.7,1.2,1.6,2.2,2.7,2.8c1.1,0.7,2.4,1,3.8,1C748.6,744.9,750.4,744.2,751.9,742.7z"/>
	<path d="M765.7,711h5.6v38.8h-5.6V711z"/>
	<path d="M777.9,711h5.6v38.8h-5.6V711z"/>
	<path d="M807.2,747.4c-1.7-2-2.6-4.9-2.6-8.6V724h5.6v14.1c0,2.3,0.4,4,1.3,5.1c0.9,1.2,2.1,1.7,3.8,1.7c1.9,0,3.5-0.7,4.7-2.2
		c1.2-1.5,1.8-3.5,1.8-5.9V724h5.6v25.8H822v-3.5c-0.7,1.2-1.7,2.2-3,3s-2.8,1.2-4.5,1.2C811.4,750.4,809,749.4,807.2,747.4z"/>
	<path d="M836,748.5c-1.7-1.3-2.9-3-3.5-5l5-2.1c0.4,1.2,1,2.1,1.8,2.8c0.8,0.7,1.9,1.1,3.1,1.1c1.1,0,2-0.3,2.6-0.8
		c0.6-0.5,1-1.2,1-2c0-0.9-0.4-1.6-1.1-2.1c-0.7-0.5-2-0.9-3.8-1.3c-2.6-0.5-4.5-1.4-5.9-2.7c-1.4-1.4-2-3.1-2-5.2
		c0-1.4,0.4-2.8,1.2-4c0.8-1.2,1.8-2.1,3.2-2.8c1.4-0.7,2.9-1.1,4.6-1.1c2.2,0,4.1,0.5,5.6,1.6s2.6,2.5,3.4,4.3l-5.1,2.1
		c-0.3-0.8-0.8-1.5-1.4-2c-0.7-0.5-1.5-0.8-2.5-0.8c-0.9,0-1.7,0.2-2.4,0.7c-0.6,0.5-0.9,1.1-0.9,1.8c0,0.8,0.3,1.4,1,1.8
		s1.8,0.8,3.5,1.1c5.5,1.1,8.3,3.9,8.3,8.3c0,1.5-0.4,2.9-1.2,4.1c-0.8,1.2-1.9,2.2-3.3,2.9c-1.4,0.7-3,1.1-4.7,1.1
		C839.9,750.4,837.7,749.8,836,748.5z"/>
	<path d="M876.3,748.8c-1.9-1.1-3.4-2.7-4.6-4.7c-1.1-2.1-1.7-4.4-1.7-7.1c0-2.7,0.6-5.1,1.7-7.2c1.1-2.1,2.7-3.6,4.6-4.7
		s4-1.6,6.2-1.6c1.8,0,3.3,0.4,4.7,1.1c1.4,0.7,2.5,1.6,3.2,2.7V724h5.6v25.8h-5.6v-3.2c-0.7,1.1-1.8,2-3.2,2.7
		c-1.4,0.7-3,1.1-4.8,1.1C880.2,750.4,878.2,749.9,876.3,748.8z M888.6,742.7c1.4-1.5,2.2-3.4,2.2-5.8c0-2.4-0.7-4.3-2.1-5.8
		c-1.4-1.5-3.2-2.3-5.5-2.3c-1.4,0-2.6,0.3-3.8,1c-1.1,0.7-2,1.6-2.7,2.8c-0.7,1.2-1,2.7-1,4.3c0,1.6,0.3,3,1,4.2
		c0.7,1.2,1.6,2.2,2.7,2.8c1.1,0.7,2.4,1,3.8,1C885.4,744.9,887.2,744.2,888.6,742.7z"/>
	<path d="M915,744.9c0.5-0.1,1-0.2,1.5-0.4v5.3c-1.3,0.5-2.7,0.7-4.3,0.7c-2.6,0-4.6-0.8-6-2.4c-1.5-1.6-2.2-3.9-2.2-7v-11.8h-3.5
		V724h3.5v-5.1l5.7-2.3v7.4h6.6v5.3h-6.6v11.6c0,1.2,0.3,2.2,0.9,2.9c0.6,0.8,1.4,1.1,2.5,1.1C913.9,745,914.6,745,915,744.9z"/>
	<path class="st2" d="M959.8,712.9v4.7c-3.7,4.8-6.3,9.4-7.7,13.7c-1.4,4.3-2.2,9.1-2.2,14.4v4h-7.4v-4c0-5.4,0.6-10.1,1.8-14.2
		c1.2-4.1,3.2-8,5.8-11.8h-14.3v-6.9H959.8z"/>
	<path class="st2" d="M979.7,726.4c2,1.1,3.5,2.6,4.6,4.6c1.1,2,1.6,4.2,1.6,6.6c0,2.4-0.6,4.6-1.7,6.6s-2.7,3.5-4.6,4.6
		s-4.1,1.7-6.5,1.7c-2.3,0-4.5-0.6-6.4-1.8c-2-1.2-3.5-2.7-4.7-4.7c-1.1-2-1.7-4.1-1.7-6.3c0-1.5,0.2-3,0.7-4.6
		c0.5-1.6,1.4-3.5,2.6-5.7l8.3-14.5h7.6l-6.8,11.9h0.4C975.5,724.8,977.7,725.3,979.7,726.4z M977.4,742.1c1.1-1.2,1.7-2.7,1.7-4.5
		c0-1.8-0.6-3.3-1.7-4.5c-1.1-1.2-2.6-1.8-4.5-1.8c-1.8,0-3.3,0.6-4.4,1.8c-1.1,1.2-1.6,2.7-1.6,4.5c0,1.7,0.6,3.2,1.7,4.5
		s2.6,1.9,4.3,1.9C974.8,743.9,976.3,743.3,977.4,742.1z"/>
	<path class="st2" d="M1011.7,730.7c1.6,2.1,2.4,4.6,2.4,7.4c0,2.3-0.5,4.4-1.6,6.2c-1,1.9-2.5,3.3-4.4,4.4
		c-1.9,1.1-4.2,1.6-6.7,1.6c-2.6,0-4.9-0.5-7-1.6c-2.1-1.1-3.8-2.7-5-4.7l5.2-4.1c0.7,1.1,1.6,2,2.8,2.7c1.2,0.7,2.6,1,4.1,1
		c1.8,0,3.2-0.5,4.2-1.5c1.1-1,1.6-2.4,1.6-4c0-1.7-0.7-3.1-2-4.2c-1.3-1.2-3.1-1.8-5.3-1.8h-2.7v-4.3l6.4-8.8h-12.8v-6.2h21.7v4.4
		l-7.4,9.4C1007.9,727.3,1010.1,728.6,1011.7,730.7z"/>
	<path class="st2" d="M1019.9,749.2c-0.8-0.8-1.2-1.8-1.2-3s0.4-2.2,1.2-3c0.8-0.8,1.8-1.2,3-1.2c1.2,0,2.2,0.4,3,1.2
		c0.8,0.8,1.2,1.8,1.2,3s-0.4,2.2-1.2,3c-0.8,0.8-1.8,1.2-3,1.2C1021.7,750.4,1020.7,750,1019.9,749.2z"/>
	<path class="st2" d="M1035.3,736.3c-2-1.1-3.5-2.6-4.6-4.6c-1.1-2-1.6-4.2-1.6-6.6c0-2.4,0.6-4.6,1.7-6.6c1.1-1.9,2.7-3.5,4.6-4.6
		c2-1.1,4.1-1.7,6.5-1.7c2.3,0,4.5,0.6,6.4,1.8c2,1.2,3.5,2.7,4.7,4.7c1.1,2,1.7,4.1,1.7,6.3c0,1.5-0.2,3-0.7,4.6
		c-0.5,1.6-1.4,3.5-2.6,5.7l-8.3,14.5h-7.6l6.8-11.9h-0.4C1039.4,737.9,1037.2,737.4,1035.3,736.3z M1037.5,720.6
		c-1.1,1.2-1.7,2.7-1.7,4.5c0,1.8,0.6,3.3,1.7,4.5s2.6,1.8,4.5,1.8c1.8,0,3.3-0.6,4.4-1.8s1.6-2.7,1.6-4.5c0-1.7-0.6-3.2-1.7-4.5
		c-1.1-1.2-2.6-1.9-4.3-1.9C1040.1,718.8,1038.6,719.4,1037.5,720.6z"/>
	<path class="st2" d="M1081.9,712.9v4.7c-3.7,4.8-6.3,9.4-7.7,13.7c-1.4,4.3-2.2,9.1-2.2,14.4v4h-7.4v-4c0-5.4,0.6-10.1,1.8-14.2
		c1.2-4.1,3.2-8,5.8-11.8H1058v-6.9H1081.9z"/>
	<path class="st2" d="M1086.8,745.4c0-2.6,0.4-4.8,1.1-6.6c0.8-1.8,1.9-3.4,3.5-4.9s3.6-2.9,6.3-4.5c3.4-2,5.2-4.1,5.2-6.3
		c0-1.2-0.4-2.2-1.3-3c-0.9-0.8-2-1.2-3.5-1.2c-1.4,0-2.6,0.4-3.6,1.2c-1,0.8-1.8,1.9-2.3,3.3l-5.9-2.6c0.7-2.6,2.1-4.7,4.3-6.2
		c2.2-1.6,4.7-2.3,7.6-2.3c2.4,0,4.4,0.5,6.2,1.4c1.8,0.9,3.2,2.2,4.2,3.9c1,1.7,1.5,3.5,1.5,5.6c0,2.6-0.8,4.9-2.3,6.8
		c-1.5,1.9-4,3.8-7.6,5.7c-2,1.1-3.5,2.2-4.3,3.3c-0.9,1.1-1.5,2.4-1.8,4h16v6.8h-23.3V745.4z"/>
	<path class="st2" d="M1115.7,749.2c-0.8-0.8-1.2-1.8-1.2-3s0.4-2.2,1.2-3c0.8-0.8,1.8-1.2,3-1.2c1.2,0,2.2,0.4,3,1.2
		c0.8,0.8,1.2,1.8,1.2,3s-0.4,2.2-1.2,3c-0.8,0.8-1.8,1.2-3,1.2C1117.6,750.4,1116.6,750,1115.7,749.2z"/>
	<path class="st2" d="M1147.1,726.6c1.8,1,3.2,2.4,4.3,4.3c1.1,1.9,1.6,4.1,1.6,6.7c0,2.5-0.6,4.7-1.7,6.6c-1.1,1.9-2.6,3.5-4.6,4.6
		c-1.9,1.1-4.1,1.6-6.4,1.6c-2.4,0-4.7-0.6-7-1.7c-2.2-1.1-4.1-2.8-5.4-5l4.8-4.6c1.2,1.5,2.4,2.6,3.6,3.3c1.2,0.7,2.4,1,3.8,1
		c1.8,0,3.2-0.6,4.2-1.7c1.1-1.1,1.6-2.5,1.6-4.2c0-1.7-0.6-3.1-1.7-4.1c-1.1-1.1-2.6-1.6-4.2-1.6c-2.2,0-4.2,0.9-6,2.6l-4.7-3.1
		l3.3-18.5h17.9v6.9h-12.4l-1.1,5.9c1.3-0.4,2.8-0.6,4.3-0.6C1143.4,725.1,1145.3,725.6,1147.1,726.6z"/>
	<path class="st2" d="M1169.5,712.9v36.9h-7.2v-28.1l-4.6,2l-2.6-6.2l10.3-4.5H1169.5z"/>
	<path class="st2" d="M1182.7,748.8c-1.9-1.1-3.4-2.6-4.4-4.5c-1-1.9-1.6-4.1-1.6-6.5v-13c0-2.5,0.5-4.6,1.6-6.5
		c1-1.9,2.5-3.4,4.4-4.5c1.9-1.1,4.1-1.6,6.6-1.6s4.7,0.5,6.6,1.6c1.9,1.1,3.4,2.6,4.4,4.5c1,1.9,1.5,4.1,1.5,6.5v13
		c0,2.5-0.5,4.6-1.5,6.5c-1,1.9-2.5,3.4-4.4,4.5c-1.9,1.1-4.1,1.6-6.6,1.6S1184.6,749.9,1182.7,748.8z M1193.1,742
		c0.9-1,1.4-2.3,1.4-3.9v-13.3c0-1.7-0.5-3-1.4-4c-0.9-1-2.2-1.5-3.8-1.5c-1.6,0-2.9,0.5-3.9,1.5c-1,1-1.4,2.3-1.4,4V738
		c0,1.6,0.5,2.9,1.4,3.9c1,1,2.3,1.5,3.9,1.5C1190.9,743.4,1192.1,742.9,1193.1,742z"/>
	<path class="st2" d="M1220.7,712.9v36.9h-7.2v-28.1l-4.6,2l-2.6-6.2l10.3-4.5H1220.7z"/>
	<path d="M621.9,811.9c-2-1.2-3.6-2.8-4.8-4.9c-1.2-2.1-1.8-4.4-1.8-6.9s0.6-4.8,1.8-6.9c1.2-2.1,2.8-3.7,4.8-4.9
		c2-1.2,4.3-1.8,6.8-1.8c2.5,0,4.8,0.6,6.8,1.8c2.1,1.2,3.7,2.8,4.8,4.9c1.2,2.1,1.7,4.4,1.7,6.9s-0.6,4.8-1.7,6.9
		c-1.2,2.1-2.8,3.7-4.8,4.9c-2.1,1.2-4.3,1.8-6.8,1.8C626.2,813.7,624,813.1,621.9,811.9z M632.7,807.1c1.2-0.7,2.1-1.7,2.7-2.9
		s0.9-2.6,0.9-4.1s-0.3-2.8-0.9-4.1s-1.5-2.2-2.7-2.9c-1.2-0.7-2.5-1.1-4-1.1c-1.5,0-2.8,0.4-4,1.1c-1.2,0.7-2.1,1.7-2.7,2.9
		s-0.9,2.6-0.9,4.1s0.3,2.8,0.9,4.1s1.5,2.2,2.7,2.9c1.2,0.7,2.5,1.1,4,1.1C630.3,808.2,631.6,807.8,632.7,807.1z"/>
	<path d="M647.2,787.2h5.3l0.2,4.1c0.8-1.6,1.9-2.8,3.1-3.5c1.2-0.8,2.5-1.2,4-1.2c1.1,0,2,0.1,2.8,0.4v5.7c-1.1-0.2-2-0.4-2.8-0.4
		c-1.1,0-2.2,0.4-3.2,1.1c-1.1,0.7-1.9,1.7-2.6,3c-0.7,1.3-1,2.8-1,4.4V813h-5.6V787.2z"/>
	<path d="M705.3,801.7h-19.2c0.3,2,1.1,3.7,2.4,4.9c1.3,1.2,3,1.8,4.9,1.8c2.8,0,5.1-1.1,6.9-3.4l3.6,3.9c-1.2,1.4-2.6,2.5-4.4,3.4
		c-1.8,0.9-3.8,1.3-6.1,1.3c-2.5,0-4.7-0.6-6.7-1.7c-2-1.2-3.5-2.8-4.7-4.8c-1.1-2.1-1.7-4.4-1.7-7c0-2.6,0.6-5,1.8-7
		c1.2-2.1,2.8-3.7,4.8-4.8c2-1.1,4.1-1.7,6.5-1.7c2.3,0,4.4,0.5,6.2,1.6s3.3,2.5,4.4,4.3c1.1,1.8,1.6,3.9,1.6,6.2
		C705.5,799.7,705.4,800.7,705.3,801.7z M699.8,797c-0.3-1.6-1-2.8-2.2-3.8c-1.1-0.9-2.6-1.4-4.3-1.4c-1.7,0-3.2,0.5-4.4,1.4
		c-1.2,0.9-2,2.2-2.5,3.8H699.8z"/>
	<path d="M710.6,787.2h5.6v3c0.6-1.1,1.5-2,2.7-2.6c1.2-0.7,2.5-1,4-1c3.8,0,6.4,1.6,8,4.8c0.8-1.4,1.9-2.6,3.3-3.5s3-1.3,4.7-1.3
		c2.8,0,5,0.9,6.8,2.8c1.8,1.9,2.6,4.7,2.6,8.4V813h-5.6v-14.5c0-2.1-0.4-3.7-1.2-4.8c-0.8-1.1-2-1.6-3.6-1.6
		c-1.5,0-2.8,0.6-3.9,1.8c-1.1,1.2-1.7,2.9-1.7,5.2V813h-5.6v-14.5c0-2.1-0.4-3.7-1.3-4.8c-0.8-1.1-2-1.6-3.6-1.6
		c-1.5,0-2.8,0.6-3.9,1.8c-1.1,1.2-1.7,2.9-1.7,5.2V813h-5.6V787.2z"/>
	<path d="M759.3,812c-1.9-1.1-3.4-2.7-4.6-4.7c-1.1-2.1-1.7-4.4-1.7-7.1c0-2.7,0.6-5.1,1.7-7.2c1.1-2.1,2.7-3.6,4.6-4.7
		s4-1.6,6.2-1.6c1.8,0,3.3,0.4,4.7,1.1c1.4,0.7,2.5,1.6,3.2,2.7v-3.1h5.6V813h-5.6v-3.2c-0.7,1.1-1.8,2-3.2,2.7
		c-1.4,0.7-3,1.1-4.8,1.1C763.3,813.7,761.2,813.1,759.3,812z M771.6,805.9c1.4-1.5,2.2-3.4,2.2-5.8c0-2.4-0.7-4.3-2.1-5.8
		c-1.4-1.5-3.2-2.3-5.5-2.3c-1.4,0-2.6,0.3-3.8,1c-1.1,0.7-2,1.6-2.7,2.8c-0.7,1.2-1,2.7-1,4.3c0,1.6,0.3,3,1,4.2
		c0.7,1.2,1.6,2.2,2.7,2.8c1.1,0.7,2.4,1,3.8,1C768.4,808.2,770.2,807.4,771.6,805.9z"/>
	<path d="M786,781.7c-0.7-0.7-1.1-1.6-1.1-2.6c0-1,0.4-1.9,1.1-2.6c0.7-0.7,1.6-1.1,2.6-1.1c1,0,1.8,0.4,2.5,1.1
		c0.7,0.7,1.1,1.6,1.1,2.6c0,1-0.4,1.9-1.1,2.6c-0.7,0.7-1.5,1.1-2.5,1.1C787.5,782.8,786.7,782.4,786,781.7z M785.7,787.2h5.6V813
		h-5.6V787.2z"/>
	<path d="M798,774.2h5.6V813H798V774.2z"/>
	<path d="M810.2,792.9c-0.7-0.7-1.1-1.6-1.1-2.6s0.4-1.9,1.1-2.6c0.7-0.7,1.6-1.1,2.7-1.1c1,0,1.9,0.4,2.6,1.1s1.1,1.6,1.1,2.6
		s-0.4,1.9-1.1,2.6c-0.7,0.7-1.6,1.1-2.6,1.1C811.8,794,811,793.6,810.2,792.9z M810.2,812.5c-0.7-0.7-1.1-1.6-1.1-2.6
		s0.4-1.9,1.1-2.6c0.7-0.7,1.6-1.1,2.7-1.1c1,0,1.9,0.4,2.6,1.1s1.1,1.6,1.1,2.6s-0.4,1.9-1.1,2.6c-0.7,0.7-1.6,1.1-2.6,1.1
		C811.8,813.7,811,813.3,810.2,812.5z"/>
	<path d="M831.7,818.1c1,0.3,1.9,0.4,2.6,0.4c0.8,0,1.5-0.3,2-0.9c0.5-0.6,0.8-1.4,0.8-2.5v-28h5.6v28c0,3-0.6,5.2-1.9,6.7
		c-1.3,1.5-3.1,2.3-5.6,2.3c-1.4,0-2.6-0.1-3.5-0.4V818.1z M837.3,781.7c-0.7-0.7-1.1-1.6-1.1-2.6c0-1,0.4-1.9,1.1-2.6
		c0.7-0.7,1.6-1.1,2.6-1.1c1,0,1.8,0.4,2.5,1.1c0.7,0.7,1.1,1.6,1.1,2.6c0,1-0.4,1.9-1.1,2.6c-0.7,0.7-1.5,1.1-2.5,1.1
		C838.9,782.8,838,782.4,837.3,781.7z"/>
	<path d="M854.6,811.9c-2-1.2-3.6-2.8-4.8-4.9c-1.2-2.1-1.8-4.4-1.8-6.9s0.6-4.8,1.8-6.9c1.2-2.1,2.8-3.7,4.8-4.9
		c2-1.2,4.3-1.8,6.8-1.8c2.5,0,4.8,0.6,6.8,1.8c2.1,1.2,3.7,2.8,4.8,4.9c1.2,2.1,1.7,4.4,1.7,6.9s-0.6,4.8-1.7,6.9
		c-1.2,2.1-2.8,3.7-4.8,4.9c-2.1,1.2-4.3,1.8-6.8,1.8C858.9,813.7,856.6,813.1,854.6,811.9z M865.4,807.1c1.2-0.7,2.1-1.7,2.7-2.9
		s0.9-2.6,0.9-4.1s-0.3-2.8-0.9-4.1s-1.5-2.2-2.7-2.9c-1.2-0.7-2.5-1.1-4-1.1c-1.5,0-2.8,0.4-4,1.1c-1.2,0.7-2.1,1.7-2.7,2.9
		s-0.9,2.6-0.9,4.1s0.3,2.8,0.9,4.1s1.5,2.2,2.7,2.9c1.2,0.7,2.5,1.1,4,1.1C862.9,808.2,864.2,807.8,865.4,807.1z"/>
	<path d="M903.4,801.7h-19.2c0.3,2,1.1,3.7,2.4,4.9c1.3,1.2,3,1.8,4.9,1.8c2.8,0,5.1-1.1,6.9-3.4l3.6,3.9c-1.2,1.4-2.6,2.5-4.4,3.4
		c-1.8,0.9-3.8,1.3-6.1,1.3c-2.5,0-4.7-0.6-6.7-1.7c-2-1.2-3.5-2.8-4.7-4.8c-1.1-2.1-1.7-4.4-1.7-7c0-2.6,0.6-5,1.8-7
		c1.2-2.1,2.8-3.7,4.8-4.8c2-1.1,4.1-1.7,6.5-1.7c2.3,0,4.4,0.5,6.2,1.6s3.3,2.5,4.4,4.3c1.1,1.8,1.6,3.9,1.6,6.2
		C903.6,799.7,903.6,800.7,903.4,801.7z M897.9,797c-0.3-1.6-1-2.8-2.2-3.8c-1.1-0.9-2.6-1.4-4.3-1.4c-1.7,0-3.2,0.5-4.4,1.4
		c-1.2,0.9-2,2.2-2.5,3.8H897.9z"/>
	<path d="M943.5,779.2c3.4,2,6.1,4.7,8,8.1c1.9,3.4,2.9,7,2.9,10.9c0,2.7-0.4,5-1.2,7.1c-0.8,2.1-2,3.7-3.6,4.8
		c-1.5,1.1-3.4,1.7-5.4,1.7c-1.5,0-2.9-0.3-4.1-1c-1.2-0.6-2.1-1.6-2.7-3c-0.7,1.2-1.7,2.2-3,2.9c-1.3,0.7-2.7,1-4.3,1
		c-2,0-3.8-0.5-5.4-1.4c-1.7-0.9-3-2.3-4-4s-1.5-3.7-1.5-6c0-2.3,0.5-4.3,1.5-6s2.3-3.1,4-4c1.7-0.9,3.5-1.4,5.4-1.4
		c1.4,0,2.6,0.3,3.7,0.8c1.1,0.5,2,1.2,2.7,2v-2.3h4.9v13.6c0,2.4,1,3.6,2.9,3.6c1.3,0,2.5-0.7,3.4-2.1c0.9-1.4,1.4-3.6,1.4-6.5
		c0-3-0.7-5.9-2.2-8.5c-1.4-2.6-3.5-4.7-6.1-6.3c-2.7-1.6-5.7-2.4-9.1-2.4c-3.4,0-6.6,0.8-9.5,2.5c-2.9,1.7-5.1,3.9-6.8,6.8
		c-1.7,2.9-2.5,6.1-2.5,9.7c0,3.6,0.8,6.8,2.5,9.7c1.6,2.9,3.9,5.2,6.7,6.8c2.8,1.6,6,2.5,9.6,2.5c2.9,0,5.6-0.6,8.1-1.8l1.9,4.5
		c-3.1,1.4-6.4,2.2-10,2.2c-4.4,0-8.5-1-12.1-3.1c-3.7-2.1-6.6-4.9-8.7-8.5c-2.1-3.6-3.2-7.7-3.2-12.2c0-4.5,1.1-8.5,3.2-12.2
		c2.1-3.6,5-6.5,8.7-8.6c3.7-2.1,7.7-3.1,12-3.1C936.2,776.1,940.1,777.1,943.5,779.2z M935,804.9c1.2-1.2,1.7-2.7,1.7-4.6
		c0-1.9-0.6-3.4-1.7-4.6c-1.2-1.2-2.7-1.8-4.5-1.8c-1.6,0-3,0.6-4.2,1.8c-1.2,1.2-1.8,2.7-1.8,4.6c0,1.9,0.6,3.4,1.8,4.6
		c1.2,1.2,2.6,1.8,4.2,1.8C932.4,806.8,933.9,806.2,935,804.9z"/>
	<path d="M984.6,787.2L973,813h-4.1l-11.6-25.8h6.2l7.5,17.4l7.5-17.4H984.6z"/>
	<path d="M988.8,781.7c-0.7-0.7-1.1-1.6-1.1-2.6c0-1,0.4-1.9,1.1-2.6c0.7-0.7,1.6-1.1,2.6-1.1c1,0,1.8,0.4,2.5,1.1
		c0.7,0.7,1.1,1.6,1.1,2.6c0,1-0.4,1.9-1.1,2.6c-0.7,0.7-1.5,1.1-2.5,1.1C990.3,782.8,989.5,782.4,988.8,781.7z M988.5,787.2h5.6
		V813h-5.6V787.2z"/>
	<path d="M1013.3,808.1c0.5-0.1,1-0.2,1.5-0.4v5.3c-1.3,0.5-2.7,0.7-4.3,0.7c-2.6,0-4.6-0.8-6-2.4c-1.5-1.6-2.2-3.9-2.2-7v-11.8
		h-3.5v-5.3h3.5v-5.1l5.7-2.3v7.4h6.6v5.3h-6.6v11.6c0,1.2,0.3,2.2,0.9,2.9c0.6,0.8,1.4,1.1,2.5,1.1
		C1012.2,808.2,1012.9,808.2,1013.3,808.1z"/>
	<path d="M1023.5,812c-1.9-1.1-3.4-2.7-4.6-4.7c-1.1-2.1-1.7-4.4-1.7-7.1c0-2.7,0.6-5.1,1.7-7.2c1.1-2.1,2.7-3.6,4.6-4.7
		s4-1.6,6.2-1.6c1.8,0,3.3,0.4,4.7,1.1s2.5,1.6,3.2,2.7v-3.1h5.6V813h-5.6v-3.2c-0.7,1.1-1.8,2-3.2,2.7s-3,1.1-4.8,1.1
		C1027.4,813.7,1025.4,813.1,1023.5,812z M1035.8,805.9c1.4-1.5,2.2-3.4,2.2-5.8c0-2.4-0.7-4.3-2.1-5.8c-1.4-1.5-3.2-2.3-5.5-2.3
		c-1.4,0-2.6,0.3-3.8,1c-1.1,0.7-2,1.6-2.7,2.8c-0.7,1.2-1,2.7-1,4.3c0,1.6,0.3,3,1,4.2c0.7,1.2,1.6,2.2,2.7,2.8
		c1.1,0.7,2.4,1,3.8,1C1032.6,808.2,1034.4,807.4,1035.8,805.9z"/>
	<path d="M1049.7,774.2h5.6V813h-5.6V774.2z"/>
	<path d="M1086.3,787.2l-11.6,25.8h-4.1l-11.6-25.8h6.2l7.5,17.4l7.5-17.4H1086.3z"/>
	<path d="M1090.6,781.7c-0.7-0.7-1.1-1.6-1.1-2.6c0-1,0.4-1.9,1.1-2.6c0.7-0.7,1.6-1.1,2.6-1.1c1,0,1.8,0.4,2.5,1.1
		c0.7,0.7,1.1,1.6,1.1,2.6c0,1-0.4,1.9-1.1,2.6c-0.7,0.7-1.5,1.1-2.5,1.1C1092.1,782.8,1091.3,782.4,1090.6,781.7z M1090.3,787.2
		h5.6V813h-5.6V787.2z"/>
	<path d="M1104.6,811.7c-1.7-1.3-2.9-3-3.5-5l5-2.1c0.4,1.2,1,2.1,1.8,2.8c0.8,0.7,1.9,1.1,3.1,1.1c1.1,0,2-0.3,2.6-0.8
		c0.6-0.5,1-1.2,1-2c0-0.9-0.4-1.6-1.1-2.1c-0.7-0.5-2-0.9-3.8-1.3c-2.6-0.5-4.5-1.4-5.9-2.7c-1.4-1.4-2-3.1-2-5.2
		c0-1.4,0.4-2.8,1.2-4c0.8-1.2,1.8-2.1,3.2-2.8c1.4-0.7,2.9-1.1,4.6-1.1c2.2,0,4.1,0.5,5.6,1.6c1.5,1.1,2.6,2.5,3.4,4.3l-5.1,2.1
		c-0.3-0.8-0.8-1.5-1.4-2c-0.7-0.5-1.5-0.8-2.5-0.8c-0.9,0-1.7,0.2-2.4,0.7c-0.6,0.5-0.9,1.1-0.9,1.8c0,0.8,0.3,1.4,1,1.8
		c0.7,0.4,1.8,0.8,3.5,1.1c5.5,1.1,8.3,3.9,8.3,8.3c0,1.5-0.4,2.9-1.2,4.1s-1.9,2.2-3.3,2.9c-1.4,0.7-3,1.1-4.7,1.1
		C1108.5,813.7,1106.4,813,1104.6,811.7z"/>
	<path d="M1127.5,810.6c-1.7-2-2.6-4.9-2.6-8.6v-14.8h5.6v14.1c0,2.3,0.4,4,1.3,5.1c0.9,1.2,2.1,1.7,3.8,1.7c1.9,0,3.5-0.7,4.7-2.2
		c1.2-1.5,1.8-3.5,1.8-5.9v-12.8h5.6V813h-5.6v-3.5c-0.7,1.2-1.7,2.2-3,3s-2.8,1.2-4.5,1.2C1131.7,813.7,1129.3,812.6,1127.5,810.6z
		"/>
	<path d="M1159.2,812c-1.9-1.1-3.4-2.7-4.6-4.7c-1.1-2.1-1.7-4.4-1.7-7.1c0-2.7,0.6-5.1,1.7-7.2c1.1-2.1,2.7-3.6,4.6-4.7
		s4-1.6,6.2-1.6c1.8,0,3.3,0.4,4.7,1.1s2.5,1.6,3.2,2.7v-3.1h5.6V813h-5.6v-3.2c-0.7,1.1-1.8,2-3.2,2.7s-3,1.1-4.8,1.1
		C1163.1,813.7,1161.1,813.1,1159.2,812z M1171.5,805.9c1.4-1.5,2.2-3.4,2.2-5.8c0-2.4-0.7-4.3-2.1-5.8c-1.4-1.5-3.2-2.3-5.5-2.3
		c-1.4,0-2.6,0.3-3.8,1c-1.1,0.7-2,1.6-2.7,2.8c-0.7,1.2-1,2.7-1,4.3c0,1.6,0.3,3,1,4.2c0.7,1.2,1.6,2.2,2.7,2.8
		c1.1,0.7,2.4,1,3.8,1C1168.2,808.2,1170.1,807.4,1171.5,805.9z"/>
	<path d="M1185.4,774.2h5.6V813h-5.6V774.2z"/>
	<path d="M1197.5,812.5c-0.7-0.7-1.1-1.6-1.1-2.6s0.4-1.9,1.1-2.6c0.7-0.7,1.6-1.1,2.7-1.1c1,0,1.9,0.4,2.6,1.1
		c0.7,0.7,1.1,1.6,1.1,2.6s-0.4,1.9-1.1,2.6c-0.7,0.7-1.6,1.1-2.6,1.1C1199.2,813.7,1198.3,813.3,1197.5,812.5z"/>
	<path d="M1209.8,793.2c1.2-2.1,2.8-3.7,4.9-4.9c2.1-1.2,4.3-1.8,6.8-1.8c2.1,0,4,0.4,5.7,1.2c1.7,0.8,3.2,1.9,4.3,3.3l-3.9,4
		c-1.6-2-3.6-3-6.2-3c-1.4,0-2.6,0.3-3.8,1c-1.2,0.7-2.1,1.6-2.8,2.8s-1.1,2.6-1.1,4.2c0,1.6,0.4,3,1.1,4.2s1.7,2.2,2.8,2.8
		c1.2,0.7,2.5,1,3.8,1c2.5,0,4.6-1,6.2-3l3.9,4c-1.2,1.4-2.6,2.6-4.3,3.3c-1.7,0.8-3.6,1.2-5.7,1.2c-2.5,0-4.8-0.6-6.8-1.8
		c-2.1-1.2-3.7-2.8-4.9-4.9c-1.2-2.1-1.8-4.3-1.8-6.9S1208.6,795.3,1209.8,793.2z"/>
	<path d="M1240.5,811.9c-2-1.2-3.6-2.8-4.8-4.9c-1.2-2.1-1.8-4.4-1.8-6.9s0.6-4.8,1.8-6.9c1.2-2.1,2.8-3.7,4.8-4.9
		c2-1.2,4.3-1.8,6.8-1.8c2.5,0,4.8,0.6,6.8,1.8c2.1,1.2,3.7,2.8,4.8,4.9c1.2,2.1,1.7,4.4,1.7,6.9s-0.6,4.8-1.7,6.9
		c-1.2,2.1-2.8,3.7-4.8,4.9s-4.3,1.8-6.8,1.8C1244.8,813.7,1242.6,813.1,1240.5,811.9z M1251.3,807.1c1.2-0.7,2.1-1.7,2.7-2.9
		s0.9-2.6,0.9-4.1s-0.3-2.8-0.9-4.1s-1.5-2.2-2.7-2.9c-1.2-0.7-2.5-1.1-4-1.1c-1.5,0-2.8,0.4-4,1.1c-1.2,0.7-2.1,1.7-2.7,2.9
		c-0.6,1.2-0.9,2.6-0.9,4.1s0.3,2.8,0.9,4.1c0.6,1.2,1.5,2.2,2.7,2.9c1.2,0.7,2.5,1.1,4,1.1C1248.8,808.2,1250.2,807.8,1251.3,807.1
		z"/>
	<path d="M1265.8,787.2h5.6v3c0.6-1.1,1.5-2,2.7-2.6c1.2-0.7,2.5-1,4-1c3.8,0,6.4,1.6,8,4.8c0.8-1.4,1.9-2.6,3.3-3.5
		c1.4-0.9,3-1.3,4.7-1.3c2.8,0,5,0.9,6.8,2.8c1.8,1.9,2.6,4.7,2.6,8.4V813h-5.6v-14.5c0-2.1-0.4-3.7-1.2-4.8s-2-1.6-3.6-1.6
		c-1.5,0-2.8,0.6-3.9,1.8c-1.1,1.2-1.7,2.9-1.7,5.2V813h-5.6v-14.5c0-2.1-0.4-3.7-1.3-4.8c-0.8-1.1-2-1.6-3.6-1.6
		c-1.5,0-2.8,0.6-3.9,1.8c-1.1,1.2-1.7,2.9-1.7,5.2V813h-5.6V787.2z"/>
</g>
<g>
	<path class="st4" d="M269.2,974.7l-11.7,27.3h-4.2l-11.7-27.3h5.6l8.2,19.7l8.2-19.7H269.2z"/>
	<path class="st4" d="M280,974.7h5.2v27.3H280V974.7z"/>
	<path class="st4" d="M317.9,979.8h-8v22.2h-5.2v-22.2h-8v-5.1h21.2V979.8z"/>
	<path class="st4" d="M344.2,997.3h-13.1l-1.9,4.7h-5.4l11.7-27.3h4.3l11.7,27.3h-5.4L344.2,997.3z M342.3,992.8l-4.6-11.2
		l-4.6,11.2H342.3z"/>
	<path class="st4" d="M379.8,996.9v5.1h-17.6v-27.3h5.2v22.2H379.8z"/>
	<path class="st4" d="M393.7,1000.6c-1.7-1.3-2.7-3-3.3-5l4.8-2c0.2,1.2,0.7,2.2,1.5,2.9c0.8,0.7,1.8,1.1,2.9,1.1
		c1.2,0,2.2-0.3,2.9-0.9c0.7-0.6,1.1-1.4,1.1-2.3c0-1-0.4-1.8-1.1-2.5c-0.8-0.6-2-1.1-3.6-1.5c-2.5-0.5-4.5-1.5-6-2.7
		c-1.5-1.3-2.2-3.1-2.2-5.4c0-1.5,0.4-2.8,1.1-4s1.8-2.2,3.1-2.9c1.3-0.7,2.8-1.1,4.4-1.1c2,0,3.8,0.6,5.5,1.7s2.7,2.7,3.4,4.6
		l-4.7,2c-0.3-0.9-0.8-1.6-1.5-2.3c-0.7-0.6-1.6-1-2.6-1c-1.1,0-1.9,0.3-2.6,0.8c-0.6,0.5-0.9,1.2-0.9,2c0,1.5,1.6,2.7,4.9,3.5
		c2.6,0.6,4.6,1.6,6,2.9s2.1,3.2,2.1,5.7c0,1.6-0.4,3-1.1,4.3c-0.7,1.3-1.8,2.2-3.2,3c-1.4,0.7-3,1.1-5,1.1
		C397.3,1002.5,395.3,1001.9,393.7,1000.6z"/>
	<path class="st4" d="M420.5,974.7h5.2v27.3h-5.2V974.7z"/>
	<path class="st4" d="M450.5,986.3h10.8v12.1c-1.3,1.3-2.8,2.3-4.5,3s-3.5,1.1-5.4,1.1c-2.5,0-4.9-0.6-7.1-1.9
		c-2.2-1.3-3.9-3-5.1-5.1s-1.9-4.5-1.9-7.1c0-2.6,0.6-5,1.9-7.1c1.3-2.2,3-3.9,5.1-5.1c2.1-1.3,4.5-1.9,7-1.9c1.9,0,3.7,0.4,5.5,1.1
		s3.2,1.8,4.5,3.1l-3.8,3.8c-0.8-0.9-1.7-1.5-2.8-2c-1.1-0.5-2.2-0.7-3.4-0.7c-1.6,0-3,0.4-4.3,1.2c-1.3,0.8-2.4,1.9-3.1,3.2
		c-0.8,1.4-1.2,2.8-1.2,4.4c0,1.6,0.4,3.1,1.1,4.4c0.8,1.3,1.8,2.4,3.1,3.2c1.3,0.8,2.8,1.2,4.3,1.2c1.7,0,3.3-0.5,4.8-1.5v-4.3
		h-5.7V986.3z"/>
	<path class="st4" d="M473.8,974.7h4.3l13.5,17.5v-17.5h5.2v27.3h-4.3l-13.5-17.5v17.5h-5.2V974.7z"/>
	<path class="st4" d="M511.7,1000.6c-1.7-1.3-2.7-3-3.3-5l4.8-2c0.2,1.2,0.7,2.2,1.5,2.9c0.8,0.7,1.8,1.1,2.9,1.1
		c1.2,0,2.2-0.3,2.9-0.9c0.7-0.6,1.1-1.4,1.1-2.3c0-1-0.4-1.8-1.1-2.5c-0.8-0.6-2-1.1-3.6-1.5c-2.5-0.5-4.5-1.5-6-2.7
		c-1.5-1.3-2.2-3.1-2.2-5.4c0-1.5,0.4-2.8,1.1-4s1.8-2.2,3.1-2.9c1.3-0.7,2.8-1.1,4.4-1.1c2,0,3.8,0.6,5.5,1.7s2.7,2.7,3.4,4.6
		l-4.7,2c-0.3-0.9-0.8-1.6-1.5-2.3c-0.7-0.6-1.6-1-2.6-1c-1.1,0-1.9,0.3-2.6,0.8c-0.6,0.5-0.9,1.2-0.9,2c0,1.5,1.6,2.7,4.9,3.5
		c2.6,0.6,4.6,1.6,6,2.9s2.1,3.2,2.1,5.7c0,1.6-0.4,3-1.1,4.3c-0.7,1.3-1.8,2.2-3.2,3c-1.4,0.7-3,1.1-5,1.1
		C515.4,1002.5,513.4,1001.9,511.7,1000.6z"/>
	<path class="st4" d="M573.7,992.8c-0.8-0.8-1.2-1.8-1.2-3s0.4-2.2,1.2-3c0.8-0.8,1.8-1.2,3-1.2c1.2,0,2.2,0.4,3,1.2
		c0.8,0.8,1.2,1.8,1.2,3s-0.4,2.2-1.2,3s-1.8,1.2-3,1.2C575.5,994.1,574.5,993.7,573.7,992.8z"/>
	<path class="st4" d="M634.1,976.1v25.9h-3v-21.4l-3.5,2.5l-1.7-2.5l6.4-4.5H634.1z"/>
	<path class="st4" d="M653.4,976.1v25.9h-3v-21.4l-3.5,2.5l-1.7-2.5l6.4-4.5H653.4z"/>
	<path class="st4" d="M672.7,976.1v25.9h-3v-21.4l-3.5,2.5l-1.7-2.5l6.4-4.5H672.7z"/>
	<path class="st4" d="M719.9,991c0.7,1,1,2.3,1,3.7c0,1.4-0.4,2.7-1.1,3.8c-0.7,1.1-1.6,2-2.8,2.6s-2.5,0.9-3.8,0.9h-9.3v-25.9h8.5
		c1.4,0,2.7,0.3,3.9,0.9c1.2,0.6,2.1,1.4,2.8,2.4c0.7,1,1.1,2.2,1.1,3.5c0,1.3-0.3,2.4-0.9,3.4s-1.4,1.8-2.5,2.3
		C718.2,989.2,719.2,989.9,719.9,991z M706.9,979.1v8.4h5.3c1.5,0,2.7-0.4,3.6-1.3c0.9-0.8,1.3-1.9,1.3-3.1c0-1.2-0.4-2.1-1.3-2.9
		c-0.9-0.8-2-1.2-3.5-1.2H706.9z M716.4,997.9c0.9-0.8,1.4-1.8,1.4-3.2c0-1.3-0.5-2.3-1.4-3.2c-1-0.8-2.3-1.3-4.2-1.3h-5.3v8.8h5.3
		C714.1,999.1,715.5,998.7,716.4,997.9z"/>
	<path class="st4" d="M748.7,996.2h-13.5l-2.6,5.8h-3.2l11.7-25.9h1.9l11.7,25.9h-3.2L748.7,996.2z M747.5,993.5l-5.6-12.4
		l-5.5,12.4H747.5z"/>
	<path class="st4" d="M781.2,991c0.7,1,1,2.3,1,3.7c0,1.4-0.4,2.7-1.1,3.8c-0.7,1.1-1.6,2-2.8,2.6s-2.5,0.9-3.8,0.9h-9.3v-25.9h8.5
		c1.4,0,2.7,0.3,3.9,0.9c1.2,0.6,2.1,1.4,2.8,2.4c0.7,1,1.1,2.2,1.1,3.5c0,1.3-0.3,2.4-0.9,3.4s-1.4,1.8-2.5,2.3
		C779.5,989.2,780.5,989.9,781.2,991z M768.2,979.1v8.4h5.3c1.5,0,2.7-0.4,3.6-1.3c0.9-0.8,1.3-1.9,1.3-3.1c0-1.2-0.4-2.1-1.3-2.9
		c-0.9-0.8-2-1.2-3.5-1.2H768.2z M777.7,997.9c0.9-0.8,1.4-1.8,1.4-3.2c0-1.3-0.5-2.3-1.4-3.2c-1-0.8-2.3-1.3-4.2-1.3h-5.3v8.8h5.3
		C775.3,999.1,776.7,998.7,777.7,997.9z"/>
	<path class="st4" d="M805.8,1002.5c-2.4,0-4.6-0.6-6.6-1.7s-3.7-2.8-4.9-4.8c-1.2-2-1.8-4.3-1.8-6.8c0-2.5,0.6-4.8,1.8-6.8
		c1.2-2,2.8-3.7,4.9-4.8c2-1.2,4.2-1.7,6.6-1.7c4,0,7.3,1.6,9.8,4.7l-2.1,2.1c-1-1.2-2.1-2.2-3.3-2.8c-1.2-0.7-2.6-1-4.3-1
		c-1.8,0-3.5,0.4-5.1,1.3c-1.6,0.9-2.8,2.1-3.8,3.7c-0.9,1.6-1.4,3.4-1.4,5.3c0,2,0.5,3.8,1.4,5.3c0.9,1.6,2.2,2.8,3.8,3.7
		s3.2,1.4,5.1,1.4c1.7,0,3.2-0.3,4.3-1c1.2-0.7,2.3-1.6,3.3-2.8l2.1,2.1C813.1,1000.9,809.8,1002.5,805.8,1002.5z"/>
	<path class="st4" d="M831.9,1000.7c-2-1.2-3.7-2.8-4.8-4.9c-1.2-2.1-1.8-4.3-1.8-6.7c0-2.4,0.6-4.7,1.8-6.7
		c1.2-2.1,2.8-3.7,4.8-4.9c2-1.2,4.3-1.8,6.7-1.8c2.4,0,4.6,0.6,6.7,1.8c2,1.2,3.7,2.8,4.8,4.9s1.8,4.3,1.8,6.7
		c0,2.4-0.6,4.7-1.8,6.7s-2.8,3.7-4.8,4.9c-2,1.2-4.3,1.8-6.7,1.8C836.2,1002.5,834,1001.9,831.9,1000.7z M843.8,998.1
		c1.6-0.9,2.8-2.2,3.7-3.8c0.9-1.6,1.4-3.3,1.4-5.2c0-1.9-0.5-3.6-1.4-5.2s-2.1-2.9-3.7-3.8s-3.3-1.4-5.2-1.4
		c-1.9,0-3.6,0.5-5.2,1.4s-2.8,2.2-3.7,3.8c-0.9,1.6-1.4,3.3-1.4,5.2c0,1.9,0.4,3.6,1.4,5.2c0.9,1.6,2.1,2.9,3.7,3.8
		s3.3,1.4,5.2,1.4C840.5,999.5,842.2,999.1,843.8,998.1z"/>
	<path class="st4" d="M875.2,1002.5c-2.4,0-4.6-0.6-6.6-1.7s-3.7-2.8-4.9-4.8c-1.2-2-1.8-4.3-1.8-6.8c0-2.5,0.6-4.8,1.8-6.8
		c1.2-2,2.8-3.7,4.9-4.8c2-1.2,4.2-1.7,6.6-1.7c4,0,7.3,1.6,9.8,4.7l-2.1,2.1c-1-1.2-2.1-2.2-3.3-2.8c-1.2-0.7-2.6-1-4.3-1
		c-1.8,0-3.5,0.4-5.1,1.3c-1.6,0.9-2.8,2.1-3.8,3.7c-0.9,1.6-1.4,3.4-1.4,5.3c0,2,0.5,3.8,1.4,5.3c0.9,1.6,2.2,2.8,3.8,3.7
		s3.2,1.4,5.1,1.4c1.7,0,3.2-0.3,4.3-1c1.2-0.7,2.3-1.6,3.3-2.8l2.1,2.1C882.4,1000.9,879.2,1002.5,875.2,1002.5z"/>
	<path class="st4" d="M903.4,989.4L916,1002h-4.2l-10.5-10.5l-1.9,1.9v8.7h-3v-25.9h3v13.4l13.3-13.4h4L903.4,989.4z"/>
	<path class="st4" d="M961.6,991c0.7,1,1,2.3,1,3.7c0,1.4-0.4,2.7-1.1,3.8c-0.7,1.1-1.6,2-2.8,2.6s-2.5,0.9-3.8,0.9h-9.3v-25.9h8.5
		c1.4,0,2.7,0.3,3.9,0.9c1.2,0.6,2.1,1.4,2.8,2.4c0.7,1,1.1,2.2,1.1,3.5c0,1.3-0.3,2.4-0.9,3.4s-1.4,1.8-2.5,2.3
		C959.9,989.2,960.9,989.9,961.6,991z M948.6,979.1v8.4h5.3c1.5,0,2.7-0.4,3.6-1.3c0.9-0.8,1.3-1.9,1.3-3.1c0-1.2-0.4-2.1-1.3-2.9
		c-0.9-0.8-2-1.2-3.5-1.2H948.6z M958.1,997.9c0.9-0.8,1.4-1.8,1.4-3.2c0-1.3-0.5-2.3-1.4-3.2c-1-0.8-2.3-1.3-4.2-1.3h-5.3v8.8h5.3
		C955.7,999.1,957.2,998.7,958.1,997.9z"/>
	<path class="st4" d="M991.1,999.1v3h-16.6v-25.9h3v22.9H991.1z"/>
	<path class="st4" d="M1021,976.1l-11.7,25.9h-2l-11.7-25.9h3.2l9.5,21.1l9.5-21.1H1021z"/>
	<path class="st4" d="M1045.7,977.8c2,1.1,3.6,2.7,4.6,4.6c1.1,2,1.6,4.2,1.6,6.6c0,2.5-0.5,4.7-1.6,6.6c-1.1,2-2.6,3.5-4.7,4.6
		c-2,1.1-4.4,1.7-7.1,1.7h-7.3v-25.9h7.3C1041.3,976.1,1043.7,976.7,1045.7,977.8z M1044,997.8c1.6-0.9,2.7-2.1,3.6-3.6
		c0.8-1.5,1.2-3.2,1.2-5.1c0-1.9-0.4-3.6-1.2-5.1s-2-2.7-3.6-3.6c-1.5-0.9-3.4-1.3-5.5-1.3h-4.3v20h4.2
		C1040.7,999.1,1042.5,998.6,1044,997.8z"/>
	<path class="st4" d="M1079.6,976.1h3.3l7.4,20l6.7-20h3.1l6.8,19.9l7.4-19.9h3.2l-9.7,25.9h-2.1l-7.1-21.3l-7.2,21.3h-2.1
		L1079.6,976.1z"/>
	<path class="st4" d="M1131,979.1v8.1h12.4v3H1131v8.9h13.1v3H1128v-25.9h16.1v3H1131z"/>
	<path class="st4" d="M1158.4,1001.5c-1.2-0.6-2.2-1.5-2.9-2.5c-0.8-1-1.3-2.2-1.5-3.4l2.7-1.2c0.3,1.5,0.9,2.7,1.9,3.6
		s2.2,1.4,3.7,1.4c1.5,0,2.8-0.4,3.7-1.3c1-0.9,1.4-2,1.4-3.4c0-1.3-0.4-2.4-1.3-3.3c-0.9-0.9-2.1-1.5-3.7-1.8
		c-2.8-0.6-4.8-1.5-6.1-2.6c-1.3-1.1-1.9-2.7-1.9-4.5c0-1.2,0.3-2.3,1-3.4c0.7-1,1.6-1.9,2.7-2.5c1.2-0.6,2.4-0.9,3.8-0.9
		c1.8,0,3.3,0.5,4.6,1.4c1.3,0.9,2.2,2.2,2.8,4l-2.8,1.1c-0.3-1-0.9-1.9-1.7-2.5c-0.8-0.7-1.8-1-2.9-1c-1.3,0-2.4,0.4-3.3,1.1
		c-0.8,0.7-1.3,1.6-1.3,2.8c0,0.9,0.4,1.7,1.1,2.4s1.9,1.2,3.4,1.6c2.8,0.7,5,1.7,6.4,3c1.4,1.3,2.1,3.1,2.1,5.3
		c0,2.4-0.8,4.2-2.3,5.6c-1.5,1.4-3.5,2.1-6,2.1C1160.9,1002.5,1159.6,1002.2,1158.4,1001.5z"/>
	<path class="st4" d="M1198.6,979.1h-8.4v22.9h-3v-22.9h-8.4v-3h19.8V979.1z"/>
	<path class="st4" d="M1206.5,998.2h3.2l-2.5,6.7h-2.8L1206.5,998.2z"/>
	<path class="st4" d="M1254,977.8c2,1.1,3.6,2.7,4.6,4.6c1.1,2,1.6,4.2,1.6,6.6c0,2.5-0.5,4.7-1.6,6.6c-1.1,2-2.6,3.5-4.7,4.6
		c-2,1.1-4.4,1.7-7.1,1.7h-7.3v-25.9h7.3C1249.6,976.1,1252,976.7,1254,977.8z M1252.3,997.8c1.6-0.9,2.7-2.1,3.6-3.6
		c0.8-1.5,1.2-3.2,1.2-5.1c0-1.9-0.4-3.6-1.2-5.1s-2-2.7-3.6-3.6c-1.5-0.9-3.4-1.3-5.5-1.3h-4.3v20h4.2
		C1249,999.1,1250.8,998.6,1252.3,997.8z"/>
	<path class="st4" d="M1274.7,979.1v8.1h12.4v3h-12.4v8.9h13.1v3h-16.1v-25.9h16.1v3H1274.7z"/>
	<path class="st4" d="M1316.3,999.1v3h-16.6v-25.9h3v22.9H1316.3z"/>
	<path class="st4" d="M1345.9,996.2h-13.5l-2.6,5.8h-3.2l11.7-25.9h1.9l11.7,25.9h-3.2L1345.9,996.2z M1344.7,993.5l-5.6-12.4
		l-5.5,12.4H1344.7z"/>
	<path class="st4" d="M1362.3,976.1h2.4l15.5,20.1v-20.1h3v25.9h-2.4l-15.5-20.1v20.1h-3V976.1z"/>
	<path class="st4" d="M1401.3,1000.7c-2-1.2-3.7-2.8-4.8-4.9c-1.2-2.1-1.8-4.3-1.8-6.7c0-2.4,0.6-4.7,1.8-6.7
		c1.2-2.1,2.8-3.7,4.8-4.9c2-1.2,4.3-1.8,6.7-1.8c2.4,0,4.6,0.6,6.7,1.8c2,1.2,3.7,2.8,4.8,4.9s1.8,4.3,1.8,6.7
		c0,2.4-0.6,4.7-1.8,6.7s-2.8,3.7-4.8,4.9c-2,1.2-4.3,1.8-6.7,1.8C1405.6,1002.5,1403.3,1001.9,1401.3,1000.7z M1413.1,998.1
		c1.6-0.9,2.8-2.2,3.7-3.8c0.9-1.6,1.4-3.3,1.4-5.2c0-1.9-0.5-3.6-1.4-5.2s-2.1-2.9-3.7-3.8s-3.3-1.4-5.2-1.4
		c-1.9,0-3.6,0.5-5.2,1.4s-2.8,2.2-3.7,3.8c-0.9,1.6-1.4,3.3-1.4,5.2c0,1.9,0.4,3.6,1.4,5.2c0.9,1.6,2.1,2.9,3.7,3.8
		s3.3,1.4,5.2,1.4C1409.8,999.5,1411.6,999.1,1413.1,998.1z"/>
	<path class="st4" d="M1430.7,998.2h3.2l-2.5,6.7h-2.8L1430.7,998.2z"/>
	<path class="st4" d="M1463.8,976.1h2.8l9.8,14.7l9.8-14.7h2.8v25.9h-3v-20.2l-8.5,12.8h-2.1l-8.5-12.9v20.3h-3V976.1z"/>
	<path class="st4" d="M1501.9,976.1h2.4l15.5,20.1v-20.1h3v25.9h-2.4l-15.5-20.1v20.1h-3V976.1z"/>
	<path class="st4" d="M1565.3,986.7c1.2,0.7,2.2,1.6,2.9,2.8c0.7,1.2,1.1,2.7,1.1,4.4c0,1.7-0.4,3.2-1.1,4.5c-0.7,1.3-1.8,2.3-3.1,3
		s-2.7,1.1-4.3,1.1c-1.7,0-3.3-0.5-4.7-1.5c-1.5-1-2.6-2.5-3.4-4.4l2.8-1.1c0.3,1.3,1,2.3,2,3c1,0.8,2.1,1.1,3.3,1.1
		c1.7,0,3-0.5,4-1.6c1-1.1,1.5-2.4,1.5-4.1c0-1.5-0.5-2.8-1.5-3.8c-1-1-2.4-1.5-4-1.5c-0.9,0-1.8,0.2-2.6,0.6
		c-0.9,0.4-1.6,0.8-2.2,1.4l-1.8-1.2l2.3-13.2h11.6v2.9h-9.2l-1.4,7.5c1.1-0.6,2.3-0.9,3.8-0.9C1562.7,985.7,1564,986,1565.3,986.7z
		"/>
	<path class="st4" d="M1591.7,986.7c1.2,0.7,2.2,1.6,2.9,2.8c0.7,1.2,1.1,2.7,1.1,4.4c0,1.7-0.4,3.2-1.1,4.5c-0.7,1.3-1.8,2.3-3.1,3
		s-2.7,1.1-4.3,1.1c-1.7,0-3.3-0.5-4.7-1.5c-1.5-1-2.6-2.5-3.4-4.4l2.8-1.1c0.3,1.3,1,2.3,2,3c1,0.8,2.1,1.1,3.3,1.1
		c1.7,0,3-0.5,4-1.6c1-1.1,1.5-2.4,1.5-4.1c0-1.5-0.5-2.8-1.5-3.8c-1-1-2.4-1.5-4-1.5c-0.9,0-1.8,0.2-2.6,0.6
		c-0.9,0.4-1.6,0.8-2.2,1.4l-1.8-1.2l2.3-13.2h11.6v2.9h-9.2l-1.4,7.5c1.1-0.6,2.3-0.9,3.8-0.9
		C1589.2,985.7,1590.5,986,1591.7,986.7z"/>
	<path class="st4" d="M1621.1,988.4c1.3,1.4,2,3.3,2,5.7c0,1.7-0.4,3.1-1.2,4.4c-0.8,1.3-1.9,2.3-3.2,2.9s-2.7,1-4.2,1
		c-1.8,0-3.5-0.5-5.1-1.5c-1.5-1-2.6-2.4-3.2-4.3l2.6-1.1c0.5,1.3,1.2,2.3,2.2,2.9c1,0.7,2.1,1,3.5,1c1,0,1.9-0.2,2.8-0.7
		c0.9-0.5,1.5-1.1,2.1-1.9c0.5-0.8,0.8-1.8,0.8-2.8c0-1.8-0.6-3.1-1.7-4.2c-1.1-1-2.8-1.5-4.9-1.5h-1.5v-1.6l5.9-7.8h-10.8v-3h14.8
		v2l-5.8,7.8C1618.1,986.2,1619.8,987,1621.1,988.4z"/>
	<path class="st4" d="M1634.3,999.7c0-4,2.2-7.4,6.7-10.2c1.4-0.9,2.5-1.6,3.2-2.2c0.7-0.6,1.3-1.2,1.8-1.9c0.4-0.7,0.7-1.4,0.7-2.3
		c0-1.3-0.4-2.3-1.3-3.2c-0.9-0.8-2.1-1.3-3.5-1.3c-1.3,0-2.4,0.4-3.3,1.2c-0.9,0.8-1.5,1.8-1.8,3.2l-2.7-1.1
		c0.4-1.8,1.3-3.3,2.6-4.5c1.4-1.1,3.1-1.7,5.1-1.7c1.6,0,2.9,0.3,4.1,1c1.2,0.7,2.1,1.5,2.8,2.7s1,2.4,1,3.7c0,1.2-0.2,2.3-0.7,3.2
		c-0.5,0.9-1.1,1.7-1.9,2.3s-1.9,1.5-3.3,2.5c-0.3,0.2-0.9,0.6-1.6,1.1c-1.6,1.2-2.8,2.3-3.4,3.3s-1.1,2.2-1.2,3.6h12.5v3h-15.7
		V999.7z"/>
	<path class="st4" d="M1676.1,991.2c0.7,1.1,1.1,2.4,1.1,3.7c0,1.5-0.4,2.8-1.1,3.9c-0.7,1.1-1.7,2-2.9,2.7c-1.2,0.7-2.6,1-4.1,1
		s-2.9-0.3-4.1-1c-1.2-0.7-2.2-1.6-2.9-2.7c-0.7-1.1-1.1-2.4-1.1-3.9c0-1.4,0.4-2.6,1.1-3.7s1.6-2,2.8-2.7c-1-0.6-1.7-1.4-2.2-2.3
		s-0.8-2.1-0.8-3.3c0-1.3,0.3-2.4,0.9-3.5c0.6-1.1,1.5-2,2.6-2.6c1.1-0.7,2.4-1,3.8-1c1.4,0,2.6,0.3,3.7,1s2,1.5,2.6,2.6
		s0.9,2.3,0.9,3.5c0,1.2-0.3,2.3-0.8,3.3c-0.5,1-1.3,1.7-2.2,2.3C1674.4,989.2,1675.4,990.1,1676.1,991.2z M1671.6,998.9
		c0.8-0.4,1.4-1,1.8-1.8c0.4-0.7,0.6-1.5,0.6-2.3c0-1-0.2-1.9-0.7-2.6c-0.5-0.8-1.1-1.3-1.9-1.7s-1.6-0.6-2.4-0.6s-1.6,0.2-2.4,0.6
		c-0.8,0.4-1.4,1-1.9,1.7c-0.5,0.8-0.7,1.6-0.7,2.6c0,0.8,0.2,1.6,0.6,2.3c0.4,0.7,1,1.3,1.8,1.8c0.8,0.4,1.6,0.7,2.6,0.7
		S1670.8,999.4,1671.6,998.9z M1666,979.8c-0.8,0.8-1.1,1.8-1.1,3c0,1.2,0.4,2.1,1.2,3c0.8,0.8,1.8,1.2,3,1.2c1.2,0,2.1-0.4,2.9-1.2
		c0.8-0.8,1.2-1.8,1.2-2.9c0-1.2-0.4-2.2-1.1-3c-0.8-0.8-1.7-1.3-3-1.3C1667.7,978.6,1666.7,979,1666,979.8z"/>
</g>
</svg>
