<?xml version="1.0" encoding="UTF-8"?>
<svg id="a" data-name="background" xmlns="http://www.w3.org/2000/svg" viewBox="0 0 641.47 264.37">
  <defs>
    <style>
      .n {
        fill: #fff;
      }

      .o {
        fill: #58595b;
      }
    </style>
  </defs>
  <g id="b" data-name="signgroup">
    <g id="c" data-name="what">
      <path id="d" data-name="what" class="n" d="m62.95,119.18h-20.89L12.73,35.9h13.93l26.03,72.41,25.31-72.41h13.57l-28.61,83.28Z"/>
      <path id="e" data-name="what" class="n" d="m102.55,14.79h-14.3V1.82h14.3v12.97Zm0,104.39h-14.3V35.9h14.3v83.28Z"/>
      <path id="f" data-name="what" class="n" d="m128.94,35.9h22.94v9.96h-22.94v52.35c0,8.13-.18,13.43,11.56,13.43,4.03,0,7.86-.3,11.37-1.05v8.59c-4.59,1.35-9.37,2.42-14.31,2.42-24.2,0-22.94-13.43-22.94-28.67v-47.07h-15.39v-9.96h15.39V8.91h14.31v27Z"/>
      <path id="g" data-name="what" class="n" d="m204.64,119.18l-1.45-10.56c-8.26,6.65-17.42,12.98-29.34,12.98-15.59,0-28.03-10.71-28.03-23.84,0-23.83,30.43-28.96,52.79-33.94l4.58-1.05v-4.66c0-9.53-7.88-14.66-19.25-14.66s-18.89,6.05-24.76,13.13l-10.08-6.18c8.43-9.96,19.42-16.89,34.83-16.89,13.73,0,33.55,6.92,33.55,25.95v41.34c.18,6.17-.2,12.52,2.74,18.39h-15.59Zm-7.14-45.41c-13.55,3.32-38.31,7.86-38.31,22.8,0,6.92,6.58,13.86,15.22,13.86,11.36,0,21.82-6.49,28.78-13.57v-24.44l-5.7,1.34Z"/>
      <path id="h" data-name="what" class="n" d="m238.38,119.18h-14.3V1.82h14.3v117.36Z"/>
    </g>
    <path id="i" data-name="s" class="o" d="m310.06,36.36c-2.76-8.16-8.25-16.45-19.8-16.45-9.34,0-17.41,5.58-17.41,13.59,0,23.07,67.11,7.98,67.11,51.75,0,14.33-13.21,35.73-48.42,35.73-27.12,0-46.74-10.85-51.14-33.78l28.6-3.47c2.58,9.96,8.81,17.36,22.36,17.36,11.19,0,20.55-4.83,20.55-14.93,0-23.55-67.11-9.96-67.11-49.95,0-21.11,21.64-36.2,46.38-36.2s42.36,12.83,44.74,32.59l-25.85,3.77Z"/>
    <path id="j" data-name="i" class="o" d="m367.8,22.32h-27.14V1.82h27.14v20.49Zm0,96.87h-27.14V34.7h27.14v84.49Z"/>
    <path id="k" data-name="g" class="o" d="m403.73,91.43c-3.11,0-7.7,1.35-7.7,5.28,0,11,71.12-8.13,71.12,24.89,0,12.51-10.26,25.79-50.97,25.79-35.39,0-47.47-10.26-47.47-21.27,0-6.48,4.94-9.8,11.19-12.81-4.4-2.72-8.1-5.89-8.1-10.71,0-8.31,5.52-12.67,13.39-16.9-7.52-6.05-12.84-13.59-12.84-23.23,0-18.73,19.26-29.58,41.44-29.58,8.99,0,17.6,2.12,25.3,5.87,5.5-4.21,10.46-6.93,18.51-6.93,2.6,0,5.32.16,7.9.6v15.69c-2.76-.89-5.67-1.8-8.61-1.8s-4.78.75-7.34,1.8c2.94,4.53,5.31,9.5,5.49,14.35,0,18.68-19.06,29.56-41.25,29.56l-10.07-.6Zm-8.63,27.9c-2.58,1.37-4.23,2.58-4.23,5.29,0,7.83,19.26,8.29,25.69,8.29,4.59,0,28.41-.46,28.41-7.21,0-4.41-3.67-3.93-19.8-4.7l-30.07-1.66Zm18.7-42.08c11.37,0,14.66-7.7,14.66-15.69s-4.4-14.19-14.66-14.19c-11.37,0-14.83,7.86-14.83,15.86s4.4,14.02,14.83,14.02Z"/>
    <path id="l" data-name="n" class="o" d="m491.91,43.45c8.61-5.9,19.22-10.55,30.59-10.55s26.98,5.57,26.98,26.4v59.89h-27.14v-50.84c0-6.78.53-17.5-11.21-17.5-7.87,0-14.1,4.68-19.22,9.21v59.14h-27.16V34.7h27.16v8.75Z"/>
    <path id="m" data-name="s" class="o" d="m599.49,59.45c-1.27-5.89-3.65-10.12-11.73-10.12-6.43,0-10.99,3.93-10.99,9.36,0,14.49,49.68,3.91,49.68,35.59,0,17.95-18.15,26.7-39.04,26.7s-34.48-8.45-37.21-25.94l25.49-2.27c.53,6.05,4.38,11.78,12.64,11.78,6.79,0,13.21-2.58,13.21-9.06,0-14.78-49.7-2.72-49.7-35.61,0-17.04,17.78-27,37.77-27,17.95,0,32.46,9.36,35.57,23.98l-25.69,2.58Z"/>
  </g>
</svg>