<?xml version="1.0" encoding="utf-8"?>
<!-- Generator: Adobe Illustrator 28.0.0, SVG Export Plug-In . SVG Version: 6.00 Build 0)  -->
<svg version="1.1" id="Layer_1" xmlns="http://www.w3.org/2000/svg" xmlns:xlink="http://www.w3.org/1999/xlink" x="0px" y="0px"
	 viewBox="0 0 1920 1080" style="enable-background:new 0 0 1920 1080;" xml:space="preserve">
<style type="text/css">
	.st0{fill:#43C3EE;}
	.st1{opacity:8.000000e-02;}
	.st2{fill:#FFFFFF;}
	.st3{fill:#FFFFFF;stroke:#FFFFFF;stroke-width:2.6269;stroke-miterlimit:10;}
	.st4{font-family:'CompassSans-Medium';}
	.st5{font-size:52.6897px;}
	.st6{font-family:'CompassSans-Regular';}
	.st7{font-family:'CompassSans-Bold';}
	.st8{fill:none;}
	.st9{fill:#FFFFFF;stroke:#FFFFFF;stroke-width:0.6;stroke-miterlimit:10;}
	.st10{font-size:39px;}
	.st11{letter-spacing:7;}
	.st12{font-size:37px;}
</style>
<rect x="0" y="923.4" width="1963.3" height="288.6"/>
<rect x="-2.5" y="0.2" class="st0" width="1926.2" height="933.5"/>
<g class="st1">
	<path d="M233.7,269.2l-94.3,210.1h-33.4L11.6,269.2h50.2L123,411.2l60.9-141.9H233.7z"/>
	<path d="M268,224.6c-5.7-5.7-8.6-12.7-8.6-21c0-8.3,2.9-15.3,8.6-21c5.7-5.7,12.7-8.6,21-8.6c8,0,14.9,2.9,20.6,8.6
		c5.7,5.7,8.6,12.7,8.6,21c0,8.3-2.9,15.3-8.6,21c-5.7,5.7-12.6,8.6-20.6,8.6C280.7,233.2,273.7,230.3,268,224.6z M265.8,269.2h45.9
		v210.1h-45.9V269.2z"/>
	<path d="M468,439.2c3.9-0.7,7.9-1.9,12.2-3.6v43.3c-10.3,3.7-21.9,5.6-34.7,5.6c-20.9,0-37.2-6.4-49.1-19.3
		c-11.9-12.9-17.8-31.7-17.8-56.6v-96h-28.3v-43.3h28.3v-41.6l46.3-18.4v60h54v43.3h-54v94.8c0,9.7,2.5,17.7,7.5,23.8
		c5,6.2,11.8,9.2,20.4,9.2C459.1,440.3,464.1,440,468,439.2z"/>
	<path d="M550.5,471c-15.4-9-27.8-21.9-37.1-38.6c-9.3-16.7-13.9-36.1-13.9-58.1c0-22.3,4.6-41.8,13.9-58.5
		c9.3-16.7,21.7-29.5,37.1-38.4c15.4-8.9,32.2-13.3,50.2-13.3c14.3,0,27.2,2.9,38.6,8.6c11.4,5.8,20.2,13.1,26.2,22v-25.5h45.9
		v210.1h-45.9v-25.9c-6,8.9-14.7,16.3-25.9,22.2c-11.3,5.9-24.2,8.8-38.8,8.8C582.7,484.5,566,480,550.5,471z M650.9,421.4
		c11.7-12.3,17.6-28,17.6-47.2c0-19.1-5.8-34.9-17.4-47.2c-11.6-12.3-26.4-18.4-44.4-18.4c-11.1,0-21.4,2.6-30.7,7.9
		c-9.3,5.3-16.7,12.9-22.1,22.9c-5.4,10-8.1,21.6-8.1,34.7c0,13.1,2.7,24.7,8.1,34.5c5.4,9.9,12.8,17.5,22.1,22.9
		c9.3,5.4,19.5,8.1,30.7,8.1C624.4,439.9,639.1,433.7,650.9,421.4z"/>
	<path d="M763.6,163.7h45.9v315.6h-45.9V163.7z"/>
	<path d="M1062.1,269.2l-94.3,210.1h-33.4L840,269.2h50.2l61.3,141.9l60.9-141.9H1062.1z"/>
	<path d="M1096.4,224.6c-5.7-5.7-8.6-12.7-8.6-21c0-8.3,2.9-15.3,8.6-21c5.7-5.7,12.7-8.6,21-8.6c8,0,14.9,2.9,20.6,8.6
		c5.7,5.7,8.6,12.7,8.6,21c0,8.3-2.9,15.3-8.6,21c-5.7,5.7-12.6,8.6-20.6,8.6C1109.1,233.2,1102.1,230.3,1096.4,224.6z
		 M1094.2,269.2h45.9v210.1h-45.9V269.2z"/>
	<path d="M1210.9,468.4c-14-10.7-23.6-24.4-28.7-41l40.7-16.7c3.1,9.7,8.1,17.4,15,23.2c6.9,5.7,15.2,8.6,24.9,8.6
		c8.9,0,15.9-2.1,21.2-6.4c5.3-4.3,7.9-9.7,7.9-16.3c0-7.1-2.9-12.9-8.8-17.1c-5.9-4.3-16.2-7.7-31.1-10.3
		c-20.9-3.7-36.8-11.1-47.8-22.3c-11-11.2-16.5-25.2-16.5-42c0-11.7,3.1-22.4,9.4-32.2c6.3-9.7,15-17.4,26.2-23.2
		c11.1-5.7,23.7-8.6,37.7-8.6c18,0,33.2,4.4,45.5,13.1c12.3,8.7,21.4,20.4,27.4,34.9l-41.2,16.7c-2.3-6.6-6.2-12-11.8-16.3
		c-5.6-4.3-12.4-6.4-20.4-6.4c-7.7,0-14.2,2-19.3,6c-5.1,4-7.7,9-7.7,15c0,6.3,2.8,11.2,8.4,14.8c5.6,3.6,14.9,6.6,28.1,9.2
		c45.2,9.2,67.8,31.6,67.8,67.3c0,12.3-3.2,23.4-9.6,33.4c-6.4,10-15.4,17.9-26.8,23.8c-11.4,5.9-24.3,8.8-38.6,8.8
		C1242.2,484.5,1224.9,479.1,1210.9,468.4z"/>
	<path d="M1397.2,459.6c-14.2-16.6-21.2-40-21.2-70V269.2h45.9V384c0,18.3,3.6,32.2,10.7,41.7c7.1,9.5,17.4,14.2,30.9,14.2
		c15.7,0,28.6-6.1,38.6-18.3c10-12.2,15-28.2,15-47.9V269.2h45.9v210.1H1517v-28.5c-5.4,9.8-13.5,17.8-24.2,24.1
		c-10.7,6.3-22.9,9.5-36.7,9.5C1431,484.5,1411.3,476.2,1397.2,459.6z"/>
	<path d="M1654.7,471c-15.4-9-27.8-21.9-37.1-38.6c-9.3-16.7-13.9-36.1-13.9-58.1c0-22.3,4.6-41.8,13.9-58.5
		c9.3-16.7,21.7-29.5,37.1-38.4c15.4-8.9,32.2-13.3,50.2-13.3c14.3,0,27.2,2.9,38.6,8.6c11.4,5.8,20.2,13.1,26.2,22v-25.5h45.9
		v210.1h-45.9v-25.9c-6,8.9-14.7,16.3-25.9,22.2c-11.3,5.9-24.2,8.8-38.8,8.8C1686.8,484.5,1670.1,480,1654.7,471z M1755,421.4
		c11.7-12.3,17.6-28,17.6-47.2c0-19.1-5.8-34.9-17.4-47.2c-11.6-12.3-26.4-18.4-44.4-18.4c-11.2,0-21.4,2.6-30.7,7.9
		c-9.3,5.3-16.7,12.9-22.1,22.9c-5.4,10-8.1,21.6-8.1,34.7c0,13.1,2.7,24.7,8.1,34.5c5.4,9.9,12.8,17.5,22.1,22.9
		c9.3,5.4,19.5,8.1,30.7,8.1C1728.6,439.9,1743.3,433.7,1755,421.4z"/>
	<path d="M1867.8,163.7h45.9v315.6h-45.9V163.7z"/>
</g>
<rect x="-10.1" y="-115.2" width="1963.3" height="288.6"/>
<g>
	<path class="st2" d="M621.4,517.5H594l-38.5-109.4h18.3l34.2,95.1l33.2-95.1H659L621.4,517.5z"/>
	<path class="st2" d="M673.4,380.4h-18.8v-17h18.8V380.4z M673.4,517.5h-18.8V408.1h18.8V517.5z"/>
	<path class="st2" d="M708.1,408.1h30.1v13.1h-30.1V490c0,10.7-0.2,17.6,15.2,17.6c5.3,0,10.3-0.4,14.9-1.4v11.3
		c-6,1.8-12.3,3.2-18.8,3.2c-31.8,0-30.1-17.6-30.1-37.7v-61.8h-20.2v-13.1h20.2v-35.5h18.8V408.1z"/>
	<path class="st2" d="M807.5,517.5l-1.9-13.9c-10.8,8.7-22.9,17-38.5,17c-20.5,0-36.8-14.1-36.8-31.3c0-31.3,40-38,69.3-44.6l6-1.4
		v-6.1c0-12.5-10.3-19.3-25.3-19.3c-14.7,0-24.8,7.9-32.5,17.2l-13.2-8.1c11.1-13.1,25.5-22.2,45.8-22.2c18,0,44.1,9.1,44.1,34.1
		v54.3c0.2,8.1-0.3,16.4,3.6,24.2H807.5z M798.1,457.9c-17.8,4.4-50.3,10.3-50.3,29.9c0,9.1,8.6,18.2,20,18.2
		c14.9,0,28.7-8.5,37.8-17.8v-32.1L798.1,457.9z"/>
	<path class="st2" d="M851.8,517.5h-18.8V363.4h18.8V517.5z"/>
</g>
<path d="M946,408.7c-3.6-10.7-10.8-21.6-26-21.6c-12.3,0-22.9,7.3-22.9,17.8c0,30.3,88.1,10.5,88.1,68c0,18.8-17.4,46.9-63.6,46.9
	c-35.6,0-61.4-14.3-67.2-44.4L892,471c3.4,13.1,11.6,22.8,29.4,22.8c14.7,0,27-6.3,27-19.6c0-30.9-88.1-13.1-88.1-65.6
	c0-27.7,28.4-47.5,60.9-47.5c31.8,0,55.6,16.9,58.8,42.8L946,408.7z"/>
<path d="M1021.8,390.3h-35.6v-26.9h35.6V390.3z M1021.8,517.5h-35.6v-111h35.6V517.5z"/>
<path d="M1069,481.1c-4.1,0-10.1,1.8-10.1,6.9c0,14.5,93.4-10.7,93.4,32.7c0,16.4-13.5,33.9-66.9,33.9c-46.5,0-62.4-13.5-62.4-27.9
	c0-8.5,6.5-12.9,14.7-16.8c-5.8-3.6-10.6-7.7-10.6-14.1c0-10.9,7.2-16.6,17.6-22.2c-9.9-8-16.9-17.9-16.9-30.5
	c0-24.6,25.3-38.8,54.4-38.8c11.8,0,23.1,2.8,33.2,7.7c7.2-5.5,13.7-9.1,24.3-9.1c3.4,0,7,0.2,10.4,0.8v20.6
	c-3.6-1.2-7.5-2.4-11.3-2.4c-3.9,0-6.3,1-9.6,2.4c3.9,5.9,7,12.5,7.2,18.8c0,24.5-25,38.8-54.2,38.8L1069,481.1z M1057.7,517.7
	c-3.4,1.8-5.5,3.4-5.5,7c0,10.3,25.3,10.9,33.7,10.9c6,0,37.3-0.6,37.3-9.5c0-5.8-4.8-5.2-26-6.2L1057.7,517.7z M1082.2,462.4
	c14.9,0,19.3-10.1,19.3-20.6c0-10.1-5.8-18.6-19.3-18.6c-14.9,0-19.5,10.3-19.5,20.8C1062.8,454.1,1068.5,462.4,1082.2,462.4z"/>
<path d="M1184.8,418c11.3-7.7,25.2-13.9,40.2-13.9c14.7,0,35.4,7.3,35.4,34.7v78.7h-35.6v-66.8c0-8.9,0.7-23-14.7-23
	c-10.3,0-18.5,6.1-25.2,12.1v77.7h-35.7v-111h35.7V418z"/>
<path d="M1326.1,439.1c-1.7-7.7-4.8-13.3-15.4-13.3c-8.4,0-14.4,5.2-14.4,12.3c0,19,65.2,5.1,65.2,46.7c0,23.6-23.8,35.1-51.3,35.1
	c-27.7,0-45.3-11.1-48.9-34.1l33.5-3c0.7,8,5.8,15.5,16.6,15.5c8.9,0,17.4-3.4,17.4-11.9c0-19.4-65.3-3.6-65.3-46.8
	c0-22.4,23.3-35.5,49.6-35.5c23.6,0,42.6,12.3,46.7,31.5L1326.1,439.1z"/>
<g>
	<path d="M538.7,583.7v-25.6h10.1c8,0,13.6,5.1,13.6,12.8c0,7.7-5.6,12.8-13.6,12.8H538.7z M556.9,570.9c0-4.5-2.8-8-8-8h-4.6v16
		h4.6C553.9,578.9,556.9,575.3,556.9,570.9z"/>
	<path d="M585.5,583.7v-25.6h18.1v4.8H591v5.4h12.4v4.8H591v5.8h12.7v4.8H585.5z"/>
	<path d="M625.4,580.1l3-4.1c1.8,1.9,4.6,3.5,8.1,3.5c3,0,4.5-1.4,4.5-2.8c0-4.5-14.8-1.4-14.8-11.1c0-4.3,3.7-7.8,9.7-7.8
		c4.1,0,7.5,1.2,10,3.6l-3,4c-2.1-1.9-4.8-2.8-7.5-2.8c-2.3,0-3.6,1-3.6,2.6c0,4.1,14.7,1.3,14.7,10.9c0,4.7-3.3,8.2-10.3,8.2
		C631.3,584.2,627.8,582.5,625.4,580.1z"/>
	<path d="M669.4,583.7v-25.6h5.5v25.6H669.4z"/>
	<path d="M697.9,570.9c0-8.1,6.1-13.3,13.6-13.3c5.3,0,8.7,2.7,10.6,5.7l-4.5,2.5c-1.2-1.8-3.3-3.3-6.1-3.3c-4.6,0-8,3.6-8,8.4
		c0,4.8,3.4,8.4,8,8.4c2.3,0,4.4-1,5.5-2v-3.1h-6.8v-4.8h12.2v9.8c-2.6,2.9-6.3,4.8-10.9,4.8C704.1,584.2,697.9,579,697.9,570.9z"/>
	<path d="M763.7,583.7L751.5,567v16.7H746v-25.6h5.6l11.9,16.1v-16.1h5.5v25.6H763.7z"/>
	<path d="M820.6,580.1l3-4.1c1.8,1.9,4.6,3.5,8.1,3.5c3,0,4.5-1.4,4.5-2.8c0-4.5-14.8-1.4-14.8-11.1c0-4.3,3.7-7.8,9.7-7.8
		c4.1,0,7.5,1.2,10,3.6l-3,4c-2.1-1.9-4.8-2.8-7.5-2.8c-2.3,0-3.6,1-3.6,2.6c0,4.1,14.7,1.3,14.7,10.9c0,4.7-3.3,8.2-10.3,8.2
		C826.5,584.2,823,582.5,820.6,580.1z"/>
	<path d="M864.6,583.7v-25.6h5.5v25.6H864.6z"/>
	<path d="M893.1,570.9c0-8.1,6.1-13.3,13.6-13.3c5.3,0,8.7,2.7,10.6,5.7l-4.5,2.5c-1.2-1.8-3.3-3.3-6.1-3.3c-4.6,0-8,3.6-8,8.4
		c0,4.8,3.4,8.4,8,8.4c2.3,0,4.4-1,5.5-2v-3.1h-6.8v-4.8h12.2v9.8c-2.6,2.9-6.3,4.8-10.9,4.8C899.2,584.2,893.1,579,893.1,570.9z"/>
	<path d="M958.9,583.7L946.7,567v16.7h-5.5v-25.6h5.6l11.9,16.1v-16.1h5.5v25.6H958.9z"/>
	<path d="M986.7,580.1l3-4.1c1.8,1.9,4.6,3.5,8.1,3.5c3,0,4.5-1.4,4.5-2.8c0-4.5-14.8-1.4-14.8-11.1c0-4.3,3.7-7.8,9.7-7.8
		c4.1,0,7.5,1.2,10,3.6l-3,4c-2.1-1.9-4.8-2.8-7.5-2.8c-2.3,0-3.6,1-3.6,2.6c0,4.1,14.7,1.3,14.7,10.9c0,4.7-3.3,8.2-10.3,8.2
		C992.6,584.2,989.1,582.5,986.7,580.1z"/>
	<path d="M1058.5,570.9c0-8.1,6.1-13.3,13.6-13.3c5.3,0,8.7,2.7,10.6,5.7l-4.5,2.5c-1.2-1.8-3.3-3.3-6.1-3.3c-4.6,0-8,3.6-8,8.4
		c0,4.8,3.4,8.4,8,8.4c2.3,0,4.4-1,5.5-2v-3.1h-6.8v-4.8h12.2v9.8c-2.6,2.9-6.3,4.8-10.9,4.8C1064.7,584.2,1058.5,579,1058.5,570.9z
		"/>
	<path d="M1121.1,583.7l-5-9.1h-4v9.1h-5.5v-25.6h12c5.3,0,8.6,3.5,8.6,8.3c0,4.5-2.8,7-5.6,7.6l5.8,9.8H1121.1z M1121.7,566.4
		c0-2.2-1.7-3.5-3.8-3.5h-5.7v6.9h5.7C1120,569.8,1121.7,568.5,1121.7,566.4z"/>
	<path d="M1168.2,583.7l-1.6-4.3h-11l-1.6,4.3h-6.2l9.9-25.6h6.8l9.9,25.6H1168.2z M1161.2,563.6l-4,11h8L1161.2,563.6z"/>
	<path d="M1196.1,583.7v-25.6h12c5.6,0,8.6,3.8,8.6,8.3c0,4.5-3.1,8.3-8.6,8.3h-6.5v9.1H1196.1z M1211.1,566.4
		c0-2.2-1.6-3.5-3.8-3.5h-5.8v6.9h5.8C1209.5,569.8,1211.1,568.5,1211.1,566.4z"/>
	<path d="M1256.8,583.7V573h-12.1v10.8h-5.5v-25.6h5.5v10.1h12.1v-10.1h5.5v25.6H1256.8z"/>
	<path d="M1286.5,583.7v-25.6h5.5v25.6H1286.5z"/>
	<path d="M1315.1,570.9c0-7.9,6-13.3,13.6-13.3c5.6,0,8.9,3.1,10.7,6.3l-4.7,2.3c-1.1-2.1-3.4-3.7-6-3.7c-4.6,0-8,3.6-8,8.4
		c0,4.8,3.4,8.4,8,8.4c2.7,0,5-1.6,6-3.7l4.7,2.3c-1.8,3.2-5.1,6.3-10.7,6.3C1321,584.2,1315.1,578.8,1315.1,570.9z"/>
	<path d="M1360.2,580.1l3-4.1c1.8,1.9,4.6,3.5,8.1,3.5c3,0,4.5-1.4,4.5-2.8c0-4.5-14.8-1.4-14.8-11.1c0-4.3,3.7-7.8,9.7-7.8
		c4.1,0,7.5,1.2,10,3.6l-3,4c-2.1-1.9-4.8-2.8-7.5-2.8c-2.3,0-3.6,1-3.6,2.6c0,4.1,14.7,1.3,14.7,10.9c0,4.7-3.3,8.2-10.3,8.2
		C1366.1,584.2,1362.6,582.5,1360.2,580.1z"/>
</g>
<rect x="794.9" y="545.3" class="st3" width="1.6" height="50.6"/>
<rect x="1031.1" y="545.3" class="st3" width="1.6" height="50.6"/>
<g>
	<path class="st0" d="M1395.5,744.2V726l-3.1,3.4l-0.6-0.7l3.8-4h0.9v19.6H1395.5z"/>
	<path class="st0" d="M1403.6,744.2V726l-3.1,3.4l-0.6-0.7l3.8-4h0.9v19.6H1403.6z"/>
	<path class="st0" d="M1411.8,744.2V726l-3.1,3.4l-0.6-0.7l3.8-4h0.9v19.6H1411.8z"/>
	<path class="st0" d="M1425.5,744.2v-19.6h7.4c3.1,0,5.3,1.8,5.3,5c0,2.5-1.7,4.1-3.5,4.5c2.1,0.3,3.8,2.5,3.8,4.8
		c0,3.3-2.2,5.3-5.6,5.3H1425.5z M1426.4,733.7h6.4c2.9,0,4.3-1.8,4.3-4.1c0-2.2-1.4-4.1-4.3-4.1h-6.4V733.7z M1426.4,743.3h6.5
		c2.9,0,4.6-1.7,4.6-4.4c0-2.2-1.5-4.4-4.6-4.4h-6.5V743.3z"/>
	<path class="st0" d="M1452.1,744.2v-1.7c-1.3,1.4-2.9,2.1-4.9,2.1c-2.5,0-5-1.7-5-4.7c0-3,2.4-4.7,5-4.7c2,0,3.6,0.6,4.9,2.1V734
		c0-2.3-1.8-3.5-4-3.5c-1.8,0-3.2,0.6-4.5,2.2l-0.7-0.6c1.4-1.6,2.8-2.4,5.2-2.4c2.8,0,4.9,1.4,4.9,4.3v10.2H1452.1z M1452.1,738
		c-1.1-1.4-2.8-2.2-4.7-2.2c-2.6,0-4.2,1.7-4.2,3.9s1.6,3.9,4.2,3.9c1.8,0,3.6-0.7,4.7-2.2V738z"/>
	<path class="st0" d="M1458.1,744.2v-19.6h0.9v7.8c1.1-1.7,3-2.8,5.1-2.8c3.8,0,6.3,3,6.3,7.4c0,4.5-2.5,7.4-6.3,7.4
		c-2.2,0-4.1-1.3-5.1-2.7v2.4H1458.1z M1458.9,740.9c0.9,1.5,2.9,2.8,5.1,2.8c3.5,0,5.4-2.9,5.4-6.6s-1.9-6.7-5.4-6.7
		c-2.2,0-4.2,1.4-5.1,2.9V740.9z"/>
	<path class="st0" d="M1480.6,729.7c2.3,0,3.6,0.9,4.8,2.4l-0.6,0.5c-1.1-1.6-2.5-2.1-4.1-2.1c-3.6,0-5.8,2.9-5.8,6.6
		s2.1,6.7,5.8,6.7c1.6,0,3-0.6,4.1-2.1l0.6,0.6c-1.2,1.5-2.5,2.4-4.8,2.4c-4.1,0-6.7-3.4-6.7-7.4S1476.5,729.7,1480.6,729.7z"/>
	<path class="st0" d="M1488.3,737.1c0-4.2,2.6-7.4,6.6-7.4c4,0,6.6,3.3,6.6,7.4s-2.6,7.4-6.6,7.4
		C1491,744.5,1488.3,741.2,1488.3,737.1z M1500.6,737.1c0-3.4-2-6.6-5.6-6.6c-3.6,0-5.6,3.2-5.6,6.6c0,3.5,2,6.7,5.6,6.7
		C1498.6,743.7,1500.6,740.5,1500.6,737.1z"/>
	<path class="st0" d="M1511.7,729.7c2.3,0,3.6,0.9,4.8,2.4l-0.6,0.5c-1.1-1.6-2.5-2.1-4.1-2.1c-3.6,0-5.8,2.9-5.8,6.6
		s2.1,6.7,5.8,6.7c1.6,0,3-0.6,4.1-2.1l0.6,0.6c-1.2,1.5-2.5,2.4-4.8,2.4c-4.1,0-6.7-3.4-6.7-7.4S1507.6,729.7,1511.7,729.7z"/>
	<path class="st0" d="M1530.3,744.2l-6.2-7.1l-2.9,2.7v4.4h-0.9v-19.6h0.9v14l9.2-8.6h1.3l-6.9,6.4l6.8,7.8H1530.3z"/>
	<path class="st0" d="M1542.5,744.2v-19.6h7.4c3.1,0,5.3,1.8,5.3,5c0,2.5-1.7,4.1-3.5,4.5c2.1,0.3,3.8,2.5,3.8,4.8
		c0,3.3-2.2,5.3-5.6,5.3H1542.5z M1543.4,733.7h6.4c2.9,0,4.3-1.8,4.3-4.1c0-2.2-1.4-4.1-4.3-4.1h-6.4V733.7z M1543.4,743.3h6.5
		c2.9,0,4.6-1.7,4.6-4.4c0-2.2-1.5-4.4-4.6-4.4h-6.5V743.3z"/>
	<path class="st0" d="M1560,744.2v-19.6h0.9v19.6H1560z"/>
	<path class="st0" d="M1569.8,744.2l-6.1-14.2h1l5.6,13.1l5.5-13.1h1l-6.1,14.2H1569.8z"/>
	<path class="st0" d="M1590.4,744.2v-2.4c-1,1.5-2.9,2.7-5.1,2.7c-3.8,0-6.3-2.9-6.3-7.4c0-4.5,2.5-7.4,6.3-7.4c2.1,0,4,1.1,5.1,2.8
		v-7.8h0.9v19.6H1590.4z M1590.4,733.3c-0.9-1.5-2.9-2.9-5.1-2.9c-3.5,0-5.4,2.9-5.4,6.7s1.9,6.6,5.4,6.6c2.2,0,4.2-1.3,5.1-2.8
		V733.3z"/>
	<path class="st0" d="M1619,744.2l-5.1-17.8l-5.1,17.8h-1.1l-5.6-19.6h1l5.1,18.1l5.1-18.1h1l5.1,18.1l5.1-18.1h1l-5.6,19.6H1619z"
		/>
	<path class="st0" d="M1634.8,729.7c4.3,0,6.6,3.5,6.6,7.4v0.3h-12.2c0.1,3.5,2.3,6.4,6,6.4c2,0,3.6-0.7,4.9-2.1l0.5,0.6
		c-1.4,1.5-3.1,2.4-5.5,2.4c-4.1,0-6.9-3.1-6.9-7.4C1628.2,733,1631,729.7,1634.8,729.7z M1629.2,736.6h11.3c0-2.7-1.8-6.1-5.7-6.1
		C1631.1,730.5,1629.2,733.8,1629.2,736.6z"/>
	<path class="st0" d="M1645.1,741.6c0.9,1.2,2.4,2.1,4.5,2.1c2.6,0,4.2-1.4,4.2-3.3c0-2.1-2.1-2.6-4.3-3.2c-2.3-0.6-4.8-1.2-4.8-3.8
		c0-2.1,1.8-3.8,4.8-3.8c2.4,0,4,1,4.9,2.1l-0.6,0.6c-0.8-1.2-2.3-1.9-4.2-1.9c-2.5,0-3.9,1.3-3.9,3c0,1.8,2,2.3,4,2.9
		c2.4,0.6,5,1.3,5,4.2c0,2.2-1.6,4.1-5.1,4.1c-2.2,0-3.8-0.6-5.2-2.3L1645.1,741.6z"/>
	<path class="st0" d="M1659.1,741.7v-10.9h-2.3V730h2.3v-3.9h0.9v3.9h2.9v0.8h-2.9v10.9c0,1.2,0.5,2.1,1.5,2.1
		c0.7,0,1.3-0.4,1.7-0.8l0.5,0.7c-0.6,0.5-1.1,0.9-2.2,0.9C1659.9,744.5,1659.1,743.4,1659.1,741.7z"/>
	<path class="st0" d="M1689.4,744.2v-19.6h5.8c6.1,0,9.7,4.6,9.7,9.8c0,5.3-3.7,9.8-9.7,9.8H1689.4z M1690.3,743.3h4.9
		c5.5,0,8.7-3.9,8.7-8.9c0-4.9-3.2-8.9-8.7-8.9h-4.9V743.3z"/>
	<path class="st0" d="M1715.3,729.7c4.3,0,6.6,3.5,6.6,7.4v0.3h-12.2c0.1,3.5,2.3,6.4,6,6.4c2,0,3.6-0.7,4.9-2.1l0.5,0.6
		c-1.4,1.5-3.1,2.4-5.5,2.4c-4.1,0-6.9-3.1-6.9-7.4C1708.6,733,1711.5,729.7,1715.3,729.7z M1709.6,736.6h11.3
		c0-2.7-1.8-6.1-5.7-6.1C1711.6,730.5,1709.7,733.8,1709.6,736.6z"/>
	<path class="st0" d="M1726.1,744.2v-19.6h0.9v19.6H1726.1z"/>
	<path class="st0" d="M1741.2,744.2v-1.7c-1.3,1.4-2.9,2.1-4.9,2.1c-2.5,0-5-1.7-5-4.7c0-3,2.4-4.7,5-4.7c2,0,3.6,0.6,4.9,2.1V734
		c0-2.3-1.8-3.5-4-3.5c-1.8,0-3.2,0.6-4.5,2.2l-0.7-0.6c1.4-1.6,2.8-2.4,5.2-2.4c2.8,0,4.9,1.4,4.9,4.3v10.2H1741.2z M1741.2,738
		c-1.1-1.4-2.8-2.2-4.7-2.2c-2.6,0-4.2,1.7-4.2,3.9s1.6,3.9,4.2,3.9c1.8,0,3.6-0.7,4.7-2.2V738z"/>
	<path class="st0" d="M1756.7,744.2v-9.9c0-3-1.5-3.8-3.7-3.8c-1.9,0-4,1.3-5,2.7v11.1h-0.9V730h0.9v2.2c1.1-1.3,3.2-2.6,5.1-2.6
		c2.8,0,4.4,1.3,4.4,4.6v9.9H1756.7z"/>
	<path class="st0" d="M1761.8,737.1c0-4.2,2.6-7.4,6.6-7.4c4,0,6.6,3.3,6.6,7.4s-2.6,7.4-6.6,7.4
		C1764.4,744.5,1761.8,741.2,1761.8,737.1z M1774,737.1c0-3.4-2-6.6-5.6-6.6c-3.6,0-5.6,3.2-5.6,6.6c0,3.5,2,6.7,5.6,6.7
		C1772,743.7,1774,740.5,1774,737.1z"/>
	<path class="st0" d="M1778.5,747.1c0.9-0.7,1.6-1.8,1.6-2.7l-0.2,0c-0.6,0-0.9-0.4-0.9-1c0-0.5,0.4-0.9,0.9-0.9
		c0.6,0,1.1,0.6,1.1,1.6c0,1.5-0.9,2.9-1.8,3.5L1778.5,747.1z"/>
	<path class="st0" d="M1809.5,744.2v-18.4l-7.6,18.4h-0.3l-7.6-18.4v18.4h-0.9v-19.6h1.5l7.2,17.5l7.2-17.5h1.5v19.6H1809.5z"/>
	<path class="st0" d="M1829.8,744.2l-13.2-18v18h-0.9v-19.6h0.9l13.2,17.9v-17.9h0.9v19.6H1829.8z"/>
	<path class="st0" d="M1844,740.7c1.3,1.9,2.9,3,5.6,3c3,0,5.3-2.3,5.3-5.3c0-3.3-2.3-5.3-5.3-5.3c-1.8,0-3.4,0.6-4.9,2l-0.8-0.5
		v-10h10.7v0.9h-9.7v8.5c1-0.9,2.7-1.9,4.8-1.9c3.3,0,6.2,2.1,6.2,6.2c0,3.8-3,6.2-6.2,6.2c-3.2,0-5.1-1.3-6.3-3.3L1844,740.7z"/>
	<path class="st0" d="M1860.9,740.7c1.3,1.9,2.9,3,5.6,3c3,0,5.3-2.3,5.3-5.3c0-3.3-2.3-5.3-5.3-5.3c-1.8,0-3.4,0.6-4.9,2l-0.8-0.5
		v-10h10.7v0.9h-9.7v8.5c1-0.9,2.7-1.9,4.8-1.9c3.3,0,6.2,2.1,6.2,6.2c0,3.8-3,6.2-6.2,6.2c-3.2,0-5.1-1.3-6.3-3.3L1860.9,740.7z"/>
	<path class="st0" d="M1876.4,740.8c1,1.6,2.8,2.9,5.5,2.9c3.2,0,5.3-1.8,5.3-4.7c0-3.2-2.7-4.5-5.7-4.5c-0.8,0-1.3,0-1.6,0v-0.9
		c0.3,0,0.8,0,1.6,0c2.7,0,5.4-1.2,5.4-4.2c0-2.7-2.3-4.2-5-4.2c-2.3,0-3.9,0.9-5.3,2.6l-0.7-0.6c1.3-1.6,3.4-2.9,6.1-2.9
		c3,0,6,1.8,6,5.1c0,3.2-2.6,4.4-4.2,4.6c1.6,0.1,4.5,1.6,4.5,4.9c0,3.2-2.3,5.5-6.2,5.5c-3.1,0-5.3-1.5-6.3-3.3L1876.4,740.8z"/>
	<path class="st0" d="M1891.8,744.2v-0.8c6.2-5.2,11.3-9.5,11.3-13.7c0-3.2-2.5-4.4-4.9-4.4c-2.5,0-4.4,1.1-5.4,2.6l-0.8-0.6
		c1.2-1.8,3.4-3,6.2-3c2.5,0,5.8,1.4,5.8,5.3c0,4.6-5.1,8.8-10.9,13.7h11v0.9H1891.8z"/>
	<path class="st0" d="M1914,734.1c-2.3-0.6-4.7-2.1-4.7-4.7c0-3.4,3-5,6-5c2.9,0,6,1.6,6,5c0,2.7-2.4,4.2-4.7,4.7
		c2.5,0.6,5,2.4,5,5.2c0,3-2.6,5.2-6.3,5.2c-3.7,0-6.3-2.1-6.3-5.2C1909,736.5,1911.5,734.7,1914,734.1z M1915.3,734.5
		c-1.2,0.1-5.4,1.5-5.4,4.8c0,2.7,2.6,4.3,5.4,4.3c2.7,0,5.3-1.6,5.3-4.3C1920.6,736,1916.4,734.6,1915.3,734.5z M1915.3,725.2
		c-2.8,0-5,1.5-5,4.1c0,3.1,3.9,4.1,5,4.3c1.2-0.2,5-1.2,5-4.3C1920.3,726.7,1918,725.2,1915.3,725.2z"/>
</g>
<path class="st0" d="M199.5,149.1c0-0.8,0.2-2,0.5-3.5c0.4-1.5,0.8-2.6,1.5-3.5c1.5-2.2,3-4.2,4.3-6c1.3-1.8,2.4-3.4,3.4-4.7
	c1-1.3,2-2.5,3-3.6c6.1-6.6,10.5-11.6,13.2-14.9c2.7-3.3,4-5.6,4-6.9c0-0.9-0.4-1.5-1.2-2c-0.8-0.5-1.8-0.7-3.1-0.7
	c-2.7,0-6,0.9-10,2.8c-4,1.9-8.7,4.3-14.1,7.4c-5.4,3-8.4,4.5-9,4.5c-1,0-1.5-0.7-1.5-2.1c0-1.2,0.4-2.9,1.1-5.1
	c0.6-2.4,1-4.2,1.4-5.5c0.4-1.3,1-2.5,1.8-3.5c0.8-1,2.2-2.2,4.2-3.4c2-1.2,5-2.9,9-5l0.5,2c3.4-1.4,6.6-2.4,9.6-3.1
	c3-0.7,5.6-1.1,7.7-1.1c4.2,0,7.1,0.7,8.9,2.1c1.7,1.4,2.6,4.5,2.6,9.2c0,2.6-0.4,4.7-1.1,6.5c-0.8,1.7-2.2,4.1-4.4,7.2
	c-5,7.3-8.7,12.3-11.3,15.1c-7.3,8.3-10.9,13.2-10.9,14.6c0,0.8,0.5,1.2,1.6,1.2c0.9,0,2.1-0.6,3.7-1.8c1.6-1.2,3.5-3,5.7-5.3
	c2.2-2.3,5.3-5.6,9.3-9.9c4.2-4.5,7.7-8.5,10.6-12c2.9-3.5,5.3-6.4,7.1-8.9s2.9-3.8,3-4c1.9-2.4,3.9-4.3,6-5.8
	c2.1-1.5,3.4-2.3,4-2.3c0.4,0,0.9,0.4,1.5,1.2c0.6,0.8,1.1,1.7,1.5,2.8c0.4,1.1,0.6,1.9,0.6,2.5c0,0.2-0.4,1-1.3,2.6
	c-0.9,1.6-1.8,3.2-2.8,4.8c-1,1.7-2.6,4.2-4.8,7.7c-4.9,7.6-8.6,13.9-11.2,19.1c-2.6,5.2-3.9,8.5-3.9,10.2c0,0.6,0.2,1.1,0.6,1.6
	c0.4,0.5,0.8,0.7,1.3,0.7c0.6,0,1.6-0.5,3.1-1.4c1.5-0.9,3.2-2.2,5-4c2.4-2.3,4.6-4.7,6.6-7.2c2-2.5,3.9-5.2,5.9-8.3
	c1.9-3.1,3.7-5.9,5.2-8.7c1.5-2.7,3-5.6,4.6-8.6l-0.9-2.7c-0.1-0.4-0.2-1-0.2-1.7c0-0.5,1.1-2.3,3.2-5.3c2.1-3,3.5-4.4,4.2-4.4
	c0.8,0,1.4,0.5,1.9,1.6c0.5,1.1,0.8,2.2,0.8,3.3c0,1.2-0.5,3.7-1.6,7.3c-1.1,3.6-2.8,8.1-5.1,13.2c-2.3,5.2-5.2,10.4-8.6,15.8
	c-2.9,4.7-6.1,8.7-9.5,12c-3.4,3.3-6.4,5.8-9.1,7.4c-2.7,1.6-4.7,2.4-6,2.4c-1.5,0-3-0.6-4.6-1.9c-1.3-1.1-2.3-2.2-2.8-3.1
	c-0.6-0.9-0.9-1.9-1.1-3c-0.2-1.1-0.3-2.3-0.3-3.8c0-3.1,0.8-6.6,2.5-10.7c1.7-4.1,4.2-9.2,7.5-15.3c-10.4,12.7-18.5,22-24.3,27.7
	c-5.7,5.8-9.9,8.7-12.6,8.7c-1.8,0-3.3-1-4.5-3.2C200.1,154.5,199.5,152,199.5,149.1z"/>
<path class="st0" d="M282.6,142.8v1.3c0,2.1,0.5,3.8,1.6,5c1,1.2,2.4,1.8,4.1,1.8c1.8,0,3.6-0.4,5.5-1.2c1.9-0.8,3.8-1.9,5.6-3.3
	c1.9-1.4,4.1-3.2,6.8-5.5v3.3c-4.1,4.9-7.9,8.6-11.4,11.2c-3.6,2.6-7.2,3.9-10.8,3.9c-3.2,0-5.7-1.2-7.6-3.7
	c-1.9-2.5-2.8-5.9-2.8-10.2c0-3.8,0.9-7.2,2.6-10.3s4.6-6.3,8.6-9.7c2.7-2.3,5.4-4.1,8.1-5.3c2.7-1.2,5.1-1.8,7.2-1.8
	c1.7,0,3,0.4,4,1.2c1,0.8,1.5,1.9,1.5,3.5c0,2.3-0.8,4.5-2.5,6.8c-1.7,2.2-4.3,4.5-7.7,6.7C292,138.6,287.7,140.7,282.6,142.8z
	 M283.2,139.3c3.2-1.3,6-2.8,8.3-4.7c2.3-1.9,4-3.7,5.1-5.4c1.1-1.7,1.6-3,1.6-3.7c0-0.8-0.4-1.2-1.1-1.2c-0.6,0-1.7,0.4-3.2,1.2
	c-1.5,0.8-2.9,1.9-4.4,3.2c-1.5,1.3-2.8,2.9-4,4.7C284.3,135.2,283.5,137.1,283.2,139.3z"/>
<path class="st0" d="M343.5,131.2c5.5-5,10.8-8.6,15.9-11c5.1-2.4,9.1-3.6,11.9-3.6c0.8,0,1.5,0.3,2.1,0.9c0.6,0.6,1.2,1.4,1.5,2.2
	c0.4,0.8,0.6,1.4,0.6,1.8c0,0.6-0.3,1.1-0.8,1.4c-0.5,0.3-1.4,0.7-2.6,1.1c0.3,0.6,0.6,1.3,1,2.2s0.7,1.6,0.9,2.2
	c0.2,0.6,0.3,1,0.3,1.5c0,0.9-0.9,2.5-2.6,4.8c-1.7,2.4-3,4.1-3.7,5.2c-0.7,1.1-1,2.5-1,4.1c0,2.7,1.2,4,3.7,4
	c2.5,0,6.4-2.4,11.8-7.1v3.3c-9.1,10.1-15.6,15.1-19.5,15.1c-1.4,0-2.4-0.5-3-1.4c-0.6-0.9-0.9-2.3-0.9-4.1c0-2.8,1-6.9,3.1-12.3
	c-5.2,5.8-9.1,10-11.7,12.4c-2.6,2.5-4.7,3.7-6.3,3.7c-0.8,0-1.8-0.7-3-2c-1.2-1.4-2.2-3.1-3.2-5.3c-0.9-2.2-1.4-4.4-1.4-6.8
	c0-1.7,0.2-3.1,0.5-4.2c0.3-1.1,1-2.3,1.9-3.5C340,134.7,341.5,133.1,343.5,131.2z M369.3,125.2c-9.3,4.3-16,7.9-20,10.9
	c-4,3-6,6.1-6,9.2c0,1.1,0.2,2.1,0.6,2.8c0.4,0.7,0.9,1.1,1.6,1.1c0.4,0,1.1-0.3,2.1-0.8c3.8-2.2,7.2-5.1,10.3-8.7
	C361.2,136.2,364.9,131.4,369.3,125.2z"/>
<path class="st0" d="M381.4,145v-3.5c1.9-2.3,3.4-4.3,4.4-5.9c-1.1-0.4-2-0.9-2.5-1.5c-0.5-0.6-0.8-1.4-0.8-2.6
	c0-1.3,0.5-2.9,1.6-4.9c1.1-2,2.4-3.8,4-5.5c1.6-1.7,3-2.8,4.3-3.3c0.5-0.3,1-0.4,1.5-0.4c0.7,0,1.1,0.3,1.1,1
	c0,0.6-0.6,1.8-1.7,3.7c7.4-1.1,12.1-1.7,14-1.7c0.8,0,1.3,0.1,1.6,0.2c0.6,0.3,1.1,1.1,1.5,2.3c0.4,1.2,0.6,2.4,0.6,3.6
	c0,0.8-0.3,1.6-1,2.5c-0.7,0.9-1.8,2.2-3.4,3.9c-1.9,2-3.5,4.3-4.8,6.7c-1.3,2.4-1.9,4.2-1.9,5.4c0,1.7,1,2.5,3.1,2.5
	c2.2,0,6-2.2,11.4-6.7v3.6c-3,3.1-5.4,5.6-7.4,7.4c-1.9,1.8-3.7,3.2-5.4,4.3c-1.7,1.1-3.1,1.6-4.4,1.6c-1.5,0-2.8-0.7-3.8-2.1
	c-1-1.4-1.5-3.4-1.5-6c0-1.5,0.4-3.3,1.2-5.3c0.8-2,1.9-4.1,3.5-6.4c1.5-2.3,3.2-4.6,5.1-6.9c-1,0.2-2.1,0.4-3.4,0.7
	c-1.3,0.2-2.6,0.5-4,0.7c-1.4,0.3-2.5,0.4-3.2,0.6C388.9,137.3,385.7,141.3,381.4,145z"/>
<path class="st0" d="M422.8,142.8v1.3c0,2.1,0.5,3.8,1.6,5c1,1.2,2.4,1.8,4.1,1.8c1.8,0,3.6-0.4,5.5-1.2c1.9-0.8,3.8-1.9,5.6-3.3
	c1.9-1.4,4.1-3.2,6.8-5.5v3.3c-4.1,4.9-7.9,8.6-11.4,11.2c-3.6,2.6-7.2,3.9-10.8,3.9c-3.2,0-5.7-1.2-7.6-3.7
	c-1.9-2.5-2.8-5.9-2.8-10.2c0-3.8,0.9-7.2,2.6-10.3c1.8-3.1,4.6-6.3,8.6-9.7c2.7-2.3,5.4-4.1,8.1-5.3c2.7-1.2,5.1-1.8,7.2-1.8
	c1.7,0,3,0.4,4,1.2c1,0.8,1.5,1.9,1.5,3.5c0,2.3-0.8,4.5-2.5,6.8c-1.7,2.2-4.3,4.5-7.7,6.7C432.1,138.6,427.9,140.7,422.8,142.8z
	 M423.3,139.3c3.2-1.3,6-2.8,8.3-4.7c2.3-1.9,4-3.7,5.1-5.4c1.1-1.7,1.6-3,1.6-3.7c0-0.8-0.4-1.2-1.1-1.2c-0.6,0-1.7,0.4-3.2,1.2
	c-1.5,0.8-2.9,1.9-4.4,3.2c-1.5,1.3-2.8,2.9-4,4.7C424.5,135.2,423.7,137.1,423.3,139.3z"/>
<path class="st0" d="M509.8,140.9v3.6c-3.8,3.8-7,6.7-9.4,8.8c-2.4,2.1-4.7,3.7-6.8,4.8c-2.1,1.1-4.2,1.7-6.2,1.7
	c-2,0-3.8-0.8-5.4-2.3c-1.7-1.6-2.9-3.6-3.9-6.1c-0.9-2.5-1.4-5.2-1.4-8.1c0-2.4,0.5-4.6,1.6-6.5c1.1-1.9,3.2-4.4,6.2-7.4
	c3.7-3.6,7.1-6.4,10.2-8.3c3.1-2,5.6-2.9,7.4-2.9c1.3,0,2.4,0.4,3.3,1.3c0.9,0.9,1.3,2,1.3,3.4c0,1.2-0.6,2.8-1.8,4.9
	c-1.2,2.1-2.5,4-4,5.5c-1.5,1.6-2.6,2.3-3.5,2.3c-0.9,0-1.4-0.5-1.4-1.5c0-0.3,0.1-0.6,0.1-0.8c0-0.3,0-0.5,0-0.8
	c0-0.4-0.2-0.7-0.5-0.7c-0.3-0.1-0.7,0.1-1.1,0.4c-3.6,2.5-6.1,4.3-7.4,5.3s-2.4,2.1-3.2,3.1c-0.8,1-1.2,2.1-1.2,3.3
	c0,2.1,0.7,3.8,2,5.2c1.4,1.3,3.1,2,5.3,2c2.3,0,5-0.9,8.2-2.6C501.8,146.8,505.5,144.3,509.8,140.9z"/>
<path class="st0" d="M535,137.2c-5.2,6.9-9.2,11.8-11.9,14.7c-2.7,2.9-4.9,4.4-6.7,4.4c-1.4,0-2.6-0.6-3.8-1.7
	c-1.1-1.1-2-2.7-2.7-4.6c-0.6-1.9-0.9-4-0.9-6.2c0-1.4,0.1-2.7,0.4-3.9s0.8-2.4,1.5-3.8c0.8-1.4,1.8-2.9,3-4.5
	c1.2-1.6,2.8-3.4,4.6-5.5c1.1-1.3,2-2.3,2.7-3.2c0.7-0.9,1.5-1.4,2.2-1.7c0.7-0.3,1.8-0.5,3.4-0.5c1.1,0,2.2,0.2,3.3,0.5
	c1,0.3,1.6,0.6,1.6,0.9c0,0.6-0.5,1.8-1.6,3.5c-1.1,1.7-2.8,3.7-5.1,6.2c-2.4,2.4-5.1,4.8-8.2,7.1c-0.7,2.1-1,3.7-1,4.8
	c0,1.5,0.6,2.3,1.8,2.3c0.4,0,1.1-0.4,2.2-1.1c1-0.7,2.7-2.2,5.1-4.3c2.4-2.1,4.5-4,6.4-5.6c1.4-1.2,3-3,4.9-5.5
	c1.8-2.4,3.3-4.2,4.5-5.5c2.7-2.8,4.5-4.6,5.4-5.5c1-0.8,1.9-1.3,2.8-1.3c0.9,0,1.4,0.3,1.8,0.8c0.3,0.5,0.5,1.6,0.5,3.3
	c0,0.8-0.1,1.4-0.2,1.8c-0.1,0.5-0.4,1.1-0.9,1.8c-0.4,0.7-1.4,2.1-2.7,4.1c-1.4,2-3,4.3-4.8,7c-1,1.4-1.9,3-2.6,4.7s-1.1,3-1.1,3.9
	c0,1.9,0.7,2.8,2.2,2.8c1.2,0,2.6-0.5,4.3-1.5c1.6-1,4.1-2.8,7.4-5.4v3.6c-4.2,3.9-7.3,6.7-9.3,8.5c-2,1.8-3.8,3.1-5.2,4
	c-1.5,0.9-2.9,1.3-4.2,1.3c-3,0-4.5-1.8-4.5-5.4c0-1.4,0.4-3.2,1.3-5.5C531.5,144.9,533,141.5,535,137.2z"/>
<path class="st0" d="M551.5,145v-3.5c1.9-2.3,3.4-4.3,4.4-5.9c-1.1-0.4-2-0.9-2.5-1.5c-0.5-0.6-0.8-1.4-0.8-2.6
	c0-1.3,0.5-2.9,1.6-4.9c1.1-2,2.4-3.8,4-5.5c1.6-1.7,3-2.8,4.3-3.3c0.5-0.3,1-0.4,1.5-0.4c0.7,0,1.1,0.3,1.1,1
	c0,0.6-0.6,1.8-1.7,3.7c7.4-1.1,12.1-1.7,14-1.7c0.8,0,1.3,0.1,1.6,0.2c0.6,0.3,1.1,1.1,1.5,2.3c0.4,1.2,0.6,2.4,0.6,3.6
	c0,0.8-0.3,1.6-1,2.5c-0.7,0.9-1.8,2.2-3.4,3.9c-1.9,2-3.5,4.3-4.8,6.7c-1.3,2.4-1.9,4.2-1.9,5.4c0,1.7,1,2.5,3.1,2.5
	c2.2,0,6-2.2,11.4-6.7v3.6c-3,3.1-5.4,5.6-7.4,7.4c-1.9,1.8-3.7,3.2-5.4,4.3c-1.7,1.1-3.1,1.6-4.4,1.6c-1.5,0-2.8-0.7-3.8-2.1
	c-1-1.4-1.5-3.4-1.5-6c0-1.5,0.4-3.3,1.2-5.3c0.8-2,1.9-4.1,3.5-6.4c1.5-2.3,3.2-4.6,5.1-6.9c-1,0.2-2.1,0.4-3.4,0.7
	c-1.3,0.2-2.6,0.5-4,0.7c-1.4,0.3-2.5,0.4-3.2,0.6C559,137.3,555.7,141.3,551.5,145z"/>
<path class="st0" d="M583.7,145v-3.5c1.9-2.3,3.4-4.3,4.4-5.9c-1.1-0.4-2-0.9-2.5-1.5c-0.5-0.6-0.8-1.4-0.8-2.6
	c0-1.3,0.5-2.9,1.6-4.9c1.1-2,2.4-3.8,4-5.5c1.6-1.7,3-2.8,4.3-3.3c0.5-0.3,1-0.4,1.5-0.4c0.7,0,1.1,0.3,1.1,1
	c0,0.6-0.6,1.8-1.7,3.7c7.4-1.1,12.1-1.7,14-1.7c0.8,0,1.3,0.1,1.6,0.2c0.6,0.3,1.1,1.1,1.5,2.3c0.4,1.2,0.6,2.4,0.6,3.6
	c0,0.8-0.3,1.6-1,2.5c-0.7,0.9-1.8,2.2-3.4,3.9c-1.9,2-3.5,4.3-4.8,6.7c-1.3,2.4-1.9,4.2-1.9,5.4c0,1.7,1,2.5,3.1,2.5
	c2.2,0,6-2.2,11.4-6.7v3.6c-3,3.1-5.4,5.6-7.4,7.4c-1.9,1.8-3.7,3.2-5.4,4.3c-1.7,1.1-3.1,1.6-4.4,1.6c-1.5,0-2.8-0.7-3.8-2.1
	c-1-1.4-1.5-3.4-1.5-6c0-1.5,0.4-3.3,1.2-5.3c0.8-2,1.9-4.1,3.5-6.4c1.5-2.3,3.2-4.6,5.1-6.9c-1,0.2-2.1,0.4-3.4,0.7
	c-1.3,0.2-2.6,0.5-4,0.7c-1.4,0.3-2.5,0.4-3.2,0.6C591.2,137.3,588,141.3,583.7,145z"/>
<path class="st0" d="M625.1,142.8v1.3c0,2.1,0.5,3.8,1.6,5c1,1.2,2.4,1.8,4.1,1.8c1.8,0,3.6-0.4,5.5-1.2c1.9-0.8,3.8-1.9,5.6-3.3
	c1.9-1.4,4.1-3.2,6.8-5.5v3.3c-4.1,4.9-7.9,8.6-11.4,11.2c-3.6,2.6-7.2,3.9-10.8,3.9c-3.2,0-5.7-1.2-7.6-3.7
	c-1.9-2.5-2.8-5.9-2.8-10.2c0-3.8,0.9-7.2,2.6-10.3c1.8-3.1,4.6-6.3,8.6-9.7c2.7-2.3,5.4-4.1,8.1-5.3c2.7-1.2,5.1-1.8,7.2-1.8
	c1.7,0,3,0.4,4,1.2c1,0.8,1.5,1.9,1.5,3.5c0,2.3-0.8,4.5-2.5,6.8c-1.7,2.2-4.3,4.5-7.7,6.7C634.4,138.6,630.2,140.7,625.1,142.8z
	 M625.6,139.3c3.2-1.3,6-2.8,8.3-4.7c2.3-1.9,4-3.7,5.1-5.4c1.1-1.7,1.6-3,1.6-3.7c0-0.8-0.4-1.2-1.1-1.2c-0.6,0-1.7,0.4-3.2,1.2
	c-1.5,0.8-2.9,1.9-4.4,3.2c-1.5,1.3-2.8,2.9-4,4.7C626.8,135.2,626,137.1,625.6,139.3z"/>
<path class="st0" d="M685,131.1c-6.3,7-9.5,11.9-9.5,14.7c0,1.5,0.6,2.3,1.9,2.3c1,0,2.4-0.5,4.1-1.6c1.7-1.1,4.3-3,7.8-5.8v3.7
	c-5.1,5-9,8.7-11.7,10.9c-2.7,2.2-5,3.3-6.7,3.3c-2.9,0-4.4-1.9-4.4-5.8c0-1.1,0.2-2.3,0.5-3.4c0.4-1.1,0.9-2.3,1.5-3.5
	c0.6-1.2,1.6-2.9,2.9-5.2c1.3-2.2,2.8-4.8,4.5-7.6c-2,1-4.6,3.1-7.7,6.2c-2,1.9-3.7,3.8-5.1,5.5c-1.4,1.7-2.9,3.7-4.5,5.8
	c-1.6,2.1-2.8,3.6-3.5,4.3c-0.7,0.7-1.5,1.1-2.2,1.1c-1.1,0-2.2-1.2-3.2-3.6c-1-2.4-1.5-5.2-1.5-8.4c0-2,0.2-3.5,0.7-4.6
	c0.4-1.1,1.3-2.7,2.7-4.7c2.5-3.8,4.6-6.6,6.4-8.4c1.8-1.8,3.5-2.7,5.2-2.7c1.1,0,2.1,0.2,2.8,0.6c0.7,0.4,1,1,1,1.8
	c0,0.4-0.1,0.7-0.3,1.1c-0.2,0.4-0.5,0.8-0.7,1.1c-0.3,0.3-0.8,1-1.7,1.9c-5.7,6.3-8.5,10.4-8.5,12.2c0,1,0.3,1.6,1,1.6
	c0.4,0,1.3-0.7,2.5-2.1c1.2-1.4,2.8-3.2,4.8-5.4c2-2.2,4.3-4.6,7-7c2.7-2.4,5.7-4.8,9.1-7.1c1.9-1.3,3.5-2,4.7-2
	c0.6,0,1.1,0.8,1.7,2.4c0.6,1.6,0.8,3.2,0.8,4.8C687.3,128.2,686.5,129.4,685,131.1z"/>
<path class="st0" d="M707.9,112.9h2.3c1.9-3.4,3.6-5.8,5.2-7.2c1.5-1.4,3.3-2.1,5.3-2.1c2,0,3,0.4,3,1.3c0,0.4-0.8,1.6-2.3,3.5
	c-1.5,1.9-2.7,3.5-3.5,4.8c1.2,0.1,2.3,0.3,3.3,0.4c0.9,0.1,1.7,0.2,2.2,0.3c-2,3.8-4.6,7.7-7.7,11.7c-1-0.1-1.8-0.1-2.5-0.2
	c-0.7-0.1-1.4-0.1-2.1-0.2c-0.7-0.1-1.6-0.1-2.6-0.2c-1.9,3.1-3.6,5.9-4.9,8.4c-1.3,2.5-2.3,4.7-3,6.8c-0.7,2-1.1,4-1.1,5.8
	c0,2.5,1,3.7,3,3.7c1.4,0,3.2-0.7,5.4-2.2c2.2-1.5,5.2-3.7,8.9-6.7v3.6c-9.7,10.5-16.9,15.8-21.5,15.8c-1.6,0-2.9-0.6-3.9-1.9
	c-1-1.3-1.5-2.9-1.5-4.8c0-1.3,0.3-2.9,0.8-4.7c0.6-1.8,1.6-4.6,3-8.3c-0.5,0.4-1,0.9-1.4,1.3c-0.4,0.4-0.9,0.8-1.2,1.1
	c-0.4,0.3-0.8,0.7-1.2,1.1c-0.4,0.4-0.9,0.8-1.3,1.2v-3.7c3.8-3.2,8.3-8.7,13.7-16.6c-0.5,0-1-0.1-1.5-0.1c-0.5,0-1,0-1.7,0
	c-2.1,0-3.7,0.1-4.7,0.4c-0.4,0.1-0.8,0.2-1.2,0.3c-0.4,0.1-0.6,0.2-0.8,0.2c-0.1,0-0.2-0.1-0.2-0.3c0-1.2,0.7-3,2.2-5.3
	c1.2-2,2.3-3.5,3.4-4.5c1.1-1,2.4-1.6,3.9-2C703,113,705.1,112.9,707.9,112.9z"/>
<path class="st0" d="M742.3,140.2v4c-7.5,9.9-13.6,14.9-18.3,14.9c-2.6,0-4.6-1.4-6-4.2c-1.5-2.8-2.2-6.4-2.2-11
	c0-3.7,0.9-8,2.6-13.1c1.7-5,4-10.2,6.9-15.4c2.9-5.2,5.9-9.7,9-13.6c3.1-3.9,6-6.6,8.6-8.1c1.1-0.6,1.9-1,2.5-1
	c0.8,0,1.3,0.3,1.5,1c0.3,0.7,0.4,1.8,0.4,3.4c0,5-2,11.1-6.1,18.4c-4.1,7.3-9.7,14.7-17,22.3c-0.4,1.9-0.5,3.3-0.5,4.3
	c0,2.3,0.5,4.2,1.5,5.6c1,1.4,2.4,2.2,4.1,2.2c0.9,0,1.9-0.3,2.9-1.1c1-0.7,2.1-1.6,3.3-2.6C736.7,145.4,739,143.3,742.3,140.2z
	 M726.2,130.5c1.9-1.8,3.7-3.9,5.4-6.2c1.7-2.3,3.4-4.8,4.9-7.5c1.5-2.7,2.8-5,3.6-7.2c0.9-2.1,1.3-3.7,1.3-4.8
	c0-0.8-0.3-1.2-0.9-1.2c-0.2,0-0.6,0.2-1.2,0.6c-2.2,1.8-4.7,5.3-7.4,10.5C729.3,119.9,727.4,125.2,726.2,130.5z"/>
<path class="st0" d="M765.2,142.9l-9.6,8.1c-4.6,4-7.6,6-9.2,6c-1.4,0-2.9-1.6-4.4-4.8s-2.3-6-2.3-8.4c0-2,0.3-3.8,0.9-5.2
	c0.6-1.4,1.7-3.3,3.3-5.5c2.2-3.1,4.3-5.6,6.3-7.8c2-2.1,3.8-3.8,5.3-4.9c1.5-1.2,2.6-1.8,3.2-1.8c1,0,1.9,0.5,2.8,1.5
	c0.9,1,1.4,2,1.4,3.1c0,0.7-0.5,1.8-1.5,3.3c-1,1.5-2.6,3.4-4.7,5.7c-2.1,2.3-5.1,5.1-8.9,8.3l-1,3c-0.3,0.6-0.4,1.1-0.4,1.5
	c0,1,0.5,1.5,1.5,1.5c1,0,3.4-1.3,7.1-3.8c3.7-2.5,7.7-6,12.1-10.3c1.7-1.7,3.1-3.2,4.2-4.5c1.1-1.3,2.1-2.5,3-3.6
	c0.9-1.1,1.6-2,2.2-2.6c0.6-0.6,1.1-0.9,1.6-0.9c0.9-0.1,1.6,0.3,2.1,1.1c0.5,0.9,0.8,2.1,0.8,3.8c0,1-0.4,2.2-1.3,3.6
	c-0.9,1.5-2.5,3.9-4.8,7.4c-2.4,3.5-4.7,7.1-7.1,10.9c-2.4,3.8-4.7,8-7.2,12.7c0.1-0.1,1.2-1.2,3.3-3.2c2.1-2,4.3-4.2,6.7-6.4
	c2.3-2.2,4.3-4,5.8-5.4s3.4-2.9,5.7-4.7v3.6c-4.8,5.2-9.2,10.1-13.2,14.8c-3.9,4.7-7,8.4-9.1,11.2c-2.1,2.8-3.4,4.4-3.7,4.9
	c-1,1.3-1.8,2.4-2.6,3.5c-0.8,1.1-1.4,1.9-1.9,2.5c-0.5,0.6-0.9,0.9-1.3,0.9c-0.8,0-1.4-0.7-2-2.2c-0.6-1.5-0.9-2.8-0.9-4
	c0-1,0.2-2,0.6-2.7C750.4,167.4,756.2,157.3,765.2,142.9z"/>
<path class="st0" d="M840.9,147.2c0,1.6,0.6,2.4,1.8,2.4c1.6,0,4.3-2.7,8.3-8c-0.1-1-0.2-1.7-0.2-2c0-1.9,0.8-4.3,2.3-7.1
	c1.5-2.8,3.3-5.2,5.3-7.3c2-2.1,3.5-3.1,4.6-3.1c1.3,0,1.9,1.5,1.9,4.5c0,2.5-0.5,4.9-1.6,7.3c-1.1,2.4-2.6,4.9-4.6,7.4
	c0.3,0.3,0.7,0.7,1.1,1c0.4,0.3,0.8,0.6,1.3,0.9c0.4,0.2,0.9,0.3,1.4,0.3c1.2,0,2.7-0.9,4.5-2.9v3.8c-2.8,2.9-5.3,4.4-7.4,4.4
	c-1.2,0-2.2-0.2-2.9-0.5c-0.7-0.3-1.6-0.9-2.7-1.6c-6.6,7.9-11.6,11.9-15.1,11.9c-1.3,0-2.4-0.5-3.2-1.5c-0.8-1-1.2-2.4-1.2-4.1
	c0-0.9,0.4-4.1,1.1-9.7c-1.4,1.6-3,3.5-4.9,5.7c-1.9,2.2-3.4,3.9-4.5,5c-1.1,1.2-2.2,2.1-3.2,2.7c-1,0.6-2,1-3,1
	c-1,0-2.1-0.6-3.5-1.8c-1.3-1.2-2.5-2.8-3.4-4.9c-0.9-2-1.4-4.2-1.4-6.5c0-2.3,0.3-4.2,1-5.8c0.6-1.6,2.1-4,4.4-7.3
	c2.1-2.9,3.9-5.2,5.5-7.1c1.6-1.8,3.1-3.3,4.4-4.3c1.3-1,2.4-1.5,3.2-1.5c0.5,0,1.2,0.1,2,0.3c0.8,0.2,1.5,0.5,2.2,0.9
	c0.6,0.4,0.9,0.8,0.9,1.2c0,1.4-0.6,3.1-1.8,5.2c-1.2,2.1-3,4.4-5.4,7c-2.4,2.6-5.1,5.2-8.1,7.9c-0.8,2.5-1.2,4.5-1.2,6
	c0,0.5,0.2,1,0.5,1.4c0.3,0.4,0.7,0.7,1.1,0.7c1.5,0,4.3-2.3,8.5-6.9c4.2-4.6,9.7-11.6,16.6-20.9c0.3-0.4,0.8-0.5,1.6-0.5
	c0.9,0,1.7,0.2,2.5,0.6c0.7,0.4,1.1,0.9,1.1,1.6c0,0.4-0.9,2.5-2.8,6.3c-1.9,3.8-3.5,7.3-4.9,10.5
	C841.6,143.2,840.9,145.6,840.9,147.2z"/>
<path class="st0" d="M901.4,140.7v3.6c-2.4,2.2-4.3,3.6-5.7,4.3c-1.4,0.7-3.5,1-6.2,0.9c-4.7,5.5-8.8,8.3-12.3,8.3
	c-2,0-3.8-0.7-5.5-2c-1.7-1.3-3-3.1-4-5.4c-1-2.3-1.5-4.9-1.5-7.7c0-2.3,0.8-4.8,2.3-7.6c1.5-2.8,3.5-5.4,5.9-7.8
	c2.4-2.4,5-4.4,7.8-5.9c2.8-1.5,5.3-2.2,7.7-2.2c1.7,0,3,0.3,4,0.8c1,0.5,1.5,1.2,1.5,2.2c0,0.7-0.4,1.5-1.2,2.5
	c1.4,0.3,2.3,0.8,2.8,1.4c0.5,0.7,0.8,1.9,0.8,3.6c0,1.7-0.4,3.9-1.2,6.5c-0.8,2.6-1.9,5.1-3.3,7.4l1,1h0.8c0.6,0,1.2-0.2,1.8-0.5
	c0.6-0.3,1.1-0.6,1.6-1C898.8,142.7,899.9,141.9,901.4,140.7z M890.3,126.5c-3,1.8-5.5,3.4-7.7,4.9c-2.1,1.5-3.9,2.9-5.4,4.4
	c-1.5,1.5-2.5,3-3,4.5c-0.9,4-1.3,6.2-1.3,6.5c0,2.4,1.7,3.6,5,3.6c1.5,0,4.1-1.3,7.8-4c-0.6-1.7-0.9-3.3-0.9-4.8
	c0-2.3,0.5-4.6,1.4-6.9C887.1,132.3,888.5,129.6,890.3,126.5z"/>
<path class="st0" d="M900.8,145v-3.5c1.9-2.3,3.4-4.3,4.4-5.9c-1.1-0.4-2-0.9-2.5-1.5c-0.5-0.6-0.8-1.4-0.8-2.6
	c0-1.3,0.5-2.9,1.6-4.9c1.1-2,2.4-3.8,4-5.5c1.6-1.7,3-2.8,4.3-3.3c0.5-0.3,1-0.4,1.5-0.4c0.7,0,1.1,0.3,1.1,1
	c0,0.6-0.6,1.8-1.7,3.7c7.4-1.1,12.1-1.7,14-1.7c0.8,0,1.3,0.1,1.6,0.2c0.6,0.3,1.1,1.1,1.5,2.3c0.4,1.2,0.6,2.4,0.6,3.6
	c0,0.8-0.3,1.6-1,2.5c-0.7,0.9-1.8,2.2-3.4,3.9c-1.9,2-3.5,4.3-4.8,6.7c-1.3,2.4-1.9,4.2-1.9,5.4c0,1.7,1,2.5,3.1,2.5
	c2.2,0,6-2.2,11.4-6.7v3.6c-3,3.1-5.4,5.6-7.4,7.4c-1.9,1.8-3.7,3.2-5.4,4.3c-1.7,1.1-3.1,1.6-4.4,1.6c-1.5,0-2.8-0.7-3.8-2.1
	c-1-1.4-1.5-3.4-1.5-6c0-1.5,0.4-3.3,1.2-5.3c0.8-2,1.9-4.1,3.5-6.4c1.5-2.3,3.2-4.6,5.1-6.9c-1,0.2-2.1,0.4-3.4,0.7
	c-1.3,0.2-2.6,0.5-4,0.7c-1.4,0.3-2.5,0.4-3.2,0.6C908.3,137.3,905,141.3,900.8,145z"/>
<path class="st0" d="M974.2,140.8v3.6c-4,4.7-7.4,8.3-10.1,10.7c-2.7,2.4-5,3.6-6.8,3.6c-1.8,0-3.3-0.5-4.8-1.6
	c-1.4-1-2.7-2.5-3.8-4.3c-1.1-1.8-2.5-4.4-4-7.7c-1.8,2.3-3.5,4.4-5,6.3c-1.5,2-2.5,3.3-3.1,3.9c-0.6,0.6-1.1,1-1.6,1
	c-1,0-1.7-0.6-2.1-1.9c-0.4-1.2-0.6-3-0.6-5.4c0-3.2,0.4-6.3,1.2-9.3c0.8-3,1.9-5.9,3.3-8.8c1.5-2.8,3.3-5.9,5.6-9.2
	c2.3-3.3,4.8-6.7,7.7-10.3c3.9-5,7.3-9,10.1-12.1c2.8-3.1,5.3-5.5,7.4-7.1c2.1-1.6,3.9-2.4,5.3-2.4c1.7,0,2.6,0.8,2.6,2.3
	c0,1.3-3.2,6.1-9.5,14.4s-15.6,19.5-27.8,33.7v4.6c8.1-8.7,14.7-15.2,19.7-19.4c5-4.2,8.8-6.4,11.6-6.4c1.1,0,2,0.7,2.6,2
	c0.6,1.3,0.9,2.8,0.9,4.6c0,3.5-1.5,6.8-4.5,9.8c-3,3-7.6,6.4-13.9,10.3c1.1,1.6,2,2.8,2.9,3.5c0.8,0.7,1.9,1.1,3.1,1.1
	c1.1,0,2.3-0.4,3.6-1.1c1.3-0.8,2.6-1.7,4-2.9C969.3,145.3,971.4,143.4,974.2,140.8z M952.9,143.6c1.4-0.9,3.1-2.3,5.1-4.2
	c2-1.9,3.8-3.8,5.2-5.9c1.4-2,2.2-3.7,2.2-5.1c0-0.6-0.3-0.9-0.8-0.9c-1.4,0-3.7,1.3-7,3.9c-3.3,2.6-6.6,6-9.7,10.1
	C949.2,141.6,950.9,142.2,952.9,143.6z"/>
<path class="st0" d="M999.6,140.8v3.9c-3.5,4.5-6.7,7.9-9.8,10.2c-3,2.3-5.6,3.4-7.7,3.4c-2.9,0-5.1-1.5-6.6-4.6
	c-1.4-3.1-2.2-6.5-2.2-10.1c0-1.4,0.1-2.7,0.4-4c0.3-1.3,0.6-2.3,1-3.2c0.4-0.8,1.1-2.1,2.2-3.9c5.1-7.9,9.8-11.9,14-11.9
	c2.2,0,3.3,0.8,3.3,2.5c0,1.1-0.7,2.9-2.1,5.4c-1.4,2.4-2.7,4.2-3.8,5.2c-3.1,3-5.2,5.1-6.1,6.3c-1,1.2-1.4,2.5-1.4,4
	c0,1.3,0.5,2.4,1.5,3.2c1,0.9,2.2,1.3,3.8,1.3c1.7,0,3.5-0.6,5.6-1.9C993.7,145.5,996.4,143.5,999.6,140.8z M995.9,116.7
	c-0.9,0-1.8-0.3-2.6-1c-0.8-0.7-1.2-1.5-1.2-2.6c0-1.6,0.8-3.3,2.3-5.3c1.5-1.9,3.1-2.9,4.7-2.9c1.1,0,2,0.3,2.7,1
	c0.7,0.7,1.1,1.6,1.1,2.9c0,1.5-0.7,3.3-2.2,5.1C999.2,115.8,997.6,116.7,995.9,116.7z"/>
<path class="st0" d="M1035.4,131.1c-6.3,7-9.5,11.9-9.5,14.7c0,1.5,0.6,2.3,1.9,2.3c1,0,2.4-0.5,4.1-1.6c1.7-1.1,4.3-3,7.8-5.8v3.7
	c-5.1,5-9,8.7-11.7,10.9c-2.7,2.2-5,3.3-6.7,3.3c-2.9,0-4.4-1.9-4.4-5.8c0-1.1,0.2-2.3,0.5-3.4c0.4-1.1,0.9-2.3,1.5-3.5
	c0.6-1.2,1.6-2.9,2.9-5.2c1.3-2.2,2.8-4.8,4.5-7.6c-2,1-4.6,3.1-7.7,6.2c-2,1.9-3.7,3.8-5.1,5.5c-1.4,1.7-2.9,3.7-4.5,5.8
	c-1.6,2.1-2.8,3.6-3.5,4.3c-0.7,0.7-1.5,1.1-2.2,1.1c-1.1,0-2.2-1.2-3.2-3.6c-1-2.4-1.5-5.2-1.5-8.4c0-2,0.2-3.5,0.7-4.6
	c0.4-1.1,1.3-2.7,2.7-4.7c2.5-3.8,4.6-6.6,6.4-8.4c1.8-1.8,3.5-2.7,5.2-2.7c1.1,0,2.1,0.2,2.8,0.6c0.7,0.4,1,1,1,1.8
	c0,0.4-0.1,0.7-0.3,1.1c-0.2,0.4-0.5,0.8-0.7,1.1c-0.3,0.3-0.8,1-1.7,1.9c-5.7,6.3-8.5,10.4-8.5,12.2c0,1,0.3,1.6,1,1.6
	c0.4,0,1.3-0.7,2.5-2.1c1.2-1.4,2.8-3.2,4.8-5.4c2-2.2,4.3-4.6,6.9-7c2.7-2.4,5.7-4.8,9.1-7.1c1.9-1.3,3.5-2,4.7-2
	c0.6,0,1.1,0.8,1.7,2.4c0.6,1.6,0.8,3.2,0.8,4.8C1037.7,128.2,1037,129.4,1035.4,131.1z"/>
<path class="st0" d="M1082.2,144.4l-17.9,14.7c-5,8.7-9.6,15.2-13.7,19.5c-4.1,4.3-7.2,6.4-9.2,6.4c-1.1,0-1.6-0.7-1.6-2
	c0-2.6,1.3-5.9,3.9-9.9c1-1.6,2.2-3.1,3.6-4.6c1.3-1.5,2.6-2.8,3.8-3.9c1.2-1.1,2.8-2.5,4.8-4.1c2-1.6,3.3-2.8,4-3.4
	c3.6-7.3,6.2-12.9,7.8-16.8c-3.4,3.6-6.3,6.5-8.8,8.8c-2.5,2.3-4.8,4.1-6.9,5.3c-2.1,1.2-4,1.9-5.7,1.9c-1.8,0-3.5-1.5-5.1-4.4
	c-1.5-2.9-2.3-5.9-2.3-9c0-1.4,0.3-2.9,1-4.5s1.7-3.3,3.1-5.1c1.4-1.8,3.2-3.6,5.4-5.5c2.2-1.9,4.8-3.7,7.7-5.5
	c5.6-3.5,9.9-5.2,13-5.2c2.3,0,3.4,0.8,3.4,2.5c0,2.3-2.5,4.6-7.5,6.8c-3.1,1.3-6.1,3.1-9.1,5.3s-5.4,4.5-7.3,7
	c-1.9,2.5-2.8,4.7-2.8,6.7c0,1,0.2,1.7,0.7,2.3c0.5,0.6,1.1,0.9,1.8,0.9c1.3,0,2.7-0.6,4.3-1.7c1.6-1.1,4-3.2,7.2-6.1
	c1.4-1.3,3.3-3.5,5.7-6.4c2.4-3,4.4-5.2,5.9-6.8c1.6-1.6,3-2.3,4.2-2.3c0.7,0,1.3,0.2,1.8,0.7c0.4,0.4,0.7,1.1,0.7,2
	c0,1.7-0.7,4-2,7.2c-1.3,3.1-3.7,8.3-7.1,15.4l13-9.5V144.4z"/>
<path class="st0" d="M1147.5,140.7v3.6c-2.4,2.2-4.3,3.6-5.7,4.3c-1.4,0.7-3.5,1-6.2,0.9c-4.7,5.5-8.8,8.3-12.3,8.3
	c-2,0-3.8-0.7-5.5-2c-1.7-1.3-3-3.1-4-5.4c-1-2.3-1.5-4.9-1.5-7.7c0-2.3,0.8-4.8,2.3-7.6c1.5-2.8,3.5-5.4,5.9-7.8
	c2.4-2.4,5-4.4,7.8-5.9c2.8-1.5,5.3-2.2,7.7-2.2c1.7,0,3,0.3,4,0.8c1,0.5,1.5,1.2,1.5,2.2c0,0.7-0.4,1.5-1.2,2.5
	c1.4,0.3,2.3,0.8,2.8,1.4c0.5,0.7,0.8,1.9,0.8,3.6c0,1.7-0.4,3.9-1.2,6.5c-0.8,2.6-1.9,5.1-3.3,7.4l1,1h0.8c0.6,0,1.2-0.2,1.8-0.5
	c0.6-0.3,1.1-0.6,1.6-1C1144.9,142.7,1145.9,141.9,1147.5,140.7z M1136.4,126.5c-3,1.8-5.5,3.4-7.6,4.9c-2.1,1.5-3.9,2.9-5.4,4.4
	c-1.5,1.5-2.5,3-3,4.5c-0.9,4-1.3,6.2-1.3,6.5c0,2.4,1.7,3.6,5,3.6c1.5,0,4.1-1.3,7.8-4c-0.6-1.7-0.9-3.3-0.9-4.8
	c0-2.3,0.5-4.6,1.4-6.9C1133.2,132.3,1134.5,129.6,1136.4,126.5z"/>
<path class="st0" d="M1183.7,131.1c-6.3,7-9.5,11.9-9.5,14.7c0,1.5,0.6,2.3,1.9,2.3c1,0,2.4-0.5,4.1-1.6c1.7-1.1,4.3-3,7.8-5.8v3.7
	c-5.1,5-9,8.7-11.7,10.9c-2.7,2.2-5,3.3-6.7,3.3c-2.9,0-4.4-1.9-4.4-5.8c0-1.1,0.2-2.3,0.5-3.4c0.4-1.1,0.9-2.3,1.5-3.5
	c0.6-1.2,1.6-2.9,2.9-5.2c1.3-2.2,2.8-4.8,4.5-7.6c-2,1-4.6,3.1-7.7,6.2c-2,1.9-3.7,3.8-5.1,5.5c-1.4,1.7-2.9,3.7-4.5,5.8
	c-1.6,2.1-2.8,3.6-3.5,4.3c-0.7,0.7-1.5,1.1-2.2,1.1c-1.1,0-2.2-1.2-3.2-3.6c-1-2.4-1.5-5.2-1.5-8.4c0-2,0.2-3.5,0.7-4.6
	c0.4-1.1,1.3-2.7,2.7-4.7c2.5-3.8,4.6-6.6,6.4-8.4c1.8-1.8,3.5-2.7,5.2-2.7c1.1,0,2.1,0.2,2.8,0.6c0.7,0.4,1,1,1,1.8
	c0,0.4-0.1,0.7-0.3,1.1c-0.2,0.4-0.5,0.8-0.7,1.1c-0.3,0.3-0.8,1-1.7,1.9c-5.7,6.3-8.5,10.4-8.5,12.2c0,1,0.3,1.6,1,1.6
	c0.4,0,1.3-0.7,2.5-2.1c1.2-1.4,2.8-3.2,4.8-5.4s4.3-4.6,6.9-7c2.7-2.4,5.7-4.8,9.1-7.1c1.9-1.3,3.5-2,4.7-2c0.6,0,1.1,0.8,1.7,2.4
	c0.6,1.6,0.8,3.2,0.8,4.8C1186,128.2,1185.2,129.4,1183.7,131.1z"/>
<path class="st0" d="M1253.3,140.7v3.6c-2.4,2.2-4.3,3.6-5.7,4.3c-1.4,0.7-3.5,1-6.2,0.9c-4.7,5.5-8.8,8.3-12.3,8.3
	c-2,0-3.8-0.7-5.5-2c-1.7-1.3-3-3.1-4-5.4c-1-2.3-1.5-4.9-1.5-7.7c0-2.3,0.8-4.8,2.3-7.6c1.5-2.8,3.5-5.4,5.9-7.8
	c2.4-2.4,5-4.4,7.8-5.9c2.8-1.5,5.3-2.2,7.7-2.2c1.7,0,3,0.3,4,0.8c1,0.5,1.5,1.2,1.5,2.2c0,0.7-0.4,1.5-1.2,2.5
	c1.4,0.3,2.3,0.8,2.8,1.4c0.5,0.7,0.8,1.9,0.8,3.6c0,1.7-0.4,3.9-1.2,6.5c-0.8,2.6-1.9,5.1-3.3,7.4l1,1h0.8c0.6,0,1.2-0.2,1.8-0.5
	c0.6-0.3,1.1-0.6,1.6-1C1250.7,142.7,1251.7,141.9,1253.3,140.7z M1242.2,126.5c-3,1.8-5.5,3.4-7.6,4.9c-2.1,1.5-3.9,2.9-5.4,4.4
	c-1.5,1.5-2.5,3-3,4.5c-0.9,4-1.3,6.2-1.3,6.5c0,2.4,1.7,3.6,5,3.6c1.5,0,4.1-1.3,7.8-4c-0.6-1.7-0.9-3.3-0.9-4.8
	c0-2.3,0.5-4.6,1.4-6.9C1239,132.3,1240.3,129.6,1242.2,126.5z"/>
<path class="st0" d="M1278.5,137.2c-5.2,6.9-9.2,11.8-11.9,14.7c-2.7,2.9-4.9,4.4-6.7,4.4c-1.4,0-2.6-0.6-3.8-1.7
	c-1.2-1.1-2-2.7-2.7-4.6c-0.6-1.9-0.9-4-0.9-6.2c0-1.4,0.1-2.7,0.4-3.9s0.8-2.4,1.5-3.8c0.8-1.4,1.7-2.9,3-4.5
	c1.2-1.6,2.8-3.4,4.6-5.5c1.1-1.3,2-2.3,2.7-3.2c0.7-0.9,1.5-1.4,2.2-1.7c0.7-0.3,1.8-0.5,3.4-0.5c1.1,0,2.2,0.2,3.3,0.5
	c1,0.3,1.6,0.6,1.6,0.9c0,0.6-0.5,1.8-1.6,3.5c-1.1,1.7-2.8,3.7-5.1,6.2c-2.4,2.4-5.1,4.8-8.2,7.1c-0.7,2.1-1,3.7-1,4.8
	c0,1.5,0.6,2.3,1.8,2.3c0.4,0,1.1-0.4,2.2-1.1c1-0.7,2.7-2.2,5.1-4.3c2.4-2.1,4.5-4,6.4-5.6c1.4-1.2,3-3,4.9-5.5
	c1.8-2.4,3.3-4.2,4.5-5.5c2.7-2.8,4.5-4.6,5.4-5.5c1-0.8,1.9-1.3,2.8-1.3c0.9,0,1.4,0.3,1.8,0.8c0.3,0.5,0.5,1.6,0.5,3.3
	c0,0.8-0.1,1.4-0.2,1.8c-0.1,0.5-0.4,1.1-0.9,1.8c-0.5,0.7-1.4,2.1-2.7,4.1c-1.4,2-3,4.3-4.8,7c-1,1.4-1.9,3-2.6,4.7
	c-0.8,1.7-1.1,3-1.1,3.9c0,1.9,0.7,2.8,2.2,2.8c1.2,0,2.6-0.5,4.3-1.5c1.6-1,4.1-2.8,7.4-5.4v3.6c-4.2,3.9-7.3,6.7-9.3,8.5
	c-2,1.8-3.8,3.1-5.2,4s-2.9,1.3-4.2,1.3c-3,0-4.5-1.8-4.5-5.4c0-1.4,0.4-3.2,1.3-5.5C1275.1,144.9,1276.5,141.5,1278.5,137.2z"/>
<path class="st0" d="M1295.1,145v-3.5c1.9-2.3,3.4-4.3,4.4-5.9c-1.2-0.4-2-0.9-2.5-1.5c-0.5-0.6-0.8-1.4-0.8-2.6
	c0-1.3,0.5-2.9,1.6-4.9c1.1-2,2.4-3.8,4-5.5c1.6-1.7,3-2.8,4.3-3.3c0.5-0.3,1-0.4,1.5-0.4c0.7,0,1.1,0.3,1.1,1
	c0,0.6-0.6,1.8-1.7,3.7c7.4-1.1,12.1-1.7,14-1.7c0.8,0,1.3,0.1,1.6,0.2c0.6,0.3,1.1,1.1,1.5,2.3c0.4,1.2,0.6,2.4,0.6,3.6
	c0,0.8-0.3,1.6-1,2.5c-0.7,0.9-1.8,2.2-3.4,3.9c-1.9,2-3.5,4.3-4.8,6.7c-1.3,2.4-1.9,4.2-1.9,5.4c0,1.7,1,2.5,3.1,2.5
	c2.2,0,6-2.2,11.4-6.7v3.6c-3,3.1-5.4,5.6-7.4,7.4c-1.9,1.8-3.7,3.2-5.4,4.3c-1.7,1.1-3.1,1.6-4.4,1.6c-1.5,0-2.8-0.7-3.8-2.1
	c-1-1.4-1.5-3.4-1.5-6c0-1.5,0.4-3.3,1.2-5.3c0.8-2,1.9-4.1,3.5-6.4c1.5-2.3,3.2-4.6,5.1-6.9c-1,0.2-2.1,0.4-3.4,0.7
	c-1.3,0.2-2.6,0.5-4,0.7c-1.4,0.3-2.5,0.4-3.2,0.6C1302.5,137.3,1299.3,141.3,1295.1,145z"/>
<path class="st2" d="M1395.1,131.1c-6.3,7-9.5,11.9-9.5,14.7c0,1.5,0.6,2.3,1.9,2.3c1,0,2.4-0.5,4.1-1.6c1.7-1.1,4.3-3,7.8-5.8v3.7
	c-5.1,5-9,8.7-11.7,10.9c-2.7,2.2-5,3.3-6.7,3.3c-2.9,0-4.4-1.9-4.4-5.8c0-1.1,0.2-2.3,0.5-3.4c0.4-1.1,0.9-2.3,1.5-3.5
	c0.6-1.2,1.6-2.9,2.9-5.2c1.3-2.2,2.8-4.8,4.5-7.6c-2,1-4.6,3.1-7.7,6.2c-2,1.9-3.7,3.8-5.1,5.5c-1.4,1.7-2.9,3.7-4.5,5.8
	c-1.6,2.1-2.8,3.6-3.5,4.3c-0.7,0.7-1.5,1.1-2.2,1.1c-1.1,0-2.2-1.2-3.2-3.6c-1-2.4-1.5-5.2-1.5-8.4c0-2,0.2-3.5,0.7-4.6
	c0.4-1.1,1.3-2.7,2.7-4.7c2.5-3.8,4.6-6.6,6.4-8.4c1.8-1.8,3.5-2.7,5.2-2.7c1.1,0,2.1,0.2,2.8,0.6c0.7,0.4,1,1,1,1.8
	c0,0.4-0.1,0.7-0.3,1.1c-0.2,0.4-0.5,0.8-0.7,1.1c-0.3,0.3-0.8,1-1.7,1.9c-5.7,6.3-8.5,10.4-8.5,12.2c0,1,0.3,1.6,1,1.6
	c0.4,0,1.3-0.7,2.5-2.1c1.2-1.4,2.8-3.2,4.8-5.4s4.3-4.6,6.9-7c2.7-2.4,5.7-4.8,9.1-7.1c1.9-1.3,3.5-2,4.7-2c0.6,0,1.1,0.8,1.7,2.4
	c0.6,1.6,0.8,3.2,0.8,4.8C1397.4,128.2,1396.7,129.4,1395.1,131.1z"/>
<path class="st2" d="M1407.7,142.8v1.3c0,2.1,0.5,3.8,1.6,5c1,1.2,2.4,1.8,4.1,1.8c1.8,0,3.6-0.4,5.5-1.2c1.9-0.8,3.8-1.9,5.6-3.3
	c1.9-1.4,4.1-3.2,6.8-5.5v3.3c-4.1,4.9-7.9,8.6-11.4,11.2s-7.2,3.9-10.8,3.9c-3.2,0-5.7-1.2-7.6-3.7c-1.9-2.5-2.8-5.9-2.8-10.2
	c0-3.8,0.9-7.2,2.6-10.3c1.8-3.1,4.6-6.3,8.6-9.7c2.7-2.3,5.4-4.1,8.1-5.3c2.7-1.2,5.1-1.8,7.2-1.8c1.7,0,3,0.4,4,1.2
	c1,0.8,1.5,1.9,1.5,3.5c0,2.3-0.8,4.5-2.5,6.8c-1.7,2.2-4.3,4.5-7.7,6.7C1417,138.6,1412.8,140.7,1407.7,142.8z M1408.3,139.3
	c3.2-1.3,6-2.8,8.3-4.7c2.3-1.9,4-3.7,5.1-5.4c1.1-1.7,1.6-3,1.6-3.7c0-0.8-0.4-1.2-1.1-1.2c-0.6,0-1.7,0.4-3.2,1.2
	c-1.5,0.8-2.9,1.9-4.4,3.2c-1.5,1.3-2.8,2.9-4,4.7C1409.4,135.2,1408.6,137.1,1408.3,139.3z"/>
<path class="st2" d="M1459.5,147.2c0,1.6,0.6,2.4,1.8,2.4c1.6,0,4.3-2.7,8.3-8c-0.1-1-0.2-1.7-0.2-2c0-1.9,0.8-4.3,2.3-7.1
	c1.5-2.8,3.3-5.2,5.3-7.3c2-2.1,3.5-3.1,4.6-3.1c1.3,0,1.9,1.5,1.9,4.5c0,2.5-0.5,4.9-1.6,7.3c-1.1,2.4-2.6,4.9-4.6,7.4
	c0.3,0.3,0.7,0.7,1.1,1c0.4,0.3,0.8,0.6,1.3,0.9c0.5,0.2,0.9,0.3,1.4,0.3c1.2,0,2.7-0.9,4.5-2.9v3.8c-2.8,2.9-5.3,4.4-7.4,4.4
	c-1.2,0-2.2-0.2-2.9-0.5c-0.7-0.3-1.6-0.9-2.7-1.6c-6.6,7.9-11.6,11.9-15.1,11.9c-1.3,0-2.4-0.5-3.2-1.5c-0.8-1-1.2-2.4-1.2-4.1
	c0-0.9,0.4-4.1,1.1-9.7c-1.4,1.6-3,3.5-4.9,5.7c-1.9,2.2-3.4,3.9-4.5,5c-1.2,1.2-2.2,2.1-3.2,2.7c-1,0.6-2,1-3,1
	c-1,0-2.1-0.6-3.5-1.8c-1.3-1.2-2.5-2.8-3.4-4.9c-0.9-2-1.4-4.2-1.4-6.5c0-2.3,0.3-4.2,1-5.8c0.6-1.6,2.1-4,4.4-7.3
	c2.1-2.9,3.9-5.2,5.5-7.1c1.6-1.8,3.1-3.3,4.4-4.3c1.3-1,2.4-1.5,3.2-1.5c0.5,0,1.2,0.1,2,0.3c0.8,0.2,1.5,0.5,2.2,0.9
	c0.6,0.4,0.9,0.8,0.9,1.2c0,1.4-0.6,3.1-1.8,5.2c-1.2,2.1-3,4.4-5.4,7c-2.4,2.6-5.1,5.2-8.1,7.9c-0.8,2.5-1.2,4.5-1.2,6
	c0,0.5,0.2,1,0.5,1.4c0.3,0.4,0.7,0.7,1.1,0.7c1.5,0,4.3-2.3,8.5-6.9c4.2-4.6,9.7-11.6,16.6-20.9c0.2-0.4,0.8-0.5,1.6-0.5
	c0.9,0,1.7,0.2,2.5,0.6c0.7,0.4,1.1,0.9,1.1,1.6c0,0.4-0.9,2.5-2.8,6.3c-1.9,3.8-3.5,7.3-4.9,10.5S1459.5,145.6,1459.5,147.2z"/>
<path class="st0" d="M1544.5,147.2c0,1.6,0.6,2.4,1.8,2.4c1.6,0,4.3-2.7,8.3-8c-0.1-1-0.2-1.7-0.2-2c0-1.9,0.8-4.3,2.3-7.1
	c1.5-2.8,3.3-5.2,5.3-7.3c2-2.1,3.5-3.1,4.6-3.1c1.3,0,1.9,1.5,1.9,4.5c0,2.5-0.5,4.9-1.6,7.3c-1.1,2.4-2.6,4.9-4.6,7.4
	c0.3,0.3,0.7,0.7,1.1,1c0.4,0.3,0.8,0.6,1.3,0.9c0.5,0.2,0.9,0.3,1.4,0.3c1.2,0,2.7-0.9,4.5-2.9v3.8c-2.8,2.9-5.3,4.4-7.4,4.4
	c-1.2,0-2.2-0.2-2.9-0.5c-0.7-0.3-1.6-0.9-2.7-1.6c-6.6,7.9-11.6,11.9-15.1,11.9c-1.3,0-2.4-0.5-3.2-1.5c-0.8-1-1.2-2.4-1.2-4.1
	c0-0.9,0.4-4.1,1.1-9.7c-1.4,1.6-3,3.5-4.9,5.7c-1.9,2.2-3.4,3.9-4.5,5c-1.2,1.2-2.2,2.1-3.2,2.7c-1,0.6-2,1-3,1
	c-1,0-2.1-0.6-3.5-1.8c-1.3-1.2-2.5-2.8-3.4-4.9c-0.9-2-1.4-4.2-1.4-6.5c0-2.3,0.3-4.2,1-5.8c0.6-1.6,2.1-4,4.4-7.3
	c2.1-2.9,3.9-5.2,5.5-7.1c1.6-1.8,3.1-3.3,4.4-4.3c1.3-1,2.4-1.5,3.2-1.5c0.5,0,1.2,0.1,2,0.3c0.8,0.2,1.5,0.5,2.2,0.9
	c0.6,0.4,0.9,0.8,0.9,1.2c0,1.4-0.6,3.1-1.8,5.2c-1.2,2.1-3,4.4-5.4,7c-2.4,2.6-5.1,5.2-8.1,7.9c-0.8,2.5-1.2,4.5-1.2,6
	c0,0.5,0.2,1,0.5,1.4c0.3,0.4,0.7,0.7,1.1,0.7c1.5,0,4.3-2.3,8.5-6.9c4.2-4.6,9.7-11.6,16.6-20.9c0.2-0.4,0.8-0.5,1.6-0.5
	c0.9,0,1.7,0.2,2.5,0.6c0.7,0.4,1.1,0.9,1.1,1.6c0,0.4-0.9,2.5-2.8,6.3c-1.9,3.8-3.5,7.3-4.9,10.5S1544.5,145.6,1544.5,147.2z"/>
<path class="st0" d="M1579.1,142.8v1.3c0,2.1,0.5,3.8,1.6,5c1,1.2,2.4,1.8,4.1,1.8c1.8,0,3.6-0.4,5.5-1.2c1.9-0.8,3.8-1.9,5.6-3.3
	c1.9-1.4,4.1-3.2,6.8-5.5v3.3c-4.1,4.9-7.9,8.6-11.4,11.2c-3.6,2.6-7.2,3.9-10.8,3.9c-3.2,0-5.7-1.2-7.6-3.7
	c-1.9-2.5-2.8-5.9-2.8-10.2c0-3.8,0.9-7.2,2.6-10.3c1.8-3.1,4.6-6.3,8.6-9.7c2.7-2.3,5.4-4.1,8.1-5.3c2.7-1.2,5.1-1.8,7.2-1.8
	c1.7,0,3,0.4,4,1.2c1,0.8,1.5,1.9,1.5,3.5c0,2.3-0.8,4.5-2.5,6.8c-1.7,2.2-4.3,4.5-7.7,6.7C1588.4,138.6,1584.1,140.7,1579.1,142.8z
	 M1579.6,139.3c3.2-1.3,6-2.8,8.3-4.7c2.3-1.9,4-3.7,5.1-5.4c1.1-1.7,1.6-3,1.6-3.7c0-0.8-0.4-1.2-1.1-1.2c-0.6,0-1.7,0.4-3.2,1.2
	c-1.5,0.8-2.9,1.9-4.4,3.2c-1.5,1.3-2.8,2.9-4,4.7C1580.7,135.2,1580,137.1,1579.6,139.3z"/>
<path class="st0" d="M1638.3,140.9v3.5c-3.7,2.4-6.7,3.6-8.8,3.6c-1.2,0-2.4-0.2-3.8-0.6c-3.2,4.1-6,7.1-8.3,9
	c-2.3,1.9-4.6,2.9-7,2.9c-2.7,0-4.8-1.4-6.2-4.3c-1.5-2.8-2.2-6.4-2.2-10.6c0-5.7,1.7-11.9,5.2-18.7c3.4-6.7,7.6-13,12.5-18.9
	c4.9-5.9,9.6-10.7,14.1-14.6c4.6-3.8,7.7-5.8,9.3-5.8c1.5,0,2.3,1.1,2.3,3.2c0,9.4-12.1,25.8-36.2,49.2c-0.1,0.6-0.1,1.9-0.1,3.8
	c0,5,1.3,7.4,4,7.4c1,0,2.1-0.4,3.1-1.3c1.1-0.8,2.7-2.5,4.9-4.8c-0.9-1.9-1.3-3.4-1.3-4.3c0-2,0.8-4.1,2.4-6.4
	c1.6-2.3,3.5-4.3,5.5-6c2.1-1.7,3.6-2.5,4.5-2.5c1.5,0,2.2,1.1,2.2,3.2c0,1.6-0.4,3.6-1.3,5.8c-0.8,2.3-2.1,4.8-3.7,7.8
	c0.6,0.5,1.1,0.9,1.5,1.1c0.4,0.2,0.9,0.3,1.6,0.3C1634.2,143.1,1636.1,142.4,1638.3,140.9z M1611,132.8c1.9-1.6,3.7-3.5,5.6-5.7
	c1.9-2.2,4.6-5.6,8.3-10.2c3.5-4.4,6.2-8,8.2-11c2-2.9,3.5-5.4,4.5-7.3c1-1.9,1.5-3.3,1.5-4c0-0.5-0.1-0.8-0.4-0.8
	c-0.8,0-2.4,1.3-4.9,3.9c-2.5,2.6-5.3,6.2-8.5,10.7c-4.4,6.2-7.6,11-9.6,14.1C1613.6,125.8,1612.1,129.2,1611,132.8z"/>
<path class="st0" d="M1638.1,142.3V141c9.3-9.8,15.6-16.6,19.1-20.5c0.8-4.4,2.7-6.6,5.7-6.6c0.8,0,1.6,0.2,2.4,0.6l0.3,1
	c-0.1,0.4-0.2,1-0.2,1.8c0,0.7,0.3,1.9,0.8,3.8s0.9,3.4,1.2,4.7c0.3,1.3,0.4,2.7,0.4,4.3c0,2.4-0.5,4.6-1.6,6.8
	c-1.1,2.2-2.6,4.3-4.7,6.2c-2,2-4.7,4-7.9,6.1c1.3,0.2,2.3,0.3,3.1,0.3c1.5,0,3.1-0.4,4.8-1.1c1.7-0.7,3.4-1.7,5.2-3
	c1.8-1.2,3.9-2.8,6.2-4.8v3.6c-4.6,4.5-8.7,7.9-12.3,10.2c-3.6,2.3-6.7,3.5-9.4,3.5c-3.4,0-6.5-1.4-9.4-4.3c-1.7-1.7-2.7-3.4-3.1-5
	C1638.3,147.2,1638.1,145,1638.1,142.3z M1658.2,134.1l-1-7.9c-2.2,2.5-7,7.3-14.3,14.5c2.2,0.5,3.6,1.1,4.4,1.9
	c0.8,0.8,1.9,2.3,3.3,4.6c2.4-1,4.3-2.4,5.6-4.1c1.3-1.7,2-4.1,2-7.1c0-0.4,0-0.7,0-1C1658.3,134.7,1658.2,134.4,1658.2,134.1z"/>
<path class="st0" d="M1698.5,140.8v3.9c-3.5,4.5-6.7,7.9-9.8,10.2c-3,2.3-5.6,3.4-7.7,3.4c-2.9,0-5.1-1.5-6.6-4.6
	c-1.4-3.1-2.2-6.5-2.2-10.1c0-1.4,0.1-2.7,0.4-4c0.3-1.3,0.6-2.3,1-3.2c0.4-0.8,1.1-2.1,2.2-3.9c5.1-7.9,9.8-11.9,14-11.9
	c2.2,0,3.3,0.8,3.3,2.5c0,1.1-0.7,2.9-2.1,5.4c-1.4,2.4-2.7,4.2-3.8,5.2c-3.1,3-5.2,5.1-6.1,6.3c-1,1.2-1.4,2.5-1.4,4
	c0,1.3,0.5,2.4,1.5,3.2c1,0.9,2.2,1.3,3.8,1.3c1.7,0,3.5-0.6,5.6-1.9C1692.6,145.5,1695.3,143.5,1698.5,140.8z M1694.8,116.7
	c-0.9,0-1.8-0.3-2.6-1c-0.8-0.7-1.2-1.5-1.2-2.6c0-1.6,0.8-3.3,2.3-5.3c1.5-1.9,3.1-2.9,4.7-2.9c1.1,0,2,0.3,2.7,1
	c0.7,0.7,1.1,1.6,1.1,2.9c0,1.5-0.7,3.3-2.2,5.1C1698.1,115.8,1696.5,116.7,1694.8,116.7z"/>
<path class="st0" d="M1716.9,112.9h2.3c1.9-3.4,3.6-5.8,5.2-7.2c1.5-1.4,3.3-2.1,5.3-2.1c2,0,3,0.4,3,1.3c0,0.4-0.8,1.6-2.3,3.5
	c-1.5,1.9-2.7,3.5-3.5,4.8c1.2,0.1,2.3,0.3,3.3,0.4c1,0.1,1.7,0.2,2.2,0.3c-2,3.8-4.6,7.7-7.7,11.7c-1-0.1-1.9-0.1-2.5-0.2
	c-0.7-0.1-1.4-0.1-2.1-0.2c-0.7-0.1-1.6-0.1-2.6-0.2c-1.9,3.1-3.6,5.9-4.9,8.4c-1.3,2.5-2.3,4.7-3,6.8c-0.7,2-1,4-1,5.8
	c0,2.5,1,3.7,3,3.7c1.4,0,3.2-0.7,5.4-2.2c2.2-1.5,5.2-3.7,8.9-6.7v3.6c-9.7,10.5-16.9,15.8-21.5,15.8c-1.6,0-2.9-0.6-3.9-1.9
	c-1-1.3-1.5-2.9-1.5-4.8c0-1.3,0.3-2.9,0.8-4.7c0.6-1.8,1.6-4.6,3-8.3c-0.5,0.4-1,0.9-1.4,1.3c-0.4,0.4-0.9,0.8-1.2,1.1
	c-0.4,0.3-0.8,0.7-1.2,1.1c-0.4,0.4-0.9,0.8-1.3,1.2v-3.7c3.8-3.2,8.3-8.7,13.7-16.6c-0.5,0-1-0.1-1.5-0.1c-0.5,0-1,0-1.7,0
	c-2.1,0-3.7,0.1-4.7,0.4c-0.4,0.1-0.8,0.2-1.2,0.3c-0.4,0.1-0.6,0.2-0.8,0.2s-0.2-0.1-0.2-0.3c0-1.2,0.7-3,2.2-5.3
	c1.2-2,2.3-3.5,3.4-4.5c1.1-1,2.4-1.6,3.9-2C1712,113,1714.2,112.9,1716.9,112.9z"/>
<path class="st0" d="M1734.2,142.8v1.3c0,2.1,0.5,3.8,1.6,5c1,1.2,2.4,1.8,4.1,1.8c1.8,0,3.6-0.4,5.5-1.2c1.9-0.8,3.8-1.9,5.6-3.3
	c1.9-1.4,4.1-3.2,6.8-5.5v3.3c-4.1,4.9-7.9,8.6-11.4,11.2c-3.6,2.6-7.2,3.9-10.8,3.9c-3.2,0-5.7-1.2-7.6-3.7
	c-1.9-2.5-2.8-5.9-2.8-10.2c0-3.8,0.9-7.2,2.6-10.3c1.8-3.1,4.6-6.3,8.6-9.7c2.7-2.3,5.4-4.1,8.1-5.3c2.7-1.2,5.1-1.8,7.2-1.8
	c1.7,0,3,0.4,4,1.2c1,0.8,1.5,1.9,1.5,3.5c0,2.3-0.8,4.5-2.5,6.8c-1.7,2.2-4.3,4.5-7.7,6.7C1743.6,138.6,1739.3,140.7,1734.2,142.8z
	 M1734.8,139.3c3.2-1.3,6-2.8,8.3-4.7c2.3-1.9,4-3.7,5.1-5.4c1.1-1.7,1.6-3,1.6-3.7c0-0.8-0.4-1.2-1.1-1.2c-0.6,0-1.7,0.4-3.2,1.2
	c-1.5,0.8-2.9,1.9-4.4,3.2c-1.5,1.3-2.8,2.9-4,4.7C1735.9,135.2,1735.1,137.1,1734.8,139.3z"/>
<text transform="matrix(1 0 0 1 692.2104 749.7939)"><tspan x="0" y="0" class="st4 st5">Call us at</tspan><tspan x="222.9" y="0" class="st6 st5"> </tspan><tspan x="238.7" y="0" class="st2 st7 st5">763.972.5101</tspan><tspan x="-79.9" y="63.2" class="st4 st5">or email: joe@vitalvisual.com</tspan></text>
<rect x="185.3" y="973.3" class="st8" width="1549.3" height="187.4"/>
<text transform="matrix(1 0 0 1 231.8516 1002.0403)"><tspan x="0" y="0" class="st9 st7 st10 st11">VitalSigns</tspan><tspan x="298.6" y="0" class="st9 st7 st12 st11">  •  </tspan><tspan x="387.4" y="0" class="st9 st6 st12 st11">111 Babcock Blvd West, Delano, MN 55328</tspan></text>
<rect x="250.8" y="1247.7" class="st8" width="1296.8" height="465.1"/>
<text transform="matrix(1 0 0 1 753.1309 1295.166)" class="st4" style="font-size:64.4663px;">vitalvisual</text>
</svg>
