<?xml version="1.0" encoding="utf-8"?>
<!-- Generator: Adobe Illustrator 28.1.0, SVG Export Plug-In . SVG Version: 6.00 Build 0)  -->
<svg version="1.1" id="Layer_1" xmlns="http://www.w3.org/2000/svg" xmlns:xlink="http://www.w3.org/1999/xlink" x="0px" y="0px"
	 width="72px" height="72px" viewBox="0 0 72 72" style="enable-background:new 0 0 72 72;" xml:space="preserve">
<style type="text/css">
	.st0{fill-rule:evenodd;clip-rule:evenodd;fill:#010101;}
</style>
<path class="st0" d="M43.9,59.4c-2.5,0.8-5.3,1.3-7.9,1.3c-13.7,0-24.7-11-24.7-24.6c0-13.6,11.1-24.6,24.7-24.6
	c13.6,0,24.7,11,24.7,24.6c0,2.1,0,4.2,0,6.3c0,2.5-2.1,4.6-4.6,4.6c-2.6,0-4.6-2.1-4.6-4.6V36c0-8.5-6.9-15.4-15.4-15.4
	c-8.5,0-15.4,6.9-15.4,15.4c0,8.5,6.9,15.4,15.4,15.4c3.9,0,7.5-1.4,10.4-4c0.3-0.3,0.7-0.4,1.1-0.4c0.4,0.1,0.7,0.3,1,0.6
	c1.7,2.4,4.1,3.9,7.1,3.9c2.6,0,5.2-0.5,7.1-2.4c2-2.1,2.5-5.5,2.8-8.2c0.1-1.6,0.1-3.2,0.1-4.9c0-0.3,0-0.6,0-0.9
	C65,19.2,52,6.6,36,6.6C19.7,6.6,6.5,19.8,6.5,36c0,16.3,13.2,29.4,29.5,29.4c3.2,0,6.4-0.5,9.4-1.5l0,0l0,0c1-0.3,1.8-1.2,1.8-2.3
	c0-1.3-1.1-2.4-2.4-2.4C44.6,59.2,44.3,59.2,43.9,59.4L43.9,59.4L43.9,59.4z M46.6,36c0,5.8-4.8,10.6-10.6,10.6
	c-5.9,0-10.6-4.7-10.6-10.6c0-5.8,4.7-10.6,10.6-10.6C41.9,25.4,46.6,30.2,46.6,36L46.6,36z"/>
</svg>
