<?xml version="1.0" encoding="utf-8"?>
<!-- Generator: Adobe Illustrator 28.1.0, SVG Export Plug-In . SVG Version: 6.00 Build 0)  -->
<svg version="1.1" id="Layer_1" xmlns="http://www.w3.org/2000/svg" xmlns:xlink="http://www.w3.org/1999/xlink" x="0px" y="0px"
	 width="72px" height="72px" viewBox="0 0 72 72" style="enable-background:new 0 0 72 72;" xml:space="preserve">
<style type="text/css">
	.st0{fill-rule:evenodd;clip-rule:evenodd;fill:#010101;}
</style>
<path class="st0" d="M31.5,31.6c1.4,3.4,4.6,7.8,7.3,10.2c0.1-0.1,0.3-0.3,0.5-0.5c1.6-1.4,3.4-1.9,5.5-1.8c2.3,0,6.9,1.7,8.9,2.6
	c6.9,3.4,9.3,9.7,4.4,16.3c-2.1,2.9-5,5-8.5,5.9C38.3,67,26.5,55.4,20.6,47.1c-6-8.3-13.2-23.2-6.9-33c1.9-3.1,4.9-5.1,8.4-6.2
	c3.6-1.1,7.5-1,10.4,1.7c2.2,2,3.2,4.9,3.6,7.8c0.3,2.2,0.3,7.1-0.4,9.2c-0.6,2-1.7,3.5-3.5,4.6C31.9,31.4,31.7,31.5,31.5,31.6
	L31.5,31.6z M38.4,46.7c-4.6-2.7-10.5-11-11.6-16.2c2.1-3.3,3.8-1.7,4.9-5.1c0.1-0.2,3-17-8.4-13.5c-24.9,7.8,16.1,65,31.6,44.1
	c7.1-9.7-9.9-12.3-10.1-12.3C41.2,43.6,42.2,45.8,38.4,46.7L38.4,46.7z"/>
</svg>
