<?xml version="1.0" encoding="utf-8"?>
<!-- Generator: Adobe Illustrator 28.1.0, SVG Export Plug-In . SVG Version: 6.00 Build 0)  -->
<svg version="1.1" id="Layer_1" xmlns="http://www.w3.org/2000/svg" xmlns:xlink="http://www.w3.org/1999/xlink" x="0px" y="0px"
	 viewBox="0 0 171.7 228.5" style="enable-background:new 0 0 171.7 228.5;" xml:space="preserve">
<style type="text/css">
	.st0{fill:#FFFFFF;}
	.st1{fill:#231F20;}
	.st2{stroke:#84C8E6;stroke-width:0.1284;stroke-miterlimit:10;}
</style>
<g>
	<g>
		<path d="M130.7,146.2H37.2c-10.8,0-19.5-8.7-19.5-19.5V31.9c0-10.8,8.7-19.5,19.5-19.5h93.5c10.8,0,19.5,8.7,19.5,19.5v94.8
			C150.2,137.5,141.5,146.2,130.7,146.2z"/>
		<g>
			<path class="st0" d="M62.3,120.1c-1.1,0.7-2.1-1.3-1.2-2.3c15.3-15.7,69.5-20.3,58.8-2.1c-0.1,3.5-1.5,3.5-1.5,3.5
				C120.4,114.1,88.4,104.3,62.3,120.1z"/>
			<g>
				<path class="st0" d="M62.7,91.8c0,0.9,1.2,1,1.5,0.2C68,80.4,72.1,55,68,47.2c-0.4-0.8-0.5-1.8-1.1-2.6c-0.5-0.4-0.1-1,0.5-0.9
					c9.1-0.2,7.4,11.4,6.9,17.2c-0.7,6.8-5.9,36.1-9.4,38.5c-2.3,1.6-9.1,1.3-9.1-1.4c0.1-3.7-0.3-31.3-3.8-42.2
					c-0.9-2.8-1.9-5.5-5.5-5.5c-9,0.1-12.8,17-5.8,23c0.4,0.4,0.9,0.9,0.6,1.5c-0.2,0.5-0.7,0.5-1.2,0.4c-4.4-1-7.4-5.3-7.8-9.7
					c-1.5-10.3,5.7-19.4,15.8-18c2.3,0.3,6,1.7,7.7,3.1C61.1,55.2,62.4,81.1,62.7,91.8z"/>
				<g>
					<path class="st0" d="M82.9,53.3c6.9-0.4,2.2,7.3-1.1,9.2c-3.8,2.1-3.1-5.4-2.4-7.3C79.6,54,80.9,53.4,82.9,53.3z"/>
					<path class="st0" d="M118.1,90.2c-0.2-0.7-1.2-0.8-1.5-0.1c-0.5,1.6-1.2,3.2-2.2,4.2c-2,1.8-4.1,1.4-5.2-0.3
						c-0.3-0.5-1-0.4-1.3,0.1c-2.8,5.3-7.9,5.3-10-0.5c-0.2-0.6-1-0.7-1.4-0.2c-1.4,2.3-3.3,4.2-5.8,3.2c-1.9-0.6-2.9-3.6-3.5-6
						c-0.2-0.7-1.1-0.8-1.4-0.1c-0.5,1-1,2-1.2,2.3c-3.3,7.8-10.1,5.7-10.6-2.2c-0.6-5.4,0.2-10.7,1.4-16.1c0.3-2.5,3-2.7,4.8-2.2
						c2.1,0.7,0.9,3.3,0.8,4.9c-0.3,2.4-2.6,14.1-0.1,14.8c0.9,0.1,1.1-0.7,1.4-1.3c2.1-4.2,3.9-9,4.2-13.6
						c0.1-1.4,1.7-9.5,1.9-10.5c0.4-2.2,2.7-16.9,6.9-18.1c3.1-0.9,4.1,1,3.3,3.2c-0.7,2.1-4,13.1-4.5,15.3c-0.1,0.6-0.9,5.5-1,6
						c-0.5,5.5-1.5,11.2-0.3,16.6c0.2,0.6,0.5,2.4,1.4,2.4c2.1,0.1,3.3-8,3.5-9.7c0.8-5.4,2.3-11.9,7.2-15.2c0,0,0.1-0.1,0.1-0.1
						c2.6-1.4,5.3-0.5,6.1,2.1c0.2,0.5,0.4,0.7,1,0.8c1.6,0,2,0.4,1.9,2c0,5.7-1.7,11.4-1.4,17c0.1,0.4,0.2,1.8,0.7,1.9
						c1.5-0.1,2.3-4.7,2.7-6c0,0,0-0.1,0-0.1c2-10.1,1.2-21.6,4.6-31.6c1-4.3,6.2-15.5,11.7-9.6c0.1,0.1,0.1,0.2,0.2,0.3
						c3.7,9.7-5,24.9-8.5,34.3c-1.7,3.7-1.4,11.4,0.8,14.6c3.6,2.9,6.5-9.2,7-11.3c0.1-0.9,0.2-1.7,1.2-1.6c1.4,0.3,0.3,2.1,0.1,3
						c-1,4.7-1.6,9.9-4.7,13.8c0,0-0.1,0.1-0.1,0.1C123.2,101.6,119.6,95.4,118.1,90.2z M102.7,87.5c0.1,1.1-0.2,4.5,0.9,5.4
						c0.3,0.2,0.6,0.2,0.9,0c2.6-2.1,4.6-16.3,4.9-19.2c0.1-1.1,0.5-3-0.7-3.5c-0.1-0.1-0.3-0.1-0.5,0
						C104.7,71,102.7,84.6,102.7,87.5z M125.2,68.1c2.1-6.7,4.7-16.3,4.1-20.1c-0.1-0.7-1.1-0.9-1.4-0.3c-1.9,3.2-3.4,13.1-4.2,20
						C123.6,68.7,124.9,69,125.2,68.1z"/>
					<path class="st0" d="M82,67.4c-0.2-0.5,0.1-1,0.6-1.1c3.9-0.5,19-2.6,19.3-1.7c0.4,1.1-3.6,3.7-4.2,4.1c-0.1,0-0.1,0.1-0.2,0.1
						l-8.2,2.6c-0.1,0-0.2,0-0.3,0C88.2,71.4,83.5,71,82,67.4z"/>
				</g>
			</g>
		</g>
	</g>
	<g>
		<g>
			<path class="st1" d="M49.9,163.1l-3.6,8.5l-1.3,0l-3.7-8.5l1.7,0l2.6,6.1l2.5-6.1L49.9,163.1z"/>
			<path class="st1" d="M51.4,163.1l1.6,0l0,8.5l-1.6,0L51.4,163.1z"/>
			<path class="st1" d="M61.4,164.7l-2.5,0l0,6.9l-1.6,0l0-6.9l-2.5,0l0-1.6l6.6,0L61.4,164.7z"/>
			<path class="st1" d="M67.7,170.1l-4.1,0l-0.6,1.5l-1.7,0l3.6-8.5l1.3,0l3.6,8.5l-1.7,0L67.7,170.1z M67.1,168.7l-1.4-3.5
				l-1.4,3.5L67.1,168.7z"/>
			<path class="st1" d="M77,170l0,1.6l-5.5,0l0-8.5l1.6,0l0,6.9L77,170z"/>
			<path class="st1" d="M90.6,163.1l-3.6,8.5l-1.3,0l-3.7-8.5l1.7,0l2.6,6.1l2.5-6.1L90.6,163.1z"/>
			<path class="st1" d="M92.2,163.1l1.6,0l0,8.5l-1.6,0L92.2,163.1z"/>
			<path class="st1" d="M96.6,171.1c-0.5-0.4-0.9-0.9-1-1.6l1.5-0.6c0.1,0.4,0.2,0.7,0.5,0.9c0.3,0.2,0.6,0.3,0.9,0.3
				c0.4,0,0.7-0.1,0.9-0.3c0.2-0.2,0.3-0.4,0.3-0.7c0-0.3-0.1-0.6-0.4-0.8c-0.2-0.2-0.6-0.3-1.1-0.5c-0.8-0.2-1.4-0.5-1.9-0.8
				c-0.5-0.4-0.7-1-0.7-1.7c0-0.5,0.1-0.9,0.4-1.2c0.2-0.4,0.6-0.7,1-0.9s0.9-0.3,1.4-0.3c0.6,0,1.2,0.2,1.7,0.5
				c0.5,0.3,0.8,0.8,1,1.4l-1.5,0.6c-0.1-0.3-0.2-0.5-0.5-0.7c-0.2-0.2-0.5-0.3-0.8-0.3c-0.3,0-0.6,0.1-0.8,0.2
				c-0.2,0.2-0.3,0.4-0.3,0.6c0,0.5,0.5,0.8,1.5,1.1c0.8,0.2,1.4,0.5,1.9,0.9s0.7,1,0.7,1.8c0,0.5-0.1,0.9-0.3,1.3
				c-0.2,0.4-0.5,0.7-1,0.9c-0.4,0.2-0.9,0.3-1.5,0.3C97.7,171.7,97.1,171.5,96.6,171.1z"/>
			<path class="st1" d="M109.7,163.1l0,4.9c0,0.7-0.1,1.4-0.4,2c-0.3,0.6-0.6,1-1.1,1.3c-0.5,0.3-1.1,0.5-1.8,0.5
				c-0.7,0-1.3-0.2-1.8-0.5c-0.5-0.3-0.9-0.7-1.2-1.3s-0.4-1.2-0.4-2l0-4.9l1.6,0l0,4.9c0,0.7,0.2,1.2,0.5,1.5
				c0.3,0.4,0.7,0.6,1.3,0.6c0.6,0,1-0.2,1.3-0.6c0.3-0.4,0.5-0.9,0.5-1.5l0-4.9L109.7,163.1z"/>
			<path class="st1" d="M117,170.1l-4.1,0l-0.6,1.5l-1.7,0l3.6-8.5l1.3,0l3.6,8.5l-1.7,0L117,170.1z M116.4,168.7l-1.4-3.5l-1.4,3.5
				L116.4,168.7z"/>
			<path class="st1" d="M126.3,169.9l0,1.6l-5.5,0l0-8.5l1.6,0l0,6.9L126.3,169.9z"/>
			<path class="st1" d="M21,180.7l0,8.5l-1.7,0l0-6.5l-1.1,0.4l-0.6-1.4l2.4-1L21,180.7z"/>
			<path class="st1" d="M26,180.7l0,8.5l-1.7,0l0-6.5l-1.1,0.4l-0.6-1.4l2.4-1L26,180.7z"/>
			<path class="st1" d="M31,180.7l0,8.5l-1.7,0l0-6.5l-1.1,0.4l-0.6-1.4l2.4-1L31,180.7z"/>
			<path class="st1" d="M42.9,185.7c0.2,0.3,0.3,0.7,0.3,1.1c0,0.5-0.1,0.9-0.3,1.3c-0.2,0.4-0.5,0.6-0.9,0.8s-0.8,0.3-1.3,0.3
				l-3.6,0l0-8.5l3.3,0c0.5,0,1,0.1,1.4,0.3s0.7,0.5,0.9,0.9c0.2,0.4,0.3,0.8,0.3,1.2c0,0.4-0.1,0.8-0.3,1.1
				c-0.2,0.3-0.4,0.6-0.8,0.8C42.4,185.1,42.7,185.3,42.9,185.7z M38.7,182.2l0,2l1.6,0c0.4,0,0.6-0.1,0.8-0.3
				c0.2-0.2,0.3-0.4,0.3-0.7c0-0.3-0.1-0.5-0.3-0.7c-0.2-0.2-0.5-0.3-0.8-0.3L38.7,182.2z M41.2,187.4c0.2-0.2,0.3-0.5,0.3-0.8
				s-0.1-0.6-0.3-0.8c-0.2-0.2-0.5-0.3-0.9-0.3l-1.6,0l0,2.1l1.6,0C40.7,187.7,41,187.6,41.2,187.4z"/>
			<path class="st1" d="M50.5,187.7l-4.1,0l-0.6,1.5l-1.7,0l3.6-8.5l1.3,0l3.6,8.5l-1.7,0L50.5,187.7z M49.9,186.3l-1.4-3.5
				l-1.4,3.5L49.9,186.3z"/>
			<path class="st1" d="M60,185.6c0.2,0.3,0.3,0.7,0.3,1.1c0,0.5-0.1,0.9-0.3,1.3c-0.2,0.4-0.5,0.6-0.9,0.8
				c-0.4,0.2-0.8,0.3-1.3,0.3l-3.6,0l0-8.5l3.3,0c0.5,0,1,0.1,1.4,0.3s0.7,0.5,0.9,0.9c0.2,0.4,0.3,0.8,0.3,1.2
				c0,0.4-0.1,0.8-0.3,1.1c-0.2,0.3-0.4,0.6-0.8,0.8C59.5,185.1,59.8,185.3,60,185.6z M55.9,182.2l0,2l1.6,0c0.4,0,0.6-0.1,0.8-0.3
				c0.2-0.2,0.3-0.4,0.3-0.7c0-0.3-0.1-0.5-0.3-0.7c-0.2-0.2-0.5-0.3-0.8-0.3L55.9,182.2z M58.4,187.4c0.2-0.2,0.3-0.5,0.3-0.8
				s-0.1-0.6-0.3-0.8c-0.2-0.2-0.5-0.3-0.9-0.3l-1.6,0l0,2.1l1.6,0C57.9,187.7,58.2,187.6,58.4,187.4z"/>
			<path class="st1" d="M67.9,189c-0.5,0.2-1.1,0.3-1.7,0.3c-0.8,0-1.5-0.2-2.2-0.6c-0.7-0.4-1.2-0.9-1.6-1.6
				c-0.4-0.7-0.6-1.4-0.6-2.2c0-0.8,0.2-1.6,0.6-2.2c0.4-0.7,0.9-1.2,1.6-1.6c0.7-0.4,1.4-0.6,2.2-0.6c0.6,0,1.2,0.1,1.7,0.3
				s1,0.5,1.4,1l-1.2,1.2c-0.5-0.6-1.2-0.8-1.9-0.8c-0.5,0-0.9,0.1-1.3,0.4s-0.7,0.6-1,1c-0.2,0.4-0.4,0.9-0.4,1.4
				c0,0.5,0.1,0.9,0.4,1.4c0.2,0.4,0.6,0.7,1,1c0.4,0.2,0.9,0.4,1.3,0.4c0.4,0,0.7-0.1,1.1-0.2c0.3-0.1,0.6-0.4,0.9-0.6l1.2,1.2
				C68.9,188.4,68.4,188.7,67.9,189z"/>
			<path class="st1" d="M72.5,188.7c-0.7-0.4-1.2-0.9-1.6-1.6c-0.4-0.7-0.6-1.4-0.6-2.2c0-0.8,0.2-1.5,0.6-2.2
				c0.4-0.7,0.9-1.2,1.6-1.6c0.7-0.4,1.4-0.6,2.2-0.6c0.8,0,1.5,0.2,2.2,0.6c0.7,0.4,1.2,0.9,1.6,1.6c0.4,0.7,0.6,1.4,0.6,2.2
				c0,0.8-0.2,1.5-0.6,2.2c-0.4,0.7-0.9,1.2-1.6,1.6s-1.4,0.6-2.2,0.6S73.2,189.1,72.5,188.7z M76,187.3c0.4-0.2,0.7-0.6,1-1
				c0.2-0.4,0.4-0.9,0.3-1.4s-0.1-1-0.4-1.4s-0.6-0.8-1-1c-0.4-0.2-0.9-0.4-1.4-0.4c-0.5,0-1,0.1-1.4,0.4c-0.4,0.2-0.7,0.6-1,1
				c-0.2,0.4-0.3,0.9-0.3,1.4s0.1,1,0.3,1.4c0.2,0.4,0.5,0.8,1,1c0.4,0.2,0.9,0.4,1.4,0.4C75.2,187.7,75.6,187.6,76,187.3z"/>
			<path class="st1" d="M86.6,188.9c-0.5,0.2-1.1,0.3-1.7,0.3c-0.8,0-1.5-0.2-2.2-0.6c-0.7-0.4-1.2-0.9-1.6-1.6
				c-0.4-0.7-0.6-1.4-0.6-2.2c0-0.8,0.2-1.6,0.6-2.2c0.4-0.7,0.9-1.2,1.6-1.6c0.7-0.4,1.4-0.6,2.2-0.6c0.6,0,1.2,0.1,1.7,0.3
				s1,0.5,1.4,1l-1.2,1.2c-0.5-0.6-1.2-0.8-1.9-0.8c-0.5,0-0.9,0.1-1.3,0.4c-0.4,0.2-0.7,0.6-1,1c-0.2,0.4-0.4,0.9-0.4,1.4
				c0,0.5,0.1,0.9,0.4,1.4c0.2,0.4,0.6,0.7,1,1c0.4,0.2,0.9,0.4,1.3,0.4c0.4,0,0.7-0.1,1.1-0.2c0.3-0.1,0.6-0.4,0.9-0.6L88,188
				C87.6,188.4,87.1,188.7,86.6,188.9z"/>
			<path class="st1" d="M93.4,184.6l3.1,4.6l-2,0l-2.1-3.2l-1,1.3l0,1.9l-1.6,0l0-8.5l1.6,0l0,4.1l3.1-4.1l2,0L93.4,184.6z"/>
			<path class="st1" d="M107.8,185.6c0.2,0.3,0.3,0.7,0.3,1.1c0,0.5-0.1,0.9-0.3,1.3c-0.2,0.4-0.5,0.6-0.9,0.8s-0.8,0.3-1.3,0.3
				l-3.6,0l0-8.5l3.3,0c0.5,0,1,0.1,1.4,0.3s0.7,0.5,0.9,0.9c0.2,0.4,0.3,0.8,0.3,1.2c0,0.4-0.1,0.8-0.3,1.1
				c-0.2,0.3-0.4,0.6-0.8,0.8C107.3,185,107.6,185.3,107.8,185.6z M103.6,182.1l0,2l1.6,0c0.4,0,0.6-0.1,0.8-0.3
				c0.2-0.2,0.3-0.4,0.3-0.7c0-0.3-0.1-0.5-0.3-0.7c-0.2-0.2-0.5-0.3-0.8-0.3L103.6,182.1z M106.1,187.3c0.2-0.2,0.3-0.5,0.3-0.8
				s-0.1-0.6-0.3-0.8c-0.2-0.2-0.5-0.3-0.9-0.3l-1.6,0l0,2.1l1.6,0C105.6,187.6,105.9,187.5,106.1,187.3z"/>
			<path class="st1" d="M115.4,187.5l0,1.6l-5.5,0l0-8.5l1.6,0l0,6.9L115.4,187.5z"/>
			<path class="st1" d="M124.2,180.6l-3.6,8.5l-1.3,0l-3.7-8.5l1.7,0l2.6,6.1l2.5-6.1L124.2,180.6z"/>
			<path class="st1" d="M130.7,181.2c0.6,0.4,1.2,0.9,1.5,1.5c0.4,0.6,0.5,1.4,0.5,2.2s-0.2,1.5-0.5,2.2c-0.4,0.6-0.9,1.1-1.5,1.5
				c-0.6,0.4-1.4,0.5-2.2,0.5l-2.7,0l0-8.5l2.7,0C129.3,180.6,130,180.8,130.7,181.2z M129.8,187.2c0.4-0.2,0.7-0.5,0.9-0.9
				c0.2-0.4,0.3-0.9,0.3-1.4c0-0.5-0.1-1-0.3-1.4s-0.5-0.7-0.9-0.9c-0.4-0.2-0.8-0.3-1.3-0.3l-1.1,0l0,5.3l1.1,0
				C129,187.5,129.4,187.4,129.8,187.2z"/>
			<path class="st1" d="M137.7,180.6l1.8,0l2.2,5.6l1.9-5.6l1.1,0l2,5.6l2-5.6l1.8,0l-3.3,8.5l-1.1,0l-1.9-5.4l-1.9,5.4l-1.1,0
				L137.7,180.6z"/>
			<path class="st1" d="M30.3,198.8c0.6,0.4,1.2,0.9,1.5,1.5c0.4,0.6,0.5,1.4,0.5,2.2c0,0.8-0.2,1.5-0.5,2.2
				c-0.4,0.6-0.9,1.1-1.5,1.5c-0.6,0.4-1.4,0.5-2.2,0.5l-2.7,0l0-8.5l2.7,0C28.9,198.3,29.7,198.5,30.3,198.8z M29.4,204.8
				c0.4-0.2,0.7-0.5,0.9-0.9c0.2-0.4,0.3-0.9,0.3-1.4c0-0.5-0.1-1-0.3-1.4s-0.5-0.7-0.9-0.9c-0.4-0.2-0.8-0.3-1.3-0.3l-1.1,0l0,5.3
				l1.1,0C28.6,205.2,29,205.1,29.4,204.8z"/>
			<path class="st1" d="M35.8,199.8l0,1.8l3.4,0l0,1.6l-3.4,0l0,2l3.7,0l0,1.6l-5.3,0l0-8.5l5.3,0l0,1.6L35.8,199.8z"/>
			<path class="st1" d="M46.9,205.2l0,1.6l-5.5,0l0-8.5l1.6,0l0,6.9L46.9,205.2z"/>
			<path class="st1" d="M54.6,205.3l-4.1,0l-0.6,1.5l-1.7,0l3.6-8.5l1.3,0l3.6,8.5l-1.7,0L54.6,205.3z M54,203.9l-1.4-3.5l-1.4,3.5
				L54,203.9z"/>
			<path class="st1" d="M58.4,198.2l1.3,0l4.2,5.4l0-5.4l1.6,0l0,8.5l-1.3,0l-4.2-5.4l0,5.4l-1.6,0L58.4,198.2z"/>
			<path class="st1" d="M69.5,206.3c-0.7-0.4-1.2-0.9-1.6-1.6c-0.4-0.7-0.6-1.4-0.6-2.2c0-0.8,0.2-1.5,0.6-2.2
				c0.4-0.7,0.9-1.2,1.6-1.6c0.7-0.4,1.4-0.6,2.2-0.6s1.5,0.2,2.2,0.6s1.2,0.9,1.6,1.6c0.4,0.7,0.6,1.4,0.6,2.2
				c0,0.8-0.2,1.5-0.6,2.2s-0.9,1.2-1.6,1.6c-0.7,0.4-1.4,0.6-2.2,0.6S70.2,206.7,69.5,206.3z M73.1,204.9c0.4-0.2,0.7-0.6,1-1
				c0.2-0.4,0.4-0.9,0.3-1.4c0-0.5-0.1-1-0.4-1.4c-0.2-0.4-0.6-0.8-1-1c-0.4-0.2-0.9-0.4-1.4-0.4c-0.5,0-1,0.1-1.4,0.4
				c-0.4,0.2-0.7,0.6-1,1c-0.2,0.4-0.3,0.9-0.3,1.4c0,0.5,0.1,1,0.3,1.4s0.5,0.8,1,1c0.4,0.2,0.9,0.4,1.4,0.4
				C72.2,205.3,72.7,205.1,73.1,204.9z"/>
			<path class="st1" d="M77.6,205.1l1.6,0l-0.9,2.8l-1.4,0L77.6,205.1z"/>
			<path class="st1" d="M84.9,198.2l1.4,0l2.9,4.2l2.9-4.2l1.4,0l0,8.5l-1.6,0l0-5.4l-2.1,3l-1.1,0l-2.1-3l0,5.4l-1.6,0L84.9,198.2z
				"/>
			<path class="st1" d="M95.6,198.2l1.3,0l4.2,5.4l0-5.4l1.6,0l0,8.5l-1.3,0l-4.2-5.4l0,5.4l-1.6,0L95.6,198.2z"/>
			<path class="st1" d="M112.8,201.3c0.4,0.2,0.7,0.6,1,1c0.2,0.4,0.4,0.9,0.4,1.5c0,0.6-0.1,1.1-0.4,1.5s-0.6,0.8-1,1
				c-0.4,0.3-0.9,0.4-1.5,0.4c-0.5,0-1.1-0.1-1.6-0.4c-0.5-0.3-0.9-0.6-1.2-1.1l1.1-1.1c0.3,0.3,0.6,0.6,0.8,0.7s0.6,0.2,0.9,0.2
				c0.4,0,0.7-0.1,1-0.4c0.2-0.3,0.4-0.6,0.4-1c0-0.4-0.1-0.7-0.4-1c-0.3-0.2-0.6-0.4-1-0.4c-0.5,0-1,0.2-1.4,0.6l-1.1-0.7l0.8-4.3
				l4.1,0l0,1.6l-2.8,0l-0.3,1.4c0.3-0.1,0.6-0.1,1-0.1C111.9,201,112.3,201.1,112.8,201.3z"/>
			<path class="st1" d="M119.8,201.3c0.4,0.2,0.7,0.6,1,1c0.2,0.4,0.4,0.9,0.4,1.5c0,0.6-0.1,1.1-0.4,1.5s-0.6,0.8-1,1
				c-0.4,0.2-0.9,0.4-1.5,0.4c-0.5,0-1.1-0.1-1.6-0.4c-0.5-0.3-0.9-0.6-1.2-1.1l1.1-1.1c0.3,0.3,0.6,0.6,0.8,0.8
				c0.3,0.2,0.6,0.2,0.9,0.2c0.4,0,0.7-0.1,1-0.4c0.2-0.3,0.4-0.6,0.4-1s-0.1-0.7-0.4-1c-0.3-0.2-0.6-0.4-1-0.4
				c-0.5,0-1,0.2-1.4,0.6l-1.1-0.7l0.8-4.3l4.1,0l0,1.6l-2.8,0l-0.3,1.4c0.3-0.1,0.6-0.1,1-0.1C118.9,201,119.4,201.1,119.8,201.3z"
				/>
			<path class="st1" d="M127.7,202.3c0.4,0.5,0.5,1.1,0.5,1.7c0,0.5-0.1,1-0.4,1.4c-0.2,0.4-0.6,0.8-1,1c-0.4,0.3-1,0.4-1.5,0.4
				c-0.6,0-1.1-0.1-1.6-0.4c-0.5-0.2-0.9-0.6-1.2-1.1l1.2-0.9c0.2,0.3,0.4,0.5,0.7,0.6c0.3,0.2,0.6,0.2,0.9,0.2c0.4,0,0.7-0.1,1-0.4
				c0.2-0.2,0.4-0.5,0.4-0.9c0-0.4-0.2-0.7-0.5-1s-0.7-0.4-1.2-0.4l-0.6,0l0-1l1.5-2l-2.9,0l0-1.4l5,0l0,1l-1.7,2.2
				C126.8,201.5,127.3,201.8,127.7,202.3z"/>
			<path class="st1" d="M130.1,205.6c0-0.6,0.1-1.1,0.3-1.5c0.2-0.4,0.4-0.8,0.8-1.1c0.4-0.3,0.8-0.7,1.4-1c0.8-0.5,1.2-0.9,1.2-1.5
				c0-0.3-0.1-0.5-0.3-0.7c-0.2-0.2-0.5-0.3-0.8-0.3c-0.3,0-0.6,0.1-0.8,0.3s-0.4,0.4-0.5,0.8L130,200c0.2-0.6,0.5-1.1,1-1.4
				c0.5-0.4,1.1-0.5,1.7-0.5c0.5,0,1,0.1,1.4,0.3c0.4,0.2,0.7,0.5,1,0.9c0.2,0.4,0.3,0.8,0.3,1.3c0,0.6-0.2,1.1-0.5,1.6
				s-0.9,0.9-1.7,1.3c-0.5,0.3-0.8,0.5-1,0.8c-0.2,0.3-0.3,0.6-0.4,0.9l3.7,0l0,1.6l-5.4,0L130.1,205.6z"/>
			<path class="st1" d="M142.6,203c0.2,0.3,0.3,0.7,0.3,1.2c0,0.5-0.1,1-0.4,1.3s-0.6,0.7-1,0.9c-0.4,0.2-0.9,0.3-1.5,0.3
				c-0.6,0-1.1-0.1-1.5-0.3c-0.4-0.2-0.8-0.5-1-0.9c-0.2-0.4-0.4-0.8-0.4-1.3c0-0.4,0.1-0.8,0.3-1.2c0.2-0.3,0.5-0.6,0.8-0.8
				c-0.3-0.2-0.5-0.5-0.7-0.8c-0.2-0.3-0.2-0.7-0.2-1c0-0.4,0.1-0.8,0.3-1.2s0.5-0.7,0.9-0.9c0.4-0.2,0.9-0.3,1.4-0.3
				c0.5,0,1,0.1,1.4,0.3s0.7,0.5,0.9,0.9c0.2,0.4,0.3,0.8,0.3,1.2c0,0.4-0.1,0.7-0.2,1c-0.2,0.3-0.4,0.6-0.7,0.8
				C142.2,202.4,142.4,202.7,142.6,203z M141,205c0.2-0.2,0.3-0.5,0.3-0.9c0-0.4-0.1-0.6-0.4-0.9s-0.5-0.3-0.9-0.3
				c-0.3,0-0.6,0.1-0.9,0.3c-0.2,0.2-0.4,0.5-0.4,0.9c0,0.4,0.1,0.7,0.3,0.9s0.5,0.3,0.9,0.3C140.5,205.3,140.8,205.2,141,205z
				 M139.3,199.8c-0.2,0.2-0.3,0.4-0.3,0.7c0,0.3,0.1,0.5,0.3,0.7c0.2,0.2,0.4,0.3,0.8,0.3c0.3,0,0.6-0.1,0.8-0.3
				c0.2-0.2,0.3-0.4,0.3-0.7c0-0.3-0.1-0.5-0.3-0.7s-0.4-0.3-0.8-0.3C139.7,199.5,139.5,199.6,139.3,199.8z"/>
		</g>
	</g>
</g>
<g>
	<g>
		<g>
			<path class="st1" d="M722.3,358.6l-2.2,5.3l-0.8,0l-2.2-5.3l1,0l1.5,3.8l1.5-3.8L722.3,358.6z"/>
			<path class="st1" d="M722.9,358.6l1,0l0,5.3l-1,0L722.9,358.6z"/>
			<path class="st1" d="M728.9,359.6l-1.5,0l0,4.3l-1,0l0-4.3l-1.5,0l0-1l4,0L728.9,359.6z"/>
			<path class="st1" d="M732.7,363l-2.4,0l-0.4,0.9l-1,0l2.2-5.3l0.8,0l2.2,5.3l-1,0L732.7,363z M732.3,362.1l-0.9-2.2l-0.9,2.2
				L732.3,362.1z"/>
			<path class="st1" d="M738.3,362.9l0,1l-3.3,0l0-5.3l1,0l0,4.3L738.3,362.9z"/>
			<path class="st1" d="M745.3,358.6l-2.2,5.3l-0.8,0l-2.2-5.3l1,0l1.5,3.8l1.5-3.8L745.3,358.6z"/>
			<path class="st1" d="M746,358.6l1,0l0,5.3l-1,0L746,358.6z"/>
			<path class="st1" d="M748.6,363.6c-0.3-0.3-0.5-0.6-0.6-1l0.9-0.4c0,0.2,0.1,0.4,0.3,0.6c0.2,0.1,0.3,0.2,0.5,0.2
				c0.2,0,0.4-0.1,0.5-0.2c0.1-0.1,0.2-0.3,0.2-0.4c0-0.2-0.1-0.4-0.2-0.5c-0.1-0.1-0.4-0.2-0.7-0.3c-0.5-0.1-0.8-0.3-1.1-0.5
				c-0.3-0.2-0.4-0.6-0.4-1.1c0-0.3,0.1-0.5,0.2-0.8c0.1-0.2,0.3-0.4,0.6-0.6c0.2-0.1,0.5-0.2,0.8-0.2c0.4,0,0.7,0.1,1,0.3
				s0.5,0.5,0.6,0.9l-0.9,0.4c0-0.2-0.1-0.3-0.3-0.4c-0.1-0.1-0.3-0.2-0.5-0.2c-0.2,0-0.4,0.1-0.5,0.2c-0.1,0.1-0.2,0.2-0.2,0.4
				c0,0.3,0.3,0.5,0.9,0.7c0.5,0.1,0.9,0.3,1.1,0.6c0.3,0.3,0.4,0.6,0.4,1.1c0,0.3-0.1,0.6-0.2,0.8c-0.1,0.2-0.3,0.4-0.6,0.6
				c-0.3,0.1-0.6,0.2-0.9,0.2C749.3,364,748.9,363.9,748.6,363.6z"/>
			<path class="st1" d="M756.5,358.6l0,3.1c0,0.5-0.1,0.9-0.2,1.2c-0.2,0.4-0.4,0.6-0.7,0.8c-0.3,0.2-0.7,0.3-1.1,0.3
				c-0.4,0-0.8-0.1-1.1-0.3c-0.3-0.2-0.5-0.5-0.7-0.8c-0.2-0.4-0.2-0.8-0.2-1.2l0-3.1l1,0l0,3.1c0,0.4,0.1,0.7,0.3,1
				c0.2,0.2,0.4,0.4,0.8,0.4c0.3,0,0.6-0.1,0.8-0.4c0.2-0.2,0.3-0.6,0.3-1l0-3.1L756.5,358.6z"/>
			<path class="st1" d="M760.9,363l-2.4,0l-0.4,0.9l-1,0l2.2-5.3l0.8,0l2.2,5.3l-1,0L760.9,363z M760.6,362.1l-0.9-2.2l-0.9,2.2
				L760.6,362.1z"/>
			<path class="st1" d="M766.5,362.9l0,1l-3.3,0l0-5.3l1,0l0,4.3L766.5,362.9z"/>
		</g>
	</g>
	<g>
		<path class="st1" d="M701,383.5c0.4,0.2,0.7,0.5,0.9,0.9c0.2,0.4,0.3,0.8,0.3,1.3c0,0.5-0.1,0.9-0.3,1.3c-0.2,0.4-0.5,0.7-0.9,0.9
			c-0.4,0.2-0.8,0.3-1.3,0.3l-1.6,0l0-5l1.6,0C700.1,383.2,700.6,383.3,701,383.5z M700.4,387.1c0.2-0.1,0.4-0.3,0.6-0.6
			c0.1-0.2,0.2-0.5,0.2-0.8c0-0.3-0.1-0.6-0.2-0.8c-0.1-0.2-0.3-0.4-0.6-0.6c-0.2-0.1-0.5-0.2-0.8-0.2l-0.7,0l0,3.2l0.7,0
			C699.9,387.3,700.2,387.2,700.4,387.1z"/>
		<path class="st1" d="M704.2,384.1l0,1.1l2,0l0,0.9l-2,0l0,1.2l2.2,0l0,0.9l-3.2,0l0-5l3.2,0l0,0.9L704.2,384.1z"/>
		<path class="st1" d="M710.9,387.3l0,0.9l-3.3,0l0-5l1,0l0,4.1L710.9,387.3z"/>
		<path class="st1" d="M715.4,387.4l-2.4,0l-0.4,0.9l-1,0l2.2-5.1l0.8,0l2.2,5l-1,0L715.4,387.4z M715.1,386.5l-0.9-2.1l-0.9,2.1
			L715.1,386.5z"/>
		<path class="st1" d="M717.7,383.2l0.8,0l2.5,3.2l0-3.2l1,0l0,5l-0.8,0l-2.5-3.2l0,3.2l-1,0L717.7,383.2z"/>
		<path class="st1" d="M724.3,388c-0.4-0.2-0.7-0.5-0.9-0.9c-0.2-0.4-0.3-0.8-0.3-1.3c0-0.5,0.1-0.9,0.3-1.3
			c0.2-0.4,0.5-0.7,0.9-0.9c0.4-0.2,0.8-0.4,1.3-0.4c0.5,0,0.9,0.1,1.3,0.4c0.4,0.2,0.7,0.6,0.9,1c0.2,0.4,0.4,0.8,0.4,1.3
			c0,0.5-0.1,0.9-0.3,1.3c-0.2,0.4-0.5,0.7-0.9,1c-0.4,0.2-0.8,0.4-1.3,0.4S724.7,388.2,724.3,388z M726.4,387.2
			c0.2-0.1,0.4-0.3,0.6-0.6c0.1-0.3,0.2-0.5,0.2-0.8c0-0.3-0.1-0.6-0.2-0.8c-0.1-0.3-0.3-0.5-0.6-0.6c-0.2-0.1-0.5-0.2-0.8-0.2
			c-0.3,0-0.6,0.1-0.8,0.2c-0.2,0.1-0.4,0.3-0.6,0.6c-0.1,0.3-0.2,0.5-0.2,0.8c0,0.3,0.1,0.6,0.2,0.8c0.1,0.3,0.3,0.5,0.6,0.6
			c0.2,0.1,0.5,0.2,0.8,0.2C725.9,387.4,726.2,387.3,726.4,387.2z"/>
		<path class="st1" d="M729.1,387.3l1,0l-0.5,1.7l-0.8,0L729.1,387.3z"/>
		<path class="st1" d="M733.5,383.2l0.8,0l1.7,2.5l1.7-2.5l0.8,0l0,5l-1,0l0-3.2l-1.3,1.8l-0.7,0l-1.3-1.8l0,3.2l-1,0L733.5,383.2z"
			/>
		<path class="st1" d="M739.9,383.2l0.8,0l2.5,3.2l0-3.2l1,0l0,5l-0.8,0l-2.5-3.2l0,3.2l-1,0L739.9,383.2z"/>
		<path class="st1" d="M750.1,385c0.2,0.1,0.4,0.3,0.6,0.6c0.1,0.3,0.2,0.6,0.2,0.9c0,0.3-0.1,0.6-0.2,0.9c-0.2,0.3-0.4,0.5-0.6,0.6
			c-0.3,0.1-0.6,0.2-0.9,0.2c-0.3,0-0.6-0.1-1-0.2c-0.3-0.2-0.6-0.4-0.7-0.7l0.7-0.6c0.2,0.2,0.3,0.4,0.5,0.4
			c0.2,0.1,0.3,0.1,0.5,0.1c0.2,0,0.4-0.1,0.6-0.2c0.1-0.2,0.2-0.3,0.2-0.6c0-0.2-0.1-0.4-0.2-0.6c-0.2-0.1-0.3-0.2-0.6-0.2
			c-0.3,0-0.6,0.1-0.8,0.4l-0.6-0.4l0.5-2.5l2.5,0l0,0.9l-1.7,0l-0.2,0.8c0.2-0.1,0.4-0.1,0.6-0.1
			C749.6,384.8,749.8,384.9,750.1,385z"/>
		<path class="st1" d="M754.3,385c0.2,0.1,0.4,0.3,0.6,0.6c0.1,0.3,0.2,0.6,0.2,0.9c0,0.3-0.1,0.6-0.2,0.9c-0.2,0.3-0.4,0.5-0.6,0.6
			c-0.3,0.1-0.6,0.2-0.9,0.2c-0.3,0-0.6-0.1-1-0.2c-0.3-0.2-0.6-0.4-0.7-0.7l0.7-0.6c0.2,0.2,0.3,0.4,0.5,0.4
			c0.2,0.1,0.3,0.1,0.5,0.1c0.2,0,0.4-0.1,0.6-0.2c0.1-0.2,0.2-0.3,0.2-0.6c0-0.2-0.1-0.4-0.2-0.6c-0.2-0.1-0.3-0.2-0.6-0.2
			c-0.3,0-0.6,0.1-0.8,0.4l-0.6-0.4l0.5-2.5l2.5,0l0,0.9l-1.7,0l-0.2,0.8c0.2-0.1,0.4-0.1,0.6-0.1C753.8,384.8,754,384.9,754.3,385z
			"/>
		<path class="st1" d="M759,385.6c0.2,0.3,0.3,0.6,0.3,1c0,0.3-0.1,0.6-0.2,0.9c-0.1,0.3-0.3,0.5-0.6,0.6c-0.3,0.1-0.6,0.2-0.9,0.2
			c-0.4,0-0.7-0.1-1-0.2c-0.3-0.1-0.5-0.4-0.7-0.6l0.7-0.6c0.1,0.2,0.2,0.3,0.4,0.4c0.2,0.1,0.4,0.1,0.6,0.1c0.2,0,0.4-0.1,0.6-0.2
			c0.1-0.1,0.2-0.3,0.2-0.5c0-0.2-0.1-0.4-0.3-0.6c-0.2-0.2-0.4-0.2-0.7-0.2l-0.4,0l0-0.6l0.9-1.2l-1.8,0l0-0.8l3,0l0,0.6l-1,1.3
			C758.5,385.1,758.8,385.3,759,385.6z"/>
		<path class="st1" d="M760.4,387.6c0-0.4,0.1-0.7,0.2-0.9c0.1-0.2,0.3-0.5,0.5-0.7c0.2-0.2,0.5-0.4,0.9-0.6
			c0.5-0.3,0.7-0.6,0.7-0.9c0-0.2-0.1-0.3-0.2-0.4c-0.1-0.1-0.3-0.2-0.5-0.2c-0.2,0-0.4,0.1-0.5,0.2c-0.1,0.1-0.2,0.3-0.3,0.5
			l-0.8-0.4c0.1-0.4,0.3-0.6,0.6-0.9c0.3-0.2,0.6-0.3,1-0.3c0.3,0,0.6,0.1,0.9,0.2c0.2,0.1,0.4,0.3,0.6,0.5c0.1,0.2,0.2,0.5,0.2,0.8
			c0,0.4-0.1,0.7-0.3,0.9c-0.2,0.3-0.6,0.5-1,0.8c-0.3,0.2-0.5,0.3-0.6,0.5c-0.1,0.2-0.2,0.3-0.2,0.5l2.2,0l0,0.9l-3.2,0
			L760.4,387.6z"/>
		<path class="st1" d="M767.9,386c0.1,0.2,0.2,0.4,0.2,0.7c0,0.3-0.1,0.6-0.2,0.8c-0.1,0.2-0.3,0.4-0.6,0.5
			c-0.3,0.1-0.6,0.2-0.9,0.2c-0.3,0-0.6-0.1-0.9-0.2c-0.3-0.1-0.5-0.3-0.6-0.5c-0.1-0.2-0.2-0.5-0.2-0.8c0-0.3,0.1-0.5,0.2-0.7
			c0.1-0.2,0.3-0.4,0.5-0.5c-0.2-0.1-0.3-0.3-0.4-0.5c-0.1-0.2-0.1-0.4-0.1-0.6c0-0.3,0.1-0.5,0.2-0.7c0.1-0.2,0.3-0.4,0.6-0.5
			c0.2-0.1,0.5-0.2,0.8-0.2c0.3,0,0.6,0.1,0.8,0.2c0.2,0.1,0.4,0.3,0.6,0.5c0.1,0.2,0.2,0.4,0.2,0.7c0,0.2,0,0.4-0.1,0.6
			c-0.1,0.2-0.2,0.3-0.4,0.5C767.6,385.7,767.8,385.8,767.9,386z M766.9,387.2c0.1-0.1,0.2-0.3,0.2-0.5c0-0.2-0.1-0.4-0.2-0.5
			c-0.1-0.1-0.3-0.2-0.5-0.2c-0.2,0-0.4,0.1-0.5,0.2c-0.1,0.1-0.2,0.3-0.2,0.5c0,0.2,0.1,0.4,0.2,0.5c0.1,0.1,0.3,0.2,0.5,0.2
			C766.6,387.4,766.8,387.3,766.9,387.2z M765.9,384.1c-0.1,0.1-0.2,0.3-0.2,0.4c0,0.2,0.1,0.3,0.2,0.4c0.1,0.1,0.3,0.2,0.4,0.2
			c0.2,0,0.3-0.1,0.5-0.2c0.1-0.1,0.2-0.3,0.2-0.4c0-0.2-0.1-0.3-0.2-0.4c-0.1-0.1-0.3-0.2-0.5-0.2C766.1,383.9,766,384,765.9,384.1
			z"/>
	</g>
	<g>
		<path class="st1" d="M691,370.8l0,5l-1,0l0-3.9l-0.6,0.3l-0.4-0.8l1.4-0.6L691,370.8z"/>
		<path class="st1" d="M693.9,370.7l0,5l-1,0l0-3.9l-0.6,0.3l-0.4-0.8l1.4-0.6L693.9,370.7z"/>
		<path class="st1" d="M696.9,370.7l0,5l-1,0l0-3.9l-0.6,0.3l-0.4-0.8l1.4-0.6L696.9,370.7z"/>
		<path class="st1" d="M704,373.7c0.1,0.2,0.2,0.4,0.2,0.7c0,0.3-0.1,0.5-0.2,0.8c-0.1,0.2-0.3,0.4-0.6,0.5
			c-0.2,0.1-0.5,0.2-0.8,0.2l-2.1,0l0-5l2,0c0.3,0,0.6,0.1,0.8,0.2c0.2,0.1,0.4,0.3,0.6,0.5c0.1,0.2,0.2,0.4,0.2,0.7
			c0,0.3-0.1,0.5-0.2,0.7c-0.1,0.2-0.3,0.3-0.5,0.4C703.7,373.4,703.9,373.5,704,373.7z M701.5,371.6l0,1.2l0.9,0
			c0.2,0,0.4-0.1,0.5-0.2c0.1-0.1,0.2-0.2,0.2-0.4c0-0.2-0.1-0.3-0.2-0.4c-0.1-0.1-0.3-0.2-0.5-0.2L701.5,371.6z M703,374.7
			c0.1-0.1,0.2-0.3,0.2-0.5c0-0.2-0.1-0.3-0.2-0.5c-0.1-0.1-0.3-0.2-0.5-0.2l-1,0l0,1.3l1,0C702.7,374.9,702.9,374.9,703,374.7z"/>
		<path class="st1" d="M708.5,374.9l-2.4,0l-0.4,0.9l-1,0l2.2-5.1l0.8,0l2.2,5l-1,0L708.5,374.9z M708.2,374.1l-0.9-2.1l-0.9,2.1
			L708.2,374.1z"/>
		<path class="st1" d="M714.2,373.7c0.1,0.2,0.2,0.4,0.2,0.7c0,0.3-0.1,0.5-0.2,0.8c-0.1,0.2-0.3,0.4-0.6,0.5
			c-0.2,0.1-0.5,0.2-0.8,0.2l-2.1,0l0-5l2,0c0.3,0,0.6,0.1,0.8,0.2c0.2,0.1,0.4,0.3,0.6,0.5c0.1,0.2,0.2,0.4,0.2,0.7
			c0,0.3-0.1,0.5-0.2,0.7c-0.1,0.2-0.3,0.3-0.5,0.4C713.9,373.3,714.1,373.5,714.2,373.7z M711.7,371.6l0,1.2l0.9,0
			c0.2,0,0.4-0.1,0.5-0.2c0.1-0.1,0.2-0.2,0.2-0.4c0-0.2-0.1-0.3-0.2-0.4c-0.1-0.1-0.3-0.2-0.5-0.2L711.7,371.6z M713.2,374.7
			c0.1-0.1,0.2-0.3,0.2-0.5c0-0.2-0.1-0.3-0.2-0.5c-0.1-0.1-0.3-0.2-0.5-0.2l-1,0l0,1.3l1,0C712.9,374.9,713.1,374.8,713.2,374.7z"
			/>
		<path class="st1" d="M718.9,375.6c-0.3,0.1-0.7,0.2-1,0.2c-0.5,0-0.9-0.1-1.3-0.3c-0.4-0.2-0.7-0.5-0.9-0.9
			c-0.2-0.4-0.4-0.8-0.4-1.3c0-0.5,0.1-0.9,0.3-1.3c0.2-0.4,0.5-0.7,0.9-0.9c0.4-0.2,0.8-0.3,1.3-0.3c0.4,0,0.7,0.1,1,0.2
			c0.3,0.1,0.6,0.3,0.8,0.6l-0.7,0.7c-0.3-0.3-0.7-0.5-1.1-0.5c-0.3,0-0.6,0.1-0.8,0.2c-0.2,0.1-0.4,0.3-0.6,0.6
			c-0.1,0.3-0.2,0.5-0.2,0.8c0,0.3,0.1,0.6,0.2,0.8c0.1,0.2,0.3,0.4,0.6,0.6c0.2,0.1,0.5,0.2,0.8,0.2c0.2,0,0.4,0,0.6-0.1
			c0.2-0.1,0.4-0.2,0.5-0.4l0.7,0.7C719.5,375.3,719.2,375.5,718.9,375.6z"/>
		<path class="st1" d="M721.6,375.5c-0.4-0.2-0.7-0.5-0.9-0.9c-0.2-0.4-0.3-0.8-0.3-1.3c0-0.5,0.1-0.9,0.3-1.3
			c0.2-0.4,0.5-0.7,0.9-0.9c0.4-0.2,0.8-0.4,1.3-0.4s0.9,0.1,1.3,0.4c0.4,0.2,0.7,0.6,0.9,1c0.2,0.4,0.4,0.8,0.4,1.3
			c0,0.5-0.1,0.9-0.3,1.3c-0.2,0.4-0.5,0.7-0.9,1c-0.4,0.2-0.8,0.4-1.3,0.4S722,375.7,721.6,375.5z M723.7,374.7
			c0.2-0.1,0.4-0.3,0.6-0.6c0.1-0.3,0.2-0.5,0.2-0.8c0-0.3-0.1-0.6-0.2-0.8c-0.1-0.3-0.3-0.5-0.6-0.6c-0.2-0.1-0.5-0.2-0.8-0.2
			c-0.3,0-0.6,0.1-0.8,0.2c-0.2,0.1-0.4,0.3-0.6,0.6c-0.1,0.3-0.2,0.5-0.2,0.8s0.1,0.6,0.2,0.8s0.3,0.5,0.6,0.6
			c0.2,0.1,0.5,0.2,0.8,0.2C723.2,374.9,723.5,374.8,723.7,374.7z"/>
		<path class="st1" d="M730,375.6c-0.3,0.1-0.7,0.2-1,0.2c-0.5,0-0.9-0.1-1.3-0.3c-0.4-0.2-0.7-0.5-0.9-0.9
			c-0.2-0.4-0.4-0.8-0.4-1.3c0-0.5,0.1-0.9,0.3-1.3c0.2-0.4,0.5-0.7,0.9-0.9c0.4-0.2,0.8-0.3,1.3-0.3c0.4,0,0.7,0.1,1,0.2
			c0.3,0.1,0.6,0.3,0.8,0.6l-0.7,0.7c-0.3-0.3-0.7-0.5-1.1-0.5c-0.3,0-0.6,0.1-0.8,0.2c-0.2,0.1-0.4,0.3-0.6,0.6
			c-0.1,0.3-0.2,0.5-0.2,0.8c0,0.3,0.1,0.6,0.2,0.8c0.1,0.2,0.3,0.4,0.6,0.6c0.2,0.1,0.5,0.2,0.8,0.2c0.2,0,0.4,0,0.6-0.1
			c0.2-0.1,0.4-0.2,0.5-0.4l0.7,0.7C730.6,375.3,730.3,375.5,730,375.6z"/>
		<path class="st1" d="M734.1,373l1.8,2.7l-1.2,0l-1.3-1.9l-0.6,0.8l0,1.1l-1,0l0-5l1,0l0,2.4l1.9-2.4l1.2,0L734.1,373z"/>
		<path class="st1" d="M742.6,373.6c0.1,0.2,0.2,0.4,0.2,0.7c0,0.3-0.1,0.5-0.2,0.8c-0.1,0.2-0.3,0.4-0.6,0.5s-0.5,0.2-0.8,0.2
			l-2.1,0l0-5l2,0c0.3,0,0.6,0.1,0.8,0.2c0.2,0.1,0.4,0.3,0.6,0.5c0.1,0.2,0.2,0.4,0.2,0.7c0,0.3-0.1,0.5-0.2,0.7
			c-0.1,0.2-0.3,0.3-0.5,0.4C742.3,373.3,742.5,373.4,742.6,373.6z M740.2,371.6l0,1.2l0.9,0c0.2,0,0.4-0.1,0.5-0.2
			c0.1-0.1,0.2-0.2,0.2-0.4c0-0.2-0.1-0.3-0.2-0.4c-0.1-0.1-0.3-0.2-0.5-0.2L740.2,371.6z M741.7,374.7c0.1-0.1,0.2-0.3,0.2-0.5
			c0-0.2-0.1-0.3-0.2-0.5c-0.1-0.1-0.3-0.2-0.5-0.2l-1,0l0,1.3l1,0C741.4,374.9,741.5,374.8,741.7,374.7z"/>
		<path class="st1" d="M747.2,374.8l0,0.9l-3.3,0l0-5l1,0l0,4.1L747.2,374.8z"/>
		<path class="st1" d="M752.4,370.7l-2.2,5.1l-0.8,0l-2.2-5l1,0l1.5,3.6l1.5-3.6L752.4,370.7z"/>
		<path class="st1" d="M756.3,371c0.4,0.2,0.7,0.5,0.9,0.9c0.2,0.4,0.3,0.8,0.3,1.3c0,0.5-0.1,0.9-0.3,1.3c-0.2,0.4-0.5,0.7-0.9,0.9
			c-0.4,0.2-0.8,0.3-1.3,0.3l-1.6,0l0-5l1.6,0C755.5,370.7,755.9,370.8,756.3,371z M755.8,374.6c0.2-0.1,0.4-0.3,0.6-0.6
			c0.1-0.2,0.2-0.5,0.2-0.8c0-0.3-0.1-0.6-0.2-0.8c-0.1-0.2-0.3-0.4-0.6-0.6c-0.2-0.1-0.5-0.2-0.8-0.2l-0.7,0l0,3.2l0.7,0
			C755.3,374.8,755.5,374.7,755.8,374.6z"/>
		<path class="st1" d="M760.5,370.7l1,0l1.3,3.3l1.1-3.3l0.6,0l1.2,3.3l1.2-3.3l1,0l-2,5.1l-0.7,0l-1.1-3.2l-1.2,3.2l-0.6,0
			L760.5,370.7z"/>
		<rect x="732.2" y="371.7" style="fill:none;" width="0" height="1.3"/>
		<text transform="matrix(1 0 0 1 739.3484 374.3098)" style="font-family:'MyriadPro-Regular'; font-size:5.6525px;">   </text>
	</g>
</g>
<path class="st2" d="M661.1,389.3h-39.4c-4.5,0-8.2-3.7-8.2-8.2v-39.9c0-4.5,3.7-8.2,8.2-8.2h39.4c4.5,0,8.2,3.7,8.2,8.2v39.9
	C669.3,385.6,665.6,389.3,661.1,389.3z"/>
</svg>
