<?xml version="1.0" encoding="utf-8"?>
<!-- Generator: Adobe Illustrator 28.1.0, SVG Export Plug-In . SVG Version: 6.00 Build 0)  -->
<svg version="1.1" id="Layer_1" xmlns="http://www.w3.org/2000/svg" xmlns:xlink="http://www.w3.org/1999/xlink" x="0px" y="0px"
	 width="171.7px" height="228.5px" viewBox="0 0 171.7 228.5" style="enable-background:new 0 0 171.7 228.5;" xml:space="preserve"
	>
<style type="text/css">
	.st0{fill:#FFFFFF;}
	.st1{fill:#231F20;}
</style>
<path d="M132.6,146.2H39.1c-10.8,0-19.5-8.7-19.5-19.5V31.9c0-10.8,8.7-19.5,19.5-19.5h93.5c10.8,0,19.5,8.7,19.5,19.5v94.8
	C152.1,137.5,143.4,146.2,132.6,146.2z"/>
<g>
	<path class="st0" d="M58.5,124.2c-1.2,0.7-2.2-1.4-1.3-2.4c16.1-16.5,73.2-21.4,61.9-2.2c-0.1,3.7-1.6,3.7-1.6,3.7
		C119.7,117.9,86,107.6,58.5,124.2z"/>
	<g>
		<path class="st0" d="M59,94.4c0,0.9,1.3,1.1,1.6,0.2c4-12.2,8.3-38.9,4-47.2c-0.4-0.8-0.5-1.9-1.2-2.7c-0.5-0.4-0.1-1.1,0.5-0.9
			c9.6-0.2,7.8,12,7.3,18.1c-0.7,7.2-6.2,38-9.9,40.5c-2.4,1.7-9.6,1.4-9.6-1.5c0.1-3.9-0.3-32.9-4-44.4c-0.9-2.9-2-5.8-5.8-5.8
			c-9.5,0.1-13.5,17.9-6.1,24.2c0.4,0.4,0.9,0.9,0.6,1.6c-0.2,0.5-0.7,0.5-1.3,0.4c-4.6-1.1-7.8-5.6-8.2-10.2
			c-1.6-10.8,6-20.4,16.6-18.9c2.4,0.3,6.3,1.8,8.1,3.3C57.3,55.9,58.6,83.2,59,94.4z"/>
		<g>
			<path class="st0" d="M80.2,53.9c7.3-0.4,2.3,7.7-1.2,9.7c-4,2.2-3.3-5.7-2.5-7.7C76.7,54.6,78.1,54,80.2,53.9z"/>
			<path class="st0" d="M117.3,92.7c-0.2-0.7-1.3-0.8-1.6-0.1c-0.5,1.7-1.3,3.4-2.3,4.4c-2.1,1.9-4.3,1.5-5.5-0.3
				c-0.3-0.5-1.1-0.4-1.4,0.1c-2.9,5.6-8.3,5.6-10.5-0.5c-0.2-0.6-1.1-0.7-1.5-0.2c-1.5,2.4-3.5,4.4-6.1,3.4c-2-0.6-3.1-3.8-3.7-6.3
				c-0.2-0.7-1.2-0.8-1.5-0.1c-0.5,1.1-1.1,2.1-1.3,2.4c-3.5,8.2-10.6,6-11.2-2.3c-0.6-5.7,0.2-11.3,1.5-16.9
				c0.3-2.6,3.2-2.8,5.1-2.3c2.2,0.7,0.9,3.5,0.8,5.2C77.8,81.7,75.4,94,78,94.8c0.9,0.1,1.2-0.7,1.5-1.4c2.2-4.4,4.1-9.5,4.4-14.3
				c0.1-1.5,1.8-10,2-11.1c0.4-2.3,2.8-17.8,7.3-19.1c3.3-0.9,4.3,1.1,3.5,3.4C96,54.4,92.5,66,92,68.3c-0.1,0.6-0.9,5.8-1.1,6.3
				c-0.5,5.8-1.6,11.8-0.3,17.5c0.2,0.6,0.5,2.5,1.5,2.5c2.2,0.1,3.5-8.4,3.7-10.2c0.8-5.7,2.4-12.5,7.6-16l0.1-0.1
				c2.7-1.5,5.6-0.5,6.4,2.2c0.2,0.5,0.4,0.7,1.1,0.8c1.7,0,2.1,0.4,2,2.1c0,6-1.8,12-1.5,17.9c0.1,0.4,0.2,1.9,0.7,2
				c1.6-0.1,2.4-4.9,2.8-6.3v0c2.1-10.6,1.3-22.7,4.8-33.3c1.1-4.5,6.5-16.3,12.3-10.1c0.1,0.1,0.1,0.2,0.2,0.3
				c3.9,10.2-5.3,26.2-8.9,36.1c-1.8,3.9-1.5,12,0.8,15.4c3.8,3.1,6.8-9.7,7.4-11.9c0.1-0.9,0.2-1.8,1.3-1.7
				c1.5,0.3,0.3,2.2,0.1,3.2c-1.1,4.9-1.7,10.4-4.9,14.5l-0.1,0.1C122.6,104.8,118.9,98.2,117.3,92.7z M101.1,89.9
				c0.1,1.2-0.2,4.7,0.9,5.7c0.3,0.2,0.6,0.2,0.9,0c2.7-2.2,4.8-17.2,5.2-20.2c0.1-1.2,0.5-3.2-0.7-3.7c-0.1-0.1-0.3-0.1-0.5,0
				C103.2,72.5,101.1,86.9,101.1,89.9z M124.8,69.5c2.2-7.1,4.9-17.2,4.3-21.2c-0.1-0.7-1.2-0.9-1.5-0.3c-2,3.4-3.6,13.8-4.4,21.1
				C123.1,70.1,124.4,70.4,124.8,69.5z"/>
			<path class="st0" d="M79.3,68.7c-0.2-0.5,0.1-1.1,0.6-1.2c4.1-0.5,20-2.7,20.3-1.8c0.4,1.2-3.8,3.9-4.4,4.3
				c-0.1,0-0.1,0.1-0.2,0.1L87,73c-0.1,0-0.2,0-0.3,0C85.8,73,80.9,72.5,79.3,68.7z"/>
		</g>
	</g>
</g>
<g>
	<path class="st1" d="M35.4,159.3l-5.2,11.9h-1.9l-5.4-11.9h2.4l3.7,8.5l3.6-8.5H35.4z"/>
	<path class="st1" d="M37.7,159.3H40v11.9h-2.3V159.3z"/>
	<path class="st1" d="M52.2,161.5h-3.6v9.6h-2.3v-9.6h-3.6v-2.2h9.6C52.2,159.3,52.2,161.5,52.2,161.5z"/>
	<path class="st1" d="M61.3,169.1h-6l-0.8,2.1h-2.4l5.2-11.9h1.9l5.2,11.9H62L61.3,169.1z M60.5,167.1l-2.1-4.8l-2.1,4.8H60.5z"/>
	<path class="st1" d="M74.9,169v2.2h-8v-11.9h2.3v9.6H74.9z"/>
	<path class="st1" d="M94.6,159.3l-5.2,11.9h-1.9l-5.4-11.9h2.4l3.7,8.5l3.6-8.5H94.6z"/>
	<path class="st1" d="M97,159.3h2.3v11.9H97V159.3z"/>
	<path class="st1" d="M103.3,170.5c-0.7-0.5-1.3-1.3-1.5-2.2l2.2-0.8c0.2,0.5,0.3,1,0.7,1.3c0.5,0.3,0.8,0.4,1.3,0.4
		c0.6,0,1-0.2,1.3-0.4c0.3-0.3,0.5-0.5,0.5-1c0-0.4-0.2-0.8-0.6-1.1c-0.3-0.3-0.8-0.4-1.6-0.7c-1.1-0.3-2.1-0.7-2.8-1.1
		c-0.7-0.5-1-1.4-1-2.3c0-0.7,0.2-1.3,0.6-1.7c0.3-0.5,0.8-1,1.5-1.3c0.6-0.3,1.3-0.4,2.1-0.4c0.8,0,1.8,0.3,2.4,0.7
		c0.7,0.4,1.1,1.1,1.5,2l-2.2,0.8c-0.2-0.4-0.3-0.7-0.7-1c-0.3-0.3-0.7-0.4-1.1-0.4s-0.8,0.2-1.1,0.3c-0.3,0.3-0.5,0.5-0.5,0.8
		c0,0.7,0.7,1.1,2.2,1.5c1.1,0.3,2.1,0.7,2.8,1.3s1,1.4,1,2.5c0,0.7-0.2,1.3-0.5,1.8c-0.3,0.5-0.7,1-1.5,1.3
		c-0.6,0.3-1.3,0.4-2.2,0.4C104.9,171.3,104.1,171,103.3,170.5z"/>
	<path class="st1" d="M122.4,159.3v6.8c0,1-0.2,2-0.6,2.8c-0.5,0.8-0.8,1.4-1.6,1.8c-0.7,0.4-1.6,0.7-2.6,0.7s-1.9-0.3-2.6-0.7
		c-0.7-0.4-1.3-1-1.8-1.8c-0.5-0.8-0.6-1.7-0.6-2.8v-6.8h2.3v6.8c0,1,0.3,1.7,0.7,2.1c0.5,0.5,1,0.8,1.9,0.8c0.8,0,1.5-0.3,1.9-0.8
		c0.5-0.5,0.7-1.3,0.7-2.1v-6.8H122.4z"/>
	<path class="st1" d="M133,169.1h-5.9l-0.8,2.1h-2.4l5.2-11.9h1.9l5.2,11.9h-2.4L133,169.1z M132.1,167.1l-2.1-4.8l-2.1,4.8H132.1z"
		/>
	<path class="st1" d="M146.5,168.8v2.2h-8v-11.9h2.3v9.6H146.5z"/>
</g>
<g>
	<path class="st1" d="M24.4,185.5v8.1h-1.6v-6.2l-1.1,0.4l-0.6-1.3l2.3-1H24.4z"/>
	<path class="st1" d="M29.2,185.5v8.1h-1.6v-6.2l-1.1,0.4l-0.6-1.3l2.3-1H29.2z"/>
	<path class="st1" d="M34,185.5v8.1h-1.6v-6.2l-1.1,0.4l-0.6-1.3l2.3-1H34z"/>
	<path class="st1" d="M45.4,190.3c0.2,0.3,0.3,0.7,0.3,1.1c0,0.5-0.1,0.9-0.3,1.2c-0.2,0.4-0.5,0.6-0.9,0.8
		c-0.4,0.2-0.8,0.3-1.2,0.3h-3.4v-8.1H43c0.5,0,1,0.1,1.3,0.3c0.4,0.2,0.7,0.5,0.9,0.9s0.3,0.8,0.3,1.1s-0.1,0.8-0.3,1.1
		c-0.2,0.3-0.4,0.6-0.8,0.8C44.9,189.7,45.2,189.9,45.4,190.3z M41.4,187v1.9h1.5c0.4,0,0.6-0.1,0.8-0.3c0.2-0.2,0.3-0.4,0.3-0.7
		s-0.1-0.5-0.3-0.7c-0.2-0.2-0.5-0.3-0.8-0.3H41.4z M43.8,191.9c0.2-0.2,0.3-0.5,0.3-0.8s-0.1-0.6-0.3-0.8c-0.2-0.2-0.5-0.3-0.9-0.3
		h-1.5v2h1.5C43.3,192.2,43.6,192.1,43.8,191.9z"/>
	<path class="st1" d="M52.7,192.2h-3.9l-0.6,1.4h-1.6l3.4-8.1h1.2l3.4,8.1H53L52.7,192.2z M52.1,190.9l-1.3-3.3l-1.3,3.3H52.1z"/>
	<path class="st1" d="M62.3,190c0.2,0.3,0.3,0.6,0.3,1c0,0.4-0.1,0.8-0.3,1.2c-0.2,0.4-0.5,0.5-0.8,0.7c-0.4,0.2-0.7,0.3-1.2,0.3
		h-3.4v-7.6h3.1c0.5,0,0.9,0.1,1.3,0.3c0.4,0.2,0.7,0.4,0.8,0.8s0.3,0.7,0.3,1.1s-0.1,0.7-0.3,1s-0.4,0.5-0.7,0.7
		C61.8,189.5,62.1,189.7,62.3,190z M58.4,186.9v1.8h1.5c0.4,0,0.6-0.1,0.7-0.3c0.2-0.2,0.3-0.4,0.3-0.6s-0.1-0.4-0.3-0.6
		c-0.2-0.2-0.5-0.3-0.7-0.3H58.4z M60.8,191.6c0.2-0.2,0.3-0.4,0.3-0.7s-0.1-0.5-0.3-0.7c-0.2-0.2-0.5-0.3-0.8-0.3h-1.5v1.9h1.5
		C60.3,191.9,60.6,191.8,60.8,191.6z"/>
	<path class="st1" d="M69.3,193.5c-0.5,0.2-1.1,0.3-1.6,0.3c-0.8,0-1.4-0.2-2.1-0.6c-0.7-0.4-1.1-0.9-1.5-1.5
		c-0.4-0.7-0.6-1.3-0.6-2.1c0-0.8,0.2-1.5,0.6-2.1c0.4-0.7,0.9-1.1,1.5-1.5c0.7-0.4,1.3-0.6,2.1-0.6c0.6,0,1.1,0.1,1.6,0.3
		c0.5,0.2,1,0.5,1.3,1l-1.1,1.1c-0.5-0.6-1.1-0.8-1.8-0.8c-0.5,0-0.9,0.1-1.2,0.4s-0.7,0.6-1,1c-0.2,0.4-0.4,0.9-0.4,1.3
		c0,0.5,0.1,0.9,0.4,1.3c0.2,0.4,0.6,0.7,1,1c0.4,0.2,0.9,0.4,1.2,0.4s0.7-0.1,1.1-0.2c0.3-0.1,0.6-0.4,0.9-0.6l1.1,1.1
		C70.3,192.9,69.8,193.2,69.3,193.5z"/>
	<path class="st1" d="M73.7,193.2c-0.7-0.4-1.1-0.9-1.5-1.5c-0.4-0.7-0.6-1.3-0.6-2.1c0-0.8,0.2-1.4,0.6-2.1s0.9-1.1,1.5-1.5
		c0.7-0.4,1.3-0.6,2.1-0.6s1.4,0.2,2.1,0.6c0.7,0.4,1.1,0.9,1.5,1.5c0.4,0.7,0.6,1.3,0.6,2.1c0,0.8-0.2,1.4-0.6,2.1
		s-0.9,1.1-1.5,1.5c-0.7,0.4-1.3,0.6-2.1,0.6C75,193.7,74.4,193.6,73.7,193.2z M77,191.8c0.4-0.2,0.7-0.6,1-1
		c0.2-0.4,0.4-0.9,0.3-1.3c-0.1-0.5-0.1-1-0.4-1.3s-0.6-0.8-1-1s-0.9-0.4-1.3-0.4s-1,0.1-1.3,0.4c-0.4,0.2-0.7,0.6-1,1
		c-0.2,0.4-0.3,0.9-0.3,1.3c0,0.5,0.1,1,0.3,1.3c0.2,0.4,0.5,0.8,1,1c0.4,0.2,0.9,0.4,1.3,0.4C76.3,192.2,76.7,192.1,77,191.8z"/>
	<path class="st1" d="M87.2,193.4c-0.5,0.2-1.1,0.3-1.6,0.3c-0.8,0-1.4-0.2-2.1-0.6c-0.7-0.4-1.1-0.9-1.5-1.5
		c-0.4-0.7-0.6-1.3-0.6-2.1c0-0.8,0.2-1.5,0.6-2.1c0.4-0.7,0.9-1.1,1.5-1.5c0.7-0.4,1.3-0.6,2.1-0.6c0.6,0,1.1,0.1,1.6,0.3
		c0.5,0.2,1,0.5,1.3,1l-1.1,1.1c-0.5-0.6-1.1-0.8-1.8-0.8c-0.5,0-0.9,0.1-1.2,0.4c-0.4,0.2-0.7,0.6-1,1c-0.2,0.4-0.4,0.9-0.4,1.3
		c0,0.5,0.1,0.9,0.4,1.3c0.2,0.4,0.6,0.7,1,1c0.4,0.2,0.9,0.4,1.2,0.4c0.4,0,0.7-0.1,1.1-0.2c0.3-0.1,0.6-0.4,0.9-0.6l1.1,1.1
		C88.1,192.9,87.7,193.2,87.2,193.4z"/>
	<path class="st1" d="M93.7,189.2l3,4.4h-1.9l-2-3.1l-1,1.2v1.8h-1.5v-8.1h1.5v3.9l3-3.9h1.9L93.7,189.2z"/>
	<path class="st1" d="M107.5,190.2c0.2,0.3,0.3,0.7,0.3,1.1c0,0.5-0.1,0.9-0.3,1.2c-0.2,0.4-0.5,0.6-0.9,0.8s-0.8,0.3-1.2,0.3h-3.4
		v-8.1h3.2c0.5,0,1,0.1,1.3,0.3s0.7,0.5,0.9,0.9c0.2,0.4,0.3,0.8,0.3,1.1s-0.1,0.8-0.3,1.1c-0.2,0.3-0.4,0.6-0.8,0.8
		C107,189.6,107.3,189.9,107.5,190.2z M103.5,186.9v1.9h1.5c0.4,0,0.6-0.1,0.8-0.3c0.2-0.2,0.3-0.4,0.3-0.7s-0.1-0.5-0.3-0.7
		s-0.5-0.3-0.8-0.3H103.5z M105.8,191.8c0.2-0.2,0.3-0.5,0.3-0.8s-0.1-0.6-0.3-0.8s-0.5-0.3-0.9-0.3h-1.5v2h1.5
		C105.4,192.1,105.7,192,105.8,191.8z"/>
	<path class="st1" d="M114.7,192v1.5h-5.3v-8.1h1.5v6.6H114.7z"/>
	<path class="st1" d="M123.2,185.4l-3.4,8.1h-1.2l-3.5-8.1h1.6l2.5,5.8l2.4-5.8H123.2z"/>
	<path class="st1" d="M129.4,186c0.6,0.4,1.1,0.9,1.4,1.4c0.4,0.6,0.5,1.3,0.5,2.1c0,0.8-0.2,1.4-0.5,2.1c-0.4,0.6-0.9,1.1-1.4,1.4
		c-0.6,0.4-1.3,0.5-2.1,0.5h-2.6v-8.1h2.6C128,185.4,128.7,185.6,129.4,186z M128.5,191.7c0.4-0.2,0.7-0.5,0.9-0.9s0.3-0.9,0.3-1.3
		c0-0.5-0.1-1-0.3-1.3s-0.5-0.7-0.9-0.9s-0.8-0.3-1.2-0.3h-1.1v5.1h1.1C127.8,192,128.1,191.9,128.5,191.7z"/>
	<path class="st1" d="M136.1,185.4h1.7l2.1,5.4l1.8-5.4h1.1l1.9,5.4l1.9-5.4h1.7l-3.2,8.1h-1.1l-1.8-5.2l-1.8,5.2h-1.1L136.1,185.4z
		"/>
	<path class="st1" d="M33.3,207.4c0.6,0.4,1.1,0.9,1.4,1.4c0.4,0.6,0.5,1.3,0.5,2.1c0,0.8-0.2,1.4-0.5,2.1c-0.4,0.6-0.9,1.1-1.4,1.4
		S32,215,31.2,215h-2.6v-8.1h2.6C32,206.9,32.8,207.1,33.3,207.4z M32.5,213.2c0.4-0.2,0.7-0.5,0.9-0.9c0.2-0.4,0.3-0.9,0.3-1.3
		c0-0.5-0.1-1-0.3-1.3c-0.2-0.4-0.5-0.7-0.9-0.9s-0.8-0.3-1.2-0.3h-1.1v5.1h1.1C31.7,213.5,32.1,213.5,32.5,213.2z"/>
	<path class="st1" d="M38.6,208.4v1.7h3.3v1.5h-3.3v1.9h3.5v1.5h-5.1v-8.1h5.1v1.5L38.6,208.4z"/>
	<path class="st1" d="M49.2,213.5v1.5h-5.3v-8.1h1.5v6.6H49.2z"/>
	<path class="st1" d="M56.6,213.6h-3.9l-0.6,1.4h-1.6l3.4-8.1h1.2l3.4,8.1H57L56.6,213.6z M56,212.3l-1.3-3.3l-1.3,3.3H56z"/>
	<path class="st1" d="M60.8,205.6H62l3.9,4.8v-4.8h1.5v7.6h-1.2l-3.9-4.8v4.8h-1.5L60.8,205.6z"/>
	<path class="st1" d="M70.8,214.6c-0.7-0.4-1.1-0.9-1.5-1.5c-0.4-0.7-0.6-1.3-0.6-2.1c0-0.8,0.2-1.4,0.6-2.1
		c0.4-0.7,0.9-1.1,1.5-1.5c0.7-0.4,1.3-0.6,2.1-0.6c0.8,0,1.4,0.2,2.1,0.6c0.7,0.4,1.1,0.9,1.5,1.5c0.4,0.7,0.6,1.3,0.6,2.1
		c0,0.8-0.2,1.4-0.6,2.1c-0.4,0.7-0.9,1.1-1.5,1.5c-0.7,0.4-1.3,0.6-2.1,0.6C72.2,215.2,71.5,215,70.8,214.6z M74.3,213.3
		c0.4-0.2,0.7-0.6,1-1c0.2-0.4,0.4-0.9,0.3-1.3c0-0.5-0.1-1-0.4-1.3c-0.2-0.4-0.6-0.8-1-1c-0.4-0.2-0.9-0.4-1.3-0.4
		c-0.5,0-1,0.1-1.3,0.4c-0.4,0.2-0.7,0.6-1,1c-0.2,0.4-0.3,0.9-0.3,1.3c0,0.5,0.1,1,0.3,1.3s0.5,0.8,1,1c0.4,0.2,0.9,0.4,1.3,0.4
		C73.4,213.6,73.9,213.5,74.3,213.3z"/>
	<path class="st1" d="M78.6,213.5h1.5l-0.9,2.7h-1.3L78.6,213.5z"/>
	<path class="st1" d="M85.6,206.9h1.3l2.8,4l2.8-4h1.3v8.1h-1.5v-5.2l-2,2.9h-1.1l-2-2.9v5.2h-1.5L85.6,206.9z"/>
	<path class="st1" d="M95.8,206.9H97l4,5.2v-5.2h1.5v8.1h-1.2l-4-5.2v5.2h-1.5V206.9z"/>
	<path class="st1" d="M112.3,209.8c0.4,0.2,0.7,0.6,1,1c0.2,0.4,0.4,0.9,0.4,1.4s-0.1,1.1-0.4,1.4c-0.3,0.4-0.6,0.8-1,1
		c-0.4,0.3-0.9,0.4-1.4,0.4c-0.5,0-1.1-0.1-1.5-0.4c-0.5-0.3-0.9-0.6-1.1-1.1l1.1-1.1c0.3,0.3,0.6,0.6,0.8,0.7s0.6,0.2,0.9,0.2
		c0.4,0,0.7-0.1,1-0.4c0.2-0.3,0.4-0.6,0.4-1s-0.1-0.7-0.4-1c-0.3-0.2-0.6-0.4-1-0.4c-0.5,0-1,0.2-1.3,0.6l-1.1-0.7l0.8-4.1h3.9v1.5
		h-2.7l-0.3,1.3c0.3-0.1,0.6-0.1,1-0.1C111.4,209.5,111.8,209.6,112.3,209.8z"/>
	<path class="st1" d="M119,209.8c0.4,0.2,0.7,0.6,1,1c0.2,0.4,0.4,0.9,0.4,1.4s-0.1,1.1-0.4,1.4s-0.6,0.8-1,1
		c-0.4,0.2-0.9,0.4-1.4,0.4c-0.5,0-1.1-0.1-1.5-0.4c-0.5-0.3-0.9-0.6-1.1-1.1l1.1-1.1c0.3,0.3,0.6,0.6,0.8,0.8
		c0.3,0.2,0.6,0.2,0.9,0.2c0.4,0,0.7-0.1,1-0.4c0.2-0.3,0.4-0.6,0.4-1s-0.1-0.7-0.4-1c-0.3-0.2-0.6-0.4-1-0.4c-0.5,0-1,0.2-1.3,0.6
		l-1.1-0.7l0.8-4.1h3.9v1.5h-2.7l-0.3,1.3c0.3-0.1,0.6-0.1,1-0.1C118.1,209.5,118.6,209.6,119,209.8z"/>
	<path class="st1" d="M126.5,210.8c0.4,0.5,0.5,1.1,0.5,1.6c0,0.5-0.1,1-0.4,1.3c-0.2,0.4-0.6,0.8-1,1c-0.4,0.3-1,0.4-1.4,0.4
		c-0.6,0-1.1-0.1-1.5-0.4c-0.5-0.2-0.9-0.6-1.1-1.1l1.1-0.9c0.2,0.3,0.4,0.5,0.7,0.6c0.3,0.2,0.6,0.2,0.9,0.2c0.4,0,0.7-0.1,1-0.4
		c0.2-0.2,0.4-0.5,0.4-0.9s-0.2-0.7-0.5-1c-0.3-0.3-0.7-0.4-1.1-0.4h-0.6v-1l1.4-1.9H122v-1.3h4.8v1l-1.6,2.1
		C125.6,210,126.1,210.3,126.5,210.8z"/>
	<path class="st1" d="M128.8,213.9c0-0.6,0.1-1.1,0.3-1.4s0.4-0.8,0.8-1.1c0.4-0.3,0.8-0.7,1.3-1c0.8-0.5,1.1-0.9,1.1-1.4
		c0-0.3-0.1-0.5-0.3-0.7s-0.5-0.3-0.8-0.3c-0.3,0-0.6,0.1-0.8,0.3s-0.4,0.4-0.5,0.8l-1.3-0.6c0.2-0.6,0.5-1.1,1-1.3
		c0.5-0.4,1.1-0.5,1.6-0.5c0.5,0,1,0.1,1.3,0.3s0.7,0.5,1,0.9c0.2,0.4,0.3,0.8,0.3,1.2c0,0.6-0.2,1.1-0.5,1.5s-0.9,0.9-1.6,1.2
		c-0.5,0.3-0.8,0.5-1,0.8s-0.3,0.6-0.4,0.9h3.5v1.5h-5.2V213.9z"/>
	<path class="st1" d="M140.8,211.4c0.2,0.3,0.3,0.7,0.3,1.1s-0.1,1-0.4,1.2s-0.6,0.7-1,0.9s-0.9,0.3-1.4,0.3c-0.6,0-1.1-0.1-1.4-0.3
		s-0.8-0.5-1-0.9s-0.4-0.8-0.4-1.2c0-0.4,0.1-0.8,0.3-1.1c0.2-0.3,0.5-0.6,0.8-0.8c-0.3-0.2-0.5-0.5-0.7-0.8s-0.2-0.7-0.2-1
		c0-0.4,0.1-0.8,0.3-1.1c0.2-0.4,0.5-0.7,0.9-0.9s0.9-0.3,1.3-0.3c0.5,0,1,0.1,1.3,0.3s0.7,0.5,0.9,0.9c0.2,0.4,0.3,0.8,0.3,1.1
		s-0.1,0.7-0.2,1c-0.2,0.3-0.4,0.6-0.7,0.8C140.4,210.9,140.6,211.2,140.8,211.4z M139.2,213.4c0.2-0.2,0.3-0.5,0.3-0.9
		s-0.1-0.6-0.4-0.9s-0.5-0.3-0.9-0.3c-0.3,0-0.6,0.1-0.9,0.3c-0.2,0.2-0.4,0.5-0.4,0.9s0.1,0.7,0.3,0.9s0.5,0.3,0.9,0.3
		C138.8,213.6,139,213.5,139.2,213.4z M137.6,208.4c-0.2,0.2-0.3,0.4-0.3,0.7s0.1,0.5,0.3,0.7s0.4,0.3,0.8,0.3
		c0.3,0,0.6-0.1,0.8-0.3s0.3-0.4,0.3-0.7s-0.1-0.5-0.3-0.7s-0.4-0.3-0.8-0.3C138,208.1,137.8,208.2,137.6,208.4z"/>
</g>
</svg>
