<?xml version="1.0" encoding="utf-8"?>
<!-- Generator: Adobe Illustrator 28.1.0, SVG Export Plug-In . SVG Version: 6.00 Build 0)  -->
<svg version="1.1" id="Layer_1" xmlns="http://www.w3.org/2000/svg" xmlns:xlink="http://www.w3.org/1999/xlink" x="0px" y="0px"
	 width="171.7px" height="228.5px" viewBox="0 0 171.7 228.5" style="enable-background:new 0 0 171.7 228.5;" xml:space="preserve"
	>
<style type="text/css">
	.st0{fill:#FFFFFF;}
	.st1{fill:#231F20;}
</style>
<path d="M132.7,146.2H39.2c-10.8,0-19.5-8.7-19.5-19.5V31.9c0-10.8,8.7-19.5,19.5-19.5h93.5c10.8,0,19.5,8.7,19.5,19.5v94.8
	C152.2,137.5,143.5,146.2,132.7,146.2z"/>
<g>
	<path class="st0" d="M58.5,124.2c-1.2,0.7-2.2-1.4-1.3-2.4c16.1-16.5,73.2-21.4,61.9-2.2c-0.1,3.7-1.6,3.7-1.6,3.7
		C119.7,117.9,86,107.6,58.5,124.2z"/>
	<g>
		<path class="st0" d="M59,94.4c0,0.9,1.3,1.1,1.6,0.2c4-12.2,8.3-38.9,4-47.2c-0.4-0.8-0.5-1.9-1.2-2.7c-0.5-0.4-0.1-1.1,0.5-0.9
			c9.6-0.2,7.8,12,7.3,18.1c-0.7,7.2-6.2,38-9.9,40.5c-2.4,1.7-9.6,1.4-9.6-1.5c0.1-3.9-0.3-32.9-4-44.4c-0.9-2.9-2-5.8-5.8-5.8
			c-9.5,0.1-13.5,17.9-6.1,24.2c0.4,0.4,0.9,0.9,0.6,1.6c-0.2,0.5-0.7,0.5-1.3,0.4c-4.6-1.1-7.8-5.6-8.2-10.2
			c-1.6-10.8,6-20.4,16.6-18.9c2.4,0.3,6.3,1.8,8.1,3.3C57.3,55.9,58.6,83.2,59,94.4z"/>
		<g>
			<path class="st0" d="M80.2,53.9c7.3-0.4,2.3,7.7-1.2,9.7c-4,2.2-3.3-5.7-2.5-7.7C76.7,54.6,78.1,54,80.2,53.9z"/>
			<path class="st0" d="M117.3,92.7c-0.2-0.7-1.3-0.8-1.6-0.1c-0.5,1.7-1.3,3.4-2.3,4.4c-2.1,1.9-4.3,1.5-5.5-0.3
				c-0.3-0.5-1.1-0.4-1.4,0.1c-2.9,5.6-8.3,5.6-10.5-0.5c-0.2-0.6-1.1-0.7-1.5-0.2c-1.5,2.4-3.5,4.4-6.1,3.4c-2-0.6-3.1-3.8-3.7-6.3
				c-0.2-0.7-1.2-0.8-1.5-0.1c-0.5,1.1-1.1,2.1-1.3,2.4c-3.5,8.2-10.6,6-11.2-2.3c-0.6-5.7,0.2-11.3,1.5-16.9
				c0.3-2.6,3.2-2.8,5.1-2.3c2.2,0.7,0.9,3.5,0.8,5.2C77.8,81.7,75.4,94,78,94.8c0.9,0.1,1.2-0.7,1.5-1.4c2.2-4.4,4.1-9.5,4.4-14.3
				c0.1-1.5,1.8-10,2-11.1c0.4-2.3,2.8-17.8,7.3-19.1c3.3-0.9,4.3,1.1,3.5,3.4C96,54.4,92.5,66,92,68.3c-0.1,0.6-0.9,5.8-1.1,6.3
				c-0.5,5.8-1.6,11.8-0.3,17.5c0.2,0.6,0.5,2.5,1.5,2.5c2.2,0.1,3.5-8.4,3.7-10.2c0.8-5.7,2.4-12.5,7.6-16l0.1-0.1
				c2.7-1.5,5.6-0.5,6.4,2.2c0.2,0.5,0.4,0.7,1.1,0.8c1.7,0,2.1,0.4,2,2.1c0,6-1.8,12-1.5,17.9c0.1,0.4,0.2,1.9,0.7,2
				c1.6-0.1,2.4-4.9,2.8-6.3l0,0c2.1-10.6,1.3-22.7,4.8-33.3c1.1-4.5,6.5-16.3,12.3-10.1c0.1,0.1,0.1,0.2,0.2,0.3
				c3.9,10.2-5.3,26.2-8.9,36.1c-1.8,3.9-1.5,12,0.8,15.4c3.8,3.1,6.8-9.7,7.4-11.9c0.1-0.9,0.2-1.8,1.3-1.7
				c1.5,0.3,0.3,2.2,0.1,3.2c-1.1,4.9-1.7,10.4-4.9,14.5l-0.1,0.1C122.6,104.8,118.9,98.2,117.3,92.7z M101.1,89.9
				c0.1,1.2-0.2,4.7,0.9,5.7c0.3,0.2,0.6,0.2,0.9,0c2.7-2.2,4.8-17.2,5.2-20.2c0.1-1.2,0.5-3.2-0.7-3.7c-0.1-0.1-0.3-0.1-0.5,0
				C103.2,72.5,101.1,86.9,101.1,89.9z M124.8,69.5c2.2-7.1,4.9-17.2,4.3-21.2c-0.1-0.7-1.2-0.9-1.5-0.3c-2,3.4-3.6,13.8-4.4,21.1
				C123.1,70.1,124.4,70.4,124.8,69.5z"/>
			<path class="st0" d="M79.3,68.7c-0.2-0.5,0.1-1.1,0.6-1.2c4.1-0.5,20-2.7,20.3-1.8c0.4,1.2-3.8,3.9-4.4,4.3
				c-0.1,0-0.1,0.1-0.2,0.1L87,73c-0.1,0-0.2,0-0.3,0C85.8,73,80.9,72.5,79.3,68.7z"/>
		</g>
	</g>
</g>
<g>
	<path class="st1" d="M45.1,159.6l-4.7,10.7h-1.7l-4.9-10.7H36l3.3,7.7l3.2-7.7H45.1z"/>
	<path class="st1" d="M46.4,159.6h2.1v10.7h-2.1V159.6z"/>
	<path class="st1" d="M59.4,161.7h-3.2v8.7h-2.1v-8.7h-3.2v-2h8.7C59.4,159.7,59.4,161.7,59.4,161.7z"/>
	<path class="st1" d="M66.6,168.4h-5.4l-0.7,1.9h-2.2l4.7-10.7h1.7l4.7,10.7h-2.2L66.6,168.4z M65.8,166.6l-1.9-4.3l-1.9,4.3H65.8z"
		/>
	<path class="st1" d="M78.3,168.4v2H71v-10.7h2.1v8.7L78.3,168.4L78.3,168.4z"/>
	<path class="st1" d="M92.8,159.6l-4.7,10.7h-1.7l-4.9-10.7h2.2l3.3,7.7l3.2-7.7H92.8z"/>
	<path class="st1" d="M94,159.6h2.1v10.7H94V159.6z"/>
	<path class="st1" d="M99.7,169.7c-0.6-0.5-1.2-1.2-1.4-2l2-0.7c0.2,0.5,0.3,0.9,0.6,1.2c0.5,0.3,0.7,0.4,1.2,0.4
		c0.5,0,0.9-0.2,1.2-0.4c0.3-0.3,0.5-0.5,0.5-0.9c0-0.4-0.2-0.7-0.5-1c-0.3-0.3-0.7-0.4-1.4-0.6c-1-0.3-1.9-0.6-2.5-1
		c-0.6-0.5-0.9-1.3-0.9-2.1c0-0.6,0.2-1.2,0.5-1.5c0.3-0.5,0.7-0.9,1.4-1.2c0.5-0.3,1.2-0.4,1.9-0.4c0.7,0,1.6,0.3,2.2,0.6
		c0.6,0.4,1,1,1.4,1.8l-2,0.7c-0.2-0.4-0.3-0.6-0.6-0.9c-0.3-0.3-0.6-0.4-1-0.4c-0.4,0-0.7,0.2-1,0.3c-0.3,0.3-0.5,0.5-0.5,0.7
		c0,0.6,0.6,1,2,1.4c1,0.3,1.9,0.6,2.5,1.2s0.9,1.3,0.9,2.3c0,0.6-0.2,1.2-0.5,1.6c-0.3,0.5-0.6,0.9-1.4,1.2c-0.5,0.3-1.2,0.4-2,0.4
		C101.1,170.4,100.4,170.2,99.7,169.7z"/>
	<path class="st1" d="M116.9,159.6v6.1c0,0.9-0.2,1.8-0.5,2.5c-0.5,0.7-0.7,1.3-1.4,1.6c-0.6,0.4-1.4,0.6-2.3,0.6s-1.7-0.3-2.3-0.6
		s-1.2-0.9-1.6-1.6c-0.5-0.7-0.5-1.5-0.5-2.5v-6.1h2.1v6.1c0,0.9,0.3,1.5,0.6,1.9c0.5,0.5,0.9,0.7,1.7,0.7c0.7,0,1.4-0.3,1.7-0.7
		c0.5-0.5,0.6-1.2,0.6-1.9v-6.1H116.9z"/>
	<path class="st1" d="M125.9,168.4h-5.3l-0.7,1.9h-2.2l4.7-10.7h1.7l4.7,10.7h-2.2L125.9,168.4z M125.1,166.6l-1.9-4.3l-1.9,4.3
		H125.1z"/>
	<path class="st1" d="M138.2,168.4v2H131v-10.7h2.1v8.7L138.2,168.4L138.2,168.4z"/>
</g>
<g>
	<path d="M27,179.5l0.3,7.7l-0.9,0l-0.2-6.4l-1,0.8l-0.5-0.7l1.9-1.4L27,179.5z"/>
	<path d="M31.3,179.5l0.3,7.7l-0.9,0l-0.2-6.4l-1,0.8l-0.5-0.7l1.9-1.4L31.3,179.5z"/>
	<path d="M35.5,179.5l0.3,7.7l-0.9,0l-0.2-6.4l-1,0.8l-0.5-0.7l1.9-1.4L35.5,179.5z"/>
	<path d="M46.7,183.9c0.2,0.3,0.3,0.7,0.3,1.1c0,0.4-0.1,0.8-0.3,1.1c-0.2,0.3-0.5,0.6-0.8,0.8c-0.3,0.2-0.7,0.3-1.1,0.3l-2.8,0.1
		l-0.3-7.7l2.5-0.1c0.4,0,0.8,0.1,1.2,0.2c0.4,0.2,0.7,0.4,0.9,0.7c0.2,0.3,0.3,0.6,0.3,1c0,0.4-0.1,0.7-0.2,1s-0.4,0.5-0.7,0.7
		C46.2,183.3,46.5,183.5,46.7,183.9z M42.7,180.5l0.1,2.5l1.6-0.1c0.5,0,0.8-0.2,1.1-0.4c0.3-0.3,0.4-0.6,0.4-0.9
		c0-0.3-0.2-0.6-0.4-0.8c-0.3-0.2-0.6-0.3-1.1-0.3L42.7,180.5z M45.7,185.9c0.3-0.2,0.4-0.6,0.4-1c0-0.4-0.2-0.7-0.5-0.9
		c-0.3-0.2-0.7-0.3-1.3-0.3l-1.6,0.1l0.1,2.6l1.6-0.1C45.1,186.3,45.5,186.2,45.7,185.9z"/>
	<path d="M54.2,185.4l-4,0.1l-0.7,1.8l-1,0l3.2-7.8l0.6,0l3.7,7.6l-1,0L54.2,185.4z M53.8,184.6L52,181l-1.5,3.7L53.8,184.6z"/>
	<path d="M62.3,183.9c0.2,0.3,0.3,0.7,0.3,1.1c0,0.4-0.1,0.8-0.3,1.1c-0.2,0.3-0.5,0.6-0.8,0.8c-0.3,0.2-0.7,0.3-1.1,0.3l-2.8,0.1
		l-0.3-7.7l2.5-0.1c0.4,0,0.8,0.1,1.2,0.2c0.4,0.2,0.7,0.4,0.9,0.7c0.2,0.3,0.3,0.6,0.3,1c0,0.4-0.1,0.7-0.2,1s-0.4,0.5-0.7,0.7
		C61.8,183.3,62.1,183.5,62.3,183.9z M58.3,180.5l0.1,2.5l1.6-0.1c0.5,0,0.8-0.2,1.1-0.4c0.3-0.3,0.4-0.6,0.4-0.9
		c0-0.3-0.2-0.6-0.4-0.8c-0.3-0.2-0.6-0.3-1.1-0.3L58.3,180.5z M61.3,185.9c0.3-0.2,0.4-0.6,0.4-1c0-0.4-0.2-0.7-0.5-0.9
		c-0.3-0.2-0.7-0.3-1.3-0.3l-1.6,0.1l0.1,2.6l1.6-0.1C60.6,186.3,61.1,186.2,61.3,185.9z"/>
	<path d="M68.3,187.3c-0.7,0-1.4-0.1-2-0.4c-0.6-0.3-1.1-0.8-1.5-1.4c-0.4-0.6-0.6-1.3-0.6-2c0-0.7,0.1-1.4,0.5-2.1
		c0.3-0.6,0.8-1.1,1.4-1.5c0.6-0.4,1.2-0.6,1.9-0.6c1.2,0,2.2,0.4,3,1.3l-0.6,0.7c-0.3-0.4-0.7-0.6-1-0.8s-0.8-0.3-1.3-0.2
		c-0.5,0-1,0.2-1.5,0.4c-0.5,0.3-0.8,0.7-1.1,1.1c-0.3,0.5-0.4,1-0.4,1.6c0,0.6,0.2,1.1,0.5,1.6c0.3,0.5,0.7,0.8,1.2,1.1
		c0.5,0.3,1,0.4,1.5,0.3c0.5,0,0.9-0.1,1.3-0.3s0.7-0.5,1-0.9l0.7,0.6C70.4,186.8,69.5,187.3,68.3,187.3z"/>
	<path d="M74.6,186.9c-0.6-0.3-1.1-0.8-1.5-1.4c-0.4-0.6-0.6-1.3-0.6-2c0-0.7,0.1-1.4,0.5-2c0.3-0.6,0.8-1.1,1.4-1.5
		c0.6-0.4,1.3-0.6,2-0.6s1.4,0.1,2,0.5s1.1,0.8,1.5,1.4s0.6,1.3,0.6,2c0,0.7-0.1,1.4-0.5,2c-0.3,0.6-0.8,1.1-1.4,1.5
		c-0.6,0.4-1.3,0.6-2,0.6C75.9,187.4,75.2,187.2,74.6,186.9z M78.1,186c0.5-0.3,0.8-0.7,1.1-1.2c0.3-0.5,0.4-1,0.3-1.6
		c0-0.6-0.2-1.1-0.5-1.5s-0.7-0.8-1.1-1.1c-0.5-0.3-1-0.4-1.5-0.4c-0.6,0-1.1,0.2-1.5,0.5c-0.5,0.3-0.8,0.7-1.1,1.2
		c-0.3,0.5-0.4,1-0.3,1.6c0,0.6,0.2,1.1,0.5,1.5c0.3,0.5,0.7,0.8,1.1,1.1c0.5,0.3,1,0.4,1.5,0.4S77.7,186.3,78.1,186z"/>
	<path d="M86,187.3c-0.7,0-1.4-0.1-2-0.4c-0.6-0.3-1.1-0.8-1.5-1.4c-0.4-0.6-0.6-1.3-0.6-2c0-0.7,0.1-1.4,0.5-2.1
		c0.3-0.6,0.8-1.1,1.4-1.5c0.6-0.4,1.2-0.6,1.9-0.6c1.2,0,2.2,0.4,3,1.3l-0.6,0.7c-0.3-0.4-0.7-0.6-1-0.8c-0.4-0.2-0.8-0.3-1.3-0.2
		c-0.5,0-1,0.2-1.5,0.4c-0.5,0.3-0.8,0.7-1.1,1.1c-0.3,0.5-0.4,1-0.4,1.6c0,0.6,0.2,1.1,0.5,1.6c0.3,0.5,0.7,0.8,1.2,1.1
		c0.5,0.3,1,0.4,1.5,0.3c0.5,0,0.9-0.1,1.3-0.3c0.3-0.2,0.7-0.5,1-0.9l0.7,0.6C88.1,186.8,87.2,187.3,86,187.3z"/>
	<path d="M92.8,183.5l3.9,3.6l-1.2,0l-3.2-3l-0.5,0.6l0.1,2.6l-0.9,0l-0.3-7.7l0.9,0l0.1,4l3.8-4.1l1.2,0L92.8,183.5z"/>
	<path d="M107.1,183.9c0.2,0.3,0.3,0.7,0.3,1.1c0,0.4-0.1,0.8-0.3,1.1c-0.2,0.3-0.5,0.6-0.8,0.8c-0.3,0.2-0.7,0.3-1.1,0.3l-2.8,0.1
		l-0.3-7.7l2.5-0.1c0.4,0,0.8,0.1,1.2,0.2c0.4,0.2,0.7,0.4,0.9,0.7c0.2,0.3,0.3,0.6,0.4,1c0,0.4-0.1,0.7-0.2,1s-0.4,0.5-0.7,0.7
		C106.6,183.3,106.9,183.5,107.1,183.9z M103.1,180.5l0.1,2.5l1.6-0.1c0.5,0,0.8-0.2,1.1-0.4c0.3-0.3,0.4-0.6,0.4-0.9
		c0-0.3-0.2-0.6-0.4-0.8c-0.3-0.2-0.6-0.3-1.1-0.3L103.1,180.5z M106.1,185.9c0.3-0.2,0.4-0.6,0.4-1c0-0.4-0.2-0.7-0.5-0.9
		c-0.3-0.2-0.7-0.3-1.3-0.3l-1.6,0.1l0.1,2.6l1.6-0.1C105.5,186.3,105.9,186.2,106.1,185.9z"/>
	<path d="M114.5,186.2l0,0.9l-4.9,0.2l-0.3-7.7l0.9,0l0.2,6.8L114.5,186.2z"/>
	<path d="M123.1,179.4l-3.2,7.8l-0.6,0l-3.7-7.6l0.9,0l3,6.2l2.6-6.4L123.1,179.4z"/>
	<path d="M129.1,180c0.6,0.3,1.1,0.8,1.4,1.3s0.5,1.2,0.6,2c0,0.7-0.1,1.4-0.4,2c-0.3,0.6-0.7,1.1-1.3,1.4c-0.6,0.4-1.3,0.5-2.1,0.6
		l-2.2,0.1l-0.3-7.7l2.2-0.1C127.8,179.5,128.5,179.7,129.1,180z M128.8,185.9c0.5-0.3,0.8-0.6,1-1.1c0.2-0.5,0.3-1,0.3-1.5
		c0-0.6-0.2-1.1-0.4-1.5c-0.3-0.4-0.6-0.8-1.1-1s-1-0.3-1.6-0.3l-1.3,0l0.2,5.9l1.3,0C127.8,186.3,128.3,186.2,128.8,185.9z"/>
	<path d="M136.1,179.7l1,0l2.4,5.9l1.8-6l0.9,0l2.2,5.9l2-6l1,0l-2.6,7.8l-0.6,0l-2.3-6.3l-1.9,6.4l-0.6,0L136.1,179.7z"/>
	<path d="M36.2,195c0.6,0.3,1.1,0.8,1.4,1.3s0.5,1.2,0.6,2c0,0.7-0.1,1.4-0.4,2c-0.3,0.6-0.7,1.1-1.3,1.4s-1.3,0.5-2.1,0.6l-2.2,0.1
		l-0.3-7.7l2.2-0.1C34.9,194.5,35.6,194.7,36.2,195z M35.9,200.9c0.5-0.3,0.8-0.6,1-1.1s0.3-1,0.3-1.5c0-0.6-0.2-1.1-0.4-1.5
		s-0.6-0.8-1.1-1c-0.5-0.2-1-0.3-1.6-0.3l-1.3,0l0.2,5.9l1.3,0C34.9,201.3,35.5,201.2,35.9,200.9z"/>
	<path d="M40.9,195.4l0.1,2.4l3.7-0.1l0,0.9l-3.7,0.1l0.1,2.6l3.9-0.1l0,0.9l-4.8,0.2l-0.3-7.7l4.8-0.2l0,0.9L40.9,195.4z"/>
	<path d="M52,201.2l0,0.9l-4.9,0.2l-0.3-7.7l0.9,0l0.2,6.8L52,201.2z"/>
	<path d="M59.1,200.4l-4,0.1l-0.7,1.8l-1,0l3.2-7.8l0.6,0l3.7,7.6l-1,0L59.1,200.4z M58.7,199.6l-1.8-3.6l-1.5,3.7L58.7,199.6z"/>
	<path d="M62.2,194.6l0.7,0l4.8,5.8l-0.2-6l0.9,0l0.3,7.7l-0.7,0l-4.8-5.8l0.2,6l-0.9,0L62.2,194.6z"/>
	<path d="M72.6,201.9c-0.6-0.3-1.1-0.8-1.5-1.4c-0.4-0.6-0.6-1.3-0.6-2c0-0.7,0.1-1.4,0.5-2c0.3-0.6,0.8-1.1,1.4-1.5
		c0.6-0.4,1.3-0.6,2-0.6s1.4,0.1,2,0.5s1.1,0.8,1.5,1.4s0.6,1.3,0.6,2c0,0.7-0.1,1.4-0.5,2c-0.3,0.6-0.8,1.1-1.4,1.5
		c-0.6,0.4-1.3,0.6-2,0.6C73.9,202.4,73.2,202.2,72.6,201.9z M76.1,201c0.5-0.3,0.8-0.7,1.1-1.2c0.3-0.5,0.4-1,0.3-1.6
		c0-0.6-0.2-1.1-0.5-1.5s-0.7-0.8-1.1-1.1c-0.5-0.3-1-0.4-1.5-0.4c-0.6,0-1.1,0.2-1.5,0.5c-0.5,0.3-0.8,0.7-1.1,1.2
		c-0.3,0.5-0.4,1-0.3,1.6c0,0.6,0.2,1.1,0.5,1.5c0.3,0.5,0.7,0.8,1.1,1.1c0.5,0.3,1,0.4,1.5,0.4S75.6,201.3,76.1,201z"/>
	<path d="M80.5,201.1l1,0l-0.7,2l-0.8,0L80.5,201.1z"/>
	<path d="M87.1,194.7l0.8,0l3.1,4.3l2.8-4.5l0.8,0l0.3,7.7l-0.9,0l-0.2-6l-2.4,3.9l-0.6,0l-2.7-3.7l0.2,6l-0.9,0L87.1,194.7z"/>
	<path d="M96.9,194.6l0.7,0l4.8,5.8l-0.2-6l0.9,0l0.3,7.7l-0.7,0l-4.8-5.8l0.2,6l-0.9,0L96.9,194.6z"/>
	<path d="M112.9,197.6c0.4,0.2,0.7,0.5,0.9,0.8c0.2,0.4,0.4,0.8,0.4,1.3c0,0.5-0.1,1-0.3,1.4s-0.5,0.7-0.9,0.9s-0.8,0.3-1.3,0.4
		c-0.5,0-1-0.1-1.4-0.4c-0.4-0.3-0.8-0.7-1-1.3l0.8-0.4c0.1,0.4,0.3,0.7,0.6,0.9s0.6,0.3,1,0.3c0.5,0,0.9-0.2,1.2-0.5
		c0.3-0.3,0.4-0.7,0.4-1.2c0-0.4-0.2-0.8-0.5-1.1s-0.7-0.4-1.2-0.4c-0.3,0-0.5,0.1-0.8,0.2c-0.2,0.1-0.5,0.3-0.7,0.4l-0.6-0.3l0.5-4
		l3.5-0.1l0,0.9l-2.7,0.1l-0.3,2.2c0.3-0.2,0.7-0.3,1.1-0.3C112.1,197.3,112.5,197.4,112.9,197.6z"/>
	<path d="M119.3,197.6c0.4,0.2,0.7,0.5,0.9,0.8c0.2,0.4,0.4,0.8,0.4,1.3c0,0.5-0.1,1-0.3,1.4s-0.5,0.7-0.9,0.9s-0.8,0.3-1.3,0.4
		c-0.5,0-1-0.1-1.4-0.4c-0.4-0.3-0.8-0.7-1-1.3l0.8-0.4c0.1,0.4,0.3,0.7,0.6,0.9s0.6,0.3,1,0.3c0.5,0,0.9-0.2,1.2-0.5
		c0.3-0.3,0.4-0.7,0.4-1.2c0-0.4-0.2-0.8-0.5-1.1s-0.7-0.4-1.2-0.4c-0.3,0-0.5,0.1-0.8,0.2c-0.2,0.1-0.5,0.3-0.7,0.4l-0.6-0.3l0.5-4
		l3.5-0.1l0,0.9l-2.7,0.1l-0.3,2.2c0.3-0.2,0.7-0.3,1.1-0.3C118.5,197.3,118.9,197.4,119.3,197.6z"/>
	<path d="M126.6,198.1c0.4,0.4,0.6,1,0.6,1.7c0,0.5-0.1,0.9-0.3,1.3c-0.2,0.4-0.5,0.7-0.9,0.9s-0.8,0.3-1.2,0.4
		c-0.5,0-1.1-0.1-1.5-0.4s-0.8-0.7-1-1.2l0.8-0.3c0.2,0.4,0.4,0.7,0.7,0.9c0.3,0.2,0.6,0.3,1,0.3c0.3,0,0.6-0.1,0.8-0.2
		s0.4-0.3,0.6-0.6s0.2-0.5,0.2-0.9c0-0.5-0.2-0.9-0.5-1.2c-0.3-0.3-0.8-0.4-1.5-0.4l-0.5,0l0-0.5l1.7-2.4l-3.2,0.1l0-0.9l4.4-0.2
		l0,0.6l-1.7,2.4C125.7,197.5,126.2,197.7,126.6,198.1z"/>
	<path d="M129.1,201.6c0-1.2,0.6-2.2,1.9-3.1c0.4-0.3,0.7-0.5,0.9-0.7c0.2-0.2,0.4-0.4,0.5-0.6s0.2-0.4,0.2-0.7
		c0-0.4-0.2-0.7-0.4-0.9c-0.3-0.2-0.6-0.4-1.1-0.3c-0.4,0-0.7,0.1-1,0.4c-0.2,0.2-0.4,0.6-0.5,1l-0.8-0.3c0.1-0.5,0.3-1,0.7-1.4
		c0.4-0.4,0.9-0.5,1.5-0.6c0.5,0,0.9,0.1,1.2,0.2s0.6,0.4,0.9,0.8c0.2,0.3,0.3,0.7,0.3,1.1c0,0.4,0,0.7-0.2,1
		c-0.1,0.3-0.3,0.5-0.5,0.7c-0.2,0.2-0.5,0.5-1,0.8c-0.1,0.1-0.2,0.2-0.5,0.3c-0.5,0.4-0.8,0.7-1,1s-0.3,0.7-0.3,1.1l3.7-0.1l0,0.9
		l-4.7,0.2L129.1,201.6z"/>
	<path d="M140,198.9c0.2,0.3,0.3,0.7,0.4,1.1c0,0.4-0.1,0.8-0.3,1.2c-0.2,0.3-0.5,0.6-0.8,0.8c-0.4,0.2-0.8,0.3-1.2,0.3
		c-0.5,0-0.9-0.1-1.2-0.2c-0.4-0.2-0.7-0.4-0.9-0.8c-0.2-0.3-0.3-0.7-0.4-1.1c0-0.4,0.1-0.8,0.3-1.1s0.5-0.6,0.8-0.8
		c-0.3-0.2-0.5-0.4-0.7-0.7c-0.2-0.3-0.3-0.6-0.3-1c0-0.4,0.1-0.7,0.2-1.1c0.2-0.3,0.4-0.6,0.8-0.8c0.3-0.2,0.7-0.3,1.1-0.3
		c0.4,0,0.8,0.1,1.1,0.3s0.6,0.4,0.8,0.8c0.2,0.3,0.3,0.7,0.3,1c0,0.4-0.1,0.7-0.2,1s-0.4,0.5-0.6,0.7
		C139.5,198.3,139.8,198.6,140,198.9z M138.7,201.3c0.2-0.1,0.4-0.3,0.5-0.5c0.1-0.2,0.2-0.5,0.2-0.7c0-0.3-0.1-0.6-0.2-0.8
		c-0.2-0.2-0.3-0.4-0.6-0.5c-0.2-0.1-0.5-0.2-0.7-0.2c-0.2,0-0.5,0.1-0.7,0.2s-0.4,0.3-0.5,0.5c-0.1,0.2-0.2,0.5-0.2,0.8
		c0,0.2,0.1,0.5,0.2,0.7s0.3,0.4,0.6,0.5c0.2,0.1,0.5,0.2,0.8,0.2C138.3,201.5,138.5,201.4,138.7,201.3z M136.9,195.6
		c-0.2,0.3-0.3,0.6-0.3,0.9c0,0.3,0.1,0.6,0.4,0.9s0.5,0.3,0.9,0.3c0.3,0,0.6-0.1,0.9-0.4c0.2-0.3,0.3-0.5,0.3-0.9
		c0-0.3-0.1-0.6-0.4-0.9c-0.2-0.2-0.5-0.4-0.9-0.3C137.4,195.3,137.1,195.4,136.9,195.6z"/>
</g>
</svg>
