<?xml version="1.0" encoding="utf-8"?>
<!-- Generator: Adobe Illustrator 28.1.0, SVG Export Plug-In . SVG Version: 6.00 Build 0)  -->
<svg version="1.1" id="Layer_1" xmlns="http://www.w3.org/2000/svg" xmlns:xlink="http://www.w3.org/1999/xlink" x="0px" y="0px"
	 width="171.7px" height="228.5px" viewBox="0 0 171.7 228.5" style="enable-background:new 0 0 171.7 228.5;" xml:space="preserve"
	>
<style type="text/css">
	.st0{fill:#FFFFFF;}
	.st1{fill:#231F20;}
</style>
<path d="M135.3,148.1H36.6c-11.4,0-20.6-9.2-20.6-20.6v-100C16.1,16.1,25.2,7,36.6,7h98.6c11.4,0,20.6,9.2,20.6,20.6v100
	C155.9,138.9,146.7,148.1,135.3,148.1z"/>
<g>
	<path class="st0" d="M57,124.9c-1.3,0.7-2.3-1.5-1.4-2.5c17-17.4,77.2-22.6,65.3-2.3c-0.1,3.9-1.7,3.9-1.7,3.9
		C121.6,118.3,86,107.4,57,124.9z"/>
	<g>
		<path class="st0" d="M57.5,93.5c0,0.9,1.4,1.2,1.7,0.2c4.2-12.9,8.8-41,4.2-49.8c-0.4-0.8-0.5-2-1.3-2.8c-0.5-0.4-0.1-1.2,0.5-0.9
			c10.1-0.2,8.2,12.7,7.7,19.1c-0.7,7.6-6.5,40.1-10.4,42.7c-2.5,1.8-10.1,1.5-10.1-1.6c0.1-4.1-0.3-34.7-4.2-46.8
			c-0.9-3.1-2.1-6.1-6.1-6.1c-10,0.1-14.2,18.9-6.4,25.5c0.4,0.4,0.9,0.9,0.6,1.7c-0.2,0.5-0.7,0.5-1.4,0.4
			c-4.9-1.2-8.2-5.9-8.7-10.8C22,52.9,30,42.7,41.2,44.3c2.5,0.3,6.6,1.9,8.5,3.5C55.7,52.9,57.1,81.7,57.5,93.5z"/>
		<g>
			<path class="st0" d="M79.9,50.7c7.7-0.4,2.4,8.1-1.3,10.2c-4.2,2.3-3.5-6-2.6-8.1C76.2,51.5,77.7,50.9,79.9,50.7z"/>
			<path class="st0" d="M119,91.7c-0.2-0.7-1.4-0.8-1.7-0.1c-0.5,1.8-1.4,3.6-2.4,4.6c-2.2,2-4.5,1.6-5.8-0.3
				c-0.3-0.5-1.2-0.4-1.5,0.1c-3.1,5.9-8.8,5.9-11.1-0.5c-0.2-0.6-1.2-0.7-1.6-0.2c-1.6,2.5-3.7,4.6-6.4,3.6c-2.1-0.6-3.3-4-3.9-6.6
				c-0.2-0.7-1.3-0.8-1.6-0.1c-0.5,1.2-1.2,2.2-1.4,2.5c-3.7,8.7-11.2,6.3-11.8-2.4c-0.6-6,0.2-11.9,1.6-17.8c0.3-2.7,3.4-3,5.4-2.4
				c2.3,0.7,0.9,3.7,0.8,5.5c-0.3,2.6-2.8,15.6-0.1,16.5c0.9,0.1,1.3-0.7,1.6-1.5c2.3-4.6,4.3-10,4.6-15.1
				c0.1-1.6,1.9-10.6,2.1-11.7c0.4-2.4,3-18.8,7.7-20.2c3.5-0.9,4.5,1.2,3.7,3.6c-0.7,2.2-4.4,14.5-5,16.9c-0.1,0.6-0.9,6.1-1.2,6.6
				C90.6,78.7,89.5,85,90.9,91c0.2,0.6,0.5,2.6,1.6,2.6c2.3,0.1,3.7-8.9,3.9-10.8c0.8-6,2.5-13.2,8-16.9l0.1-0.1
				c2.8-1.6,5.9-0.5,6.8,2.3c0.2,0.5,0.4,0.7,1.2,0.8c1.8,0,2.2,0.4,2.1,2.2c0,6.3-1.9,12.7-1.6,18.9c0.1,0.4,0.2,2,0.7,2.1
				c1.7-0.1,2.5-5.2,3-6.6l0,0c2.2-11.2,1.4-23.9,5.1-35.1c1.2-4.7,6.9-17.2,13-10.7c0.1,0.1,0.1,0.2,0.2,0.3
				c4.1,10.8-5.6,27.6-9.4,38.1c-1.9,4.1-1.6,12.7,0.8,16.2c4,3.3,7.2-10.2,7.8-12.6c0.1-0.9,0.2-1.9,1.4-1.8
				c1.6,0.3,0.3,2.3,0.1,3.4c-1.2,5.2-1.8,11-5.2,15.3l-0.1,0.1C124.6,104.4,120.7,97.5,119,91.7z M101.9,88.7c0.1,1.3-0.2,5,0.9,6
				c0.3,0.2,0.6,0.2,0.9,0c2.8-2.3,5.1-18.1,5.5-21.3c0.1-1.3,0.5-3.4-0.7-3.9c-0.1-0.1-0.3-0.1-0.5,0
				C104.1,70.4,101.9,85.6,101.9,88.7z M126.9,67.2c2.3-7.5,5.2-18.1,4.5-22.4c-0.1-0.7-1.3-0.9-1.6-0.3c-2.1,3.6-3.8,14.6-4.6,22.3
				C125.1,67.8,126.5,68.2,126.9,67.2z"/>
			<path class="st0" d="M78.9,66.4c-0.2-0.5,0.1-1.2,0.6-1.3c4.3-0.5,21.1-2.8,21.4-1.9c0.4,1.3-4,4.1-4.6,4.5
				c-0.1,0-0.1,0.1-0.2,0.1l-9.1,3.1c-0.1,0-0.2,0-0.3,0C85.8,70.9,80.6,70.4,78.9,66.4z"/>
		</g>
	</g>
</g>
<g>
	<path class="st1" d="M37.1,159.2L31.5,172h-2l-5.9-12.8h2.6l3.9,9.2l3.8-9.2H37.1z"/>
	<path class="st1" d="M38.6,159.2h2.5V172h-2.5V159.2z"/>
	<path class="st1" d="M54.2,161.7h-3.8v10.4h-2.5v-10.4H44v-2.4h10.4C54.2,159.3,54.2,161.7,54.2,161.7z"/>
	<path class="st1" d="M62.8,169.7h-6.5l-0.8,2.3h-2.6l5.6-12.8h2l5.6,12.8h-2.6L62.8,169.7z M61.8,167.6l-2.3-5.1l-2.3,5.1H61.8z"/>
	<path class="st1" d="M76.8,169.7v2.4H68v-12.8h2.5v10.4H76.8L76.8,169.7z"/>
	<path class="st1" d="M94.1,159.2L88.5,172h-2l-5.9-12.8h2.6l3.9,9.2l3.8-9.2H94.1z"/>
	<path class="st1" d="M95.5,159.2H98V172h-2.5V159.2z"/>
	<path class="st1" d="M102.3,171.3c-0.7-0.6-1.4-1.4-1.7-2.4l2.4-0.8c0.2,0.6,0.4,1.1,0.7,1.4c0.6,0.4,0.8,0.5,1.4,0.5
		c0.6,0,1.1-0.2,1.4-0.5c0.4-0.4,0.6-0.6,0.6-1.1s-0.2-0.8-0.6-1.2c-0.4-0.4-0.8-0.5-1.7-0.7c-1.2-0.4-2.3-0.7-3-1.2
		c-0.7-0.6-1.1-1.6-1.1-2.5c0-0.7,0.2-1.4,0.6-1.8c0.4-0.6,0.8-1.1,1.7-1.4c0.6-0.4,1.4-0.5,2.3-0.5s1.9,0.4,2.6,0.7
		c0.7,0.5,1.2,1.2,1.7,2.2l-2.4,0.8c-0.2-0.5-0.4-0.7-0.7-1.1s-0.7-0.5-1.2-0.5s-0.8,0.2-1.2,0.4c-0.4,0.4-0.6,0.6-0.6,0.8
		c0,0.7,0.7,1.2,2.4,1.7c1.2,0.4,2.3,0.7,3,1.4s1.1,1.6,1.1,2.7c0,0.7-0.2,1.4-0.6,1.9c-0.4,0.6-0.7,1.1-1.7,1.4
		c-0.6,0.4-1.4,0.5-2.4,0.5C104,172.1,103.2,171.9,102.3,171.3z"/>
	<path class="st1" d="M122.9,159.2v7.3c0,1.1-0.2,2.2-0.6,3c-0.6,0.8-0.8,1.6-1.7,1.9c-0.7,0.5-1.7,0.7-2.7,0.7
		c-1.1,0-2-0.4-2.7-0.7s-1.4-1.1-1.9-1.9c-0.6-0.8-0.6-1.8-0.6-3v-7.3h2.5v7.3c0,1.1,0.4,1.8,0.7,2.3c0.6,0.6,1.1,0.8,2,0.8
		c0.8,0,1.7-0.4,2-0.8c0.6-0.6,0.7-1.4,0.7-2.3v-7.3H122.9z"/>
	<path class="st1" d="M133.6,169.7h-6.3l-0.8,2.3h-2.6l5.6-12.8h2l5.6,12.8h-2.6L133.6,169.7z M132.7,167.6l-2.3-5.1l-2.3,5.1H132.7
		z"/>
	<path class="st1" d="M148.3,169.7v2.4h-8.6v-12.8h2.5v10.4H148.3L148.3,169.7z"/>
</g>
<g>
	<path d="M15.5,187.2l0.4,9.2h-1.1l-0.2-7.6l-1.2,1l-0.6-0.8l2.3-1.7L15.5,187.2z"/>
	<path d="M20.6,187.2l0.4,9.2h-1.1l-0.2-7.6l-1.2,1l-0.6-0.8l2.3-1.7L20.6,187.2z"/>
	<path d="M25.6,187.2l0.4,9.2h-1.1l-0.2-7.6l-1.2,1l-0.6-0.8l2.3-1.7L25.6,187.2z"/>
	<path d="M39,192.5c0.2,0.4,0.4,0.8,0.4,1.3c0,0.5-0.1,1-0.4,1.3c-0.2,0.4-0.6,0.7-1,1c-0.4,0.2-0.8,0.4-1.3,0.4l-3.3,0.1l-0.4-9.2
		l3-0.1c0.5,0,1,0.1,1.4,0.2c0.5,0.2,0.8,0.5,1.1,0.8s0.4,0.7,0.4,1.2c0,0.5-0.1,0.8-0.2,1.2s-0.5,0.6-0.8,0.8
		C38.4,191.8,38.8,192,39,192.5z M34.2,188.4l0.1,3l1.9-0.1c0.6,0,1-0.2,1.3-0.5c0.4-0.4,0.5-0.7,0.5-1.1c0-0.4-0.2-0.7-0.5-1
		c-0.4-0.2-0.7-0.4-1.3-0.4H34.2z M37.8,194.9c0.4-0.2,0.5-0.7,0.5-1.2s-0.2-0.8-0.6-1.1c-0.4-0.2-0.8-0.4-1.6-0.4l-1.9,0.1l0.1,3.1
		l1.9-0.1C37.1,195.4,37.6,195.2,37.8,194.9z"/>
	<path d="M48,194.3l-4.8,0.1l-0.8,2.2h-1.2l3.8-9.3h0.7l4.4,9.1h-1.2L48,194.3z M47.5,193.3l-2.2-4.3l-1.8,4.4L47.5,193.3z"/>
	<path d="M57.7,192.5c0.2,0.4,0.4,0.8,0.4,1.3c0,0.5-0.1,1-0.4,1.3s-0.6,0.7-1,1c-0.4,0.2-0.8,0.4-1.3,0.4l-3.3,0.1l-0.4-9.2l3-0.1
		c0.5,0,1,0.1,1.4,0.2c0.5,0.2,0.8,0.5,1.1,0.8s0.4,0.7,0.4,1.2c0,0.5-0.1,0.8-0.2,1.2c-0.1,0.4-0.5,0.6-0.8,0.8
		C57.1,191.8,57.4,192,57.7,192.5z M52.9,188.4l0.1,3l1.9-0.1c0.6,0,1-0.2,1.3-0.5c0.4-0.4,0.5-0.7,0.5-1.1c0-0.4-0.2-0.7-0.5-1
		c-0.4-0.2-0.7-0.4-1.3-0.4H52.9z M56.5,194.9c0.4-0.2,0.5-0.7,0.5-1.2s-0.2-0.8-0.6-1.1c-0.4-0.2-0.8-0.4-1.6-0.4l-1.9,0.1l0.1,3.1
		l1.9-0.1C55.6,195.4,56.2,195.2,56.5,194.9z"/>
	<path d="M64.8,196.6c-0.8,0-1.7-0.1-2.4-0.5c-0.7-0.4-1.3-1-1.8-1.7s-0.7-1.6-0.7-2.4c0-0.8,0.1-1.7,0.6-2.5c0.4-0.7,1-1.3,1.7-1.8
		s1.4-0.7,2.3-0.7c1.4,0,2.6,0.5,3.6,1.6l-0.7,0.8c-0.4-0.5-0.8-0.7-1.2-1c-0.4-0.2-1-0.4-1.6-0.2c-0.6,0-1.2,0.2-1.8,0.5
		c-0.6,0.4-1,0.8-1.3,1.3c-0.4,0.6-0.5,1.2-0.5,1.9c0,0.7,0.2,1.3,0.6,1.9s0.8,1,1.4,1.3c0.6,0.4,1.2,0.5,1.8,0.4
		c0.6,0,1.1-0.1,1.6-0.4s0.8-0.6,1.2-1.1l0.8,0.7C67.3,196,66.3,196.6,64.8,196.6z"/>
	<path d="M72.4,196.1c-0.7-0.4-1.3-1-1.8-1.7s-0.7-1.6-0.7-2.4c0-0.8,0.1-1.7,0.6-2.4c0.4-0.7,1-1.3,1.7-1.8s1.6-0.7,2.4-0.7
		s1.7,0.1,2.4,0.6c0.7,0.5,1.3,1,1.8,1.7s0.7,1.6,0.7,2.4c0,0.8-0.1,1.7-0.6,2.4c-0.4,0.7-1,1.3-1.7,1.8s-1.6,0.7-2.4,0.7
		C73.9,196.7,73.1,196.4,72.4,196.1z M76.5,195c0.6-0.4,1-0.8,1.3-1.4c0.4-0.6,0.5-1.2,0.4-1.9c0-0.7-0.2-1.3-0.6-1.8
		c-0.4-0.5-0.8-1-1.3-1.3c-0.6-0.4-1.2-0.5-1.8-0.5c-0.7,0-1.3,0.2-1.8,0.6c-0.6,0.4-1,0.8-1.3,1.4c-0.4,0.6-0.5,1.2-0.4,1.9
		c0,0.7,0.2,1.3,0.6,1.8c0.4,0.6,0.8,1,1.3,1.3c0.6,0.4,1.2,0.5,1.8,0.5C75.4,195.6,76.1,195.4,76.5,195z"/>
	<path d="M86,196.6c-0.8,0-1.7-0.1-2.4-0.5c-0.7-0.4-1.3-1-1.8-1.7s-0.7-1.6-0.7-2.4c0-0.8,0.1-1.7,0.6-2.5c0.4-0.7,1-1.3,1.7-1.8
		c0.7-0.5,1.4-0.7,2.3-0.7c1.4,0,2.6,0.5,3.6,1.6l-0.7,0.8c-0.4-0.5-0.8-0.7-1.2-1c-0.5-0.2-1-0.4-1.6-0.2c-0.6,0-1.2,0.2-1.8,0.5
		c-0.6,0.4-1,0.8-1.3,1.3c-0.4,0.6-0.5,1.2-0.5,1.9c0,0.7,0.2,1.3,0.6,1.9c0.4,0.6,0.8,1,1.4,1.3c0.6,0.4,1.2,0.5,1.8,0.4
		c0.6,0,1.1-0.1,1.6-0.4c0.4-0.2,0.8-0.6,1.2-1.1l0.8,0.7C88.5,196,87.4,196.6,86,196.6z"/>
	<path d="M94.1,192l4.7,4.3h-1.4l-3.8-3.6l-0.6,0.7l0.1,3.1H92l-0.4-9.2h1.1l0.1,4.8l4.5-4.9h1.4L94.1,192z"/>
	<path d="M111.2,192.5c0.2,0.4,0.4,0.8,0.4,1.3c0,0.5-0.1,1-0.4,1.3c-0.2,0.4-0.6,0.7-1,1c-0.4,0.2-0.8,0.4-1.3,0.4l-3.3,0.1
		l-0.4-9.2l3-0.1c0.5,0,1,0.1,1.4,0.2c0.5,0.2,0.8,0.5,1.1,0.8c0.2,0.4,0.4,0.7,0.5,1.2c0,0.5-0.1,0.8-0.2,1.2s-0.5,0.6-0.8,0.8
		C110.6,191.8,111,192,111.2,192.5z M106.4,188.4l0.1,3l1.9-0.1c0.6,0,1-0.2,1.3-0.5c0.4-0.4,0.5-0.7,0.5-1.1c0-0.4-0.2-0.7-0.5-1
		c-0.4-0.2-0.7-0.4-1.3-0.4H106.4z M110,194.9c0.4-0.2,0.5-0.7,0.5-1.2s-0.2-0.8-0.6-1.1c-0.4-0.2-0.8-0.4-1.6-0.4l-1.9,0.1l0.1,3.1
		l1.9-0.1C109.3,195.4,109.8,195.2,110,194.9z"/>
	<path d="M120,195.2v1.1l-5.9,0.2l-0.4-9.2h1.1l0.2,8.1L120,195.2z"/>
	<path d="M130.3,187.1l-3.8,9.3h-0.7l-4.4-9.1h1.1l3.6,7.4l3.1-7.6H130.3z"/>
	<path d="M137.5,187.8c0.7,0.4,1.3,1,1.7,1.6c0.4,0.6,0.6,1.4,0.7,2.4c0,0.8-0.1,1.7-0.5,2.4c-0.4,0.7-0.8,1.3-1.6,1.7
		c-0.7,0.5-1.6,0.6-2.5,0.7l-2.6,0.1l-0.4-9.2l2.6-0.1C135.9,187.2,136.8,187.5,137.5,187.8z M137.1,194.9c0.6-0.4,1-0.7,1.2-1.3
		c0.2-0.6,0.4-1.2,0.4-1.8c0-0.7-0.2-1.3-0.5-1.8c-0.4-0.5-0.7-1-1.3-1.2c-0.6-0.2-1.2-0.4-1.9-0.4h-1.6l0.2,7.1h1.6
		C135.9,195.4,136.5,195.2,137.1,194.9z"/>
	<path d="M145.9,187.5h1.2l2.9,7.1l2.2-7.2h1.1l2.6,7.1l2.4-7.2h1.2l-3.1,9.3h-0.7l-2.7-7.5l-2.3,7.6h-0.7L145.9,187.5z"/>
	<path d="M26.5,205.8c0.7,0.4,1.3,1,1.7,1.6s0.6,1.4,0.7,2.4c0,0.8-0.1,1.7-0.5,2.4c-0.4,0.7-0.8,1.3-1.6,1.7
		c-0.7,0.4-1.6,0.6-2.5,0.7l-2.6,0.1l-0.4-9.2l2.6-0.1C24.9,205.2,25.8,205.4,26.5,205.8z M26.1,212.8c0.6-0.4,1-0.7,1.2-1.3
		c0.2-0.6,0.4-1.2,0.4-1.8c0-0.7-0.2-1.3-0.5-1.8s-0.7-1-1.3-1.2c-0.6-0.2-1.2-0.4-1.9-0.4h-1.6l0.2,7.1h1.6
		C24.9,213.3,25.6,213.2,26.1,212.8z"/>
	<path d="M32.1,206.2l0.1,2.9l4.4-0.1v1.1l-4.4,0.1l0.1,3.1l4.7-0.1v1.1l-5.7,0.2l-0.4-9.2l5.7-0.2v1.1L32.1,206.2z"/>
	<path d="M45.4,213.2v1.1l-5.9,0.2l-0.4-9.2h1.1l0.2,8.1L45.4,213.2z"/>
	<path d="M53.8,212.2l-4.8,0.1l-0.8,2.2H47l3.8-9.3h0.7l4.4,9.1h-1.2L53.8,212.2z M53.4,211.2l-2.2-4.3l-1.8,4.4L53.4,211.2z"/>
	<path d="M57.5,205.3h0.8l5.7,6.9l-0.2-7.2H65l0.4,9.2h-0.8l-5.7-6.9l0.2,7.2h-1.1L57.5,205.3z"/>
	<path d="M70,214c-0.7-0.4-1.3-1-1.8-1.7s-0.7-1.6-0.7-2.4c0-0.8,0.1-1.7,0.6-2.4c0.4-0.7,1-1.3,1.7-1.8c0.7-0.5,1.6-0.7,2.4-0.7
		s1.7,0.1,2.4,0.6s1.3,1,1.8,1.7s0.7,1.6,0.7,2.4c0,0.8-0.1,1.7-0.6,2.4c-0.4,0.7-1,1.3-1.7,1.8s-1.6,0.7-2.4,0.7S70.7,214.4,70,214
		z M74.2,212.9c0.6-0.4,1-0.8,1.3-1.4c0.4-0.6,0.5-1.2,0.4-1.9c0-0.7-0.2-1.3-0.6-1.8c-0.4-0.5-0.8-1-1.3-1.3
		c-0.6-0.4-1.2-0.5-1.8-0.5c-0.7,0-1.3,0.2-1.8,0.6c-0.6,0.4-1,0.8-1.3,1.4c-0.4,0.6-0.5,1.2-0.4,1.9c0,0.7,0.2,1.3,0.6,1.8
		c0.4,0.6,0.8,1,1.3,1.3c0.6,0.4,1.2,0.5,1.8,0.5S73.6,213.3,74.2,212.9z"/>
	<path d="M79.4,213h1.2l-0.8,2.4h-1L79.4,213z"/>
	<path d="M87.3,205.4h1l3.7,5.1l3.3-5.4h1l0.4,9.2h-1.1l-0.2-7.2l-2.9,4.7h-0.7l-3.2-4.4l0.2,7.2h-1.1L87.3,205.4z"/>
	<path d="M99,205.3h0.8l5.7,6.9l-0.2-7.2h1.1l0.4,9.2h-0.8l-5.7-6.9l0.2,7.2h-1.1L99,205.3z"/>
	<path d="M118.1,208.9c0.5,0.2,0.8,0.6,1.1,1c0.2,0.5,0.5,1,0.5,1.6c0,0.6-0.1,1.2-0.4,1.7s-0.6,0.8-1.1,1.1c-0.5,0.2-1,0.4-1.6,0.5
		c-0.6,0-1.2-0.1-1.7-0.5c-0.5-0.4-1-0.8-1.2-1.6l1-0.5c0.1,0.5,0.4,0.8,0.7,1.1c0.4,0.2,0.7,0.4,1.2,0.4c0.6,0,1.1-0.2,1.4-0.6
		c0.4-0.4,0.5-0.8,0.5-1.4c0-0.5-0.2-1-0.6-1.3c-0.4-0.4-0.8-0.5-1.4-0.5c-0.4,0-0.6,0.1-1,0.2c-0.2,0.1-0.6,0.4-0.8,0.5l-0.7-0.4
		l0.6-4.8l4.2-0.1v1.1l-3.2,0.1l-0.4,2.6c0.4-0.2,0.8-0.4,1.3-0.4C117.2,208.5,117.7,208.6,118.1,208.9z"/>
	<path d="M125.8,208.9c0.5,0.2,0.8,0.6,1.1,1c0.2,0.5,0.5,1,0.5,1.6c0,0.6-0.1,1.2-0.4,1.7c-0.2,0.5-0.6,0.8-1.1,1.1
		c-0.5,0.2-1,0.4-1.6,0.5c-0.6,0-1.2-0.1-1.7-0.5c-0.5-0.4-1-0.8-1.2-1.6l1-0.5c0.1,0.5,0.4,0.8,0.7,1.1c0.4,0.2,0.7,0.4,1.2,0.4
		c0.6,0,1.1-0.2,1.4-0.6c0.4-0.4,0.5-0.8,0.5-1.4c0-0.5-0.2-1-0.6-1.3c-0.4-0.4-0.8-0.5-1.4-0.5c-0.4,0-0.6,0.1-1,0.2
		c-0.2,0.1-0.6,0.4-0.8,0.5l-0.7-0.4l0.6-4.8l4.2-0.1v1.1l-3.2,0.1l-0.4,2.6c0.4-0.2,0.8-0.4,1.3-0.4
		C124.8,208.5,125.3,208.6,125.8,208.9z"/>
	<path d="M134.5,209.5c0.5,0.5,0.7,1.2,0.7,2c0,0.6-0.1,1.1-0.4,1.6c-0.2,0.5-0.6,0.8-1.1,1.1c-0.5,0.2-1,0.4-1.4,0.5
		c-0.6,0-1.3-0.1-1.8-0.5c-0.5-0.4-1-0.8-1.2-1.4l1-0.4c0.2,0.5,0.5,0.8,0.8,1.1c0.4,0.2,0.7,0.4,1.2,0.4c0.4,0,0.7-0.1,1-0.2
		s0.5-0.4,0.7-0.7c0.2-0.4,0.2-0.6,0.2-1.1c0-0.6-0.2-1.1-0.6-1.4c-0.4-0.4-1-0.5-1.8-0.5h-0.6v-0.6l2-2.9l-3.8,0.1v-1.1l5.3-0.2
		v0.7l-2,2.9C133.4,208.7,134,209,134.5,209.5z"/>
	<path d="M137.5,213.6c0-1.4,0.7-2.6,2.3-3.7c0.5-0.4,0.8-0.6,1.1-0.8c0.2-0.2,0.5-0.5,0.6-0.7c0.1-0.2,0.2-0.5,0.2-0.8
		c0-0.5-0.2-0.8-0.5-1.1c-0.4-0.2-0.7-0.5-1.3-0.4c-0.5,0-0.8,0.1-1.2,0.5c-0.2,0.2-0.5,0.7-0.6,1.2l-1-0.4c0.1-0.6,0.4-1.2,0.8-1.7
		s1.1-0.6,1.8-0.7c0.6,0,1.1,0.1,1.4,0.2c0.4,0.1,0.7,0.5,1.1,1c0.2,0.4,0.4,0.8,0.4,1.3c0,0.5,0,0.8-0.2,1.2
		c-0.1,0.4-0.4,0.6-0.6,0.8c-0.2,0.2-0.6,0.6-1.2,1c-0.1,0.1-0.2,0.2-0.6,0.4c-0.6,0.5-1,0.8-1.2,1.2c-0.2,0.4-0.4,0.8-0.4,1.3
		l4.4-0.1v1.1l-5.6,0.2L137.5,213.6z"/>
	<path d="M150.5,210.4c0.2,0.4,0.4,0.8,0.5,1.3c0,0.5-0.1,1-0.4,1.4c-0.2,0.4-0.6,0.7-1,1c-0.5,0.2-1,0.4-1.4,0.4
		c-0.6,0-1.1-0.1-1.4-0.2c-0.5-0.2-0.8-0.5-1.1-1c-0.2-0.4-0.4-0.8-0.5-1.3c0-0.5,0.1-1,0.4-1.3c0.2-0.4,0.6-0.7,1-1
		c-0.4-0.2-0.6-0.5-0.8-0.8c-0.2-0.4-0.4-0.7-0.4-1.2s0.1-0.8,0.2-1.3c0.2-0.4,0.5-0.7,1-1c0.4-0.2,0.8-0.4,1.3-0.4
		c0.5,0,1,0.1,1.3,0.4c0.4,0.2,0.7,0.5,1,1c0.2,0.4,0.4,0.8,0.4,1.2c0,0.5-0.1,0.8-0.2,1.2c-0.1,0.4-0.5,0.6-0.7,0.8
		C149.9,209.7,150.3,210.1,150.5,210.4z M149,213.3c0.2-0.1,0.5-0.4,0.6-0.6c0.1-0.2,0.2-0.6,0.2-0.8c0-0.4-0.1-0.7-0.2-1
		c-0.2-0.2-0.4-0.5-0.7-0.6c-0.2-0.1-0.6-0.2-0.8-0.2c-0.2,0-0.6,0.1-0.8,0.2c-0.2,0.1-0.5,0.4-0.6,0.6c-0.1,0.2-0.2,0.6-0.2,1
		c0,0.2,0.1,0.6,0.2,0.8c0.1,0.2,0.4,0.5,0.7,0.6c0.2,0.1,0.6,0.2,1,0.2C148.5,213.5,148.7,213.4,149,213.3z M146.8,206.5
		c-0.2,0.4-0.4,0.7-0.4,1.1s0.1,0.7,0.5,1.1c0.4,0.4,0.6,0.4,1.1,0.4c0.4,0,0.7-0.1,1.1-0.5c0.2-0.4,0.4-0.6,0.4-1.1
		c0-0.4-0.1-0.7-0.5-1.1c-0.2-0.2-0.6-0.5-1.1-0.4S147.1,206.2,146.8,206.5z"/>
</g>
</svg>
