<?xml version="1.0" encoding="utf-8"?>
<!-- Generator: Adobe Illustrator 28.1.0, SVG Export Plug-In . SVG Version: 6.00 Build 0)  -->
<svg version="1.1" id="Layer_1" xmlns="http://www.w3.org/2000/svg" xmlns:xlink="http://www.w3.org/1999/xlink" x="0px" y="0px"
	 viewBox="0 0 171.7 228.5" style="enable-background:new 0 0 171.7 228.5;" xml:space="preserve">
<style type="text/css">
	.st0{fill:#83C7E5;}
	.st1{fill:#231F20;}
</style>
<g>
	<path d="M130.7,146.2H37.2c-10.8,0-19.5-8.7-19.5-19.5V31.9c0-10.8,8.7-19.5,19.5-19.5h93.5c10.8,0,19.5,8.7,19.5,19.5v94.8
		C150.2,137.5,141.5,146.2,130.7,146.2z"/>
	<g>
		<path class="st0" d="M62.3,120.1c-1.1,0.7-2.1-1.3-1.2-2.3c15.3-15.7,69.5-20.3,58.8-2.1c-0.1,3.5-1.5,3.5-1.5,3.5
			C120.4,114.1,88.4,104.3,62.3,120.1z"/>
		<g>
			<path class="st0" d="M62.7,91.8c0,0.9,1.2,1,1.5,0.2C68,80.4,72.1,55,68,47.2c-0.4-0.8-0.5-1.8-1.1-2.6c-0.5-0.4-0.1-1,0.5-0.9
				c9.1-0.2,7.4,11.4,6.9,17.2c-0.7,6.8-5.9,36.1-9.4,38.5c-2.3,1.6-9.1,1.3-9.1-1.4c0.1-3.7-0.3-31.3-3.8-42.2
				c-0.9-2.8-1.9-5.5-5.5-5.5c-9,0.1-12.8,17-5.8,23c0.4,0.4,0.9,0.9,0.6,1.5c-0.2,0.5-0.7,0.5-1.2,0.4c-4.4-1-7.4-5.3-7.8-9.7
				c-1.5-10.3,5.7-19.4,15.8-18c2.3,0.3,6,1.7,7.7,3.1C61.1,55.2,62.4,81.1,62.7,91.8z"/>
			<g>
				<path class="st0" d="M82.9,53.3c6.9-0.4,2.2,7.3-1.1,9.2c-3.8,2.1-3.1-5.4-2.4-7.3C79.6,54,80.9,53.4,82.9,53.3z"/>
				<path class="st0" d="M118.1,90.2c-0.2-0.7-1.2-0.8-1.5-0.1c-0.5,1.6-1.2,3.2-2.2,4.2c-2,1.8-4.1,1.4-5.2-0.3
					c-0.3-0.5-1-0.4-1.3,0.1c-2.8,5.3-7.9,5.3-10-0.5c-0.2-0.6-1-0.7-1.4-0.2c-1.4,2.3-3.3,4.2-5.8,3.2c-1.9-0.6-2.9-3.6-3.5-6
					c-0.2-0.7-1.1-0.8-1.4-0.1c-0.5,1-1,2-1.2,2.3c-3.3,7.8-10.1,5.7-10.6-2.2c-0.6-5.4,0.2-10.7,1.4-16.1c0.3-2.5,3-2.7,4.8-2.2
					c2.1,0.7,0.9,3.3,0.8,4.9c-0.3,2.4-2.6,14.1-0.1,14.8c0.9,0.1,1.1-0.7,1.4-1.3c2.1-4.2,3.9-9,4.2-13.6c0.1-1.4,1.7-9.5,1.9-10.5
					c0.4-2.2,2.7-16.9,6.9-18.1c3.1-0.9,4.1,1,3.3,3.2c-0.7,2.1-4,13.1-4.5,15.3c-0.1,0.6-0.9,5.5-1,6c-0.5,5.5-1.5,11.2-0.3,16.6
					c0.2,0.6,0.5,2.4,1.4,2.4c2.1,0.1,3.3-8,3.5-9.7c0.8-5.4,2.3-11.9,7.2-15.2L105,67c2.6-1.4,5.3-0.5,6.1,2.1
					c0.2,0.5,0.4,0.7,1,0.8c1.6,0,2,0.4,1.9,2c0,5.7-1.7,11.4-1.4,17c0.1,0.4,0.2,1.8,0.7,1.9c1.5-0.1,2.3-4.7,2.7-6v-0.1
					c2-10.1,1.2-21.6,4.6-31.6c1-4.3,6.2-15.5,11.7-9.6c0.1,0.1,0.1,0.2,0.2,0.3c3.7,9.7-5,24.9-8.5,34.3
					c-1.7,3.7-1.4,11.4,0.8,14.6c3.6,2.9,6.5-9.2,7-11.3c0.1-0.9,0.2-1.7,1.2-1.6c1.4,0.3,0.3,2.1,0.1,3c-1,4.7-1.6,9.9-4.7,13.8
					l-0.1,0.1C123.2,101.6,119.6,95.4,118.1,90.2z M102.7,87.5c0.1,1.1-0.2,4.5,0.9,5.4c0.3,0.2,0.6,0.2,0.9,0
					c2.6-2.1,4.6-16.3,4.9-19.2c0.1-1.1,0.5-3-0.7-3.5c-0.1-0.1-0.3-0.1-0.5,0C104.7,71,102.7,84.6,102.7,87.5z M125.2,68.1
					c2.1-6.7,4.7-16.3,4.1-20.1c-0.1-0.7-1.1-0.9-1.4-0.3c-1.9,3.2-3.4,13.1-4.2,20C123.6,68.7,124.9,69,125.2,68.1z"/>
				<path class="st0" d="M82,67.4c-0.2-0.5,0.1-1,0.6-1.1c3.9-0.5,19-2.6,19.3-1.7c0.4,1.1-3.6,3.7-4.2,4.1c-0.1,0-0.1,0.1-0.2,0.1
					l-8.2,2.6c-0.1,0-0.2,0-0.3,0C88.2,71.4,83.5,71,82,67.4z"/>
			</g>
		</g>
	</g>
	<g>
		<g>
			<path class="st1" d="M49.9,163.1l-3.6,8.5H45l-3.7-8.5H43l2.6,6.1l2.5-6.1H49.9z"/>
			<path class="st1" d="M51.4,163.1H53v8.5h-1.6V163.1z"/>
			<path class="st1" d="M61.4,164.7h-2.5v6.9h-1.6v-6.9h-2.5v-1.6h6.6V164.7z"/>
			<path class="st1" d="M67.7,170.1h-4.1l-0.6,1.5h-1.7l3.6-8.5h1.3l3.6,8.5h-1.7L67.7,170.1z M67.1,168.7l-1.4-3.5l-1.4,3.5H67.1z"
				/>
			<path class="st1" d="M77,170v1.6h-5.5v-8.5h1.6v6.9H77z"/>
			<path class="st1" d="M90.6,163.1l-3.6,8.5h-1.3l-3.7-8.5h1.7l2.6,6.1l2.5-6.1H90.6z"/>
			<path class="st1" d="M92.2,163.1h1.6v8.5h-1.6V163.1z"/>
			<path class="st1" d="M96.6,171.1c-0.5-0.4-0.9-0.9-1-1.6l1.5-0.6c0.1,0.4,0.2,0.7,0.5,0.9s0.6,0.3,0.9,0.3c0.4,0,0.7-0.1,0.9-0.3
				c0.2-0.2,0.3-0.4,0.3-0.7s-0.1-0.6-0.4-0.8c-0.2-0.2-0.6-0.3-1.1-0.5c-0.8-0.2-1.4-0.5-1.9-0.8c-0.5-0.4-0.7-1-0.7-1.7
				c0-0.5,0.1-0.9,0.4-1.2c0.2-0.4,0.6-0.7,1-0.9s0.9-0.3,1.4-0.3c0.6,0,1.2,0.2,1.7,0.5s0.8,0.8,1,1.4l-1.5,0.6
				c-0.1-0.3-0.2-0.5-0.5-0.7c-0.2-0.2-0.5-0.3-0.8-0.3s-0.6,0.1-0.8,0.2c-0.2,0.2-0.3,0.4-0.3,0.6c0,0.5,0.5,0.8,1.5,1.1
				c0.8,0.2,1.4,0.5,1.9,0.9s0.7,1,0.7,1.8c0,0.5-0.1,0.9-0.3,1.3c-0.2,0.4-0.5,0.7-1,0.9c-0.4,0.2-0.9,0.3-1.5,0.3
				C97.7,171.7,97.1,171.5,96.6,171.1z"/>
			<path class="st1" d="M109.7,163.1v4.9c0,0.7-0.1,1.4-0.4,2s-0.6,1-1.1,1.3s-1.1,0.5-1.8,0.5c-0.7,0-1.3-0.2-1.8-0.5
				s-0.9-0.7-1.2-1.3s-0.4-1.2-0.4-2v-4.9h1.6v4.9c0,0.7,0.2,1.2,0.5,1.5c0.3,0.4,0.7,0.6,1.3,0.6c0.6,0,1-0.2,1.3-0.6
				c0.3-0.4,0.5-0.9,0.5-1.5v-4.9H109.7z"/>
			<path class="st1" d="M117,170.1h-4.1l-0.6,1.5h-1.7l3.6-8.5h1.3l3.6,8.5h-1.7L117,170.1z M116.4,168.7l-1.4-3.5l-1.4,3.5H116.4z"
				/>
			<path class="st1" d="M126.3,169.9v1.6h-5.5V163h1.6v6.9H126.3z"/>
			<path class="st1" d="M21,180.7v8.5h-1.7v-6.5l-1.1,0.4l-0.6-1.4l2.4-1H21z"/>
			<path class="st1" d="M26,180.7v8.5h-1.7v-6.5l-1.1,0.4l-0.6-1.4l2.4-1H26z"/>
			<path class="st1" d="M31,180.7v8.5h-1.7v-6.5l-1.1,0.4l-0.6-1.4l2.4-1H31z"/>
			<path class="st1" d="M42.9,185.7c0.2,0.3,0.3,0.7,0.3,1.1c0,0.5-0.1,0.9-0.3,1.3c-0.2,0.4-0.5,0.6-0.9,0.8s-0.8,0.3-1.3,0.3h-3.6
				v-8.5h3.3c0.5,0,1,0.1,1.4,0.3s0.7,0.5,0.9,0.9s0.3,0.8,0.3,1.2s-0.1,0.8-0.3,1.1s-0.4,0.6-0.8,0.8
				C42.4,185.1,42.7,185.3,42.9,185.7z M38.7,182.2v2h1.6c0.4,0,0.6-0.1,0.8-0.3s0.3-0.4,0.3-0.7s-0.1-0.5-0.3-0.7s-0.5-0.3-0.8-0.3
				H38.7z M41.2,187.4c0.2-0.2,0.3-0.5,0.3-0.8s-0.1-0.6-0.3-0.8s-0.5-0.3-0.9-0.3h-1.6v2.1h1.6C40.7,187.7,41,187.6,41.2,187.4z"/>
			<path class="st1" d="M50.5,187.7h-4.1l-0.6,1.5h-1.7l3.6-8.5H49l3.6,8.5h-1.7L50.5,187.7z M49.9,186.3l-1.4-3.5l-1.4,3.5H49.9z"
				/>
			<path class="st1" d="M60,185.6c0.2,0.3,0.3,0.7,0.3,1.1c0,0.5-0.1,0.9-0.3,1.3c-0.2,0.4-0.5,0.6-0.9,0.8s-0.8,0.3-1.3,0.3h-3.6
				v-8.5h3.3c0.5,0,1,0.1,1.4,0.3s0.7,0.5,0.9,0.9s0.3,0.8,0.3,1.2s-0.1,0.8-0.3,1.1s-0.4,0.6-0.8,0.8
				C59.5,185.1,59.8,185.3,60,185.6z M55.9,182.2v2h1.6c0.4,0,0.6-0.1,0.8-0.3s0.3-0.4,0.3-0.7s-0.1-0.5-0.3-0.7s-0.5-0.3-0.8-0.3
				H55.9z M58.4,187.4c0.2-0.2,0.3-0.5,0.3-0.8s-0.1-0.6-0.3-0.8s-0.5-0.3-0.9-0.3h-1.6v2.1h1.6C57.9,187.7,58.2,187.6,58.4,187.4z"
				/>
			<path class="st1" d="M67.9,189c-0.5,0.2-1.1,0.3-1.7,0.3c-0.8,0-1.5-0.2-2.2-0.6c-0.7-0.4-1.2-0.9-1.6-1.6
				c-0.4-0.7-0.6-1.4-0.6-2.2s0.2-1.6,0.6-2.2c0.4-0.7,0.9-1.2,1.6-1.6c0.7-0.4,1.4-0.6,2.2-0.6c0.6,0,1.2,0.1,1.7,0.3s1,0.5,1.4,1
				l-1.2,1.2c-0.5-0.6-1.2-0.8-1.9-0.8c-0.5,0-0.9,0.1-1.3,0.4s-0.7,0.6-1,1c-0.2,0.4-0.4,0.9-0.4,1.4s0.1,0.9,0.4,1.4
				c0.2,0.4,0.6,0.7,1,1c0.4,0.2,0.9,0.4,1.3,0.4s0.7-0.1,1.1-0.2c0.3-0.1,0.6-0.4,0.9-0.6l1.2,1.2C68.9,188.4,68.4,188.7,67.9,189z
				"/>
			<path class="st1" d="M72.5,188.7c-0.7-0.4-1.2-0.9-1.6-1.6c-0.4-0.7-0.6-1.4-0.6-2.2s0.2-1.5,0.6-2.2s0.9-1.2,1.6-1.6
				c0.7-0.4,1.4-0.6,2.2-0.6c0.8,0,1.5,0.2,2.2,0.6c0.7,0.4,1.2,0.9,1.6,1.6c0.4,0.7,0.6,1.4,0.6,2.2s-0.2,1.5-0.6,2.2
				s-0.9,1.2-1.6,1.6s-1.4,0.6-2.2,0.6S73.2,189.1,72.5,188.7z M76,187.3c0.4-0.2,0.7-0.6,1-1c0.2-0.4,0.4-0.9,0.3-1.4
				s-0.1-1-0.4-1.4s-0.6-0.8-1-1s-0.9-0.4-1.4-0.4s-1,0.1-1.4,0.4c-0.4,0.2-0.7,0.6-1,1c-0.2,0.4-0.3,0.9-0.3,1.4s0.1,1,0.3,1.4
				c0.2,0.4,0.5,0.8,1,1c0.4,0.2,0.9,0.4,1.4,0.4C75.2,187.7,75.6,187.6,76,187.3z"/>
			<path class="st1" d="M86.6,188.9c-0.5,0.2-1.1,0.3-1.7,0.3c-0.8,0-1.5-0.2-2.2-0.6c-0.7-0.4-1.2-0.9-1.6-1.6
				c-0.4-0.7-0.6-1.4-0.6-2.2s0.2-1.6,0.6-2.2c0.4-0.7,0.9-1.2,1.6-1.6c0.7-0.4,1.4-0.6,2.2-0.6c0.6,0,1.2,0.1,1.7,0.3s1,0.5,1.4,1
				l-1.2,1.2c-0.5-0.6-1.2-0.8-1.9-0.8c-0.5,0-0.9,0.1-1.3,0.4c-0.4,0.2-0.7,0.6-1,1c-0.2,0.4-0.4,0.9-0.4,1.4s0.1,0.9,0.4,1.4
				c0.2,0.4,0.6,0.7,1,1c0.4,0.2,0.9,0.4,1.3,0.4s0.7-0.1,1.1-0.2c0.3-0.1,0.6-0.4,0.9-0.6L88,188C87.6,188.4,87.1,188.7,86.6,188.9
				z"/>
			<path class="st1" d="M93.4,184.6l3.1,4.6h-2l-2.1-3.2l-1,1.3v1.9h-1.6v-8.5h1.6v4.1l3.1-4.1h2L93.4,184.6z"/>
			<path class="st1" d="M107.8,185.6c0.2,0.3,0.3,0.7,0.3,1.1c0,0.5-0.1,0.9-0.3,1.3c-0.2,0.4-0.5,0.6-0.9,0.8s-0.8,0.3-1.3,0.3H102
				v-8.5h3.3c0.5,0,1,0.1,1.4,0.3s0.7,0.5,0.9,0.9c0.2,0.4,0.3,0.8,0.3,1.2s-0.1,0.8-0.3,1.1c-0.2,0.3-0.4,0.6-0.8,0.8
				C107.3,185,107.6,185.3,107.8,185.6z M103.6,182.1v2h1.6c0.4,0,0.6-0.1,0.8-0.3c0.2-0.2,0.3-0.4,0.3-0.7s-0.1-0.5-0.3-0.7
				c-0.2-0.2-0.5-0.3-0.8-0.3H103.6z M106.1,187.3c0.2-0.2,0.3-0.5,0.3-0.8s-0.1-0.6-0.3-0.8c-0.2-0.2-0.5-0.3-0.9-0.3h-1.6v2.1h1.6
				C105.6,187.6,105.9,187.5,106.1,187.3z"/>
			<path class="st1" d="M115.4,187.5v1.6h-5.5v-8.5h1.6v6.9H115.4z"/>
			<path class="st1" d="M124.2,180.6l-3.6,8.5h-1.3l-3.7-8.5h1.7l2.6,6.1l2.5-6.1H124.2z"/>
			<path class="st1" d="M130.7,181.2c0.6,0.4,1.2,0.9,1.5,1.5c0.4,0.6,0.5,1.4,0.5,2.2s-0.2,1.5-0.5,2.2c-0.4,0.6-0.9,1.1-1.5,1.5
				s-1.4,0.5-2.2,0.5h-2.7v-8.5h2.7C129.3,180.6,130,180.8,130.7,181.2z M129.8,187.2c0.4-0.2,0.7-0.5,0.9-0.9s0.3-0.9,0.3-1.4
				s-0.1-1-0.3-1.4s-0.5-0.7-0.9-0.9s-0.8-0.3-1.3-0.3h-1.1v5.3h1.1C129,187.5,129.4,187.4,129.8,187.2z"/>
			<path class="st1" d="M137.7,180.6h1.8l2.2,5.6l1.9-5.6h1.1l2,5.6l2-5.6h1.8l-3.3,8.5h-1.1l-1.9-5.4l-1.9,5.4h-1.1L137.7,180.6z"
				/>
			<path class="st1" d="M30.3,198.8c0.6,0.4,1.2,0.9,1.5,1.5c0.4,0.6,0.5,1.4,0.5,2.2s-0.2,1.5-0.5,2.2c-0.4,0.6-0.9,1.1-1.5,1.5
				s-1.4,0.5-2.2,0.5h-2.7v-8.5h2.7C28.9,198.3,29.7,198.5,30.3,198.8z M29.4,204.8c0.4-0.2,0.7-0.5,0.9-0.9
				c0.2-0.4,0.3-0.9,0.3-1.4s-0.1-1-0.3-1.4s-0.5-0.7-0.9-0.9s-0.8-0.3-1.3-0.3H27v5.3h1.1C28.6,205.2,29,205.1,29.4,204.8z"/>
			<path class="st1" d="M35.8,199.8v1.8h3.4v1.6h-3.4v2h3.7v1.6h-5.3v-8.5h5.3v1.6L35.8,199.8z"/>
			<path class="st1" d="M46.9,205.2v1.6h-5.5v-8.5H43v6.9H46.9z"/>
			<path class="st1" d="M54.6,205.3h-4.1l-0.6,1.5h-1.7l3.6-8.5h1.3l3.6,8.5H55L54.6,205.3z M54,203.9l-1.4-3.5l-1.4,3.5H54z"/>
			<path class="st1" d="M58.4,198.2h1.3l4.2,5.4v-5.4h1.6v8.5h-1.3l-4.2-5.4v5.4h-1.6L58.4,198.2z"/>
			<path class="st1" d="M69.5,206.3c-0.7-0.4-1.2-0.9-1.6-1.6c-0.4-0.7-0.6-1.4-0.6-2.2s0.2-1.5,0.6-2.2s0.9-1.2,1.6-1.6
				c0.7-0.4,1.4-0.6,2.2-0.6s1.5,0.2,2.2,0.6s1.2,0.9,1.6,1.6c0.4,0.7,0.6,1.4,0.6,2.2s-0.2,1.5-0.6,2.2s-0.9,1.2-1.6,1.6
				c-0.7,0.4-1.4,0.6-2.2,0.6S70.2,206.7,69.5,206.3z M73.1,204.9c0.4-0.2,0.7-0.6,1-1c0.2-0.4,0.4-0.9,0.3-1.4c0-0.5-0.1-1-0.4-1.4
				c-0.2-0.4-0.6-0.8-1-1s-0.9-0.4-1.4-0.4s-1,0.1-1.4,0.4c-0.4,0.2-0.7,0.6-1,1c-0.2,0.4-0.3,0.9-0.3,1.4s0.1,1,0.3,1.4
				s0.5,0.8,1,1c0.4,0.2,0.9,0.4,1.4,0.4C72.2,205.3,72.7,205.1,73.1,204.9z"/>
			<path class="st1" d="M77.6,205.1h1.6l-0.9,2.8h-1.4L77.6,205.1z"/>
			<path class="st1" d="M84.9,198.2h1.4l2.9,4.2l2.9-4.2h1.4v8.5h-1.6v-5.4l-2.1,3h-1.1l-2.1-3v5.4H85L84.9,198.2z"/>
			<path class="st1" d="M95.6,198.2h1.3l4.2,5.4v-5.4h1.6v8.5h-1.3l-4.2-5.4v5.4h-1.6V198.2z"/>
			<path class="st1" d="M112.8,201.3c0.4,0.2,0.7,0.6,1,1c0.2,0.4,0.4,0.9,0.4,1.5s-0.1,1.1-0.4,1.5s-0.6,0.8-1,1
				c-0.4,0.3-0.9,0.4-1.5,0.4c-0.5,0-1.1-0.1-1.6-0.4c-0.5-0.3-0.9-0.6-1.2-1.1l1.1-1.1c0.3,0.3,0.6,0.6,0.8,0.7s0.6,0.2,0.9,0.2
				c0.4,0,0.7-0.1,1-0.4c0.2-0.3,0.4-0.6,0.4-1s-0.1-0.7-0.4-1c-0.3-0.2-0.6-0.4-1-0.4c-0.5,0-1,0.2-1.4,0.6l-1.1-0.7l0.8-4.3h4.1
				v1.6h-2.8l-0.3,1.4c0.3-0.1,0.6-0.1,1-0.1C111.9,201,112.3,201.1,112.8,201.3z"/>
			<path class="st1" d="M119.8,201.3c0.4,0.2,0.7,0.6,1,1c0.2,0.4,0.4,0.9,0.4,1.5s-0.1,1.1-0.4,1.5s-0.6,0.8-1,1s-0.9,0.4-1.5,0.4
				c-0.5,0-1.1-0.1-1.6-0.4c-0.5-0.3-0.9-0.6-1.2-1.1l1.1-1.1c0.3,0.3,0.6,0.6,0.8,0.8c0.3,0.2,0.6,0.2,0.9,0.2c0.4,0,0.7-0.1,1-0.4
				c0.2-0.3,0.4-0.6,0.4-1s-0.1-0.7-0.4-1c-0.3-0.2-0.6-0.4-1-0.4c-0.5,0-1,0.2-1.4,0.6l-1.1-0.7l0.8-4.3h4.1v1.6h-2.8l-0.3,1.4
				c0.3-0.1,0.6-0.1,1-0.1C118.9,201,119.4,201.1,119.8,201.3z"/>
			<path class="st1" d="M127.7,202.3c0.4,0.5,0.5,1.1,0.5,1.7c0,0.5-0.1,1-0.4,1.4c-0.2,0.4-0.6,0.8-1,1c-0.4,0.3-1,0.4-1.5,0.4
				c-0.6,0-1.1-0.1-1.6-0.4c-0.5-0.2-0.9-0.6-1.2-1.1l1.2-0.9c0.2,0.3,0.4,0.5,0.7,0.6c0.3,0.2,0.6,0.2,0.9,0.2c0.4,0,0.7-0.1,1-0.4
				c0.2-0.2,0.4-0.5,0.4-0.9s-0.2-0.7-0.5-1s-0.7-0.4-1.2-0.4h-0.6v-1l1.5-2H123v-1.4h5v1l-1.7,2.2
				C126.8,201.5,127.3,201.8,127.7,202.3z"/>
			<path class="st1" d="M130.1,205.6c0-0.6,0.1-1.1,0.3-1.5s0.4-0.8,0.8-1.1c0.4-0.3,0.8-0.7,1.4-1c0.8-0.5,1.2-0.9,1.2-1.5
				c0-0.3-0.1-0.5-0.3-0.7s-0.5-0.3-0.8-0.3s-0.6,0.1-0.8,0.3s-0.4,0.4-0.5,0.8L130,200c0.2-0.6,0.5-1.1,1-1.4
				c0.5-0.4,1.1-0.5,1.7-0.5c0.5,0,1,0.1,1.4,0.3s0.7,0.5,1,0.9c0.2,0.4,0.3,0.8,0.3,1.3c0,0.6-0.2,1.1-0.5,1.6s-0.9,0.9-1.7,1.3
				c-0.5,0.3-0.8,0.5-1,0.8s-0.3,0.6-0.4,0.9h3.7v1.6h-5.4V205.6z"/>
			<path class="st1" d="M142.6,203c0.2,0.3,0.3,0.7,0.3,1.2s-0.1,1-0.4,1.3s-0.6,0.7-1,0.9s-0.9,0.3-1.5,0.3s-1.1-0.1-1.5-0.3
				s-0.8-0.5-1-0.9s-0.4-0.8-0.4-1.3c0-0.4,0.1-0.8,0.3-1.2c0.2-0.3,0.5-0.6,0.8-0.8c-0.3-0.2-0.5-0.5-0.7-0.8s-0.2-0.7-0.2-1
				c0-0.4,0.1-0.8,0.3-1.2s0.5-0.7,0.9-0.9s0.9-0.3,1.4-0.3s1,0.1,1.4,0.3s0.7,0.5,0.9,0.9s0.3,0.8,0.3,1.2s-0.1,0.7-0.2,1
				c-0.2,0.3-0.4,0.6-0.7,0.8C142.2,202.4,142.4,202.7,142.6,203z M141,205c0.2-0.2,0.3-0.5,0.3-0.9s-0.1-0.6-0.4-0.9
				s-0.5-0.3-0.9-0.3c-0.3,0-0.6,0.1-0.9,0.3c-0.2,0.2-0.4,0.5-0.4,0.9s0.1,0.7,0.3,0.9s0.5,0.3,0.9,0.3
				C140.5,205.3,140.8,205.2,141,205z M139.3,199.8c-0.2,0.2-0.3,0.4-0.3,0.7s0.1,0.5,0.3,0.7s0.4,0.3,0.8,0.3
				c0.3,0,0.6-0.1,0.8-0.3s0.3-0.4,0.3-0.7s-0.1-0.5-0.3-0.7s-0.4-0.3-0.8-0.3S139.5,199.6,139.3,199.8z"/>
		</g>
	</g>
</g>
</svg>
