<?xml version="1.0" encoding="utf-8"?>
<!-- Generator: Adobe Illustrator 28.1.0, SVG Export Plug-In . SVG Version: 6.00 Build 0)  -->
<svg version="1.1" id="Layer_1" xmlns="http://www.w3.org/2000/svg" xmlns:xlink="http://www.w3.org/1999/xlink" x="0px" y="0px"
	 width="171.7px" height="228.5px" viewBox="0 0 171.7 228.5" style="enable-background:new 0 0 171.7 228.5;" xml:space="preserve"
	>
<style type="text/css">
	.st0{fill:#FFFFFF;}
	.st1{fill:#231F20;}
	.st2{fill:none;}
</style>
<path d="M132.6,145.3H39.1c-10.8,0-19.5-8.7-19.5-19.5V31c0-10.8,8.7-19.5,19.5-19.5h93.5c10.8,0,19.5,8.7,19.5,19.5v94.8
	C152.1,136.6,143.4,145.3,132.6,145.3z"/>
<g>
	<path class="st0" d="M58.5,124.2c-1.2,0.7-2.2-1.4-1.3-2.4c16.1-16.5,73.2-21.4,61.9-2.2c-0.1,3.7-1.6,3.7-1.6,3.7
		C119.7,117.9,86,107.6,58.5,124.2z"/>
	<g>
		<path class="st0" d="M59,94.4c0,0.9,1.3,1.1,1.6,0.2c4-12.2,8.3-38.9,4-47.2c-0.4-0.8-0.5-1.9-1.2-2.7c-0.5-0.4-0.1-1.1,0.5-0.9
			c9.6-0.2,7.8,12,7.3,18.1c-0.7,7.2-6.2,38-9.9,40.5c-2.4,1.7-9.6,1.4-9.6-1.5c0.1-3.9-0.3-32.9-4-44.4c-0.9-2.9-2-5.8-5.8-5.8
			c-9.5,0.1-13.5,17.9-6.1,24.2c0.4,0.4,0.9,0.9,0.6,1.6c-0.2,0.5-0.7,0.5-1.3,0.4c-4.6-1.1-7.8-5.6-8.2-10.2
			c-1.6-10.8,6-20.4,16.6-18.9c2.4,0.3,6.3,1.8,8.1,3.3C57.3,55.9,58.6,83.2,59,94.4z"/>
		<g>
			<path class="st0" d="M80.2,53.9c7.3-0.4,2.3,7.7-1.2,9.7c-4,2.2-3.3-5.7-2.5-7.7C76.7,54.6,78.1,54,80.2,53.9z"/>
			<path class="st0" d="M117.3,92.7c-0.2-0.7-1.3-0.8-1.6-0.1c-0.5,1.7-1.3,3.4-2.3,4.4c-2.1,1.9-4.3,1.5-5.5-0.3
				c-0.3-0.5-1.1-0.4-1.4,0.1c-2.9,5.6-8.3,5.6-10.5-0.5c-0.2-0.6-1.1-0.7-1.5-0.2c-1.5,2.4-3.5,4.4-6.1,3.4c-2-0.6-3.1-3.8-3.7-6.3
				c-0.2-0.7-1.2-0.8-1.5-0.1c-0.5,1.1-1.1,2.1-1.3,2.4c-3.5,8.2-10.6,6-11.2-2.3c-0.6-5.7,0.2-11.3,1.5-16.9
				c0.3-2.6,3.2-2.8,5.1-2.3c2.2,0.7,0.9,3.5,0.8,5.2C77.8,81.7,75.4,94,78,94.8c0.9,0.1,1.2-0.7,1.5-1.4c2.2-4.4,4.1-9.5,4.4-14.3
				c0.1-1.5,1.8-10,2-11.1c0.4-2.3,2.8-17.8,7.3-19.1c3.3-0.9,4.3,1.1,3.5,3.4C96,54.4,92.5,66,92,68.3c-0.1,0.6-0.9,5.8-1.1,6.3
				c-0.5,5.8-1.6,11.8-0.3,17.5c0.2,0.6,0.5,2.5,1.5,2.5c2.2,0.1,3.5-8.4,3.7-10.2c0.8-5.7,2.4-12.5,7.6-16l0.1-0.1
				c2.7-1.5,5.6-0.5,6.4,2.2c0.2,0.5,0.4,0.7,1.1,0.8c1.7,0,2.1,0.4,2,2.1c0,6-1.8,12-1.5,17.9c0.1,0.4,0.2,1.9,0.7,2
				c1.6-0.1,2.4-4.9,2.8-6.3l0,0c2.1-10.6,1.3-22.7,4.8-33.3c1.1-4.5,6.5-16.3,12.3-10.1c0.1,0.1,0.1,0.2,0.2,0.3
				c3.9,10.2-5.3,26.2-8.9,36.1c-1.8,3.9-1.5,12,0.8,15.4c3.8,3.1,6.8-9.7,7.4-11.9c0.1-0.9,0.2-1.8,1.3-1.7
				c1.5,0.3,0.3,2.2,0.1,3.2c-1.1,4.9-1.7,10.4-4.9,14.5l-0.1,0.1C122.6,104.8,118.9,98.2,117.3,92.7z M101.1,89.9
				c0.1,1.2-0.2,4.7,0.9,5.7c0.3,0.2,0.6,0.2,0.9,0c2.7-2.2,4.8-17.2,5.2-20.2c0.1-1.2,0.5-3.2-0.7-3.7c-0.1-0.1-0.3-0.1-0.5,0
				C103.2,72.5,101.1,86.9,101.1,89.9z M124.8,69.5c2.2-7.1,4.9-17.2,4.3-21.2c-0.1-0.7-1.2-0.9-1.5-0.3c-2,3.4-3.6,13.8-4.4,21.1
				C123.1,70.1,124.4,70.4,124.8,69.5z"/>
			<path class="st0" d="M79.3,68.7c-0.2-0.5,0.1-1.1,0.6-1.2c4.1-0.5,20-2.7,20.3-1.8c0.4,1.2-3.8,3.9-4.4,4.3
				c-0.1,0-0.1,0.1-0.2,0.1L87,73c-0.1,0-0.2,0-0.3,0C85.8,73,80.9,72.5,79.3,68.7z"/>
		</g>
	</g>
</g>
<g>
	<path class="st1" d="M45,158.7l-4.7,10.7h-1.7l-4.9-10.7h2.2l3.3,7.7l3.2-7.7H45z"/>
	<path class="st1" d="M46.3,158.7h2.1v10.7h-2.1V158.7z"/>
	<path class="st1" d="M59.3,160.8h-3.2v8.7H54v-8.7h-3.2v-2h8.7C59.3,158.8,59.3,160.8,59.3,160.8z"/>
	<path class="st1" d="M66.4,167.5H61l-0.7,1.9h-2.2l4.7-10.7h1.7l4.7,10.7h-2.2L66.4,167.5z M65.7,165.7l-1.9-4.3l-1.9,4.3H65.7z"/>
	<path class="st1" d="M78.2,167.5v2h-7.3v-10.7h2.1v8.7H78.2L78.2,167.5z"/>
	<path class="st1" d="M92.7,158.7L88,169.4h-1.7l-4.9-10.7h2.2l3.3,7.7l3.2-7.7H92.7z"/>
	<path class="st1" d="M93.9,158.7h2.1v10.7h-2.1V158.7z"/>
	<path class="st1" d="M99.6,168.8c-0.6-0.5-1.2-1.2-1.4-2l2-0.7c0.2,0.5,0.3,0.9,0.6,1.2c0.5,0.3,0.7,0.4,1.2,0.4s0.9-0.2,1.2-0.4
		c0.3-0.3,0.5-0.5,0.5-0.9s-0.2-0.7-0.5-1s-0.7-0.4-1.4-0.6c-1-0.3-1.9-0.6-2.5-1c-0.6-0.5-0.9-1.3-0.9-2.1c0-0.6,0.2-1.2,0.5-1.5
		c0.3-0.5,0.7-0.9,1.4-1.2c0.5-0.3,1.2-0.4,1.9-0.4c0.7,0,1.6,0.3,2.2,0.6c0.6,0.4,1,1,1.4,1.8l-2,0.7c-0.2-0.4-0.3-0.6-0.6-0.9
		c-0.3-0.3-0.6-0.4-1-0.4c-0.4,0-0.7,0.2-1,0.3c-0.3,0.3-0.5,0.5-0.5,0.7c0,0.6,0.6,1,2,1.4c1,0.3,1.9,0.6,2.5,1.2
		c0.6,0.6,0.9,1.3,0.9,2.3c0,0.6-0.2,1.2-0.5,1.6c-0.3,0.5-0.6,0.9-1.4,1.2c-0.5,0.3-1.2,0.4-2,0.4
		C100.9,169.5,100.2,169.3,99.6,168.8z"/>
	<path class="st1" d="M116.8,158.7v6.1c0,0.9-0.2,1.8-0.5,2.5c-0.5,0.7-0.7,1.3-1.4,1.6c-0.6,0.4-1.4,0.6-2.3,0.6
		c-0.9,0-1.7-0.3-2.3-0.6s-1.2-0.9-1.6-1.6c-0.5-0.7-0.5-1.5-0.5-2.5v-6.1h2.1v6.1c0,0.9,0.3,1.5,0.6,1.9c0.5,0.5,0.9,0.7,1.7,0.7
		c0.7,0,1.4-0.3,1.7-0.7c0.5-0.5,0.6-1.2,0.6-1.9v-6.1H116.8z"/>
	<path class="st1" d="M125.8,167.5h-5.3l-0.7,1.9h-2.2l4.7-10.7h1.7l4.7,10.7h-2.2L125.8,167.5z M124.9,165.7l-1.9-4.3l-1.9,4.3
		H124.9z"/>
	<path class="st1" d="M138.1,167.5v2h-7.2v-10.7h2.1v8.7H138.1L138.1,167.5z"/>
</g>
<g>
	<path d="M33.5,178.1v7.8h-0.9v-6.4l-1.1,0.7l-0.5-0.7l1.9-1.3H33.5z"/>
	<path d="M37,178.1v7.8h-0.9v-6.4l-1.1,0.7l-0.5-0.7l1.9-1.3H37z"/>
	<path d="M40.6,178.1v7.8h-0.9v-6.4l-1.1,0.7l-0.5-0.7l1.9-1.3H40.6z"/>
	<path d="M50.3,182.6c0.2,0.3,0.3,0.7,0.3,1.1c0,0.4-0.1,0.8-0.3,1.1c-0.2,0.3-0.5,0.6-0.8,0.8c-0.4,0.2-0.7,0.3-1.2,0.3h-2.8v-7.8
		h2.5c0.4,0,0.8,0.1,1.2,0.3c0.4,0.2,0.6,0.4,0.9,0.7c0.2,0.3,0.3,0.7,0.3,1.1c0,0.4-0.1,0.7-0.3,1c-0.2,0.3-0.4,0.5-0.7,0.7
		C49.8,182,50.1,182.2,50.3,182.6z M46.4,179v2.5H48c0.5,0,0.8-0.1,1.1-0.4c0.3-0.3,0.4-0.6,0.4-0.9c0-0.3-0.1-0.6-0.4-0.9
		c-0.3-0.2-0.6-0.3-1.1-0.3H46.4z M49.3,184.6c0.3-0.2,0.4-0.6,0.4-1c0-0.4-0.1-0.7-0.4-1c-0.3-0.3-0.7-0.4-1.3-0.4h-1.6v2.6H48
		C48.6,185,49,184.9,49.3,184.6z"/>
	<path d="M56.8,184.1h-4.1l-0.8,1.8h-1l3.5-7.8H55l3.5,7.8h-1L56.8,184.1z M56.4,183.3l-1.7-3.7l-1.7,3.7H56.4z"/>
	<path d="M64.3,182.6c0.2,0.3,0.3,0.7,0.3,1.1c0,0.4-0.1,0.8-0.3,1.1c-0.2,0.3-0.5,0.6-0.8,0.8c-0.4,0.2-0.7,0.3-1.2,0.3h-2.8v-7.8
		H62c0.4,0,0.8,0.1,1.2,0.3c0.4,0.2,0.6,0.4,0.9,0.7c0.2,0.3,0.3,0.7,0.3,1.1c0,0.4-0.1,0.7-0.3,1c-0.2,0.3-0.4,0.5-0.7,0.7
		C63.7,182,64,182.2,64.3,182.6z M60.4,179v2.5h1.6c0.5,0,0.8-0.1,1.1-0.4c0.3-0.3,0.4-0.6,0.4-0.9c0-0.3-0.1-0.6-0.4-0.9
		c-0.3-0.2-0.6-0.3-1.1-0.3H60.4z M63.2,184.6c0.3-0.2,0.4-0.6,0.4-1c0-0.4-0.1-0.7-0.4-1c-0.3-0.3-0.7-0.4-1.3-0.4h-1.6v2.6h1.6
		C62.5,185,62.9,184.9,63.2,184.6z"/>
	<path d="M69.4,186c-0.7,0-1.4-0.2-2-0.5c-0.6-0.3-1.1-0.8-1.5-1.4c-0.4-0.6-0.5-1.3-0.5-2.1c0-0.8,0.2-1.4,0.5-2.1
		c0.4-0.6,0.9-1.1,1.5-1.4c0.6-0.3,1.3-0.5,2-0.5c1.2,0,2.2,0.5,2.9,1.4l-0.6,0.6c-0.3-0.4-0.6-0.7-1-0.8c-0.4-0.2-0.8-0.3-1.3-0.3
		c-0.5,0-1,0.1-1.5,0.4s-0.8,0.6-1.1,1.1c-0.3,0.5-0.4,1-0.4,1.6c0,0.6,0.1,1.1,0.4,1.6c0.3,0.5,0.7,0.8,1.1,1.1s1,0.4,1.5,0.4
		c0.5,0,0.9-0.1,1.3-0.3c0.4-0.2,0.7-0.5,1-0.8l0.6,0.6C71.6,185.5,70.6,186,69.4,186z"/>
	<path d="M75,185.5c-0.6-0.4-1.1-0.8-1.5-1.5c-0.4-0.6-0.5-1.3-0.5-2c0-0.7,0.2-1.4,0.5-2c0.4-0.6,0.8-1.1,1.5-1.5s1.3-0.5,2-0.5
		c0.7,0,1.4,0.2,2,0.5s1.1,0.8,1.5,1.5c0.4,0.6,0.5,1.3,0.5,2c0,0.7-0.2,1.4-0.5,2c-0.4,0.6-0.8,1.1-1.5,1.5s-1.3,0.5-2,0.5
		C76.3,186,75.7,185.8,75,185.5z M78.6,184.7c0.5-0.3,0.8-0.7,1.1-1.1c0.3-0.5,0.4-1,0.4-1.6s-0.1-1.1-0.4-1.6
		c-0.3-0.5-0.6-0.9-1.1-1.1c-0.5-0.3-1-0.4-1.5-0.4c-0.6,0-1.1,0.1-1.5,0.4c-0.5,0.3-0.8,0.7-1.1,1.1c-0.3,0.5-0.4,1-0.4,1.6
		s0.1,1.1,0.4,1.6c0.3,0.5,0.6,0.9,1.1,1.1s1,0.4,1.5,0.4C77.6,185.1,78.1,185,78.6,184.7z"/>
	<path d="M85.8,186c-0.7,0-1.4-0.2-2-0.5c-0.6-0.3-1.1-0.8-1.5-1.4c-0.4-0.6-0.6-1.3-0.6-2.1c0-0.8,0.2-1.4,0.6-2.1
		c0.4-0.6,0.9-1.1,1.5-1.4c0.6-0.3,1.3-0.5,2-0.5c1.2,0,2.2,0.5,2.9,1.4l-0.6,0.6c-0.3-0.4-0.6-0.7-1-0.8c-0.4-0.2-0.8-0.3-1.3-0.3
		c-0.5,0-1,0.1-1.5,0.4c-0.5,0.3-0.8,0.6-1.1,1.1c-0.3,0.5-0.4,1-0.4,1.6c0,0.6,0.1,1.1,0.4,1.6c0.3,0.5,0.7,0.8,1.1,1.1
		c0.5,0.3,1,0.4,1.5,0.4c0.5,0,0.9-0.1,1.3-0.3s0.7-0.5,1-0.8l0.6,0.6C88,185.5,87,186,85.8,186z"/>
	<path d="M92.1,182.1l3.8,3.8h-1.3l-3.2-3.2l-0.6,0.6v2.6h-0.9v-7.8h0.9v4l4-4H96L92.1,182.1z"/>
	<path d="M105.1,182.6c0.2,0.3,0.3,0.7,0.3,1.1c0,0.4-0.1,0.8-0.3,1.1c-0.2,0.3-0.5,0.6-0.8,0.8c-0.4,0.2-0.7,0.3-1.2,0.3h-2.8v-7.8
		h2.5c0.4,0,0.8,0.1,1.2,0.3c0.4,0.2,0.6,0.4,0.9,0.7c0.2,0.3,0.3,0.7,0.3,1.1c0,0.4-0.1,0.7-0.3,1c-0.2,0.3-0.4,0.5-0.7,0.7
		C104.6,182,104.9,182.2,105.1,182.6z M101.2,179v2.5h1.6c0.5,0,0.8-0.1,1.1-0.4c0.3-0.3,0.4-0.6,0.4-0.9c0-0.3-0.1-0.6-0.4-0.9
		c-0.3-0.2-0.6-0.3-1.1-0.3H101.2z M104,184.6c0.3-0.2,0.4-0.6,0.4-1c0-0.4-0.1-0.7-0.4-1c-0.3-0.3-0.7-0.4-1.3-0.4h-1.6v2.6h1.6
		C103.3,185,103.7,184.9,104,184.6z"/>
	<path d="M111.7,185v0.9h-5v-7.8h0.9v6.9H111.7z"/>
	<path d="M118.5,178.1l-3.5,7.8h-0.6l-3.5-7.8h1l2.9,6.3l2.8-6.3H118.5z"/>
	<path d="M123.6,178.6c0.6,0.3,1.1,0.8,1.4,1.4c0.3,0.6,0.5,1.3,0.5,2s-0.2,1.4-0.5,2c-0.3,0.6-0.8,1.1-1.4,1.4
		c-0.6,0.3-1.3,0.5-2.1,0.5h-2.2v-7.8h2.2C122.3,178.1,123,178.3,123.6,178.6z M123.2,184.6c0.5-0.3,0.8-0.6,1.1-1.1
		c0.2-0.5,0.4-1,0.4-1.5c0-0.6-0.1-1.1-0.4-1.5c-0.2-0.5-0.6-0.8-1.1-1.1c-0.5-0.3-1-0.4-1.6-0.4h-1.3v6h1.3
		C122.1,185,122.7,184.8,123.2,184.6z"/>
	<path d="M129.4,178.1h1l2.2,6l2-6h0.9l2,6l2.2-6h1l-2.9,7.8h-0.6l-2.1-6.4l-2.2,6.4h-0.6L129.4,178.1z"/>
</g>
<g>
	<path d="M41.2,194.1c0.6,0.3,1.1,0.8,1.4,1.4c0.3,0.6,0.5,1.3,0.5,2c0,0.7-0.2,1.4-0.5,2c-0.3,0.6-0.8,1.1-1.4,1.4
		c-0.6,0.3-1.3,0.5-2.1,0.5h-2.2v-7.8h2.2C39.9,193.6,40.6,193.8,41.2,194.1z M40.7,200.1c0.5-0.3,0.8-0.6,1.1-1.1
		c0.2-0.5,0.4-1,0.4-1.5c0-0.6-0.1-1.1-0.4-1.5c-0.2-0.5-0.6-0.8-1.1-1.1c-0.5-0.3-1-0.4-1.6-0.4h-1.3v6H39
		C39.7,200.5,40.2,200.4,40.7,200.1z"/>
	<path d="M45.2,194.5v2.4h3.7v0.9h-3.7v2.7h3.9v0.9h-4.8v-7.8h4.8v0.9H45.2z"/>
	<path d="M55.4,200.5v0.9h-5v-7.8h0.9v6.9H55.4z"/>
	<path d="M62.1,199.7H58l-0.8,1.8h-1l3.5-7.8h0.6l3.5,7.8h-1L62.1,199.7z M61.7,198.8l-1.7-3.7l-1.7,3.7H61.7z"/>
	<path d="M64.8,193.6h0.7l4.6,6v-6h0.9v7.8h-0.7l-4.6-6v6h-0.9V193.6z"/>
	<path d="M74.3,201c-0.6-0.4-1.1-0.8-1.5-1.5c-0.4-0.6-0.5-1.3-0.5-2c0-0.7,0.2-1.4,0.5-2c0.4-0.6,0.8-1.1,1.5-1.5
		c0.6-0.4,1.3-0.5,2-0.5s1.4,0.2,2,0.5s1.1,0.8,1.5,1.5c0.4,0.6,0.5,1.3,0.5,2c0,0.7-0.2,1.4-0.5,2c-0.4,0.6-0.8,1.1-1.5,1.5
		s-1.3,0.5-2,0.5S74.9,201.4,74.3,201z M77.8,200.2c0.5-0.3,0.8-0.7,1.1-1.1c0.3-0.5,0.4-1,0.4-1.6s-0.1-1.1-0.4-1.6
		c-0.3-0.5-0.6-0.9-1.1-1.1c-0.5-0.3-1-0.4-1.5-0.4c-0.6,0-1.1,0.1-1.5,0.4c-0.5,0.3-0.8,0.7-1.1,1.1c-0.3,0.5-0.4,1-0.4,1.6
		s0.1,1.1,0.4,1.6c0.3,0.5,0.6,0.9,1.1,1.1c0.5,0.3,1,0.4,1.5,0.4C76.8,200.7,77.4,200.5,77.8,200.2z"/>
	<path d="M80.9,200.3h1l-0.7,2h-0.8L80.9,200.3z"/>
	<path d="M86.4,193.6h0.8l2.9,4.4l3-4.4h0.8v7.8H93v-6.1l-2.6,3.8h-0.6l-2.6-3.9v6.1h-0.9V193.6z"/>
	<path d="M95.6,193.6h0.7l4.6,6v-6h0.9v7.8h-0.7l-4.6-6v6h-0.9V193.6z"/>
	<path d="M110.1,196.8c0.4,0.2,0.7,0.5,0.9,0.9c0.2,0.4,0.3,0.8,0.3,1.3c0,0.5-0.1,1-0.3,1.4c-0.2,0.4-0.5,0.7-0.9,0.9
		c-0.4,0.2-0.8,0.3-1.3,0.3c-0.5,0-1-0.1-1.4-0.4c-0.4-0.3-0.8-0.7-1-1.3l0.8-0.3c0.1,0.4,0.3,0.7,0.6,0.9c0.3,0.2,0.6,0.3,1,0.3
		c0.5,0,0.9-0.2,1.2-0.5c0.3-0.3,0.4-0.7,0.4-1.2c0-0.5-0.2-0.8-0.5-1.1c-0.3-0.3-0.7-0.4-1.2-0.4c-0.3,0-0.5,0.1-0.8,0.2
		c-0.3,0.1-0.5,0.3-0.7,0.4l-0.5-0.4l0.7-4h3.5v0.9h-2.8l-0.4,2.3c0.3-0.2,0.7-0.3,1.1-0.3C109.4,196.5,109.8,196.6,110.1,196.8z"/>
	<path d="M115.9,196.8c0.4,0.2,0.7,0.5,0.9,0.9c0.2,0.4,0.3,0.8,0.3,1.3c0,0.5-0.1,1-0.3,1.4c-0.2,0.4-0.5,0.7-0.9,0.9
		c-0.4,0.2-0.8,0.3-1.3,0.3c-0.5,0-1-0.1-1.4-0.4c-0.4-0.3-0.8-0.7-1-1.3l0.8-0.3c0.1,0.4,0.3,0.7,0.6,0.9c0.3,0.2,0.6,0.3,1,0.3
		c0.5,0,0.9-0.2,1.2-0.5c0.3-0.3,0.4-0.7,0.4-1.2c0-0.5-0.2-0.8-0.5-1.1c-0.3-0.3-0.7-0.4-1.2-0.4c-0.3,0-0.5,0.1-0.8,0.2
		c-0.3,0.1-0.5,0.3-0.7,0.4l-0.5-0.4l0.7-4h3.5v0.9h-2.8l-0.4,2.3c0.3-0.2,0.7-0.3,1.1-0.3C115.1,196.5,115.5,196.6,115.9,196.8z"/>
	<path d="M122.5,197.3c0.4,0.4,0.6,1,0.6,1.7c0,0.5-0.1,0.9-0.4,1.3c-0.2,0.4-0.6,0.7-1,0.9c-0.4,0.2-0.8,0.3-1.3,0.3
		c-0.6,0-1.1-0.1-1.5-0.4c-0.5-0.3-0.8-0.7-1-1.3l0.8-0.3c0.1,0.4,0.4,0.7,0.6,0.9c0.3,0.2,0.6,0.3,1,0.3c0.3,0,0.6-0.1,0.8-0.2
		c0.3-0.1,0.5-0.3,0.6-0.6c0.2-0.3,0.2-0.5,0.2-0.9c0-0.5-0.2-0.9-0.5-1.2c-0.3-0.3-0.8-0.5-1.5-0.5h-0.5v-0.5l1.8-2.3h-3.2v-0.9
		h4.4v0.6l-1.8,2.3C121.6,196.7,122.1,196.9,122.5,197.3z"/>
	<path d="M124.2,200.7c0-1.2,0.7-2.2,2-3.1c0.4-0.3,0.7-0.5,1-0.7c0.2-0.2,0.4-0.4,0.5-0.6s0.2-0.4,0.2-0.7c0-0.4-0.1-0.7-0.4-1
		c-0.3-0.3-0.6-0.4-1.1-0.4c-0.4,0-0.7,0.1-1,0.3c-0.3,0.2-0.4,0.5-0.5,0.9l-0.8-0.3c0.1-0.5,0.4-1,0.8-1.3c0.4-0.3,0.9-0.5,1.5-0.5
		c0.5,0,0.9,0.1,1.2,0.3c0.4,0.2,0.6,0.5,0.8,0.8c0.2,0.3,0.3,0.7,0.3,1.1c0,0.4-0.1,0.7-0.2,1c-0.1,0.3-0.3,0.5-0.6,0.7
		c-0.2,0.2-0.6,0.4-1,0.7c-0.1,0.1-0.3,0.2-0.5,0.3c-0.5,0.4-0.8,0.7-1,1c-0.2,0.3-0.3,0.7-0.4,1.1h3.7v0.9h-4.7V200.7z"/>
	<path d="M134.5,198.2c0.2,0.3,0.3,0.7,0.3,1.1c0,0.4-0.1,0.8-0.3,1.2c-0.2,0.3-0.5,0.6-0.9,0.8c-0.4,0.2-0.8,0.3-1.2,0.3
		c-0.5,0-0.9-0.1-1.2-0.3c-0.4-0.2-0.7-0.5-0.9-0.8c-0.2-0.3-0.3-0.7-0.3-1.2c0-0.4,0.1-0.8,0.3-1.1c0.2-0.3,0.5-0.6,0.8-0.8
		c-0.3-0.2-0.5-0.4-0.7-0.7c-0.2-0.3-0.2-0.6-0.2-1c0-0.4,0.1-0.7,0.3-1.1c0.2-0.3,0.5-0.6,0.8-0.8c0.3-0.2,0.7-0.3,1.1-0.3
		c0.4,0,0.8,0.1,1.1,0.3c0.3,0.2,0.6,0.5,0.8,0.8c0.2,0.3,0.3,0.7,0.3,1.1c0,0.4-0.1,0.7-0.2,1s-0.4,0.5-0.7,0.7
		C134,197.5,134.3,197.8,134.5,198.2z M133.2,200.5c0.2-0.1,0.4-0.3,0.5-0.5c0.1-0.2,0.2-0.5,0.2-0.7c0-0.3-0.1-0.6-0.2-0.8
		c-0.1-0.2-0.3-0.4-0.6-0.5c-0.2-0.1-0.5-0.2-0.7-0.2c-0.3,0-0.5,0.1-0.7,0.2c-0.2,0.1-0.4,0.3-0.6,0.5c-0.1,0.2-0.2,0.5-0.2,0.8
		c0,0.3,0.1,0.5,0.2,0.7c0.1,0.2,0.3,0.4,0.5,0.5c0.2,0.1,0.5,0.2,0.8,0.2C132.7,200.7,132.9,200.6,133.2,200.5z M131.5,194.8
		c-0.2,0.3-0.3,0.6-0.3,0.9c0,0.3,0.1,0.6,0.4,0.9c0.2,0.2,0.5,0.4,0.9,0.4c0.3,0,0.6-0.1,0.9-0.4c0.2-0.2,0.4-0.5,0.4-0.9
		c0-0.3-0.1-0.6-0.3-0.9c-0.2-0.3-0.5-0.4-0.9-0.4C132,194.4,131.7,194.5,131.5,194.8z"/>
</g>
<rect x="49.3" y="162.6" class="st2" width="108.2" height="35.4"/>
</svg>
