<?xml version="1.0" encoding="utf-8"?>
<!-- Generator: Adobe Illustrator 28.1.0, SVG Export Plug-In . SVG Version: 6.00 Build 0)  -->
<svg version="1.1" id="Layer_1" xmlns="http://www.w3.org/2000/svg" xmlns:xlink="http://www.w3.org/1999/xlink" x="0px" y="0px"
	 width="171.7px" height="228.5px" viewBox="0 0 171.7 228.5" style="enable-background:new 0 0 171.7 228.5;" xml:space="preserve"
	>
<style type="text/css">
	.st0{fill:#FFFFFF;}
	.st1{fill:#231F20;}
</style>
<path d="M131.5,146.2H38c-10.8,0-19.5-8.7-19.5-19.5V31.9c0-10.8,8.7-19.5,19.5-19.5h93.5c10.8,0,19.5,8.7,19.5,19.5v94.8
	C151,137.5,142.3,146.2,131.5,146.2z"/>
<g>
	<path class="st0" d="M58.5,124.2c-1.2,0.7-2.2-1.4-1.3-2.4c16.1-16.5,73.2-21.4,61.9-2.2c-0.1,3.7-1.6,3.7-1.6,3.7
		C119.7,117.9,86,107.6,58.5,124.2z"/>
	<g>
		<path class="st0" d="M59,94.4c0,0.9,1.3,1.1,1.6,0.2c4-12.2,8.3-38.9,4-47.2c-0.4-0.8-0.5-1.9-1.2-2.7c-0.5-0.4-0.1-1.1,0.5-0.9
			c9.6-0.2,7.8,12,7.3,18.1c-0.7,7.2-6.2,38-9.9,40.5c-2.4,1.7-9.6,1.4-9.6-1.5c0.1-3.9-0.3-32.9-4-44.4c-0.9-2.9-2-5.8-5.8-5.8
			c-9.5,0.1-13.5,17.9-6.1,24.2c0.4,0.4,0.9,0.9,0.6,1.6c-0.2,0.5-0.7,0.5-1.3,0.4c-4.6-1.1-7.8-5.6-8.2-10.2
			c-1.6-10.8,6-20.4,16.6-18.9c2.4,0.3,6.3,1.8,8.1,3.3C57.3,55.9,58.6,83.2,59,94.4z"/>
		<g>
			<path class="st0" d="M80.2,53.9c7.3-0.4,2.3,7.7-1.2,9.7c-4,2.2-3.3-5.7-2.5-7.7C76.7,54.6,78.1,54,80.2,53.9z"/>
			<path class="st0" d="M117.3,92.7c-0.2-0.7-1.3-0.8-1.6-0.1c-0.5,1.7-1.3,3.4-2.3,4.4c-2.1,1.9-4.3,1.5-5.5-0.3
				c-0.3-0.5-1.1-0.4-1.4,0.1c-2.9,5.6-8.3,5.6-10.5-0.5c-0.2-0.6-1.1-0.7-1.5-0.2c-1.5,2.4-3.5,4.4-6.1,3.4c-2-0.6-3.1-3.8-3.7-6.3
				c-0.2-0.7-1.2-0.8-1.5-0.1c-0.5,1.1-1.1,2.1-1.3,2.4c-3.5,8.2-10.6,6-11.2-2.3c-0.6-5.7,0.2-11.3,1.5-16.9
				c0.3-2.6,3.2-2.8,5.1-2.3c2.2,0.7,0.9,3.5,0.8,5.2c-0.3,2.5-2.7,14.8-0.1,15.6c0.9,0.1,1.2-0.7,1.5-1.4c2.2-4.4,4.1-9.5,4.4-14.3
				c0.1-1.5,1.8-10,2-11.1c0.4-2.3,2.8-17.8,7.3-19.1c3.3-0.9,4.3,1.1,3.5,3.4C96,54.4,92.5,66,92,68.3c-0.1,0.6-0.9,5.8-1.1,6.3
				c-0.5,5.8-1.6,11.8-0.3,17.5c0.2,0.6,0.5,2.5,1.5,2.5c2.2,0.1,3.5-8.4,3.7-10.2c0.8-5.7,2.4-12.5,7.6-16l0.1-0.1
				c2.7-1.5,5.6-0.5,6.4,2.2c0.2,0.5,0.4,0.7,1.1,0.8c1.7,0,2.1,0.4,2,2.1c0,6-1.8,12-1.5,17.9c0.1,0.4,0.2,1.9,0.7,2
				c1.6-0.1,2.4-4.9,2.8-6.3V87c2.1-10.6,1.3-22.7,4.8-33.3c1.1-4.5,6.5-16.3,12.3-10.1c0.1,0.1,0.1,0.2,0.2,0.3
				c3.9,10.2-5.3,26.2-8.9,36.1c-1.8,3.9-1.5,12,0.8,15.4c3.8,3.1,6.8-9.7,7.4-11.9c0.1-0.9,0.2-1.8,1.3-1.7
				c1.5,0.3,0.3,2.2,0.1,3.2c-1.1,4.9-1.7,10.4-4.9,14.5l-0.1,0.1C122.6,104.8,118.9,98.2,117.3,92.7z M101.1,89.9
				c0.1,1.2-0.2,4.7,0.9,5.7c0.3,0.2,0.6,0.2,0.9,0c2.7-2.2,4.8-17.2,5.2-20.2c0.1-1.2,0.5-3.2-0.7-3.7c-0.1-0.1-0.3-0.1-0.5,0
				C103.2,72.5,101.1,86.9,101.1,89.9z M124.8,69.5c2.2-7.1,4.9-17.2,4.3-21.2c-0.1-0.7-1.2-0.9-1.5-0.3c-2,3.4-3.6,13.8-4.4,21.1
				C123.1,70.1,124.4,70.4,124.8,69.5z"/>
			<path class="st0" d="M79.3,68.7c-0.2-0.5,0.1-1.1,0.6-1.2c4.1-0.5,20-2.7,20.3-1.8c0.4,1.2-3.8,3.9-4.4,4.3
				c-0.1,0-0.1,0.1-0.2,0.1L87,73c-0.1,0-0.2,0-0.3,0C85.8,73,80.9,72.5,79.3,68.7z"/>
		</g>
	</g>
</g>
<g>
	<path class="st1" d="M32,156.2l-5.6,13.2h-2l-5.8-13.2h2.6l4,9.5l3.9-9.5H32z"/>
	<path class="st1" d="M34.4,156.2h2.5v13.2h-2.5V156.2z"/>
	<path class="st1" d="M49.9,158.7H46v10.7h-2.5v-10.7h-3.9v-2.5h10.3V158.7z"/>
	<path class="st1" d="M59.7,167.1h-6.4l-0.9,2.3h-2.6l5.6-13.2h2l5.6,13.2h-2.6L59.7,167.1z M58.8,164.9l-2.2-5.4l-2.2,5.4H58.8z"/>
	<path class="st1" d="M74.2,167v2.5h-8.5v-13.2h2.5V167H74.2z"/>
	<path class="st1" d="M95.3,156.2l-5.6,13.2h-2l-5.8-13.2h2.6l4,9.5l3.9-9.5H95.3z"/>
	<path class="st1" d="M97.8,156.2h2.5v13.2h-2.5V156.2z"/>
	<path class="st1" d="M104.6,168.7c-0.8-0.6-1.4-1.4-1.6-2.5l2.3-0.9c0.2,0.6,0.3,1.1,0.8,1.4c0.5,0.3,0.9,0.5,1.4,0.5
		c0.6,0,1.1-0.2,1.4-0.5c0.3-0.3,0.5-0.6,0.5-1.1s-0.2-0.9-0.6-1.2c-0.3-0.3-0.9-0.5-1.7-0.8c-1.2-0.3-2.2-0.8-3-1.2
		c-0.8-0.6-1.1-1.6-1.1-2.6c0-0.8,0.2-1.4,0.6-1.9c0.3-0.6,0.9-1.1,1.6-1.4c0.6-0.3,1.4-0.5,2.2-0.5c0.9,0,1.9,0.3,2.6,0.8
		s1.2,1.2,1.6,2.2l-2.3,0.9c-0.2-0.5-0.3-0.8-0.8-1.1c-0.3-0.3-0.8-0.5-1.2-0.5s-0.9,0.2-1.2,0.3c-0.3,0.3-0.5,0.6-0.5,0.9
		c0,0.8,0.8,1.2,2.3,1.7c1.2,0.3,2.2,0.8,3,1.4c0.8,0.6,1.1,1.6,1.1,2.8c0,0.8-0.2,1.4-0.5,2c-0.3,0.6-0.8,1.1-1.6,1.4
		c-0.6,0.3-1.4,0.5-2.3,0.5C106.3,169.6,105.4,169.3,104.6,168.7z"/>
	<path class="st1" d="M125,156.2v7.6c0,1.1-0.2,2.2-0.6,3.1c-0.5,0.9-0.9,1.6-1.7,2c-0.8,0.5-1.7,0.8-2.8,0.8c-1.1,0-2-0.3-2.8-0.8
		c-0.8-0.5-1.4-1.1-1.9-2s-0.6-1.9-0.6-3.1v-7.6h2.5v7.6c0,1.1,0.3,1.9,0.8,2.3c0.5,0.6,1.1,0.9,2,0.9c0.9,0,1.6-0.3,2-0.9
		c0.5-0.6,0.8-1.4,0.8-2.3v-7.6H125z"/>
	<path class="st1" d="M136.3,167.1H130l-0.9,2.3h-2.6l5.6-13.2h2l5.6,13.2h-2.6L136.3,167.1z M135.4,164.9l-2.2-5.4l-2.2,5.4H135.4z
		"/>
	<path class="st1" d="M150.8,166.8v2.5h-8.5v-13.2h2.5v10.7H150.8z"/>
</g>
<path class="st1" d="M21.7,184.4v8.5H20v-6.5l-1.1,0.4l-0.6-1.4l2.4-1H21.7z"/>
<path class="st1" d="M26.7,184.4v8.5H25v-6.5l-1.1,0.4l-0.6-1.4l2.4-1H26.7z"/>
<path class="st1" d="M31.7,184.4v8.5H30v-6.5l-1.1,0.4l-0.6-1.4l2.4-1H31.7z"/>
<path class="st1" d="M43.6,189.4c0.2,0.3,0.3,0.7,0.3,1.1c0,0.5-0.1,0.9-0.3,1.3c-0.2,0.4-0.5,0.6-0.9,0.8s-0.8,0.3-1.3,0.3h-3.6
	v-8.5h3.3c0.5,0,1,0.1,1.4,0.3s0.7,0.5,0.9,0.9s0.3,0.8,0.3,1.2s-0.1,0.8-0.3,1.1s-0.4,0.6-0.8,0.8C43.1,188.8,43.4,189,43.6,189.4z
	 M39.4,185.9v2H41c0.4,0,0.6-0.1,0.8-0.3s0.3-0.4,0.3-0.7s-0.1-0.5-0.3-0.7s-0.5-0.3-0.8-0.3H39.4z M41.9,191.1
	c0.2-0.2,0.3-0.5,0.3-0.8s-0.1-0.6-0.3-0.8s-0.5-0.3-0.9-0.3h-1.6v2.1H41C41.4,191.4,41.7,191.3,41.9,191.1z"/>
<path class="st1" d="M51.2,191.4h-4.1l-0.6,1.5h-1.7l3.6-8.5h1.3l3.6,8.5h-1.7L51.2,191.4z M50.6,190l-1.4-3.5l-1.4,3.5H50.6z"/>
<path class="st1" d="M60.7,189.3c0.2,0.3,0.3,0.7,0.3,1.1c0,0.5-0.1,0.9-0.3,1.3c-0.2,0.4-0.5,0.6-0.9,0.8s-0.8,0.3-1.3,0.3h-3.6
	v-8.5h3.3c0.5,0,1,0.1,1.4,0.3s0.7,0.5,0.9,0.9s0.3,0.8,0.3,1.2s-0.1,0.8-0.3,1.1s-0.4,0.6-0.8,0.8C60.2,188.8,60.5,189,60.7,189.3z
	 M56.6,185.9v2h1.6c0.4,0,0.6-0.1,0.8-0.3s0.3-0.4,0.3-0.7s-0.1-0.5-0.3-0.7s-0.5-0.3-0.8-0.3H56.6z M59.1,191.1
	c0.2-0.2,0.3-0.5,0.3-0.8s-0.1-0.6-0.3-0.8s-0.5-0.3-0.9-0.3h-1.6v2.1h1.6C58.6,191.4,58.9,191.3,59.1,191.1z"/>
<path class="st1" d="M68.6,192.7c-0.5,0.2-1.1,0.3-1.7,0.3c-0.8,0-1.5-0.2-2.2-0.6c-0.7-0.4-1.2-0.9-1.6-1.6
	c-0.4-0.7-0.6-1.4-0.6-2.2s0.2-1.6,0.6-2.2c0.4-0.7,0.9-1.2,1.6-1.6c0.7-0.4,1.4-0.6,2.2-0.6c0.6,0,1.2,0.1,1.7,0.3s1,0.5,1.4,1
	l-1.2,1.2c-0.5-0.6-1.2-0.8-1.9-0.8c-0.5,0-0.9,0.1-1.3,0.4s-0.7,0.6-1,1c-0.2,0.4-0.4,0.9-0.4,1.4s0.1,0.9,0.4,1.4
	c0.2,0.4,0.6,0.7,1,1c0.4,0.2,0.9,0.4,1.3,0.4s0.7-0.1,1.1-0.2c0.3-0.1,0.6-0.4,0.9-0.6l1.2,1.2C69.6,192.1,69.1,192.4,68.6,192.7z"
	/>
<path class="st1" d="M73.2,192.4c-0.7-0.4-1.2-0.9-1.6-1.6c-0.4-0.7-0.6-1.4-0.6-2.2s0.2-1.5,0.6-2.2s0.9-1.2,1.6-1.6
	c0.7-0.4,1.4-0.6,2.2-0.6c0.8,0,1.5,0.2,2.2,0.6c0.7,0.4,1.2,0.9,1.6,1.6c0.4,0.7,0.6,1.4,0.6,2.2s-0.2,1.5-0.6,2.2
	s-0.9,1.2-1.6,1.6s-1.4,0.6-2.2,0.6S73.9,192.8,73.2,192.4z M76.7,191c0.4-0.2,0.7-0.6,1-1c0.2-0.4,0.4-0.9,0.3-1.4s-0.1-1-0.4-1.4
	s-0.6-0.8-1-1s-0.9-0.4-1.4-0.4s-1,0.1-1.4,0.4c-0.4,0.2-0.7,0.6-1,1c-0.2,0.4-0.3,0.9-0.3,1.4s0.1,1,0.3,1.4c0.2,0.4,0.5,0.8,1,1
	c0.4,0.2,0.9,0.4,1.4,0.4C75.9,191.4,76.3,191.3,76.7,191z"/>
<path class="st1" d="M87.3,192.6c-0.5,0.2-1.1,0.3-1.7,0.3c-0.8,0-1.5-0.2-2.2-0.6c-0.7-0.4-1.2-0.9-1.6-1.6
	c-0.4-0.7-0.6-1.4-0.6-2.2s0.2-1.6,0.6-2.2c0.4-0.7,0.9-1.2,1.6-1.6c0.7-0.4,1.4-0.6,2.2-0.6c0.6,0,1.2,0.1,1.7,0.3s1,0.5,1.4,1
	l-1.2,1.2c-0.5-0.6-1.2-0.8-1.9-0.8c-0.5,0-0.9,0.1-1.3,0.4c-0.4,0.2-0.7,0.6-1,1c-0.2,0.4-0.4,0.9-0.4,1.4s0.1,0.9,0.4,1.4
	c0.2,0.4,0.6,0.7,1,1c0.4,0.2,0.9,0.4,1.3,0.4s0.7-0.1,1.1-0.2c0.3-0.1,0.6-0.4,0.9-0.6l1.1,1.1C88.3,192.1,87.8,192.4,87.3,192.6z"
	/>
<path class="st1" d="M94.1,188.3l3.1,4.6h-2l-2.1-3.2l-1,1.3v1.9h-1.6v-8.5h1.6v4.1l3.1-4.1h2L94.1,188.3z"/>
<path class="st1" d="M108.5,189.3c0.2,0.3,0.3,0.7,0.3,1.1c0,0.5-0.1,0.9-0.3,1.3c-0.2,0.4-0.5,0.6-0.9,0.8s-0.8,0.3-1.3,0.3h-3.6
	v-8.5h3.3c0.5,0,1,0.1,1.4,0.3s0.7,0.5,0.9,0.9c0.2,0.4,0.3,0.8,0.3,1.2s-0.1,0.8-0.3,1.1c-0.2,0.3-0.4,0.6-0.8,0.8
	C108,188.7,108.3,189,108.5,189.3z M104.3,185.8v2h1.6c0.4,0,0.6-0.1,0.8-0.3c0.2-0.2,0.3-0.4,0.3-0.7s-0.1-0.5-0.3-0.7
	c-0.2-0.2-0.5-0.3-0.8-0.3H104.3z M106.8,191c0.2-0.2,0.3-0.5,0.3-0.8s-0.1-0.6-0.3-0.8c-0.2-0.2-0.5-0.3-0.9-0.3h-1.6v2.1h1.6
	C106.3,191.3,106.6,191.2,106.8,191z"/>
<path class="st1" d="M116.1,191.2v1.6h-5.5v-8.5h1.6v6.9H116.1z"/>
<path class="st1" d="M124.9,184.3l-3.6,8.5H120l-3.7-8.5h1.7l2.6,6.1l2.5-6.1H124.9z"/>
<path class="st1" d="M131.4,184.9c0.6,0.4,1.2,0.9,1.5,1.5c0.4,0.6,0.5,1.4,0.5,2.2s-0.2,1.5-0.5,2.2c-0.4,0.6-0.9,1.1-1.5,1.5
	s-1.4,0.5-2.2,0.5h-2.7v-8.5h2.7C130,184.3,130.7,184.5,131.4,184.9z M130.5,190.9c0.4-0.2,0.7-0.5,0.9-0.9s0.3-0.9,0.3-1.4
	s-0.1-1-0.3-1.4s-0.5-0.7-0.9-0.9s-0.8-0.3-1.3-0.3h-1.1v5.3h1.1C129.7,191.2,130.1,191.1,130.5,190.9z"/>
<path class="st1" d="M138.4,184.3h1.8l2.2,5.6l1.9-5.6h1.1l2,5.6l2-5.6h1.8l-3.3,8.5h-1.1l-1.9-5.4l-1.9,5.4h-1.1L138.4,184.3z"/>
<path class="st1" d="M31,207.3c0.6,0.4,1.2,0.9,1.5,1.5c0.4,0.6,0.5,1.4,0.5,2.2s-0.2,1.5-0.5,2.2c-0.4,0.6-0.9,1.1-1.5,1.5
	s-1.4,0.5-2.2,0.5h-2.7v-8.5h2.7C29.6,206.8,30.4,207,31,207.3z M30.1,213.3c0.4-0.2,0.7-0.5,0.9-0.9c0.2-0.4,0.3-0.9,0.3-1.4
	s-0.1-1-0.3-1.4s-0.5-0.7-0.9-0.9s-0.8-0.3-1.3-0.3h-1.1v5.3h1.1C29.3,213.7,29.7,213.6,30.1,213.3z"/>
<path class="st1" d="M36.5,208.3v1.8h3.4v1.6h-3.4v2h3.7v1.6h-5.3v-8.5h5.3v1.6L36.5,208.3z"/>
<path class="st1" d="M47.6,213.7v1.6h-5.5v-8.5h1.6v6.9H47.6z"/>
<path class="st1" d="M55.3,213.8h-4.1l-0.6,1.5h-1.7l3.6-8.5h1.3l3.6,8.5h-1.7L55.3,213.8z M54.7,212.4l-1.4-3.5l-1.4,3.5H54.7z"/>
<path class="st1" d="M59.1,206.7h1.3l4.2,5.4v-5.4h1.6v8.5h-1.3l-4.2-5.4v5.4h-1.6L59.1,206.7z"/>
<path class="st1" d="M70.2,214.8c-0.7-0.4-1.2-0.9-1.6-1.6c-0.4-0.7-0.6-1.4-0.6-2.2s0.2-1.5,0.6-2.2s0.9-1.2,1.6-1.6
	c0.7-0.4,1.4-0.6,2.2-0.6s1.5,0.2,2.2,0.6s1.2,0.9,1.6,1.6c0.4,0.7,0.6,1.4,0.6,2.2s-0.2,1.5-0.6,2.2s-0.9,1.2-1.6,1.6
	c-0.7,0.4-1.4,0.6-2.2,0.6S70.9,215.2,70.2,214.8z M73.8,213.4c0.4-0.2,0.7-0.6,1-1c0.2-0.4,0.4-0.9,0.3-1.4c0-0.5-0.1-1-0.4-1.4
	c-0.2-0.4-0.6-0.8-1-1s-0.9-0.4-1.4-0.4s-1,0.1-1.4,0.4c-0.4,0.2-0.7,0.6-1,1c-0.2,0.4-0.3,0.9-0.3,1.4s0.1,1,0.3,1.4s0.5,0.8,1,1
	c0.4,0.2,0.9,0.4,1.4,0.4C72.9,213.8,73.4,213.6,73.8,213.4z"/>
<path class="st1" d="M78.3,213.6h1.6l-0.9,2.8h-1.4L78.3,213.6z"/>
<path class="st1" d="M85.6,206.7H87l2.9,4.2l2.9-4.2h1.4v8.5h-1.6v-5.4l-2.1,3h-1.1l-2.1-3v5.4h-1.6L85.6,206.7z"/>
<path class="st1" d="M96.3,206.7h1.3l4.2,5.4v-5.4h1.6v8.5h-1.3l-4.2-5.4v5.4h-1.6V206.7z"/>
<path class="st1" d="M113.5,209.8c0.4,0.2,0.7,0.6,1,1c0.2,0.4,0.4,0.9,0.4,1.5s-0.1,1.1-0.4,1.5s-0.6,0.8-1,1
	c-0.4,0.3-0.9,0.4-1.5,0.4c-0.5,0-1.1-0.1-1.6-0.4c-0.5-0.3-0.9-0.6-1.2-1.1l1.1-1.1c0.3,0.3,0.6,0.6,0.8,0.7s0.6,0.2,0.9,0.2
	c0.4,0,0.7-0.1,1-0.4c0.2-0.3,0.4-0.6,0.4-1s-0.1-0.7-0.4-1c-0.3-0.2-0.6-0.4-1-0.4c-0.5,0-1,0.2-1.4,0.6l-1.1-0.7l0.8-4.3h4.1v1.6
	h-2.8l-0.3,1.4c0.3-0.1,0.6-0.1,1-0.1C112.6,209.5,113,209.6,113.5,209.8z"/>
<path class="st1" d="M120.5,209.8c0.4,0.2,0.7,0.6,1,1c0.2,0.4,0.4,0.9,0.4,1.5s-0.1,1.1-0.4,1.5s-0.6,0.8-1,1s-0.9,0.4-1.5,0.4
	c-0.5,0-1.1-0.1-1.6-0.4c-0.5-0.3-0.9-0.6-1.2-1.1l1.1-1.1c0.3,0.3,0.6,0.6,0.8,0.8c0.3,0.2,0.6,0.2,0.9,0.2c0.4,0,0.7-0.1,1-0.4
	c0.2-0.3,0.4-0.6,0.4-1s-0.1-0.7-0.4-1c-0.3-0.2-0.6-0.4-1-0.4c-0.5,0-1,0.2-1.4,0.6l-1.1-0.7l0.8-4.3h4.1v1.6h-2.8l-0.3,1.4
	c0.3-0.1,0.6-0.1,1-0.1C119.6,209.5,120.1,209.6,120.5,209.8z"/>
<path class="st1" d="M128.4,210.8c0.4,0.5,0.5,1.1,0.5,1.7c0,0.5-0.1,1-0.4,1.4c-0.2,0.4-0.6,0.8-1,1c-0.4,0.3-1,0.4-1.5,0.4
	c-0.6,0-1.1-0.1-1.6-0.4c-0.5-0.2-0.9-0.6-1.2-1.1l1.2-0.9c0.2,0.3,0.4,0.5,0.7,0.6c0.3,0.2,0.6,0.2,0.9,0.2c0.4,0,0.7-0.1,1-0.4
	c0.2-0.2,0.4-0.5,0.4-0.9s-0.2-0.7-0.5-1s-0.7-0.4-1.2-0.4h-0.6v-1l1.5-2h-2.9v-1.4h5v1l-1.7,2.2C127.5,210,128,210.3,128.4,210.8z"
	/>
<path class="st1" d="M130.8,214.1c0-0.6,0.1-1.1,0.3-1.5s0.4-0.8,0.8-1.1c0.4-0.3,0.8-0.7,1.4-1c0.8-0.5,1.2-0.9,1.2-1.5
	c0-0.3-0.1-0.5-0.3-0.7s-0.5-0.3-0.8-0.3s-0.6,0.1-0.8,0.3s-0.4,0.4-0.5,0.8l-1.4-0.6c0.2-0.6,0.5-1.1,1-1.4
	c0.5-0.4,1.1-0.5,1.7-0.5c0.5,0,1,0.1,1.4,0.3s0.7,0.5,1,0.9c0.2,0.4,0.3,0.8,0.3,1.3c0,0.6-0.2,1.1-0.5,1.6s-0.9,0.9-1.7,1.3
	c-0.5,0.3-0.8,0.5-1,0.8s-0.3,0.6-0.4,0.9h3.7v1.6h-5.4V214.1z"/>
<path class="st1" d="M143.3,211.5c0.2,0.3,0.3,0.7,0.3,1.2s-0.1,1-0.4,1.3s-0.6,0.7-1,0.9s-0.9,0.3-1.5,0.3s-1.1-0.1-1.5-0.3
	s-0.8-0.5-1-0.9s-0.4-0.8-0.4-1.3c0-0.4,0.1-0.8,0.3-1.2c0.2-0.3,0.5-0.6,0.8-0.8c-0.3-0.2-0.5-0.5-0.7-0.8s-0.2-0.7-0.2-1
	c0-0.4,0.1-0.8,0.3-1.2s0.5-0.7,0.9-0.9s0.9-0.3,1.4-0.3s1,0.1,1.4,0.3s0.7,0.5,0.9,0.9s0.3,0.8,0.3,1.2s-0.1,0.7-0.2,1
	c-0.2,0.3-0.4,0.6-0.7,0.8C142.9,210.9,143.1,211.2,143.3,211.5z M141.7,213.5c0.2-0.2,0.3-0.5,0.3-0.9s-0.1-0.6-0.4-0.9
	s-0.5-0.3-0.9-0.3c-0.3,0-0.6,0.1-0.9,0.3c-0.2,0.2-0.4,0.5-0.4,0.9s0.1,0.7,0.3,0.9s0.5,0.3,0.9,0.3
	C141.2,213.8,141.5,213.7,141.7,213.5z M140,208.3c-0.2,0.2-0.3,0.4-0.3,0.7s0.1,0.5,0.3,0.7s0.4,0.3,0.8,0.3c0.3,0,0.6-0.1,0.8-0.3
	s0.3-0.4,0.3-0.7s-0.1-0.5-0.3-0.7s-0.4-0.3-0.8-0.3S140.2,208.1,140,208.3z"/>
</svg>
