<?xml version="1.0" encoding="utf-8"?>
<!-- Generator: Adobe Illustrator 28.1.0, SVG Export Plug-In . SVG Version: 6.00 Build 0)  -->
<svg version="1.1" id="Layer_1" xmlns="http://www.w3.org/2000/svg" xmlns:xlink="http://www.w3.org/1999/xlink" x="0px" y="0px"
	 viewBox="0 0 167.6 68.2" style="enable-background:new 0 0 167.6 68.2;" xml:space="preserve">
<style type="text/css">
	.st0{fill:#231F20;}
	.st1{fill:none;}
	.st2{font-family:'MyriadPro-Regular';}
	.st3{font-size:5.6525px;}
	.st4{stroke:#84C8E6;stroke-width:0.1284;stroke-miterlimit:10;}
	.st5{fill:#FFFFFF;}
</style>
<g>
	<g>
		<g>
			<g>
				<path class="st0" d="M114.6,30.7l-2.2,5.3l-0.8,0l-2.2-5.3l1,0l1.5,3.8l1.5-3.8L114.6,30.7z"/>
				<path class="st0" d="M115.3,30.7l1,0l0,5.3l-1,0L115.3,30.7z"/>
				<path class="st0" d="M121.3,31.6l-1.5,0l0,4.3l-1,0l0-4.3l-1.5,0l0-1l4,0L121.3,31.6z"/>
				<path class="st0" d="M125.1,35.1l-2.4,0l-0.4,0.9l-1,0l2.2-5.3l0.8,0l2.2,5.3l-1,0L125.1,35.1z M124.7,34.2l-0.9-2.2l-0.9,2.2
					L124.7,34.2z"/>
				<path class="st0" d="M130.6,35l0,1l-3.3,0l0-5.3l1,0l0,4.3L130.6,35z"/>
				<path class="st0" d="M137.7,30.6l-2.2,5.3l-0.8,0l-2.2-5.3l1,0l1.5,3.8l1.5-3.8L137.7,30.6z"/>
				<path class="st0" d="M138.3,30.6l1,0l0,5.3l-1,0L138.3,30.6z"/>
				<path class="st0" d="M141,35.7c-0.3-0.3-0.5-0.6-0.6-1l0.9-0.4c0,0.2,0.1,0.4,0.3,0.6c0.2,0.1,0.3,0.2,0.5,0.2
					c0.2,0,0.4-0.1,0.5-0.2c0.1-0.1,0.2-0.3,0.2-0.4c0-0.2-0.1-0.4-0.2-0.5c-0.1-0.1-0.4-0.2-0.7-0.3c-0.5-0.1-0.8-0.3-1.1-0.5
					c-0.3-0.2-0.4-0.6-0.4-1.1c0-0.3,0.1-0.5,0.2-0.8c0.1-0.2,0.3-0.4,0.6-0.6c0.2-0.1,0.5-0.2,0.8-0.2c0.4,0,0.7,0.1,1,0.3
					c0.3,0.2,0.5,0.5,0.6,0.9l-0.9,0.4c0-0.2-0.1-0.3-0.3-0.4c-0.1-0.1-0.3-0.2-0.5-0.2c-0.2,0-0.4,0.1-0.5,0.2
					c-0.1,0.1-0.2,0.2-0.2,0.4c0,0.3,0.3,0.5,0.9,0.7c0.5,0.1,0.9,0.3,1.1,0.6s0.4,0.6,0.4,1.1c0,0.3-0.1,0.6-0.2,0.8
					c-0.1,0.2-0.3,0.4-0.6,0.6c-0.3,0.1-0.6,0.2-0.9,0.2C141.7,36.1,141.3,35.9,141,35.7z"/>
				<path class="st0" d="M148.9,30.6l0,3.1c0,0.5-0.1,0.9-0.2,1.2c-0.2,0.4-0.4,0.6-0.7,0.8c-0.3,0.2-0.7,0.3-1.1,0.3
					c-0.4,0-0.8-0.1-1.1-0.3c-0.3-0.2-0.5-0.5-0.7-0.8c-0.2-0.4-0.2-0.8-0.2-1.2l0-3.1l1,0l0,3.1c0,0.4,0.1,0.7,0.3,1
					c0.2,0.2,0.4,0.4,0.8,0.4c0.3,0,0.6-0.1,0.8-0.4c0.2-0.2,0.3-0.6,0.3-1l0-3.1L148.9,30.6z"/>
				<path class="st0" d="M153.3,35l-2.4,0l-0.4,0.9l-1,0l2.2-5.3l0.8,0l2.2,5.3l-1,0L153.3,35z M152.9,34.1l-0.9-2.2l-0.9,2.2
					L152.9,34.1z"/>
				<path class="st0" d="M158.8,34.9l0,1l-3.3,0l0-5.3l1,0l0,4.3L158.8,34.9z"/>
			</g>
		</g>
		<g>
			<path class="st0" d="M93.3,55.6c0.4,0.2,0.7,0.5,0.9,0.9c0.2,0.4,0.3,0.8,0.3,1.3c0,0.5-0.1,0.9-0.3,1.3
				c-0.2,0.4-0.5,0.7-0.9,0.9c-0.4,0.2-0.8,0.3-1.3,0.3l-1.6,0l0-5l1.6,0C92.5,55.3,92.9,55.4,93.3,55.6z M92.8,59.2
				c0.2-0.1,0.4-0.3,0.6-0.6c0.1-0.2,0.2-0.5,0.2-0.8c0-0.3-0.1-0.6-0.2-0.8c-0.1-0.2-0.3-0.4-0.6-0.6c-0.2-0.1-0.5-0.2-0.8-0.2
				l-0.7,0l0,3.2l0.7,0C92.3,59.4,92.6,59.3,92.8,59.2z"/>
			<path class="st0" d="M96.6,56.2l0,1.1l2,0l0,0.9l-2,0l0,1.2l2.2,0l0,0.9l-3.2,0l0-5l3.2,0l0,0.9L96.6,56.2z"/>
			<path class="st0" d="M103.2,59.3l0,0.9l-3.3,0l0-5l1,0l0,4.1L103.2,59.3z"/>
			<path class="st0" d="M107.8,59.4l-2.4,0l-0.4,0.9l-1,0l2.2-5.1l0.8,0l2.2,5l-1,0L107.8,59.4z M107.4,58.6l-0.9-2.1l-0.9,2.1
				L107.4,58.6z"/>
			<path class="st0" d="M110,55.2l0.8,0l2.5,3.2l0-3.2l1,0l0,5l-0.8,0L111,57l0,3.2l-1,0L110,55.2z"/>
			<path class="st0" d="M116.7,60c-0.4-0.2-0.7-0.5-0.9-0.9c-0.2-0.4-0.3-0.8-0.3-1.3c0-0.5,0.1-0.9,0.3-1.3
				c0.2-0.4,0.5-0.7,0.9-0.9c0.4-0.2,0.8-0.4,1.3-0.4c0.5,0,0.9,0.1,1.3,0.4c0.4,0.2,0.7,0.6,0.9,1c0.2,0.4,0.4,0.8,0.4,1.3
				c0,0.5-0.1,0.9-0.3,1.3c-0.2,0.4-0.5,0.7-0.9,1c-0.4,0.2-0.8,0.4-1.3,0.4C117.5,60.4,117.1,60.2,116.7,60z M118.8,59.2
				c0.2-0.1,0.4-0.3,0.6-0.6c0.1-0.3,0.2-0.5,0.2-0.8c0-0.3-0.1-0.6-0.2-0.8c-0.1-0.3-0.3-0.5-0.6-0.6c-0.2-0.1-0.5-0.2-0.8-0.2
				c-0.3,0-0.6,0.1-0.8,0.2c-0.2,0.1-0.4,0.3-0.6,0.6c-0.1,0.3-0.2,0.5-0.2,0.8c0,0.3,0.1,0.6,0.2,0.8c0.1,0.3,0.3,0.5,0.6,0.6
				c0.2,0.1,0.5,0.2,0.8,0.2C118.3,59.4,118.6,59.3,118.8,59.2z"/>
			<path class="st0" d="M121.5,59.3l1,0l-0.5,1.7l-0.8,0L121.5,59.3z"/>
			<path class="st0" d="M125.8,55.2l0.8,0l1.7,2.5l1.7-2.5l0.8,0l0,5l-1,0l0-3.2l-1.3,1.8l-0.7,0l-1.3-1.8l0,3.2l-1,0L125.8,55.2z"
				/>
			<path class="st0" d="M132.2,55.2l0.8,0l2.5,3.2l0-3.2l1,0l0,5l-0.8,0l-2.5-3.2l0,3.2l-1,0L132.2,55.2z"/>
			<path class="st0" d="M142.4,57.1c0.2,0.1,0.4,0.3,0.6,0.6c0.1,0.3,0.2,0.6,0.2,0.9c0,0.3-0.1,0.6-0.2,0.9
				c-0.2,0.3-0.4,0.5-0.6,0.6c-0.3,0.1-0.6,0.2-0.9,0.2c-0.3,0-0.6-0.1-1-0.2c-0.3-0.2-0.6-0.4-0.7-0.7l0.7-0.6
				c0.2,0.2,0.3,0.4,0.5,0.4c0.2,0.1,0.3,0.1,0.5,0.1c0.2,0,0.4-0.1,0.6-0.2c0.1-0.2,0.2-0.3,0.2-0.6c0-0.2-0.1-0.4-0.2-0.6
				c-0.2-0.1-0.3-0.2-0.6-0.2c-0.3,0-0.6,0.1-0.8,0.4l-0.6-0.4l0.5-2.5l2.5,0l0,0.9l-1.7,0l-0.2,0.8c0.2-0.1,0.4-0.1,0.6-0.1
				C141.9,56.9,142.2,56.9,142.4,57.1z"/>
			<path class="st0" d="M146.6,57.1c0.2,0.1,0.4,0.3,0.6,0.6c0.1,0.3,0.2,0.6,0.2,0.9c0,0.3-0.1,0.6-0.2,0.9
				c-0.2,0.3-0.4,0.5-0.6,0.6c-0.3,0.1-0.6,0.2-0.9,0.2c-0.3,0-0.6-0.1-1-0.2c-0.3-0.2-0.6-0.4-0.7-0.7l0.7-0.6
				c0.2,0.2,0.3,0.4,0.5,0.4c0.2,0.1,0.3,0.1,0.5,0.1c0.2,0,0.4-0.1,0.6-0.2c0.1-0.2,0.2-0.3,0.2-0.6c0-0.2-0.1-0.4-0.2-0.6
				c-0.2-0.1-0.3-0.2-0.6-0.2c-0.3,0-0.6,0.1-0.8,0.4l-0.6-0.4l0.5-2.5l2.5,0l0,0.9l-1.7,0l-0.2,0.8c0.2-0.1,0.4-0.1,0.6-0.1
				C146.1,56.9,146.4,56.9,146.6,57.1z"/>
			<path class="st0" d="M151.3,57.6c0.2,0.3,0.3,0.6,0.3,1c0,0.3-0.1,0.6-0.2,0.9c-0.1,0.3-0.3,0.5-0.6,0.6
				c-0.3,0.1-0.6,0.2-0.9,0.2c-0.4,0-0.7-0.1-1-0.2c-0.3-0.1-0.5-0.4-0.7-0.6l0.7-0.6c0.1,0.2,0.2,0.3,0.4,0.4
				c0.2,0.1,0.4,0.1,0.6,0.1c0.2,0,0.4-0.1,0.6-0.2c0.1-0.1,0.2-0.3,0.2-0.5c0-0.2-0.1-0.4-0.3-0.6c-0.2-0.2-0.4-0.2-0.7-0.2l-0.4,0
				l0-0.6l0.9-1.2l-1.8,0l0-0.8l3,0l0,0.6l-1,1.3C150.8,57.1,151.1,57.3,151.3,57.6z"/>
			<path class="st0" d="M152.8,59.6c0-0.4,0.1-0.7,0.2-0.9c0.1-0.2,0.3-0.5,0.5-0.7c0.2-0.2,0.5-0.4,0.9-0.6
				c0.5-0.3,0.7-0.6,0.7-0.9c0-0.2-0.1-0.3-0.2-0.4c-0.1-0.1-0.3-0.2-0.5-0.2c-0.2,0-0.4,0.1-0.5,0.2c-0.1,0.1-0.2,0.3-0.3,0.5
				l-0.8-0.4c0.1-0.4,0.3-0.6,0.6-0.9c0.3-0.2,0.6-0.3,1-0.3c0.3,0,0.6,0.1,0.9,0.2c0.2,0.1,0.4,0.3,0.6,0.5
				c0.1,0.2,0.2,0.5,0.2,0.8c0,0.4-0.1,0.7-0.3,0.9c-0.2,0.3-0.6,0.5-1,0.8c-0.3,0.2-0.5,0.3-0.6,0.5c-0.1,0.2-0.2,0.3-0.2,0.5
				l2.2,0l0,0.9l-3.2,0L152.8,59.6z"/>
			<path class="st0" d="M160.2,58.1c0.1,0.2,0.2,0.4,0.2,0.7c0,0.3-0.1,0.6-0.2,0.8c-0.1,0.2-0.3,0.4-0.6,0.5
				c-0.3,0.1-0.6,0.2-0.9,0.2c-0.3,0-0.6-0.1-0.9-0.2c-0.3-0.1-0.5-0.3-0.6-0.5c-0.1-0.2-0.2-0.5-0.2-0.8c0-0.3,0.1-0.5,0.2-0.7
				c0.1-0.2,0.3-0.4,0.5-0.5c-0.2-0.1-0.3-0.3-0.4-0.5c-0.1-0.2-0.1-0.4-0.1-0.6c0-0.3,0.1-0.5,0.2-0.7c0.1-0.2,0.3-0.4,0.6-0.5
				c0.2-0.1,0.5-0.2,0.8-0.2c0.3,0,0.6,0.1,0.8,0.2c0.2,0.1,0.4,0.3,0.6,0.5c0.1,0.2,0.2,0.4,0.2,0.7c0,0.2,0,0.4-0.1,0.6
				c-0.1,0.2-0.2,0.3-0.4,0.5C160,57.7,160.1,57.9,160.2,58.1z M159.3,59.2c0.1-0.1,0.2-0.3,0.2-0.5c0-0.2-0.1-0.4-0.2-0.5
				c-0.1-0.1-0.3-0.2-0.5-0.2c-0.2,0-0.4,0.1-0.5,0.2c-0.1,0.1-0.2,0.3-0.2,0.5c0,0.2,0.1,0.4,0.2,0.5c0.1,0.1,0.3,0.2,0.5,0.2
				C158.9,59.4,159.1,59.4,159.3,59.2z M158.2,56.1c-0.1,0.1-0.2,0.3-0.2,0.4c0,0.2,0.1,0.3,0.2,0.4c0.1,0.1,0.3,0.2,0.4,0.2
				c0.2,0,0.3-0.1,0.5-0.2c0.1-0.1,0.2-0.3,0.2-0.4c0-0.2-0.1-0.3-0.2-0.4c-0.1-0.1-0.3-0.2-0.5-0.2C158.5,56,158.4,56,158.2,56.1z"
				/>
		</g>
		<g>
			<path class="st0" d="M83.3,42.8l0,5l-1,0l0-3.9l-0.6,0.3l-0.4-0.8l1.4-0.6L83.3,42.8z"/>
			<path class="st0" d="M86.3,42.8l0,5l-1,0l0-3.9l-0.6,0.3l-0.4-0.8l1.4-0.6L86.3,42.8z"/>
			<path class="st0" d="M89.3,42.8l0,5l-1,0l0-3.9l-0.6,0.3l-0.4-0.8l1.4-0.6L89.3,42.8z"/>
			<path class="st0" d="M96.3,45.7c0.1,0.2,0.2,0.4,0.2,0.7c0,0.3-0.1,0.5-0.2,0.8c-0.1,0.2-0.3,0.4-0.6,0.5
				c-0.2,0.1-0.5,0.2-0.8,0.2l-2.1,0l0-5l2,0c0.3,0,0.6,0.1,0.8,0.2c0.2,0.1,0.4,0.3,0.6,0.5c0.1,0.2,0.2,0.4,0.2,0.7
				c0,0.3-0.1,0.5-0.2,0.7c-0.1,0.2-0.3,0.3-0.5,0.4C96,45.4,96.2,45.5,96.3,45.7z M93.9,43.7l0,1.2l0.9,0c0.2,0,0.4-0.1,0.5-0.2
				c0.1-0.1,0.2-0.2,0.2-0.4c0-0.2-0.1-0.3-0.2-0.4c-0.1-0.1-0.3-0.2-0.5-0.2L93.9,43.7z M95.4,46.8c0.1-0.1,0.2-0.3,0.2-0.5
				c0-0.2-0.1-0.3-0.2-0.5c-0.1-0.1-0.3-0.2-0.5-0.2l-1,0l0,1.3l1,0C95.1,47,95.2,46.9,95.4,46.8z"/>
			<path class="st0" d="M100.9,46.9l-2.4,0l-0.4,0.9l-1,0l2.2-5.1l0.8,0l2.2,5l-1,0L100.9,46.9z M100.5,46.1L99.7,44l-0.9,2.1
				L100.5,46.1z"/>
			<path class="st0" d="M106.6,45.7c0.1,0.2,0.2,0.4,0.2,0.7c0,0.3-0.1,0.5-0.2,0.8c-0.1,0.2-0.3,0.4-0.6,0.5s-0.5,0.2-0.8,0.2
				l-2.1,0l0-5l2,0c0.3,0,0.6,0.1,0.8,0.2c0.2,0.1,0.4,0.3,0.6,0.5c0.1,0.2,0.2,0.4,0.2,0.7c0,0.3-0.1,0.5-0.2,0.7
				c-0.1,0.2-0.3,0.3-0.5,0.4C106.3,45.4,106.4,45.5,106.6,45.7z M104.1,43.6l0,1.2l0.9,0c0.2,0,0.4-0.1,0.5-0.2
				c0.1-0.1,0.2-0.2,0.2-0.4c0-0.2-0.1-0.3-0.2-0.4c-0.1-0.1-0.3-0.2-0.5-0.2L104.1,43.6z M105.6,46.8c0.1-0.1,0.2-0.3,0.2-0.5
				c0-0.2-0.1-0.3-0.2-0.5c-0.1-0.1-0.3-0.2-0.5-0.2l-1,0l0,1.3l1,0C105.3,46.9,105.5,46.9,105.6,46.8z"/>
			<path class="st0" d="M111.2,47.7c-0.3,0.1-0.7,0.2-1,0.2c-0.5,0-0.9-0.1-1.3-0.3c-0.4-0.2-0.7-0.5-0.9-0.9
				c-0.2-0.4-0.4-0.8-0.4-1.3c0-0.5,0.1-0.9,0.3-1.3c0.2-0.4,0.5-0.7,0.9-0.9c0.4-0.2,0.8-0.3,1.3-0.3c0.4,0,0.7,0.1,1,0.2
				c0.3,0.1,0.6,0.3,0.8,0.6l-0.7,0.7c-0.3-0.3-0.7-0.5-1.1-0.5c-0.3,0-0.6,0.1-0.8,0.2c-0.2,0.1-0.4,0.3-0.6,0.6
				c-0.1,0.3-0.2,0.5-0.2,0.8c0,0.3,0.1,0.6,0.2,0.8c0.1,0.2,0.3,0.4,0.6,0.6c0.2,0.1,0.5,0.2,0.8,0.2c0.2,0,0.4,0,0.6-0.1
				c0.2-0.1,0.4-0.2,0.5-0.4l0.7,0.7C111.8,47.4,111.6,47.5,111.2,47.7z"/>
			<path class="st0" d="M114,47.5c-0.4-0.2-0.7-0.5-0.9-0.9c-0.2-0.4-0.3-0.8-0.3-1.3c0-0.5,0.1-0.9,0.3-1.3
				c0.2-0.4,0.5-0.7,0.9-0.9c0.4-0.2,0.8-0.4,1.3-0.4c0.5,0,0.9,0.1,1.3,0.4c0.4,0.2,0.7,0.6,0.9,1c0.2,0.4,0.4,0.8,0.4,1.3
				c0,0.5-0.1,0.9-0.3,1.3c-0.2,0.4-0.5,0.7-0.9,1c-0.4,0.2-0.8,0.4-1.3,0.4C114.8,47.9,114.4,47.8,114,47.5z M116.1,46.7
				c0.2-0.1,0.4-0.3,0.6-0.6s0.2-0.5,0.2-0.8c0-0.3-0.1-0.6-0.2-0.8c-0.1-0.3-0.3-0.5-0.6-0.6c-0.2-0.1-0.5-0.2-0.8-0.2
				c-0.3,0-0.6,0.1-0.8,0.2c-0.2,0.1-0.4,0.3-0.6,0.6c-0.1,0.3-0.2,0.5-0.2,0.8c0,0.3,0.1,0.6,0.2,0.8c0.1,0.3,0.3,0.5,0.6,0.6
				c0.2,0.1,0.5,0.2,0.8,0.2C115.6,46.9,115.9,46.9,116.1,46.7z"/>
			<path class="st0" d="M122.4,47.7c-0.3,0.1-0.7,0.2-1,0.2c-0.5,0-0.9-0.1-1.3-0.3c-0.4-0.2-0.7-0.5-0.9-0.9
				c-0.2-0.4-0.4-0.8-0.4-1.3c0-0.5,0.1-0.9,0.3-1.3c0.2-0.4,0.5-0.7,0.9-0.9c0.4-0.2,0.8-0.3,1.3-0.3c0.4,0,0.7,0.1,1,0.2
				c0.3,0.1,0.6,0.3,0.8,0.6l-0.7,0.7c-0.3-0.3-0.7-0.5-1.1-0.5c-0.3,0-0.6,0.1-0.8,0.2c-0.2,0.1-0.4,0.3-0.6,0.6
				c-0.1,0.3-0.2,0.5-0.2,0.8c0,0.3,0.1,0.6,0.2,0.8c0.1,0.2,0.3,0.4,0.6,0.6c0.2,0.1,0.5,0.2,0.8,0.2c0.2,0,0.4,0,0.6-0.1
				c0.2-0.1,0.4-0.2,0.5-0.4l0.7,0.7C123,47.3,122.7,47.5,122.4,47.7z"/>
			<path class="st0" d="M126.5,45.1l1.8,2.7l-1.2,0l-1.3-1.9l-0.6,0.8l0,1.1l-1,0l0-5l1,0l0,2.4l1.9-2.4l1.2,0L126.5,45.1z"/>
			<path class="st0" d="M135,45.7c0.1,0.2,0.2,0.4,0.2,0.7c0,0.3-0.1,0.5-0.2,0.8c-0.1,0.2-0.3,0.4-0.6,0.5
				c-0.2,0.1-0.5,0.2-0.8,0.2l-2.1,0l0-5l2,0c0.3,0,0.6,0.1,0.8,0.2c0.2,0.1,0.4,0.3,0.6,0.5c0.1,0.2,0.2,0.4,0.2,0.7
				c0,0.3-0.1,0.5-0.2,0.7c-0.1,0.2-0.3,0.3-0.5,0.4C134.7,45.3,134.9,45.5,135,45.7z M132.5,43.6l0,1.2l0.9,0
				c0.2,0,0.4-0.1,0.5-0.2c0.1-0.1,0.2-0.2,0.2-0.4c0-0.2-0.1-0.3-0.2-0.4c-0.1-0.1-0.3-0.2-0.5-0.2L132.5,43.6z M134,46.7
				c0.1-0.1,0.2-0.3,0.2-0.5c0-0.2-0.1-0.3-0.2-0.5c-0.1-0.1-0.3-0.2-0.5-0.2l-1,0l0,1.3l1,0C133.7,46.9,133.9,46.8,134,46.7z"/>
			<path class="st0" d="M139.6,46.8l0,0.9l-3.3,0l0-5l1,0l0,4.1L139.6,46.8z"/>
			<path class="st0" d="M144.8,42.7l-2.2,5.1l-0.8,0l-2.2-5l1,0l1.5,3.6l1.5-3.6L144.8,42.7z"/>
			<path class="st0" d="M148.7,43c0.4,0.2,0.7,0.5,0.9,0.9c0.2,0.4,0.3,0.8,0.3,1.3c0,0.5-0.1,0.9-0.3,1.3c-0.2,0.4-0.5,0.7-0.9,0.9
				c-0.4,0.2-0.8,0.3-1.3,0.3l-1.6,0l0-5l1.6,0C147.8,42.7,148.3,42.8,148.7,43z M148.1,46.6c0.2-0.1,0.4-0.3,0.6-0.6
				c0.1-0.2,0.2-0.5,0.2-0.8c0-0.3-0.1-0.6-0.2-0.8c-0.1-0.2-0.3-0.4-0.6-0.6c-0.2-0.1-0.5-0.2-0.8-0.2l-0.7,0l0,3.2l0.7,0
				C147.6,46.8,147.9,46.7,148.1,46.6z"/>
			<path class="st0" d="M152.8,42.7l1,0l1.3,3.3l1.1-3.3l0.6,0l1.2,3.3l1.2-3.3l1,0l-2,5.1l-0.7,0l-1.1-3.2l-1.2,3.2l-0.6,0
				L152.8,42.7z"/>
			<rect x="124.5" y="43.7" class="st1" width="0" height="1.3"/>
			<text transform="matrix(1 0 0 1 131.7111 46.348)" class="st2 st3">   </text>
		</g>
	</g>
	<path class="st4" d="M53.5,61.3H14.1c-4.5,0-8.2-3.7-8.2-8.2V13.2C5.9,8.7,9.6,5,14.1,5h39.4c4.5,0,8.2,3.7,8.2,8.2v39.9
		C61.7,57.6,58,61.3,53.5,61.3z"/>
	<g>
		<path class="st5" d="M24.2,49.7c-0.5,0.3-0.9-0.6-0.5-0.9c6.4-6.6,29.3-8.5,24.8-0.9c-0.1,1.5-0.6,1.5-0.6,1.5
			C48.7,47.2,35.3,43.1,24.2,49.7z"/>
		<g>
			<path class="st5" d="M24.4,37.8c0,0.4,0.5,0.4,0.6,0.1c1.6-4.9,3.3-15.6,1.6-18.9c-0.2-0.4-0.2-0.8-0.5-1.1
				c-0.2-0.2-0.1-0.4,0.2-0.4c3.8-0.1,3.1,4.8,2.9,7.2C29,27.6,26.8,40,25.4,41c-0.9,0.7-3.8,0.5-3.8-0.6c0-1.5-0.1-13.2-1.6-17.8
				c-0.4-1.2-0.8-2.3-2.3-2.3c-3.8,0.1-5.4,7.2-2.4,9.7c0.2,0.2,0.4,0.4,0.3,0.6c-0.1,0.2-0.3,0.2-0.5,0.2c-1.9-0.4-3.1-2.3-3.3-4.1
				c-0.6-4.3,2.4-8.2,6.7-7.6c1,0.1,2.5,0.7,3.2,1.3C23.8,22.4,24.3,33.3,24.4,37.8z"/>
			<g>
				<path class="st5" d="M32.9,21.6c2.9-0.2,0.9,3.1-0.5,3.9c-1.6,0.9-1.3-2.3-1-3.1C31.5,21.9,32.1,21.6,32.9,21.6z"/>
				<path class="st5" d="M47.8,37.1c-0.1-0.3-0.5-0.3-0.6,0c-0.2,0.7-0.5,1.3-0.9,1.8c-0.9,0.8-1.7,0.6-2.2-0.1
					c-0.1-0.2-0.4-0.2-0.6,0c-1.2,2.2-3.3,2.2-4.2-0.2c-0.1-0.3-0.4-0.3-0.6-0.1c-0.6,0.9-1.4,1.8-2.4,1.4c-0.8-0.2-1.2-1.5-1.5-2.5
					c-0.1-0.3-0.5-0.3-0.6-0.1c-0.2,0.4-0.4,0.9-0.5,1c-1.4,3.3-4.3,2.4-4.5-0.9c-0.2-2.3,0.1-4.5,0.6-6.8c0.1-1.1,1.3-1.1,2-0.9
					c0.9,0.3,0.4,1.4,0.3,2.1c-0.1,1-1.1,5.9-0.1,6.2c0.4,0,0.5-0.3,0.6-0.5c0.9-1.8,1.6-3.8,1.7-5.7c0-0.6,0.7-4,0.8-4.4
					c0.2-0.9,1.2-7.1,2.9-7.6c1.3-0.4,1.7,0.4,1.4,1.4c-0.3,0.9-1.7,5.5-1.9,6.4c-0.1,0.2-0.4,2.3-0.4,2.5c-0.2,2.3-0.6,4.7-0.1,7
					c0.1,0.3,0.2,1,0.6,1c0.9,0,1.4-3.4,1.5-4.1c0.3-2.3,1-5,3-6.4c0,0,0,0,0.1,0c1.1-0.6,2.2-0.2,2.6,0.9c0.1,0.2,0.2,0.3,0.4,0.3
					c0.7,0,0.8,0.2,0.8,0.8c0,2.4-0.7,4.8-0.6,7.2c0,0.2,0.1,0.8,0.3,0.8c0.6,0,1-2,1.1-2.5c0,0,0,0,0,0c0.8-4.2,0.5-9.1,1.9-13.3
					c0.4-1.8,2.6-6.5,4.9-4c0,0,0.1,0.1,0.1,0.1c1.6,4.1-2.1,10.5-3.6,14.4c-0.7,1.5-0.6,4.8,0.3,6.2c1.5,1.2,2.7-3.9,2.9-4.7
					c0.1-0.4,0.1-0.7,0.5-0.7c0.6,0.1,0.1,0.9,0.1,1.3c-0.4,2-0.7,4.2-2,5.8c0,0,0,0,0,0.1C49.9,41.9,48.4,39.3,47.8,37.1z M41.3,36
					c0,0.5-0.1,1.9,0.4,2.3c0.1,0.1,0.3,0.1,0.4,0c1.1-0.9,1.9-6.9,2.1-8.1c0-0.5,0.2-1.2-0.3-1.5c-0.1,0-0.1,0-0.2,0
					C42.1,29,41.3,34.8,41.3,36z M50.7,27.8c0.9-2.8,2-6.9,1.7-8.4c0-0.3-0.4-0.4-0.6-0.1c-0.8,1.4-1.4,5.5-1.7,8.4
					C50.1,28.1,50.6,28.2,50.7,27.8z"/>
				<path class="st5" d="M32.6,27.5c-0.1-0.2,0-0.4,0.3-0.4c1.6-0.2,8-1.1,8.1-0.7c0.2,0.4-1.5,1.6-1.8,1.7c0,0,0,0-0.1,0l-3.5,1.1
					c0,0-0.1,0-0.1,0C35.2,29.2,33.2,29,32.6,27.5z"/>
			</g>
		</g>
	</g>
</g>
</svg>
